G04 EAGLE Gerber RS-274X export*
G75*
%MOMM*%
%FSLAX34Y34*%
%LPD*%
%INBottom Copper*%
%IPPOS*%
%AMOC8*
5,1,8,0,0,1.08239X$1,22.5*%
G01*
G04 Define Apertures*
%ADD10C,1.524000*%
G36*
X96421Y-61068D02*
X95430Y-61269D01*
X-94642Y-61269D01*
X-95557Y-61098D01*
X-96409Y-60553D01*
X-96980Y-59719D01*
X-97182Y-58729D01*
X-97182Y53233D01*
X-96996Y54186D01*
X-96438Y55029D01*
X-84324Y67143D01*
X-83518Y67686D01*
X-82527Y67887D01*
X83316Y67887D01*
X84269Y67702D01*
X85112Y67143D01*
X97226Y55029D01*
X97769Y54224D01*
X97970Y53233D01*
X97970Y23242D01*
X97806Y22346D01*
X97268Y21490D01*
X96439Y20912D01*
X95450Y20703D01*
X94458Y20896D01*
X92169Y21844D01*
X73291Y21844D01*
X69930Y20452D01*
X67358Y17880D01*
X65966Y14519D01*
X65966Y10881D01*
X67358Y7520D01*
X69930Y4948D01*
X73291Y3556D01*
X92169Y3556D01*
X94458Y4504D01*
X95349Y4696D01*
X96345Y4527D01*
X97197Y3982D01*
X97769Y3148D01*
X97970Y2158D01*
X97970Y-2158D01*
X97806Y-3054D01*
X97268Y-3910D01*
X96439Y-4488D01*
X95450Y-4697D01*
X94458Y-4504D01*
X92169Y-3556D01*
X73291Y-3556D01*
X69930Y-4948D01*
X67358Y-7520D01*
X65966Y-10881D01*
X65966Y-14519D01*
X67358Y-17880D01*
X69930Y-20452D01*
X73291Y-21844D01*
X92169Y-21844D01*
X94458Y-20896D01*
X95349Y-20704D01*
X96345Y-20873D01*
X97197Y-21418D01*
X97769Y-22252D01*
X97970Y-23242D01*
X97970Y-58729D01*
X97799Y-59644D01*
X97254Y-60496D01*
X96421Y-61068D01*
G37*
D10*
X75110Y12700D02*
X90350Y12700D01*
X90350Y-12700D02*
X75110Y-12700D01*
M02*
