%TF.GenerationSoftware,KiCad,Pcbnew,7.0.6*%
%TF.CreationDate,2023-09-06T23:50:46-07:00*%
%TF.ProjectId,sgpp_main_pcb,73677070-5f6d-4616-996e-5f7063622e6b,1*%
%TF.SameCoordinates,Original*%
%TF.FileFunction,Drillmap*%
%TF.FilePolarity,Positive*%
%FSLAX45Y45*%
G04 Gerber Fmt 4.5, Leading zero omitted, Abs format (unit mm)*
G04 Created by KiCad (PCBNEW 7.0.6) date 2023-09-06 23:50:46*
%MOMM*%
%LPD*%
G01*
G04 APERTURE LIST*
%ADD10C,0.100000*%
%ADD11C,0.200000*%
%ADD12C,0.065000*%
G04 APERTURE END LIST*
D10*
X14652062Y-12353506D02*
G75*
G03*
X14742372Y-12239247I-46352J129456D01*
G01*
X14125964Y-7795232D02*
X13175964Y-7795232D01*
X21274064Y-11747987D02*
X21274064Y-11611856D01*
X15950000Y-12075759D02*
G75*
G03*
X15950000Y-12075759I-125000J0D01*
G01*
X8725938Y-10920208D02*
G75*
G03*
X8798159Y-11016273I100012J8D01*
G01*
X13075964Y-8295234D02*
G75*
G03*
X13125964Y-8245232I6J49994D01*
G01*
X15257917Y-12241439D02*
G75*
G03*
X15347937Y-12353508I136393J17369D01*
G01*
X8725936Y-9165932D02*
X8725936Y-10920208D01*
X15347937Y-12353509D02*
G75*
G03*
X15364801Y-12356438I16863J47069D01*
G01*
X9233000Y-9420743D02*
G75*
G03*
X9233000Y-9420743I-125000J0D01*
G01*
X21274064Y-10920208D02*
X21274064Y-9165932D01*
X8798158Y-11515807D02*
G75*
G03*
X8798159Y-11016274I-72218J249767D01*
G01*
X21017000Y-9420743D02*
G75*
G03*
X21017000Y-9420743I-125000J0D01*
G01*
X15257916Y-12241439D02*
G75*
G03*
X14742372Y-12239247I-257917J-32841D01*
G01*
X14175964Y-7693562D02*
X14175964Y-7745232D01*
X12375962Y-8133737D02*
G75*
G03*
X12325964Y-8083737I-50003J-3D01*
G01*
X18151182Y-8083737D02*
X17674036Y-8083737D01*
X17574036Y-8295226D02*
G75*
G03*
X17624036Y-8245232I4J49996D01*
G01*
X20665613Y-12356438D02*
X21274064Y-11747987D01*
X11426016Y-8368313D02*
X9223094Y-9096008D01*
X12325964Y-8083737D02*
X11848818Y-8083737D01*
X13175964Y-7795234D02*
G75*
G03*
X13125964Y-7845232I6J-50006D01*
G01*
X21201840Y-11016271D02*
G75*
G03*
X21201841Y-11515809I72220J-249769D01*
G01*
X17674036Y-8083736D02*
G75*
G03*
X17624036Y-8133737I4J-50004D01*
G01*
X15824038Y-7693562D02*
G75*
G03*
X15774036Y-7643562I-49998J2D01*
G01*
X21201842Y-11016278D02*
G75*
G03*
X21274064Y-10920208I-27782J96068D01*
G01*
X9223094Y-9096008D02*
X9174091Y-8947663D01*
X21204965Y-9070826D02*
X20825909Y-8947663D01*
X15824036Y-7745232D02*
X15824036Y-7693562D01*
X14635200Y-12356439D02*
G75*
G03*
X14652063Y-12353508I-10J50039D01*
G01*
X15125000Y-9270759D02*
G75*
G03*
X15125000Y-9270759I-125000J0D01*
G01*
X18182084Y-8088632D02*
G75*
G03*
X18151182Y-8083737I-30904J-95108D01*
G01*
X9174091Y-8947663D02*
X8795035Y-9070826D01*
X11817916Y-8088631D02*
X11380569Y-8230734D01*
X8798159Y-11515810D02*
G75*
G03*
X8725936Y-11611924I27771J-96060D01*
G01*
X14125964Y-7795234D02*
G75*
G03*
X14175964Y-7745232I6J49994D01*
G01*
X14225964Y-7643564D02*
G75*
G03*
X14175964Y-7693562I6J-50006D01*
G01*
X16874036Y-8245232D02*
X16874036Y-7845232D01*
X20776906Y-9096008D02*
X18573984Y-8368313D01*
X17624036Y-8133737D02*
X17624036Y-8245232D01*
X16874038Y-8245232D02*
G75*
G03*
X16924036Y-8295232I50002J2D01*
G01*
X17574036Y-8295232D02*
X16924036Y-8295232D01*
X13125964Y-7845232D02*
X13125964Y-8245232D01*
X21274060Y-9165932D02*
G75*
G03*
X21204965Y-9070826I-100000J2D01*
G01*
X11848818Y-8083738D02*
G75*
G03*
X11817916Y-8088632I-8J-99972D01*
G01*
X18332500Y-8675743D02*
G75*
G03*
X18332500Y-8675743I-232500J0D01*
G01*
X8725936Y-11747987D02*
X9334387Y-12356438D01*
X15824038Y-7745232D02*
G75*
G03*
X15874036Y-7795232I50002J2D01*
G01*
X15774036Y-7643562D02*
X14225964Y-7643562D01*
X12132500Y-8675743D02*
G75*
G03*
X12132500Y-8675743I-232500J0D01*
G01*
X18573984Y-8368313D02*
X18619431Y-8230734D01*
X21274057Y-11611856D02*
G75*
G03*
X21201841Y-11515809I-99997J-14D01*
G01*
X9334387Y-12356438D02*
X14635200Y-12356438D01*
X15364801Y-12356438D02*
X20665613Y-12356438D01*
X14586500Y-10915743D02*
G75*
G03*
X14586500Y-10915743I-107500J0D01*
G01*
X12375964Y-8245232D02*
X12375964Y-8133737D01*
X8795034Y-9070822D02*
G75*
G03*
X8725936Y-9165932I30906J-95109D01*
G01*
X13075964Y-8295232D02*
X12425964Y-8295232D01*
X20825909Y-8947663D02*
X20776906Y-9096008D01*
X16874038Y-7845232D02*
G75*
G03*
X16824036Y-7795232I-49998J2D01*
G01*
X12375968Y-8245232D02*
G75*
G03*
X12425964Y-8295232I49992J-8D01*
G01*
X11380569Y-8230734D02*
X11426016Y-8368313D01*
X14300000Y-12075759D02*
G75*
G03*
X14300000Y-12075759I-125000J0D01*
G01*
X16824036Y-7795232D02*
X15874036Y-7795232D01*
X8725936Y-11611924D02*
X8725936Y-11747987D01*
X18619431Y-8230734D02*
X18182084Y-8088631D01*
D11*
D12*
X14607500Y-8351742D02*
X14672500Y-8416743D01*
X14672500Y-8351742D02*
X14607500Y-8416743D01*
X15327500Y-8351742D02*
X15392500Y-8416743D01*
X15392500Y-8351742D02*
X15327500Y-8416743D01*
D11*
X8981713Y-12672922D02*
X8981713Y-12472922D01*
X8981713Y-12472922D02*
X9029332Y-12472922D01*
X9029332Y-12472922D02*
X9057903Y-12482446D01*
X9057903Y-12482446D02*
X9076951Y-12501494D01*
X9076951Y-12501494D02*
X9086475Y-12520541D01*
X9086475Y-12520541D02*
X9095998Y-12558636D01*
X9095998Y-12558636D02*
X9095998Y-12587208D01*
X9095998Y-12587208D02*
X9086475Y-12625303D01*
X9086475Y-12625303D02*
X9076951Y-12644351D01*
X9076951Y-12644351D02*
X9057903Y-12663398D01*
X9057903Y-12663398D02*
X9029332Y-12672922D01*
X9029332Y-12672922D02*
X8981713Y-12672922D01*
X9181713Y-12672922D02*
X9181713Y-12539589D01*
X9181713Y-12577684D02*
X9191237Y-12558636D01*
X9191237Y-12558636D02*
X9200760Y-12549113D01*
X9200760Y-12549113D02*
X9219808Y-12539589D01*
X9219808Y-12539589D02*
X9238856Y-12539589D01*
X9305522Y-12672922D02*
X9305522Y-12539589D01*
X9305522Y-12472922D02*
X9295998Y-12482446D01*
X9295998Y-12482446D02*
X9305522Y-12491970D01*
X9305522Y-12491970D02*
X9315046Y-12482446D01*
X9315046Y-12482446D02*
X9305522Y-12472922D01*
X9305522Y-12472922D02*
X9305522Y-12491970D01*
X9429332Y-12672922D02*
X9410284Y-12663398D01*
X9410284Y-12663398D02*
X9400760Y-12644351D01*
X9400760Y-12644351D02*
X9400760Y-12472922D01*
X9534094Y-12672922D02*
X9515046Y-12663398D01*
X9515046Y-12663398D02*
X9505522Y-12644351D01*
X9505522Y-12644351D02*
X9505522Y-12472922D01*
X9762665Y-12672922D02*
X9762665Y-12472922D01*
X9762665Y-12472922D02*
X9829332Y-12615779D01*
X9829332Y-12615779D02*
X9895998Y-12472922D01*
X9895998Y-12472922D02*
X9895998Y-12672922D01*
X10076951Y-12672922D02*
X10076951Y-12568160D01*
X10076951Y-12568160D02*
X10067427Y-12549113D01*
X10067427Y-12549113D02*
X10048379Y-12539589D01*
X10048379Y-12539589D02*
X10010284Y-12539589D01*
X10010284Y-12539589D02*
X9991237Y-12549113D01*
X10076951Y-12663398D02*
X10057903Y-12672922D01*
X10057903Y-12672922D02*
X10010284Y-12672922D01*
X10010284Y-12672922D02*
X9991237Y-12663398D01*
X9991237Y-12663398D02*
X9981713Y-12644351D01*
X9981713Y-12644351D02*
X9981713Y-12625303D01*
X9981713Y-12625303D02*
X9991237Y-12606255D01*
X9991237Y-12606255D02*
X10010284Y-12596732D01*
X10010284Y-12596732D02*
X10057903Y-12596732D01*
X10057903Y-12596732D02*
X10076951Y-12587208D01*
X10172189Y-12539589D02*
X10172189Y-12739589D01*
X10172189Y-12549113D02*
X10191237Y-12539589D01*
X10191237Y-12539589D02*
X10229332Y-12539589D01*
X10229332Y-12539589D02*
X10248379Y-12549113D01*
X10248379Y-12549113D02*
X10257903Y-12558636D01*
X10257903Y-12558636D02*
X10267427Y-12577684D01*
X10267427Y-12577684D02*
X10267427Y-12634827D01*
X10267427Y-12634827D02*
X10257903Y-12653874D01*
X10257903Y-12653874D02*
X10248379Y-12663398D01*
X10248379Y-12663398D02*
X10229332Y-12672922D01*
X10229332Y-12672922D02*
X10191237Y-12672922D01*
X10191237Y-12672922D02*
X10172189Y-12663398D01*
X10353141Y-12653874D02*
X10362665Y-12663398D01*
X10362665Y-12663398D02*
X10353141Y-12672922D01*
X10353141Y-12672922D02*
X10343618Y-12663398D01*
X10343618Y-12663398D02*
X10353141Y-12653874D01*
X10353141Y-12653874D02*
X10353141Y-12672922D01*
X10353141Y-12549113D02*
X10362665Y-12558636D01*
X10362665Y-12558636D02*
X10353141Y-12568160D01*
X10353141Y-12568160D02*
X10343618Y-12558636D01*
X10343618Y-12558636D02*
X10353141Y-12549113D01*
X10353141Y-12549113D02*
X10353141Y-12568160D01*
D12*
X8655936Y-12968938D02*
X8720936Y-13033938D01*
X8720936Y-12968938D02*
X8655936Y-13033938D01*
D11*
X9019808Y-12892922D02*
X9038856Y-12892922D01*
X9038856Y-12892922D02*
X9057903Y-12902446D01*
X9057903Y-12902446D02*
X9067427Y-12911970D01*
X9067427Y-12911970D02*
X9076951Y-12931017D01*
X9076951Y-12931017D02*
X9086475Y-12969113D01*
X9086475Y-12969113D02*
X9086475Y-13016732D01*
X9086475Y-13016732D02*
X9076951Y-13054827D01*
X9076951Y-13054827D02*
X9067427Y-13073874D01*
X9067427Y-13073874D02*
X9057903Y-13083398D01*
X9057903Y-13083398D02*
X9038856Y-13092922D01*
X9038856Y-13092922D02*
X9019808Y-13092922D01*
X9019808Y-13092922D02*
X9000760Y-13083398D01*
X9000760Y-13083398D02*
X8991237Y-13073874D01*
X8991237Y-13073874D02*
X8981713Y-13054827D01*
X8981713Y-13054827D02*
X8972189Y-13016732D01*
X8972189Y-13016732D02*
X8972189Y-12969113D01*
X8972189Y-12969113D02*
X8981713Y-12931017D01*
X8981713Y-12931017D02*
X8991237Y-12911970D01*
X8991237Y-12911970D02*
X9000760Y-12902446D01*
X9000760Y-12902446D02*
X9019808Y-12892922D01*
X9172189Y-13073874D02*
X9181713Y-13083398D01*
X9181713Y-13083398D02*
X9172189Y-13092922D01*
X9172189Y-13092922D02*
X9162665Y-13083398D01*
X9162665Y-13083398D02*
X9172189Y-13073874D01*
X9172189Y-13073874D02*
X9172189Y-13092922D01*
X9353141Y-12892922D02*
X9315046Y-12892922D01*
X9315046Y-12892922D02*
X9295998Y-12902446D01*
X9295998Y-12902446D02*
X9286475Y-12911970D01*
X9286475Y-12911970D02*
X9267427Y-12940541D01*
X9267427Y-12940541D02*
X9257903Y-12978636D01*
X9257903Y-12978636D02*
X9257903Y-13054827D01*
X9257903Y-13054827D02*
X9267427Y-13073874D01*
X9267427Y-13073874D02*
X9276951Y-13083398D01*
X9276951Y-13083398D02*
X9295998Y-13092922D01*
X9295998Y-13092922D02*
X9334094Y-13092922D01*
X9334094Y-13092922D02*
X9353141Y-13083398D01*
X9353141Y-13083398D02*
X9362665Y-13073874D01*
X9362665Y-13073874D02*
X9372189Y-13054827D01*
X9372189Y-13054827D02*
X9372189Y-13007208D01*
X9372189Y-13007208D02*
X9362665Y-12988160D01*
X9362665Y-12988160D02*
X9353141Y-12978636D01*
X9353141Y-12978636D02*
X9334094Y-12969113D01*
X9334094Y-12969113D02*
X9295998Y-12969113D01*
X9295998Y-12969113D02*
X9276951Y-12978636D01*
X9276951Y-12978636D02*
X9267427Y-12988160D01*
X9267427Y-12988160D02*
X9257903Y-13007208D01*
X9553141Y-12892922D02*
X9457903Y-12892922D01*
X9457903Y-12892922D02*
X9448379Y-12988160D01*
X9448379Y-12988160D02*
X9457903Y-12978636D01*
X9457903Y-12978636D02*
X9476951Y-12969113D01*
X9476951Y-12969113D02*
X9524570Y-12969113D01*
X9524570Y-12969113D02*
X9543618Y-12978636D01*
X9543618Y-12978636D02*
X9553141Y-12988160D01*
X9553141Y-12988160D02*
X9562665Y-13007208D01*
X9562665Y-13007208D02*
X9562665Y-13054827D01*
X9562665Y-13054827D02*
X9553141Y-13073874D01*
X9553141Y-13073874D02*
X9543618Y-13083398D01*
X9543618Y-13083398D02*
X9524570Y-13092922D01*
X9524570Y-13092922D02*
X9476951Y-13092922D01*
X9476951Y-13092922D02*
X9457903Y-13083398D01*
X9457903Y-13083398D02*
X9448379Y-13073874D01*
X9686475Y-12892922D02*
X9705522Y-12892922D01*
X9705522Y-12892922D02*
X9724570Y-12902446D01*
X9724570Y-12902446D02*
X9734094Y-12911970D01*
X9734094Y-12911970D02*
X9743618Y-12931017D01*
X9743618Y-12931017D02*
X9753141Y-12969113D01*
X9753141Y-12969113D02*
X9753141Y-13016732D01*
X9753141Y-13016732D02*
X9743618Y-13054827D01*
X9743618Y-13054827D02*
X9734094Y-13073874D01*
X9734094Y-13073874D02*
X9724570Y-13083398D01*
X9724570Y-13083398D02*
X9705522Y-13092922D01*
X9705522Y-13092922D02*
X9686475Y-13092922D01*
X9686475Y-13092922D02*
X9667427Y-13083398D01*
X9667427Y-13083398D02*
X9657903Y-13073874D01*
X9657903Y-13073874D02*
X9648379Y-13054827D01*
X9648379Y-13054827D02*
X9638856Y-13016732D01*
X9638856Y-13016732D02*
X9638856Y-12969113D01*
X9638856Y-12969113D02*
X9648379Y-12931017D01*
X9648379Y-12931017D02*
X9657903Y-12911970D01*
X9657903Y-12911970D02*
X9667427Y-12902446D01*
X9667427Y-12902446D02*
X9686475Y-12892922D01*
X9838856Y-13092922D02*
X9838856Y-12959589D01*
X9838856Y-12978636D02*
X9848379Y-12969113D01*
X9848379Y-12969113D02*
X9867427Y-12959589D01*
X9867427Y-12959589D02*
X9895999Y-12959589D01*
X9895999Y-12959589D02*
X9915046Y-12969113D01*
X9915046Y-12969113D02*
X9924570Y-12988160D01*
X9924570Y-12988160D02*
X9924570Y-13092922D01*
X9924570Y-12988160D02*
X9934094Y-12969113D01*
X9934094Y-12969113D02*
X9953141Y-12959589D01*
X9953141Y-12959589D02*
X9981713Y-12959589D01*
X9981713Y-12959589D02*
X10000760Y-12969113D01*
X10000760Y-12969113D02*
X10010284Y-12988160D01*
X10010284Y-12988160D02*
X10010284Y-13092922D01*
X10105522Y-13092922D02*
X10105522Y-12959589D01*
X10105522Y-12978636D02*
X10115046Y-12969113D01*
X10115046Y-12969113D02*
X10134094Y-12959589D01*
X10134094Y-12959589D02*
X10162665Y-12959589D01*
X10162665Y-12959589D02*
X10181713Y-12969113D01*
X10181713Y-12969113D02*
X10191237Y-12988160D01*
X10191237Y-12988160D02*
X10191237Y-13092922D01*
X10191237Y-12988160D02*
X10200760Y-12969113D01*
X10200760Y-12969113D02*
X10219808Y-12959589D01*
X10219808Y-12959589D02*
X10248379Y-12959589D01*
X10248379Y-12959589D02*
X10267427Y-12969113D01*
X10267427Y-12969113D02*
X10276951Y-12988160D01*
X10276951Y-12988160D02*
X10276951Y-13092922D01*
X10667427Y-12883398D02*
X10495999Y-13140541D01*
X10924570Y-12892922D02*
X10943618Y-12892922D01*
X10943618Y-12892922D02*
X10962665Y-12902446D01*
X10962665Y-12902446D02*
X10972189Y-12911970D01*
X10972189Y-12911970D02*
X10981713Y-12931017D01*
X10981713Y-12931017D02*
X10991237Y-12969113D01*
X10991237Y-12969113D02*
X10991237Y-13016732D01*
X10991237Y-13016732D02*
X10981713Y-13054827D01*
X10981713Y-13054827D02*
X10972189Y-13073874D01*
X10972189Y-13073874D02*
X10962665Y-13083398D01*
X10962665Y-13083398D02*
X10943618Y-13092922D01*
X10943618Y-13092922D02*
X10924570Y-13092922D01*
X10924570Y-13092922D02*
X10905522Y-13083398D01*
X10905522Y-13083398D02*
X10895999Y-13073874D01*
X10895999Y-13073874D02*
X10886475Y-13054827D01*
X10886475Y-13054827D02*
X10876951Y-13016732D01*
X10876951Y-13016732D02*
X10876951Y-12969113D01*
X10876951Y-12969113D02*
X10886475Y-12931017D01*
X10886475Y-12931017D02*
X10895999Y-12911970D01*
X10895999Y-12911970D02*
X10905522Y-12902446D01*
X10905522Y-12902446D02*
X10924570Y-12892922D01*
X11076951Y-13073874D02*
X11086475Y-13083398D01*
X11086475Y-13083398D02*
X11076951Y-13092922D01*
X11076951Y-13092922D02*
X11067427Y-13083398D01*
X11067427Y-13083398D02*
X11076951Y-13073874D01*
X11076951Y-13073874D02*
X11076951Y-13092922D01*
X11210284Y-12892922D02*
X11229332Y-12892922D01*
X11229332Y-12892922D02*
X11248380Y-12902446D01*
X11248380Y-12902446D02*
X11257903Y-12911970D01*
X11257903Y-12911970D02*
X11267427Y-12931017D01*
X11267427Y-12931017D02*
X11276951Y-12969113D01*
X11276951Y-12969113D02*
X11276951Y-13016732D01*
X11276951Y-13016732D02*
X11267427Y-13054827D01*
X11267427Y-13054827D02*
X11257903Y-13073874D01*
X11257903Y-13073874D02*
X11248380Y-13083398D01*
X11248380Y-13083398D02*
X11229332Y-13092922D01*
X11229332Y-13092922D02*
X11210284Y-13092922D01*
X11210284Y-13092922D02*
X11191237Y-13083398D01*
X11191237Y-13083398D02*
X11181713Y-13073874D01*
X11181713Y-13073874D02*
X11172189Y-13054827D01*
X11172189Y-13054827D02*
X11162665Y-13016732D01*
X11162665Y-13016732D02*
X11162665Y-12969113D01*
X11162665Y-12969113D02*
X11172189Y-12931017D01*
X11172189Y-12931017D02*
X11181713Y-12911970D01*
X11181713Y-12911970D02*
X11191237Y-12902446D01*
X11191237Y-12902446D02*
X11210284Y-12892922D01*
X11353141Y-12911970D02*
X11362665Y-12902446D01*
X11362665Y-12902446D02*
X11381713Y-12892922D01*
X11381713Y-12892922D02*
X11429332Y-12892922D01*
X11429332Y-12892922D02*
X11448380Y-12902446D01*
X11448380Y-12902446D02*
X11457903Y-12911970D01*
X11457903Y-12911970D02*
X11467427Y-12931017D01*
X11467427Y-12931017D02*
X11467427Y-12950065D01*
X11467427Y-12950065D02*
X11457903Y-12978636D01*
X11457903Y-12978636D02*
X11343618Y-13092922D01*
X11343618Y-13092922D02*
X11467427Y-13092922D01*
X11648380Y-12892922D02*
X11553141Y-12892922D01*
X11553141Y-12892922D02*
X11543618Y-12988160D01*
X11543618Y-12988160D02*
X11553141Y-12978636D01*
X11553141Y-12978636D02*
X11572189Y-12969113D01*
X11572189Y-12969113D02*
X11619808Y-12969113D01*
X11619808Y-12969113D02*
X11638856Y-12978636D01*
X11638856Y-12978636D02*
X11648380Y-12988160D01*
X11648380Y-12988160D02*
X11657903Y-13007208D01*
X11657903Y-13007208D02*
X11657903Y-13054827D01*
X11657903Y-13054827D02*
X11648380Y-13073874D01*
X11648380Y-13073874D02*
X11638856Y-13083398D01*
X11638856Y-13083398D02*
X11619808Y-13092922D01*
X11619808Y-13092922D02*
X11572189Y-13092922D01*
X11572189Y-13092922D02*
X11553141Y-13083398D01*
X11553141Y-13083398D02*
X11543618Y-13073874D01*
X11829332Y-12892922D02*
X11791237Y-12892922D01*
X11791237Y-12892922D02*
X11772189Y-12902446D01*
X11772189Y-12902446D02*
X11762665Y-12911970D01*
X11762665Y-12911970D02*
X11743618Y-12940541D01*
X11743618Y-12940541D02*
X11734094Y-12978636D01*
X11734094Y-12978636D02*
X11734094Y-13054827D01*
X11734094Y-13054827D02*
X11743618Y-13073874D01*
X11743618Y-13073874D02*
X11753141Y-13083398D01*
X11753141Y-13083398D02*
X11772189Y-13092922D01*
X11772189Y-13092922D02*
X11810284Y-13092922D01*
X11810284Y-13092922D02*
X11829332Y-13083398D01*
X11829332Y-13083398D02*
X11838856Y-13073874D01*
X11838856Y-13073874D02*
X11848380Y-13054827D01*
X11848380Y-13054827D02*
X11848380Y-13007208D01*
X11848380Y-13007208D02*
X11838856Y-12988160D01*
X11838856Y-12988160D02*
X11829332Y-12978636D01*
X11829332Y-12978636D02*
X11810284Y-12969113D01*
X11810284Y-12969113D02*
X11772189Y-12969113D01*
X11772189Y-12969113D02*
X11753141Y-12978636D01*
X11753141Y-12978636D02*
X11743618Y-12988160D01*
X11743618Y-12988160D02*
X11734094Y-13007208D01*
X11924570Y-12892922D02*
X11924570Y-12931017D01*
X12000761Y-12892922D02*
X12000761Y-12931017D01*
X12295999Y-13169113D02*
X12286475Y-13159589D01*
X12286475Y-13159589D02*
X12267427Y-13131017D01*
X12267427Y-13131017D02*
X12257903Y-13111970D01*
X12257903Y-13111970D02*
X12248380Y-13083398D01*
X12248380Y-13083398D02*
X12238856Y-13035779D01*
X12238856Y-13035779D02*
X12238856Y-12997684D01*
X12238856Y-12997684D02*
X12248380Y-12950065D01*
X12248380Y-12950065D02*
X12257903Y-12921494D01*
X12257903Y-12921494D02*
X12267427Y-12902446D01*
X12267427Y-12902446D02*
X12286475Y-12873874D01*
X12286475Y-12873874D02*
X12295999Y-12864351D01*
X12362665Y-12911970D02*
X12372189Y-12902446D01*
X12372189Y-12902446D02*
X12391237Y-12892922D01*
X12391237Y-12892922D02*
X12438856Y-12892922D01*
X12438856Y-12892922D02*
X12457903Y-12902446D01*
X12457903Y-12902446D02*
X12467427Y-12911970D01*
X12467427Y-12911970D02*
X12476951Y-12931017D01*
X12476951Y-12931017D02*
X12476951Y-12950065D01*
X12476951Y-12950065D02*
X12467427Y-12978636D01*
X12467427Y-12978636D02*
X12353142Y-13092922D01*
X12353142Y-13092922D02*
X12476951Y-13092922D01*
X12715046Y-13092922D02*
X12715046Y-12892922D01*
X12800761Y-13092922D02*
X12800761Y-12988160D01*
X12800761Y-12988160D02*
X12791237Y-12969113D01*
X12791237Y-12969113D02*
X12772189Y-12959589D01*
X12772189Y-12959589D02*
X12743618Y-12959589D01*
X12743618Y-12959589D02*
X12724570Y-12969113D01*
X12724570Y-12969113D02*
X12715046Y-12978636D01*
X12924570Y-13092922D02*
X12905523Y-13083398D01*
X12905523Y-13083398D02*
X12895999Y-13073874D01*
X12895999Y-13073874D02*
X12886475Y-13054827D01*
X12886475Y-13054827D02*
X12886475Y-12997684D01*
X12886475Y-12997684D02*
X12895999Y-12978636D01*
X12895999Y-12978636D02*
X12905523Y-12969113D01*
X12905523Y-12969113D02*
X12924570Y-12959589D01*
X12924570Y-12959589D02*
X12953142Y-12959589D01*
X12953142Y-12959589D02*
X12972189Y-12969113D01*
X12972189Y-12969113D02*
X12981713Y-12978636D01*
X12981713Y-12978636D02*
X12991237Y-12997684D01*
X12991237Y-12997684D02*
X12991237Y-13054827D01*
X12991237Y-13054827D02*
X12981713Y-13073874D01*
X12981713Y-13073874D02*
X12972189Y-13083398D01*
X12972189Y-13083398D02*
X12953142Y-13092922D01*
X12953142Y-13092922D02*
X12924570Y-13092922D01*
X13105523Y-13092922D02*
X13086475Y-13083398D01*
X13086475Y-13083398D02*
X13076951Y-13064351D01*
X13076951Y-13064351D02*
X13076951Y-12892922D01*
X13257904Y-13083398D02*
X13238856Y-13092922D01*
X13238856Y-13092922D02*
X13200761Y-13092922D01*
X13200761Y-13092922D02*
X13181713Y-13083398D01*
X13181713Y-13083398D02*
X13172189Y-13064351D01*
X13172189Y-13064351D02*
X13172189Y-12988160D01*
X13172189Y-12988160D02*
X13181713Y-12969113D01*
X13181713Y-12969113D02*
X13200761Y-12959589D01*
X13200761Y-12959589D02*
X13238856Y-12959589D01*
X13238856Y-12959589D02*
X13257904Y-12969113D01*
X13257904Y-12969113D02*
X13267427Y-12988160D01*
X13267427Y-12988160D02*
X13267427Y-13007208D01*
X13267427Y-13007208D02*
X13172189Y-13026255D01*
X13343618Y-13083398D02*
X13362665Y-13092922D01*
X13362665Y-13092922D02*
X13400761Y-13092922D01*
X13400761Y-13092922D02*
X13419808Y-13083398D01*
X13419808Y-13083398D02*
X13429332Y-13064351D01*
X13429332Y-13064351D02*
X13429332Y-13054827D01*
X13429332Y-13054827D02*
X13419808Y-13035779D01*
X13419808Y-13035779D02*
X13400761Y-13026255D01*
X13400761Y-13026255D02*
X13372189Y-13026255D01*
X13372189Y-13026255D02*
X13353142Y-13016732D01*
X13353142Y-13016732D02*
X13343618Y-12997684D01*
X13343618Y-12997684D02*
X13343618Y-12988160D01*
X13343618Y-12988160D02*
X13353142Y-12969113D01*
X13353142Y-12969113D02*
X13372189Y-12959589D01*
X13372189Y-12959589D02*
X13400761Y-12959589D01*
X13400761Y-12959589D02*
X13419808Y-12969113D01*
X13495999Y-13169113D02*
X13505523Y-13159589D01*
X13505523Y-13159589D02*
X13524570Y-13131017D01*
X13524570Y-13131017D02*
X13534094Y-13111970D01*
X13534094Y-13111970D02*
X13543618Y-13083398D01*
X13543618Y-13083398D02*
X13553142Y-13035779D01*
X13553142Y-13035779D02*
X13553142Y-12997684D01*
X13553142Y-12997684D02*
X13543618Y-12950065D01*
X13543618Y-12950065D02*
X13534094Y-12921494D01*
X13534094Y-12921494D02*
X13524570Y-12902446D01*
X13524570Y-12902446D02*
X13505523Y-12873874D01*
X13505523Y-12873874D02*
X13495999Y-12864351D01*
X13857904Y-13169113D02*
X13848380Y-13159589D01*
X13848380Y-13159589D02*
X13829332Y-13131017D01*
X13829332Y-13131017D02*
X13819808Y-13111970D01*
X13819808Y-13111970D02*
X13810285Y-13083398D01*
X13810285Y-13083398D02*
X13800761Y-13035779D01*
X13800761Y-13035779D02*
X13800761Y-12997684D01*
X13800761Y-12997684D02*
X13810285Y-12950065D01*
X13810285Y-12950065D02*
X13819808Y-12921494D01*
X13819808Y-12921494D02*
X13829332Y-12902446D01*
X13829332Y-12902446D02*
X13848380Y-12873874D01*
X13848380Y-12873874D02*
X13857904Y-12864351D01*
X13934094Y-12959589D02*
X13934094Y-13092922D01*
X13934094Y-12978636D02*
X13943618Y-12969113D01*
X13943618Y-12969113D02*
X13962665Y-12959589D01*
X13962665Y-12959589D02*
X13991237Y-12959589D01*
X13991237Y-12959589D02*
X14010285Y-12969113D01*
X14010285Y-12969113D02*
X14019808Y-12988160D01*
X14019808Y-12988160D02*
X14019808Y-13092922D01*
X14143618Y-13092922D02*
X14124570Y-13083398D01*
X14124570Y-13083398D02*
X14115046Y-13073874D01*
X14115046Y-13073874D02*
X14105523Y-13054827D01*
X14105523Y-13054827D02*
X14105523Y-12997684D01*
X14105523Y-12997684D02*
X14115046Y-12978636D01*
X14115046Y-12978636D02*
X14124570Y-12969113D01*
X14124570Y-12969113D02*
X14143618Y-12959589D01*
X14143618Y-12959589D02*
X14172189Y-12959589D01*
X14172189Y-12959589D02*
X14191237Y-12969113D01*
X14191237Y-12969113D02*
X14200761Y-12978636D01*
X14200761Y-12978636D02*
X14210285Y-12997684D01*
X14210285Y-12997684D02*
X14210285Y-13054827D01*
X14210285Y-13054827D02*
X14200761Y-13073874D01*
X14200761Y-13073874D02*
X14191237Y-13083398D01*
X14191237Y-13083398D02*
X14172189Y-13092922D01*
X14172189Y-13092922D02*
X14143618Y-13092922D01*
X14267427Y-12959589D02*
X14343618Y-12959589D01*
X14295999Y-12892922D02*
X14295999Y-13064351D01*
X14295999Y-13064351D02*
X14305523Y-13083398D01*
X14305523Y-13083398D02*
X14324570Y-13092922D01*
X14324570Y-13092922D02*
X14343618Y-13092922D01*
X14562666Y-12959589D02*
X14562666Y-13159589D01*
X14562666Y-12969113D02*
X14581713Y-12959589D01*
X14581713Y-12959589D02*
X14619808Y-12959589D01*
X14619808Y-12959589D02*
X14638856Y-12969113D01*
X14638856Y-12969113D02*
X14648380Y-12978636D01*
X14648380Y-12978636D02*
X14657904Y-12997684D01*
X14657904Y-12997684D02*
X14657904Y-13054827D01*
X14657904Y-13054827D02*
X14648380Y-13073874D01*
X14648380Y-13073874D02*
X14638856Y-13083398D01*
X14638856Y-13083398D02*
X14619808Y-13092922D01*
X14619808Y-13092922D02*
X14581713Y-13092922D01*
X14581713Y-13092922D02*
X14562666Y-13083398D01*
X14772189Y-13092922D02*
X14753142Y-13083398D01*
X14753142Y-13083398D02*
X14743618Y-13064351D01*
X14743618Y-13064351D02*
X14743618Y-12892922D01*
X14934094Y-13092922D02*
X14934094Y-12988160D01*
X14934094Y-12988160D02*
X14924570Y-12969113D01*
X14924570Y-12969113D02*
X14905523Y-12959589D01*
X14905523Y-12959589D02*
X14867427Y-12959589D01*
X14867427Y-12959589D02*
X14848380Y-12969113D01*
X14934094Y-13083398D02*
X14915047Y-13092922D01*
X14915047Y-13092922D02*
X14867427Y-13092922D01*
X14867427Y-13092922D02*
X14848380Y-13083398D01*
X14848380Y-13083398D02*
X14838856Y-13064351D01*
X14838856Y-13064351D02*
X14838856Y-13045303D01*
X14838856Y-13045303D02*
X14848380Y-13026255D01*
X14848380Y-13026255D02*
X14867427Y-13016732D01*
X14867427Y-13016732D02*
X14915047Y-13016732D01*
X14915047Y-13016732D02*
X14934094Y-13007208D01*
X15000761Y-12959589D02*
X15076951Y-12959589D01*
X15029332Y-12892922D02*
X15029332Y-13064351D01*
X15029332Y-13064351D02*
X15038856Y-13083398D01*
X15038856Y-13083398D02*
X15057904Y-13092922D01*
X15057904Y-13092922D02*
X15076951Y-13092922D01*
X15219808Y-13083398D02*
X15200761Y-13092922D01*
X15200761Y-13092922D02*
X15162666Y-13092922D01*
X15162666Y-13092922D02*
X15143618Y-13083398D01*
X15143618Y-13083398D02*
X15134094Y-13064351D01*
X15134094Y-13064351D02*
X15134094Y-12988160D01*
X15134094Y-12988160D02*
X15143618Y-12969113D01*
X15143618Y-12969113D02*
X15162666Y-12959589D01*
X15162666Y-12959589D02*
X15200761Y-12959589D01*
X15200761Y-12959589D02*
X15219808Y-12969113D01*
X15219808Y-12969113D02*
X15229332Y-12988160D01*
X15229332Y-12988160D02*
X15229332Y-13007208D01*
X15229332Y-13007208D02*
X15134094Y-13026255D01*
X15400761Y-13092922D02*
X15400761Y-12892922D01*
X15400761Y-13083398D02*
X15381713Y-13092922D01*
X15381713Y-13092922D02*
X15343618Y-13092922D01*
X15343618Y-13092922D02*
X15324570Y-13083398D01*
X15324570Y-13083398D02*
X15315047Y-13073874D01*
X15315047Y-13073874D02*
X15305523Y-13054827D01*
X15305523Y-13054827D02*
X15305523Y-12997684D01*
X15305523Y-12997684D02*
X15315047Y-12978636D01*
X15315047Y-12978636D02*
X15324570Y-12969113D01*
X15324570Y-12969113D02*
X15343618Y-12959589D01*
X15343618Y-12959589D02*
X15381713Y-12959589D01*
X15381713Y-12959589D02*
X15400761Y-12969113D01*
X15476951Y-13169113D02*
X15486475Y-13159589D01*
X15486475Y-13159589D02*
X15505523Y-13131017D01*
X15505523Y-13131017D02*
X15515047Y-13111970D01*
X15515047Y-13111970D02*
X15524570Y-13083398D01*
X15524570Y-13083398D02*
X15534094Y-13035779D01*
X15534094Y-13035779D02*
X15534094Y-12997684D01*
X15534094Y-12997684D02*
X15524570Y-12950065D01*
X15524570Y-12950065D02*
X15515047Y-12921494D01*
X15515047Y-12921494D02*
X15505523Y-12902446D01*
X15505523Y-12902446D02*
X15486475Y-12873874D01*
X15486475Y-12873874D02*
X15476951Y-12864351D01*
M02*
