M48
; DRILL file {KiCad 7.0.6} date Fri Dec 22 13:04:09 2023
; FORMAT={-:-/ absolute / inch / decimal}
; #@! TF.CreationDate,2023-12-22T13:04:09-08:00
; #@! TF.GenerationSoftware,Kicad,Pcbnew,7.0.6
; #@! TF.FileFunction,Plated,1,4,PTH
FMAT,2
INCH
; #@! TA.AperFunction,Plated,PTH,ViaDrill
T1C0.0138
; #@! TA.AperFunction,Plated,PTH,ViaDrill
T2C0.0157
; #@! TA.AperFunction,Plated,PTH,ComponentDrill
T3C0.0157
; #@! TA.AperFunction,Plated,PTH,ComponentDrill
T4C0.0197
; #@! TA.AperFunction,Plated,PTH,ComponentDrill
T5C0.0315
; #@! TA.AperFunction,Plated,PTH,ViaDrill
T6C0.0394
%
G90
G05
T1
X3.4734Y-3.9813
X3.519Y-4.069
X3.5197Y-4.1289
X3.559Y-4.233
X3.5669Y-4.1289
X3.569Y-4.07
X3.594Y-4.232
X3.6132Y-3.9813
X4.091Y-4.183
X4.221Y-4.32
X4.373Y-3.939
X4.4261Y-4.0132
X4.4729Y-3.8663
X4.5196Y-3.8656
X4.5659Y-3.9947
X4.646Y-3.843
X4.79Y-3.521
X4.798Y-4.127
X4.96Y-4.191
X4.971Y-4.093
X5.024Y-4.613
X5.025Y-4.216
X5.026Y-4.427
X5.026Y-4.648
X5.056Y-3.413
X5.059Y-4.218
X5.077Y-3.323
X5.091Y-3.413
X5.092Y-4.346
X5.234Y-3.641
X5.2494Y-3.3696
X5.255Y-3.613
X5.269Y-3.641
X5.284Y-4.346
X5.334Y-3.655
X5.347Y-3.688
X5.3573Y-3.492
X5.358Y-3.428
X5.372Y-3.664
X5.509Y-4.102
X5.54Y-3.918
X5.598Y-4.088
X5.62Y-4.118
X5.635Y-4.184
X5.651Y-3.92
X5.71Y-4.062
X5.7271Y-3.4341
X5.7329Y-3.5341
X5.736Y-4.131
X5.758Y-3.426
X5.762Y-3.921
X5.793Y-4.043
X5.8027Y-3.457
X5.82Y-4.133
X5.838Y-4.18
X5.886Y-4.229
X5.888Y-3.413
X5.904Y-4.296
X5.922Y-3.413
X5.93Y-4.165
X5.955Y-3.877
X5.957Y-3.842
X5.963Y-4.443
X5.981Y-3.702
X5.982Y-3.496
X6.006Y-3.727
X6.0108Y-3.4719
X6.017Y-3.512
X6.017Y-3.546
X6.022Y-4.641
X6.045Y-3.954
X6.0466Y-3.4232
X6.067Y-3.615
X6.07Y-3.926
X6.081Y-4.372
X6.119Y-4.24
X6.139Y-3.772
X6.1968Y-3.1816
X6.199Y-3.814
X6.2202Y-3.1527
X6.258Y-3.402
X6.262Y-4.333
X6.2633Y-3.8194
X6.264Y-3.572
X6.266Y-3.534
X6.279Y-3.1312
X6.282Y-4.022
X6.284Y-3.425
X6.2867Y-4.403
X6.2935Y-3.7994
X6.32Y-4.267
X6.325Y-3.912
X6.33Y-3.441
X6.339Y-3.878
X6.3474Y-3.7162
X6.3475Y-3.9792
X6.3698Y-3.8937
X6.376Y-4.373
X6.385Y-4.24
X6.415Y-3.948
X6.42Y-4.24
X6.4413Y-3.8067
X6.447Y-3.919
X6.4797Y-3.8176
X6.487Y-4.769
X6.4878Y-3.318
X6.4883Y-3.1874
X6.492Y-3.997
X6.5388Y-3.3202
X6.541Y-4.666
X6.545Y-3.491
X6.5459Y-3.1873
X6.561Y-3.417
X6.567Y-4.557
X6.569Y-4.686
X6.594Y-4.634
X6.598Y-3.1866
X6.6Y-4.787
X6.6055Y-3.3196
X6.625Y-3.554
X6.6294Y-3.8879
X6.634Y-4.472
X6.651Y-4.109
X6.653Y-3.922
X6.671Y-4.244
X6.678Y-4.135
X6.701Y-4.16
X6.712Y-4.348
X6.728Y-4.187
X6.736Y-4.497
X6.748Y-4.5514
X6.754Y-4.214
X6.888Y-4.432
X6.946Y-4.7123
X6.946Y-4.7477
X7.0814Y-4.3015
X7.18Y-3.933
X7.194Y-4.116
X7.205Y-4.593
X7.23Y-4.618
X7.261Y-3.966
X7.294Y-4.492
X7.295Y-3.983
X7.319Y-4.466
X7.367Y-4.252
X7.372Y-4.348
X7.506Y-4.26
X7.546Y-4.343
X7.773Y-4.053
X7.81Y-4.438
X8.082Y-3.913
X8.121Y-4.442
X8.1978Y-3.9813
X8.234Y-4.061
X8.2441Y-4.1289
X8.2913Y-4.061
X8.2913Y-4.1289
X8.338Y-3.9809
T2
X3.89Y-4.499
X3.897Y-4.462
X3.926Y-4.487
X3.928Y-4.275
X3.93Y-3.966
X4.125Y-4.48
X4.138Y-3.761
X4.176Y-4.146
X4.209Y-3.906
X4.262Y-4.008
X4.389Y-4.093
X4.42Y-4.333
X4.441Y-3.761
X4.451Y-4.48
X4.505Y-4.243
X4.647Y-3.967
X4.647Y-4.275
X4.672Y-4.47
X4.709Y-4.488
X4.712Y-4.446
X4.7775Y-4.0472
X4.805Y-3.251
X4.954Y-3.44
X5.026Y-4.3533
X5.0541Y-3.9649
X5.195Y-3.461
X5.203Y-3.266
X5.259Y-3.512
X5.26Y-3.944
X5.304Y-3.117
X5.31Y-3.217
X5.31Y-3.954
X5.322Y-4.511
X5.323Y-3.312
X5.488Y-3.535
X5.591Y-3.4341
X5.657Y-3.099
X5.7641Y-3.3921
X5.835Y-3.574
X5.8555Y-3.1855
X5.911Y-3.15
X5.921Y-4.514
X5.959Y-3.405
X5.973Y-4.077
X5.983Y-3.61
X5.9927Y-3.1858
X6.144Y-3.447
X6.311Y-3.305
X6.332Y-3.364
X6.3348Y-4.5861
X6.43Y-3.863
X6.437Y-3.598
X6.45Y-3.341
X6.489Y-4.273
X6.526Y-4.28
X6.531Y-4.519
X6.541Y-4.785
X6.566Y-4.287
X6.581Y-3.923
X6.592Y-3.818
X6.5998Y-4.5198
X6.621Y-4.08
X6.632Y-3.793
X6.683Y-3.733
X6.7084Y-4.1009
X6.738Y-3.949
X6.771Y-3.922
X6.806Y-4.093
X6.819Y-4.053
X6.8241Y-4.3133
X6.877Y-3.97
X6.953Y-3.432
X6.967Y-3.392
X6.993Y-4.682
X7.032Y-4.445
X7.073Y-3.825
X7.109Y-3.797
X7.111Y-3.836
X7.1618Y-4.3139
X7.429Y-3.92
X7.5394Y-3.5138
X7.591Y-4.755
X7.6969Y-4.4783
X7.739Y-3.961
X7.775Y-4.256
X7.911Y-4.255
X7.942Y-3.94
X8.039Y-4.394
X8.253Y-3.982
X8.338Y-3.926
T3
X5.7953Y-3.2796
X5.811Y-3.2517
X5.8425Y-3.2517
X5.8583Y-3.2796
X5.874Y-3.2517
X5.8898Y-3.2796
X5.9213Y-3.2796
X5.937Y-3.2517
X5.9528Y-3.2796
X5.9685Y-3.2517
X6.0Y-3.2517
X6.0157Y-3.2796
T5
X6.904Y-3.752
X6.904Y-3.8307
T6
X3.58Y-3.585
X4.5434Y-3.2716
X7.268Y-3.272
X8.233Y-3.587
T4
G00X5.7244Y-3.0784
M15
G01X5.7244Y-3.1099
M16
G05
G00X5.7244Y-3.2359
M15
G01X5.7244Y-3.2674
M16
G05
G00X6.0866Y-3.0784
M15
G01X6.0866Y-3.1099
M16
G05
G00X6.0866Y-3.2359
M15
G01X6.0866Y-3.2674
M16
G05
T0
M30
