G04 #@! TF.GenerationSoftware,KiCad,Pcbnew,7.0.6*
G04 #@! TF.CreationDate,2023-09-06T23:53:07-07:00*
G04 #@! TF.ProjectId,sgpp_main_pcb,73677070-5f6d-4616-996e-5f7063622e6b,1*
G04 #@! TF.SameCoordinates,Original*
G04 #@! TF.FileFunction,Legend,Top*
G04 #@! TF.FilePolarity,Positive*
%FSLAX46Y46*%
G04 Gerber Fmt 4.6, Leading zero omitted, Abs format (unit mm)*
G04 Created by KiCad (PCBNEW 7.0.6) date 2023-09-06 23:53:07*
%MOMM*%
%LPD*%
G01*
G04 APERTURE LIST*
%ADD10C,0.100000*%
%ADD11C,0.150000*%
%ADD12C,0.120000*%
%ADD13C,0.152400*%
G04 APERTURE END LIST*
D10*
X121413600Y-90842428D02*
X121385028Y-90871000D01*
X121385028Y-90871000D02*
X121299314Y-90899571D01*
X121299314Y-90899571D02*
X121242171Y-90899571D01*
X121242171Y-90899571D02*
X121156457Y-90871000D01*
X121156457Y-90871000D02*
X121099314Y-90813857D01*
X121099314Y-90813857D02*
X121070743Y-90756714D01*
X121070743Y-90756714D02*
X121042171Y-90642428D01*
X121042171Y-90642428D02*
X121042171Y-90556714D01*
X121042171Y-90556714D02*
X121070743Y-90442428D01*
X121070743Y-90442428D02*
X121099314Y-90385285D01*
X121099314Y-90385285D02*
X121156457Y-90328142D01*
X121156457Y-90328142D02*
X121242171Y-90299571D01*
X121242171Y-90299571D02*
X121299314Y-90299571D01*
X121299314Y-90299571D02*
X121385028Y-90328142D01*
X121385028Y-90328142D02*
X121413600Y-90356714D01*
X121927886Y-90299571D02*
X121813600Y-90299571D01*
X121813600Y-90299571D02*
X121756457Y-90328142D01*
X121756457Y-90328142D02*
X121727886Y-90356714D01*
X121727886Y-90356714D02*
X121670743Y-90442428D01*
X121670743Y-90442428D02*
X121642171Y-90556714D01*
X121642171Y-90556714D02*
X121642171Y-90785285D01*
X121642171Y-90785285D02*
X121670743Y-90842428D01*
X121670743Y-90842428D02*
X121699314Y-90871000D01*
X121699314Y-90871000D02*
X121756457Y-90899571D01*
X121756457Y-90899571D02*
X121870743Y-90899571D01*
X121870743Y-90899571D02*
X121927886Y-90871000D01*
X121927886Y-90871000D02*
X121956457Y-90842428D01*
X121956457Y-90842428D02*
X121985028Y-90785285D01*
X121985028Y-90785285D02*
X121985028Y-90642428D01*
X121985028Y-90642428D02*
X121956457Y-90585285D01*
X121956457Y-90585285D02*
X121927886Y-90556714D01*
X121927886Y-90556714D02*
X121870743Y-90528142D01*
X121870743Y-90528142D02*
X121756457Y-90528142D01*
X121756457Y-90528142D02*
X121699314Y-90556714D01*
X121699314Y-90556714D02*
X121670743Y-90585285D01*
X121670743Y-90585285D02*
X121642171Y-90642428D01*
X127300085Y-84752771D02*
X127100085Y-84467057D01*
X126957228Y-84752771D02*
X126957228Y-84152771D01*
X126957228Y-84152771D02*
X127185799Y-84152771D01*
X127185799Y-84152771D02*
X127242942Y-84181342D01*
X127242942Y-84181342D02*
X127271513Y-84209914D01*
X127271513Y-84209914D02*
X127300085Y-84267057D01*
X127300085Y-84267057D02*
X127300085Y-84352771D01*
X127300085Y-84352771D02*
X127271513Y-84409914D01*
X127271513Y-84409914D02*
X127242942Y-84438485D01*
X127242942Y-84438485D02*
X127185799Y-84467057D01*
X127185799Y-84467057D02*
X126957228Y-84467057D01*
X127871513Y-84752771D02*
X127528656Y-84752771D01*
X127700085Y-84752771D02*
X127700085Y-84152771D01*
X127700085Y-84152771D02*
X127642942Y-84238485D01*
X127642942Y-84238485D02*
X127585799Y-84295628D01*
X127585799Y-84295628D02*
X127528656Y-84324200D01*
X128214371Y-84409914D02*
X128157228Y-84381342D01*
X128157228Y-84381342D02*
X128128657Y-84352771D01*
X128128657Y-84352771D02*
X128100085Y-84295628D01*
X128100085Y-84295628D02*
X128100085Y-84267057D01*
X128100085Y-84267057D02*
X128128657Y-84209914D01*
X128128657Y-84209914D02*
X128157228Y-84181342D01*
X128157228Y-84181342D02*
X128214371Y-84152771D01*
X128214371Y-84152771D02*
X128328657Y-84152771D01*
X128328657Y-84152771D02*
X128385800Y-84181342D01*
X128385800Y-84181342D02*
X128414371Y-84209914D01*
X128414371Y-84209914D02*
X128442942Y-84267057D01*
X128442942Y-84267057D02*
X128442942Y-84295628D01*
X128442942Y-84295628D02*
X128414371Y-84352771D01*
X128414371Y-84352771D02*
X128385800Y-84381342D01*
X128385800Y-84381342D02*
X128328657Y-84409914D01*
X128328657Y-84409914D02*
X128214371Y-84409914D01*
X128214371Y-84409914D02*
X128157228Y-84438485D01*
X128157228Y-84438485D02*
X128128657Y-84467057D01*
X128128657Y-84467057D02*
X128100085Y-84524200D01*
X128100085Y-84524200D02*
X128100085Y-84638485D01*
X128100085Y-84638485D02*
X128128657Y-84695628D01*
X128128657Y-84695628D02*
X128157228Y-84724200D01*
X128157228Y-84724200D02*
X128214371Y-84752771D01*
X128214371Y-84752771D02*
X128328657Y-84752771D01*
X128328657Y-84752771D02*
X128385800Y-84724200D01*
X128385800Y-84724200D02*
X128414371Y-84695628D01*
X128414371Y-84695628D02*
X128442942Y-84638485D01*
X128442942Y-84638485D02*
X128442942Y-84524200D01*
X128442942Y-84524200D02*
X128414371Y-84467057D01*
X128414371Y-84467057D02*
X128385800Y-84438485D01*
X128385800Y-84438485D02*
X128328657Y-84409914D01*
X164808457Y-115803076D02*
X164751314Y-115774504D01*
X164751314Y-115774504D02*
X164694171Y-115717362D01*
X164694171Y-115717362D02*
X164608457Y-115631647D01*
X164608457Y-115631647D02*
X164551314Y-115603076D01*
X164551314Y-115603076D02*
X164494171Y-115603076D01*
X164522742Y-115745933D02*
X164465600Y-115717362D01*
X164465600Y-115717362D02*
X164408457Y-115660219D01*
X164408457Y-115660219D02*
X164379885Y-115545933D01*
X164379885Y-115545933D02*
X164379885Y-115345933D01*
X164379885Y-115345933D02*
X164408457Y-115231647D01*
X164408457Y-115231647D02*
X164465600Y-115174504D01*
X164465600Y-115174504D02*
X164522742Y-115145933D01*
X164522742Y-115145933D02*
X164637028Y-115145933D01*
X164637028Y-115145933D02*
X164694171Y-115174504D01*
X164694171Y-115174504D02*
X164751314Y-115231647D01*
X164751314Y-115231647D02*
X164779885Y-115345933D01*
X164779885Y-115345933D02*
X164779885Y-115545933D01*
X164779885Y-115545933D02*
X164751314Y-115660219D01*
X164751314Y-115660219D02*
X164694171Y-115717362D01*
X164694171Y-115717362D02*
X164637028Y-115745933D01*
X164637028Y-115745933D02*
X164522742Y-115745933D01*
X164979885Y-115145933D02*
X165351313Y-115145933D01*
X165351313Y-115145933D02*
X165151313Y-115374504D01*
X165151313Y-115374504D02*
X165237028Y-115374504D01*
X165237028Y-115374504D02*
X165294171Y-115403076D01*
X165294171Y-115403076D02*
X165322742Y-115431647D01*
X165322742Y-115431647D02*
X165351313Y-115488790D01*
X165351313Y-115488790D02*
X165351313Y-115631647D01*
X165351313Y-115631647D02*
X165322742Y-115688790D01*
X165322742Y-115688790D02*
X165294171Y-115717362D01*
X165294171Y-115717362D02*
X165237028Y-115745933D01*
X165237028Y-115745933D02*
X165065599Y-115745933D01*
X165065599Y-115745933D02*
X165008456Y-115717362D01*
X165008456Y-115717362D02*
X164979885Y-115688790D01*
X172682000Y-108416085D02*
X172767714Y-108444657D01*
X172767714Y-108444657D02*
X172796285Y-108473228D01*
X172796285Y-108473228D02*
X172824857Y-108530371D01*
X172824857Y-108530371D02*
X172824857Y-108616085D01*
X172824857Y-108616085D02*
X172796285Y-108673228D01*
X172796285Y-108673228D02*
X172767714Y-108701800D01*
X172767714Y-108701800D02*
X172710571Y-108730371D01*
X172710571Y-108730371D02*
X172482000Y-108730371D01*
X172482000Y-108730371D02*
X172482000Y-108130371D01*
X172482000Y-108130371D02*
X172682000Y-108130371D01*
X172682000Y-108130371D02*
X172739143Y-108158942D01*
X172739143Y-108158942D02*
X172767714Y-108187514D01*
X172767714Y-108187514D02*
X172796285Y-108244657D01*
X172796285Y-108244657D02*
X172796285Y-108301800D01*
X172796285Y-108301800D02*
X172767714Y-108358942D01*
X172767714Y-108358942D02*
X172739143Y-108387514D01*
X172739143Y-108387514D02*
X172682000Y-108416085D01*
X172682000Y-108416085D02*
X172482000Y-108416085D01*
X173082000Y-108730371D02*
X173082000Y-108130371D01*
X173082000Y-108130371D02*
X173310571Y-108130371D01*
X173310571Y-108130371D02*
X173367714Y-108158942D01*
X173367714Y-108158942D02*
X173396285Y-108187514D01*
X173396285Y-108187514D02*
X173424857Y-108244657D01*
X173424857Y-108244657D02*
X173424857Y-108330371D01*
X173424857Y-108330371D02*
X173396285Y-108387514D01*
X173396285Y-108387514D02*
X173367714Y-108416085D01*
X173367714Y-108416085D02*
X173310571Y-108444657D01*
X173310571Y-108444657D02*
X173082000Y-108444657D01*
X173796285Y-108444657D02*
X173796285Y-108730371D01*
X173596285Y-108130371D02*
X173796285Y-108444657D01*
X173796285Y-108444657D02*
X173996285Y-108130371D01*
X174510571Y-108730371D02*
X174167714Y-108730371D01*
X174339143Y-108730371D02*
X174339143Y-108130371D01*
X174339143Y-108130371D02*
X174282000Y-108216085D01*
X174282000Y-108216085D02*
X174224857Y-108273228D01*
X174224857Y-108273228D02*
X174167714Y-108301800D01*
X192016000Y-101311796D02*
X191730286Y-101311796D01*
X191730286Y-101311796D02*
X191730286Y-100711796D01*
X192244571Y-101311796D02*
X192358857Y-101311796D01*
X192358857Y-101311796D02*
X192416000Y-101283225D01*
X192416000Y-101283225D02*
X192444571Y-101254653D01*
X192444571Y-101254653D02*
X192501714Y-101168939D01*
X192501714Y-101168939D02*
X192530285Y-101054653D01*
X192530285Y-101054653D02*
X192530285Y-100826082D01*
X192530285Y-100826082D02*
X192501714Y-100768939D01*
X192501714Y-100768939D02*
X192473143Y-100740367D01*
X192473143Y-100740367D02*
X192416000Y-100711796D01*
X192416000Y-100711796D02*
X192301714Y-100711796D01*
X192301714Y-100711796D02*
X192244571Y-100740367D01*
X192244571Y-100740367D02*
X192216000Y-100768939D01*
X192216000Y-100768939D02*
X192187428Y-100826082D01*
X192187428Y-100826082D02*
X192187428Y-100968939D01*
X192187428Y-100968939D02*
X192216000Y-101026082D01*
X192216000Y-101026082D02*
X192244571Y-101054653D01*
X192244571Y-101054653D02*
X192301714Y-101083225D01*
X192301714Y-101083225D02*
X192416000Y-101083225D01*
X192416000Y-101083225D02*
X192473143Y-101054653D01*
X192473143Y-101054653D02*
X192501714Y-101026082D01*
X192501714Y-101026082D02*
X192530285Y-100968939D01*
X109816000Y-102391796D02*
X109530286Y-102391796D01*
X109530286Y-102391796D02*
X109530286Y-101791796D01*
X109987428Y-101848939D02*
X110016000Y-101820367D01*
X110016000Y-101820367D02*
X110073143Y-101791796D01*
X110073143Y-101791796D02*
X110216000Y-101791796D01*
X110216000Y-101791796D02*
X110273143Y-101820367D01*
X110273143Y-101820367D02*
X110301714Y-101848939D01*
X110301714Y-101848939D02*
X110330285Y-101906082D01*
X110330285Y-101906082D02*
X110330285Y-101963225D01*
X110330285Y-101963225D02*
X110301714Y-102048939D01*
X110301714Y-102048939D02*
X109958857Y-102391796D01*
X109958857Y-102391796D02*
X110330285Y-102391796D01*
X156263371Y-94132342D02*
X156749085Y-94132342D01*
X156749085Y-94132342D02*
X156806228Y-94103771D01*
X156806228Y-94103771D02*
X156834800Y-94075200D01*
X156834800Y-94075200D02*
X156863371Y-94018057D01*
X156863371Y-94018057D02*
X156863371Y-93903771D01*
X156863371Y-93903771D02*
X156834800Y-93846628D01*
X156834800Y-93846628D02*
X156806228Y-93818057D01*
X156806228Y-93818057D02*
X156749085Y-93789485D01*
X156749085Y-93789485D02*
X156263371Y-93789485D01*
X156520514Y-93418057D02*
X156491942Y-93475200D01*
X156491942Y-93475200D02*
X156463371Y-93503771D01*
X156463371Y-93503771D02*
X156406228Y-93532343D01*
X156406228Y-93532343D02*
X156377657Y-93532343D01*
X156377657Y-93532343D02*
X156320514Y-93503771D01*
X156320514Y-93503771D02*
X156291942Y-93475200D01*
X156291942Y-93475200D02*
X156263371Y-93418057D01*
X156263371Y-93418057D02*
X156263371Y-93303771D01*
X156263371Y-93303771D02*
X156291942Y-93246629D01*
X156291942Y-93246629D02*
X156320514Y-93218057D01*
X156320514Y-93218057D02*
X156377657Y-93189486D01*
X156377657Y-93189486D02*
X156406228Y-93189486D01*
X156406228Y-93189486D02*
X156463371Y-93218057D01*
X156463371Y-93218057D02*
X156491942Y-93246629D01*
X156491942Y-93246629D02*
X156520514Y-93303771D01*
X156520514Y-93303771D02*
X156520514Y-93418057D01*
X156520514Y-93418057D02*
X156549085Y-93475200D01*
X156549085Y-93475200D02*
X156577657Y-93503771D01*
X156577657Y-93503771D02*
X156634800Y-93532343D01*
X156634800Y-93532343D02*
X156749085Y-93532343D01*
X156749085Y-93532343D02*
X156806228Y-93503771D01*
X156806228Y-93503771D02*
X156834800Y-93475200D01*
X156834800Y-93475200D02*
X156863371Y-93418057D01*
X156863371Y-93418057D02*
X156863371Y-93303771D01*
X156863371Y-93303771D02*
X156834800Y-93246629D01*
X156834800Y-93246629D02*
X156806228Y-93218057D01*
X156806228Y-93218057D02*
X156749085Y-93189486D01*
X156749085Y-93189486D02*
X156634800Y-93189486D01*
X156634800Y-93189486D02*
X156577657Y-93218057D01*
X156577657Y-93218057D02*
X156549085Y-93246629D01*
X156549085Y-93246629D02*
X156520514Y-93303771D01*
X134390617Y-84210329D02*
X134362045Y-84238901D01*
X134362045Y-84238901D02*
X134276331Y-84267472D01*
X134276331Y-84267472D02*
X134219188Y-84267472D01*
X134219188Y-84267472D02*
X134133474Y-84238901D01*
X134133474Y-84238901D02*
X134076331Y-84181758D01*
X134076331Y-84181758D02*
X134047760Y-84124615D01*
X134047760Y-84124615D02*
X134019188Y-84010329D01*
X134019188Y-84010329D02*
X134019188Y-83924615D01*
X134019188Y-83924615D02*
X134047760Y-83810329D01*
X134047760Y-83810329D02*
X134076331Y-83753186D01*
X134076331Y-83753186D02*
X134133474Y-83696043D01*
X134133474Y-83696043D02*
X134219188Y-83667472D01*
X134219188Y-83667472D02*
X134276331Y-83667472D01*
X134276331Y-83667472D02*
X134362045Y-83696043D01*
X134362045Y-83696043D02*
X134390617Y-83724615D01*
X134904903Y-83867472D02*
X134904903Y-84267472D01*
X134762045Y-83638901D02*
X134619188Y-84067472D01*
X134619188Y-84067472D02*
X134990617Y-84067472D01*
X186101143Y-119338085D02*
X186186857Y-119366657D01*
X186186857Y-119366657D02*
X186215428Y-119395228D01*
X186215428Y-119395228D02*
X186244000Y-119452371D01*
X186244000Y-119452371D02*
X186244000Y-119538085D01*
X186244000Y-119538085D02*
X186215428Y-119595228D01*
X186215428Y-119595228D02*
X186186857Y-119623800D01*
X186186857Y-119623800D02*
X186129714Y-119652371D01*
X186129714Y-119652371D02*
X185901143Y-119652371D01*
X185901143Y-119652371D02*
X185901143Y-119052371D01*
X185901143Y-119052371D02*
X186101143Y-119052371D01*
X186101143Y-119052371D02*
X186158286Y-119080942D01*
X186158286Y-119080942D02*
X186186857Y-119109514D01*
X186186857Y-119109514D02*
X186215428Y-119166657D01*
X186215428Y-119166657D02*
X186215428Y-119223800D01*
X186215428Y-119223800D02*
X186186857Y-119280942D01*
X186186857Y-119280942D02*
X186158286Y-119309514D01*
X186158286Y-119309514D02*
X186101143Y-119338085D01*
X186101143Y-119338085D02*
X185901143Y-119338085D01*
X186501143Y-119652371D02*
X186501143Y-119052371D01*
X186501143Y-119052371D02*
X186729714Y-119052371D01*
X186729714Y-119052371D02*
X186786857Y-119080942D01*
X186786857Y-119080942D02*
X186815428Y-119109514D01*
X186815428Y-119109514D02*
X186844000Y-119166657D01*
X186844000Y-119166657D02*
X186844000Y-119252371D01*
X186844000Y-119252371D02*
X186815428Y-119309514D01*
X186815428Y-119309514D02*
X186786857Y-119338085D01*
X186786857Y-119338085D02*
X186729714Y-119366657D01*
X186729714Y-119366657D02*
X186501143Y-119366657D01*
X187301143Y-119338085D02*
X187386857Y-119366657D01*
X187386857Y-119366657D02*
X187415428Y-119395228D01*
X187415428Y-119395228D02*
X187444000Y-119452371D01*
X187444000Y-119452371D02*
X187444000Y-119538085D01*
X187444000Y-119538085D02*
X187415428Y-119595228D01*
X187415428Y-119595228D02*
X187386857Y-119623800D01*
X187386857Y-119623800D02*
X187329714Y-119652371D01*
X187329714Y-119652371D02*
X187101143Y-119652371D01*
X187101143Y-119652371D02*
X187101143Y-119052371D01*
X187101143Y-119052371D02*
X187301143Y-119052371D01*
X187301143Y-119052371D02*
X187358286Y-119080942D01*
X187358286Y-119080942D02*
X187386857Y-119109514D01*
X187386857Y-119109514D02*
X187415428Y-119166657D01*
X187415428Y-119166657D02*
X187415428Y-119223800D01*
X187415428Y-119223800D02*
X187386857Y-119280942D01*
X187386857Y-119280942D02*
X187358286Y-119309514D01*
X187358286Y-119309514D02*
X187301143Y-119338085D01*
X187301143Y-119338085D02*
X187101143Y-119338085D01*
X188015428Y-119652371D02*
X187672571Y-119652371D01*
X187844000Y-119652371D02*
X187844000Y-119052371D01*
X187844000Y-119052371D02*
X187786857Y-119138085D01*
X187786857Y-119138085D02*
X187729714Y-119195228D01*
X187729714Y-119195228D02*
X187672571Y-119223800D01*
X168840828Y-112644285D02*
X169126542Y-112444285D01*
X168840828Y-112301428D02*
X169440828Y-112301428D01*
X169440828Y-112301428D02*
X169440828Y-112529999D01*
X169440828Y-112529999D02*
X169412257Y-112587142D01*
X169412257Y-112587142D02*
X169383685Y-112615713D01*
X169383685Y-112615713D02*
X169326542Y-112644285D01*
X169326542Y-112644285D02*
X169240828Y-112644285D01*
X169240828Y-112644285D02*
X169183685Y-112615713D01*
X169183685Y-112615713D02*
X169155114Y-112587142D01*
X169155114Y-112587142D02*
X169126542Y-112529999D01*
X169126542Y-112529999D02*
X169126542Y-112301428D01*
X168840828Y-113215713D02*
X168840828Y-112872856D01*
X168840828Y-113044285D02*
X169440828Y-113044285D01*
X169440828Y-113044285D02*
X169355114Y-112987142D01*
X169355114Y-112987142D02*
X169297971Y-112929999D01*
X169297971Y-112929999D02*
X169269400Y-112872856D01*
X169440828Y-113758571D02*
X169440828Y-113472857D01*
X169440828Y-113472857D02*
X169155114Y-113444285D01*
X169155114Y-113444285D02*
X169183685Y-113472857D01*
X169183685Y-113472857D02*
X169212257Y-113530000D01*
X169212257Y-113530000D02*
X169212257Y-113672857D01*
X169212257Y-113672857D02*
X169183685Y-113730000D01*
X169183685Y-113730000D02*
X169155114Y-113758571D01*
X169155114Y-113758571D02*
X169097971Y-113787142D01*
X169097971Y-113787142D02*
X168955114Y-113787142D01*
X168955114Y-113787142D02*
X168897971Y-113758571D01*
X168897971Y-113758571D02*
X168869400Y-113730000D01*
X168869400Y-113730000D02*
X168840828Y-113672857D01*
X168840828Y-113672857D02*
X168840828Y-113530000D01*
X168840828Y-113530000D02*
X168869400Y-113472857D01*
X168869400Y-113472857D02*
X168897971Y-113444285D01*
X169628228Y-112644285D02*
X169913942Y-112444285D01*
X169628228Y-112301428D02*
X170228228Y-112301428D01*
X170228228Y-112301428D02*
X170228228Y-112529999D01*
X170228228Y-112529999D02*
X170199657Y-112587142D01*
X170199657Y-112587142D02*
X170171085Y-112615713D01*
X170171085Y-112615713D02*
X170113942Y-112644285D01*
X170113942Y-112644285D02*
X170028228Y-112644285D01*
X170028228Y-112644285D02*
X169971085Y-112615713D01*
X169971085Y-112615713D02*
X169942514Y-112587142D01*
X169942514Y-112587142D02*
X169913942Y-112529999D01*
X169913942Y-112529999D02*
X169913942Y-112301428D01*
X169628228Y-113215713D02*
X169628228Y-112872856D01*
X169628228Y-113044285D02*
X170228228Y-113044285D01*
X170228228Y-113044285D02*
X170142514Y-112987142D01*
X170142514Y-112987142D02*
X170085371Y-112929999D01*
X170085371Y-112929999D02*
X170056800Y-112872856D01*
X170028228Y-113730000D02*
X169628228Y-113730000D01*
X170256800Y-113587142D02*
X169828228Y-113444285D01*
X169828228Y-113444285D02*
X169828228Y-113815714D01*
X178516000Y-111811796D02*
X178230286Y-111811796D01*
X178230286Y-111811796D02*
X178230286Y-111211796D01*
X178658857Y-111211796D02*
X179058857Y-111211796D01*
X179058857Y-111211796D02*
X178801714Y-111811796D01*
X155524399Y-95962066D02*
X156010113Y-95962066D01*
X156010113Y-95962066D02*
X156067256Y-95933495D01*
X156067256Y-95933495D02*
X156095828Y-95904924D01*
X156095828Y-95904924D02*
X156124399Y-95847781D01*
X156124399Y-95847781D02*
X156124399Y-95733495D01*
X156124399Y-95733495D02*
X156095828Y-95676352D01*
X156095828Y-95676352D02*
X156067256Y-95647781D01*
X156067256Y-95647781D02*
X156010113Y-95619209D01*
X156010113Y-95619209D02*
X155524399Y-95619209D01*
X155524399Y-95390638D02*
X155524399Y-94990638D01*
X155524399Y-94990638D02*
X156124399Y-95247781D01*
X166822485Y-96208171D02*
X166622485Y-95922457D01*
X166479628Y-96208171D02*
X166479628Y-95608171D01*
X166479628Y-95608171D02*
X166708199Y-95608171D01*
X166708199Y-95608171D02*
X166765342Y-95636742D01*
X166765342Y-95636742D02*
X166793913Y-95665314D01*
X166793913Y-95665314D02*
X166822485Y-95722457D01*
X166822485Y-95722457D02*
X166822485Y-95808171D01*
X166822485Y-95808171D02*
X166793913Y-95865314D01*
X166793913Y-95865314D02*
X166765342Y-95893885D01*
X166765342Y-95893885D02*
X166708199Y-95922457D01*
X166708199Y-95922457D02*
X166479628Y-95922457D01*
X167393913Y-96208171D02*
X167051056Y-96208171D01*
X167222485Y-96208171D02*
X167222485Y-95608171D01*
X167222485Y-95608171D02*
X167165342Y-95693885D01*
X167165342Y-95693885D02*
X167108199Y-95751028D01*
X167108199Y-95751028D02*
X167051056Y-95779600D01*
X167593914Y-95608171D02*
X167993914Y-95608171D01*
X167993914Y-95608171D02*
X167736771Y-96208171D01*
X186115428Y-98002085D02*
X186201142Y-98030657D01*
X186201142Y-98030657D02*
X186229713Y-98059228D01*
X186229713Y-98059228D02*
X186258285Y-98116371D01*
X186258285Y-98116371D02*
X186258285Y-98202085D01*
X186258285Y-98202085D02*
X186229713Y-98259228D01*
X186229713Y-98259228D02*
X186201142Y-98287800D01*
X186201142Y-98287800D02*
X186143999Y-98316371D01*
X186143999Y-98316371D02*
X185915428Y-98316371D01*
X185915428Y-98316371D02*
X185915428Y-97716371D01*
X185915428Y-97716371D02*
X186115428Y-97716371D01*
X186115428Y-97716371D02*
X186172571Y-97744942D01*
X186172571Y-97744942D02*
X186201142Y-97773514D01*
X186201142Y-97773514D02*
X186229713Y-97830657D01*
X186229713Y-97830657D02*
X186229713Y-97887800D01*
X186229713Y-97887800D02*
X186201142Y-97944942D01*
X186201142Y-97944942D02*
X186172571Y-97973514D01*
X186172571Y-97973514D02*
X186115428Y-98002085D01*
X186115428Y-98002085D02*
X185915428Y-98002085D01*
X186515428Y-98316371D02*
X186515428Y-97716371D01*
X186515428Y-97716371D02*
X186743999Y-97716371D01*
X186743999Y-97716371D02*
X186801142Y-97744942D01*
X186801142Y-97744942D02*
X186829713Y-97773514D01*
X186829713Y-97773514D02*
X186858285Y-97830657D01*
X186858285Y-97830657D02*
X186858285Y-97916371D01*
X186858285Y-97916371D02*
X186829713Y-97973514D01*
X186829713Y-97973514D02*
X186801142Y-98002085D01*
X186801142Y-98002085D02*
X186743999Y-98030657D01*
X186743999Y-98030657D02*
X186515428Y-98030657D01*
X187058285Y-97716371D02*
X187458285Y-98316371D01*
X187458285Y-97716371D02*
X187058285Y-98316371D01*
X188001142Y-98316371D02*
X187658285Y-98316371D01*
X187829714Y-98316371D02*
X187829714Y-97716371D01*
X187829714Y-97716371D02*
X187772571Y-97802085D01*
X187772571Y-97802085D02*
X187715428Y-97859228D01*
X187715428Y-97859228D02*
X187658285Y-97887800D01*
X174702516Y-86944052D02*
X174102516Y-86944052D01*
X174102516Y-86944052D02*
X174102516Y-86801195D01*
X174102516Y-86801195D02*
X174131087Y-86715481D01*
X174131087Y-86715481D02*
X174188230Y-86658338D01*
X174188230Y-86658338D02*
X174245373Y-86629767D01*
X174245373Y-86629767D02*
X174359659Y-86601195D01*
X174359659Y-86601195D02*
X174445373Y-86601195D01*
X174445373Y-86601195D02*
X174559659Y-86629767D01*
X174559659Y-86629767D02*
X174616802Y-86658338D01*
X174616802Y-86658338D02*
X174673945Y-86715481D01*
X174673945Y-86715481D02*
X174702516Y-86801195D01*
X174702516Y-86801195D02*
X174702516Y-86944052D01*
X174102516Y-86401195D02*
X174102516Y-86029767D01*
X174102516Y-86029767D02*
X174331087Y-86229767D01*
X174331087Y-86229767D02*
X174331087Y-86144052D01*
X174331087Y-86144052D02*
X174359659Y-86086910D01*
X174359659Y-86086910D02*
X174388230Y-86058338D01*
X174388230Y-86058338D02*
X174445373Y-86029767D01*
X174445373Y-86029767D02*
X174588230Y-86029767D01*
X174588230Y-86029767D02*
X174645373Y-86058338D01*
X174645373Y-86058338D02*
X174673945Y-86086910D01*
X174673945Y-86086910D02*
X174702516Y-86144052D01*
X174702516Y-86144052D02*
X174702516Y-86315481D01*
X174702516Y-86315481D02*
X174673945Y-86372624D01*
X174673945Y-86372624D02*
X174645373Y-86401195D01*
X133916000Y-115791796D02*
X133630286Y-115791796D01*
X133630286Y-115791796D02*
X133630286Y-115191796D01*
X134401714Y-115191796D02*
X134116000Y-115191796D01*
X134116000Y-115191796D02*
X134087428Y-115477510D01*
X134087428Y-115477510D02*
X134116000Y-115448939D01*
X134116000Y-115448939D02*
X134173143Y-115420367D01*
X134173143Y-115420367D02*
X134316000Y-115420367D01*
X134316000Y-115420367D02*
X134373143Y-115448939D01*
X134373143Y-115448939D02*
X134401714Y-115477510D01*
X134401714Y-115477510D02*
X134430285Y-115534653D01*
X134430285Y-115534653D02*
X134430285Y-115677510D01*
X134430285Y-115677510D02*
X134401714Y-115734653D01*
X134401714Y-115734653D02*
X134373143Y-115763225D01*
X134373143Y-115763225D02*
X134316000Y-115791796D01*
X134316000Y-115791796D02*
X134173143Y-115791796D01*
X134173143Y-115791796D02*
X134116000Y-115763225D01*
X134116000Y-115763225D02*
X134087428Y-115734653D01*
X160622571Y-82992856D02*
X160022571Y-82992856D01*
X160022571Y-82992856D02*
X160022571Y-82849999D01*
X160022571Y-82849999D02*
X160051142Y-82764285D01*
X160051142Y-82764285D02*
X160108285Y-82707142D01*
X160108285Y-82707142D02*
X160165428Y-82678571D01*
X160165428Y-82678571D02*
X160279714Y-82649999D01*
X160279714Y-82649999D02*
X160365428Y-82649999D01*
X160365428Y-82649999D02*
X160479714Y-82678571D01*
X160479714Y-82678571D02*
X160536857Y-82707142D01*
X160536857Y-82707142D02*
X160594000Y-82764285D01*
X160594000Y-82764285D02*
X160622571Y-82849999D01*
X160622571Y-82849999D02*
X160622571Y-82992856D01*
X160222571Y-82135714D02*
X160622571Y-82135714D01*
X159994000Y-82278571D02*
X160422571Y-82421428D01*
X160422571Y-82421428D02*
X160422571Y-82049999D01*
X160705259Y-118595393D02*
X160419545Y-118795393D01*
X160705259Y-118938250D02*
X160105259Y-118938250D01*
X160105259Y-118938250D02*
X160105259Y-118709679D01*
X160105259Y-118709679D02*
X160133830Y-118652536D01*
X160133830Y-118652536D02*
X160162402Y-118623965D01*
X160162402Y-118623965D02*
X160219545Y-118595393D01*
X160219545Y-118595393D02*
X160305259Y-118595393D01*
X160305259Y-118595393D02*
X160362402Y-118623965D01*
X160362402Y-118623965D02*
X160390973Y-118652536D01*
X160390973Y-118652536D02*
X160419545Y-118709679D01*
X160419545Y-118709679D02*
X160419545Y-118938250D01*
X160705259Y-118023965D02*
X160705259Y-118366822D01*
X160705259Y-118195393D02*
X160105259Y-118195393D01*
X160105259Y-118195393D02*
X160190973Y-118252536D01*
X160190973Y-118252536D02*
X160248116Y-118309679D01*
X160248116Y-118309679D02*
X160276688Y-118366822D01*
X160105259Y-117823964D02*
X160105259Y-117452536D01*
X160105259Y-117452536D02*
X160333830Y-117652536D01*
X160333830Y-117652536D02*
X160333830Y-117566821D01*
X160333830Y-117566821D02*
X160362402Y-117509679D01*
X160362402Y-117509679D02*
X160390973Y-117481107D01*
X160390973Y-117481107D02*
X160448116Y-117452536D01*
X160448116Y-117452536D02*
X160590973Y-117452536D01*
X160590973Y-117452536D02*
X160648116Y-117481107D01*
X160648116Y-117481107D02*
X160676688Y-117509679D01*
X160676688Y-117509679D02*
X160705259Y-117566821D01*
X160705259Y-117566821D02*
X160705259Y-117738250D01*
X160705259Y-117738250D02*
X160676688Y-117795393D01*
X160676688Y-117795393D02*
X160648116Y-117823964D01*
X166077999Y-102152800D02*
X166163714Y-102181371D01*
X166163714Y-102181371D02*
X166306571Y-102181371D01*
X166306571Y-102181371D02*
X166363714Y-102152800D01*
X166363714Y-102152800D02*
X166392285Y-102124228D01*
X166392285Y-102124228D02*
X166420856Y-102067085D01*
X166420856Y-102067085D02*
X166420856Y-102009942D01*
X166420856Y-102009942D02*
X166392285Y-101952800D01*
X166392285Y-101952800D02*
X166363714Y-101924228D01*
X166363714Y-101924228D02*
X166306571Y-101895657D01*
X166306571Y-101895657D02*
X166192285Y-101867085D01*
X166192285Y-101867085D02*
X166135142Y-101838514D01*
X166135142Y-101838514D02*
X166106571Y-101809942D01*
X166106571Y-101809942D02*
X166077999Y-101752800D01*
X166077999Y-101752800D02*
X166077999Y-101695657D01*
X166077999Y-101695657D02*
X166106571Y-101638514D01*
X166106571Y-101638514D02*
X166135142Y-101609942D01*
X166135142Y-101609942D02*
X166192285Y-101581371D01*
X166192285Y-101581371D02*
X166335142Y-101581371D01*
X166335142Y-101581371D02*
X166420856Y-101609942D01*
X166620857Y-101581371D02*
X166763714Y-102181371D01*
X166763714Y-102181371D02*
X166878000Y-101752800D01*
X166878000Y-101752800D02*
X166992285Y-102181371D01*
X166992285Y-102181371D02*
X167135143Y-101581371D01*
X167335142Y-101638514D02*
X167363714Y-101609942D01*
X167363714Y-101609942D02*
X167420857Y-101581371D01*
X167420857Y-101581371D02*
X167563714Y-101581371D01*
X167563714Y-101581371D02*
X167620857Y-101609942D01*
X167620857Y-101609942D02*
X167649428Y-101638514D01*
X167649428Y-101638514D02*
X167677999Y-101695657D01*
X167677999Y-101695657D02*
X167677999Y-101752800D01*
X167677999Y-101752800D02*
X167649428Y-101838514D01*
X167649428Y-101838514D02*
X167306571Y-102181371D01*
X167306571Y-102181371D02*
X167677999Y-102181371D01*
X166210571Y-86688599D02*
X165924857Y-86888599D01*
X166210571Y-87031456D02*
X165610571Y-87031456D01*
X165610571Y-87031456D02*
X165610571Y-86802885D01*
X165610571Y-86802885D02*
X165639142Y-86745742D01*
X165639142Y-86745742D02*
X165667714Y-86717171D01*
X165667714Y-86717171D02*
X165724857Y-86688599D01*
X165724857Y-86688599D02*
X165810571Y-86688599D01*
X165810571Y-86688599D02*
X165867714Y-86717171D01*
X165867714Y-86717171D02*
X165896285Y-86745742D01*
X165896285Y-86745742D02*
X165924857Y-86802885D01*
X165924857Y-86802885D02*
X165924857Y-87031456D01*
X165667714Y-86460028D02*
X165639142Y-86431456D01*
X165639142Y-86431456D02*
X165610571Y-86374314D01*
X165610571Y-86374314D02*
X165610571Y-86231456D01*
X165610571Y-86231456D02*
X165639142Y-86174314D01*
X165639142Y-86174314D02*
X165667714Y-86145742D01*
X165667714Y-86145742D02*
X165724857Y-86117171D01*
X165724857Y-86117171D02*
X165782000Y-86117171D01*
X165782000Y-86117171D02*
X165867714Y-86145742D01*
X165867714Y-86145742D02*
X166210571Y-86488599D01*
X166210571Y-86488599D02*
X166210571Y-86117171D01*
X162292628Y-100512514D02*
X162321200Y-100541086D01*
X162321200Y-100541086D02*
X162349771Y-100626800D01*
X162349771Y-100626800D02*
X162349771Y-100683943D01*
X162349771Y-100683943D02*
X162321200Y-100769657D01*
X162321200Y-100769657D02*
X162264057Y-100826800D01*
X162264057Y-100826800D02*
X162206914Y-100855371D01*
X162206914Y-100855371D02*
X162092628Y-100883943D01*
X162092628Y-100883943D02*
X162006914Y-100883943D01*
X162006914Y-100883943D02*
X161892628Y-100855371D01*
X161892628Y-100855371D02*
X161835485Y-100826800D01*
X161835485Y-100826800D02*
X161778342Y-100769657D01*
X161778342Y-100769657D02*
X161749771Y-100683943D01*
X161749771Y-100683943D02*
X161749771Y-100626800D01*
X161749771Y-100626800D02*
X161778342Y-100541086D01*
X161778342Y-100541086D02*
X161806914Y-100512514D01*
X162349771Y-99941086D02*
X162349771Y-100283943D01*
X162349771Y-100112514D02*
X161749771Y-100112514D01*
X161749771Y-100112514D02*
X161835485Y-100169657D01*
X161835485Y-100169657D02*
X161892628Y-100226800D01*
X161892628Y-100226800D02*
X161921200Y-100283943D01*
X161749771Y-99741085D02*
X161749771Y-99341085D01*
X161749771Y-99341085D02*
X162349771Y-99598228D01*
X135799119Y-83511475D02*
X136399119Y-83511475D01*
X136399119Y-83511475D02*
X136399119Y-83654332D01*
X136399119Y-83654332D02*
X136370548Y-83740046D01*
X136370548Y-83740046D02*
X136313405Y-83797189D01*
X136313405Y-83797189D02*
X136256262Y-83825760D01*
X136256262Y-83825760D02*
X136141976Y-83854332D01*
X136141976Y-83854332D02*
X136056262Y-83854332D01*
X136056262Y-83854332D02*
X135941976Y-83825760D01*
X135941976Y-83825760D02*
X135884833Y-83797189D01*
X135884833Y-83797189D02*
X135827691Y-83740046D01*
X135827691Y-83740046D02*
X135799119Y-83654332D01*
X135799119Y-83654332D02*
X135799119Y-83511475D01*
X136341976Y-84082903D02*
X136370548Y-84111475D01*
X136370548Y-84111475D02*
X136399119Y-84168618D01*
X136399119Y-84168618D02*
X136399119Y-84311475D01*
X136399119Y-84311475D02*
X136370548Y-84368618D01*
X136370548Y-84368618D02*
X136341976Y-84397189D01*
X136341976Y-84397189D02*
X136284833Y-84425760D01*
X136284833Y-84425760D02*
X136227691Y-84425760D01*
X136227691Y-84425760D02*
X136141976Y-84397189D01*
X136141976Y-84397189D02*
X135799119Y-84054332D01*
X135799119Y-84054332D02*
X135799119Y-84425760D01*
X135504285Y-94455571D02*
X135304285Y-94169857D01*
X135161428Y-94455571D02*
X135161428Y-93855571D01*
X135161428Y-93855571D02*
X135389999Y-93855571D01*
X135389999Y-93855571D02*
X135447142Y-93884142D01*
X135447142Y-93884142D02*
X135475713Y-93912714D01*
X135475713Y-93912714D02*
X135504285Y-93969857D01*
X135504285Y-93969857D02*
X135504285Y-94055571D01*
X135504285Y-94055571D02*
X135475713Y-94112714D01*
X135475713Y-94112714D02*
X135447142Y-94141285D01*
X135447142Y-94141285D02*
X135389999Y-94169857D01*
X135389999Y-94169857D02*
X135161428Y-94169857D01*
X135732856Y-93912714D02*
X135761428Y-93884142D01*
X135761428Y-93884142D02*
X135818571Y-93855571D01*
X135818571Y-93855571D02*
X135961428Y-93855571D01*
X135961428Y-93855571D02*
X136018571Y-93884142D01*
X136018571Y-93884142D02*
X136047142Y-93912714D01*
X136047142Y-93912714D02*
X136075713Y-93969857D01*
X136075713Y-93969857D02*
X136075713Y-94027000D01*
X136075713Y-94027000D02*
X136047142Y-94112714D01*
X136047142Y-94112714D02*
X135704285Y-94455571D01*
X135704285Y-94455571D02*
X136075713Y-94455571D01*
X136275714Y-93855571D02*
X136675714Y-93855571D01*
X136675714Y-93855571D02*
X136418571Y-94455571D01*
X158127256Y-85536326D02*
X158155828Y-85564898D01*
X158155828Y-85564898D02*
X158184399Y-85650612D01*
X158184399Y-85650612D02*
X158184399Y-85707755D01*
X158184399Y-85707755D02*
X158155828Y-85793469D01*
X158155828Y-85793469D02*
X158098685Y-85850612D01*
X158098685Y-85850612D02*
X158041542Y-85879183D01*
X158041542Y-85879183D02*
X157927256Y-85907755D01*
X157927256Y-85907755D02*
X157841542Y-85907755D01*
X157841542Y-85907755D02*
X157727256Y-85879183D01*
X157727256Y-85879183D02*
X157670113Y-85850612D01*
X157670113Y-85850612D02*
X157612970Y-85793469D01*
X157612970Y-85793469D02*
X157584399Y-85707755D01*
X157584399Y-85707755D02*
X157584399Y-85650612D01*
X157584399Y-85650612D02*
X157612970Y-85564898D01*
X157612970Y-85564898D02*
X157641542Y-85536326D01*
X158184399Y-84964898D02*
X158184399Y-85307755D01*
X158184399Y-85136326D02*
X157584399Y-85136326D01*
X157584399Y-85136326D02*
X157670113Y-85193469D01*
X157670113Y-85193469D02*
X157727256Y-85250612D01*
X157727256Y-85250612D02*
X157755828Y-85307755D01*
X157584399Y-84764897D02*
X157584399Y-84393469D01*
X157584399Y-84393469D02*
X157812970Y-84593469D01*
X157812970Y-84593469D02*
X157812970Y-84507754D01*
X157812970Y-84507754D02*
X157841542Y-84450612D01*
X157841542Y-84450612D02*
X157870113Y-84422040D01*
X157870113Y-84422040D02*
X157927256Y-84393469D01*
X157927256Y-84393469D02*
X158070113Y-84393469D01*
X158070113Y-84393469D02*
X158127256Y-84422040D01*
X158127256Y-84422040D02*
X158155828Y-84450612D01*
X158155828Y-84450612D02*
X158184399Y-84507754D01*
X158184399Y-84507754D02*
X158184399Y-84679183D01*
X158184399Y-84679183D02*
X158155828Y-84736326D01*
X158155828Y-84736326D02*
X158127256Y-84764897D01*
X123515485Y-85616371D02*
X123315485Y-85330657D01*
X123172628Y-85616371D02*
X123172628Y-85016371D01*
X123172628Y-85016371D02*
X123401199Y-85016371D01*
X123401199Y-85016371D02*
X123458342Y-85044942D01*
X123458342Y-85044942D02*
X123486913Y-85073514D01*
X123486913Y-85073514D02*
X123515485Y-85130657D01*
X123515485Y-85130657D02*
X123515485Y-85216371D01*
X123515485Y-85216371D02*
X123486913Y-85273514D01*
X123486913Y-85273514D02*
X123458342Y-85302085D01*
X123458342Y-85302085D02*
X123401199Y-85330657D01*
X123401199Y-85330657D02*
X123172628Y-85330657D01*
X123744056Y-85073514D02*
X123772628Y-85044942D01*
X123772628Y-85044942D02*
X123829771Y-85016371D01*
X123829771Y-85016371D02*
X123972628Y-85016371D01*
X123972628Y-85016371D02*
X124029771Y-85044942D01*
X124029771Y-85044942D02*
X124058342Y-85073514D01*
X124058342Y-85073514D02*
X124086913Y-85130657D01*
X124086913Y-85130657D02*
X124086913Y-85187800D01*
X124086913Y-85187800D02*
X124058342Y-85273514D01*
X124058342Y-85273514D02*
X123715485Y-85616371D01*
X123715485Y-85616371D02*
X124086913Y-85616371D01*
X124629771Y-85016371D02*
X124344057Y-85016371D01*
X124344057Y-85016371D02*
X124315485Y-85302085D01*
X124315485Y-85302085D02*
X124344057Y-85273514D01*
X124344057Y-85273514D02*
X124401200Y-85244942D01*
X124401200Y-85244942D02*
X124544057Y-85244942D01*
X124544057Y-85244942D02*
X124601200Y-85273514D01*
X124601200Y-85273514D02*
X124629771Y-85302085D01*
X124629771Y-85302085D02*
X124658342Y-85359228D01*
X124658342Y-85359228D02*
X124658342Y-85502085D01*
X124658342Y-85502085D02*
X124629771Y-85559228D01*
X124629771Y-85559228D02*
X124601200Y-85587800D01*
X124601200Y-85587800D02*
X124544057Y-85616371D01*
X124544057Y-85616371D02*
X124401200Y-85616371D01*
X124401200Y-85616371D02*
X124344057Y-85587800D01*
X124344057Y-85587800D02*
X124315485Y-85559228D01*
X139060285Y-85457628D02*
X139031713Y-85486200D01*
X139031713Y-85486200D02*
X138945999Y-85514771D01*
X138945999Y-85514771D02*
X138888856Y-85514771D01*
X138888856Y-85514771D02*
X138803142Y-85486200D01*
X138803142Y-85486200D02*
X138745999Y-85429057D01*
X138745999Y-85429057D02*
X138717428Y-85371914D01*
X138717428Y-85371914D02*
X138688856Y-85257628D01*
X138688856Y-85257628D02*
X138688856Y-85171914D01*
X138688856Y-85171914D02*
X138717428Y-85057628D01*
X138717428Y-85057628D02*
X138745999Y-85000485D01*
X138745999Y-85000485D02*
X138803142Y-84943342D01*
X138803142Y-84943342D02*
X138888856Y-84914771D01*
X138888856Y-84914771D02*
X138945999Y-84914771D01*
X138945999Y-84914771D02*
X139031713Y-84943342D01*
X139031713Y-84943342D02*
X139060285Y-84971914D01*
X139631713Y-85514771D02*
X139288856Y-85514771D01*
X139460285Y-85514771D02*
X139460285Y-84914771D01*
X139460285Y-84914771D02*
X139403142Y-85000485D01*
X139403142Y-85000485D02*
X139345999Y-85057628D01*
X139345999Y-85057628D02*
X139288856Y-85086200D01*
X139917428Y-85514771D02*
X140031714Y-85514771D01*
X140031714Y-85514771D02*
X140088857Y-85486200D01*
X140088857Y-85486200D02*
X140117428Y-85457628D01*
X140117428Y-85457628D02*
X140174571Y-85371914D01*
X140174571Y-85371914D02*
X140203142Y-85257628D01*
X140203142Y-85257628D02*
X140203142Y-85029057D01*
X140203142Y-85029057D02*
X140174571Y-84971914D01*
X140174571Y-84971914D02*
X140146000Y-84943342D01*
X140146000Y-84943342D02*
X140088857Y-84914771D01*
X140088857Y-84914771D02*
X139974571Y-84914771D01*
X139974571Y-84914771D02*
X139917428Y-84943342D01*
X139917428Y-84943342D02*
X139888857Y-84971914D01*
X139888857Y-84971914D02*
X139860285Y-85029057D01*
X139860285Y-85029057D02*
X139860285Y-85171914D01*
X139860285Y-85171914D02*
X139888857Y-85229057D01*
X139888857Y-85229057D02*
X139917428Y-85257628D01*
X139917428Y-85257628D02*
X139974571Y-85286200D01*
X139974571Y-85286200D02*
X140088857Y-85286200D01*
X140088857Y-85286200D02*
X140146000Y-85257628D01*
X140146000Y-85257628D02*
X140174571Y-85229057D01*
X140174571Y-85229057D02*
X140203142Y-85171914D01*
X124175885Y-89527971D02*
X123975885Y-89242257D01*
X123833028Y-89527971D02*
X123833028Y-88927971D01*
X123833028Y-88927971D02*
X124061599Y-88927971D01*
X124061599Y-88927971D02*
X124118742Y-88956542D01*
X124118742Y-88956542D02*
X124147313Y-88985114D01*
X124147313Y-88985114D02*
X124175885Y-89042257D01*
X124175885Y-89042257D02*
X124175885Y-89127971D01*
X124175885Y-89127971D02*
X124147313Y-89185114D01*
X124147313Y-89185114D02*
X124118742Y-89213685D01*
X124118742Y-89213685D02*
X124061599Y-89242257D01*
X124061599Y-89242257D02*
X123833028Y-89242257D01*
X124404456Y-88985114D02*
X124433028Y-88956542D01*
X124433028Y-88956542D02*
X124490171Y-88927971D01*
X124490171Y-88927971D02*
X124633028Y-88927971D01*
X124633028Y-88927971D02*
X124690171Y-88956542D01*
X124690171Y-88956542D02*
X124718742Y-88985114D01*
X124718742Y-88985114D02*
X124747313Y-89042257D01*
X124747313Y-89042257D02*
X124747313Y-89099400D01*
X124747313Y-89099400D02*
X124718742Y-89185114D01*
X124718742Y-89185114D02*
X124375885Y-89527971D01*
X124375885Y-89527971D02*
X124747313Y-89527971D01*
X125261600Y-88927971D02*
X125147314Y-88927971D01*
X125147314Y-88927971D02*
X125090171Y-88956542D01*
X125090171Y-88956542D02*
X125061600Y-88985114D01*
X125061600Y-88985114D02*
X125004457Y-89070828D01*
X125004457Y-89070828D02*
X124975885Y-89185114D01*
X124975885Y-89185114D02*
X124975885Y-89413685D01*
X124975885Y-89413685D02*
X125004457Y-89470828D01*
X125004457Y-89470828D02*
X125033028Y-89499400D01*
X125033028Y-89499400D02*
X125090171Y-89527971D01*
X125090171Y-89527971D02*
X125204457Y-89527971D01*
X125204457Y-89527971D02*
X125261600Y-89499400D01*
X125261600Y-89499400D02*
X125290171Y-89470828D01*
X125290171Y-89470828D02*
X125318742Y-89413685D01*
X125318742Y-89413685D02*
X125318742Y-89270828D01*
X125318742Y-89270828D02*
X125290171Y-89213685D01*
X125290171Y-89213685D02*
X125261600Y-89185114D01*
X125261600Y-89185114D02*
X125204457Y-89156542D01*
X125204457Y-89156542D02*
X125090171Y-89156542D01*
X125090171Y-89156542D02*
X125033028Y-89185114D01*
X125033028Y-89185114D02*
X125004457Y-89213685D01*
X125004457Y-89213685D02*
X124975885Y-89270828D01*
X165090937Y-78814461D02*
X164805223Y-79014461D01*
X165090937Y-79157318D02*
X164490937Y-79157318D01*
X164490937Y-79157318D02*
X164490937Y-78928747D01*
X164490937Y-78928747D02*
X164519508Y-78871604D01*
X164519508Y-78871604D02*
X164548080Y-78843033D01*
X164548080Y-78843033D02*
X164605223Y-78814461D01*
X164605223Y-78814461D02*
X164690937Y-78814461D01*
X164690937Y-78814461D02*
X164748080Y-78843033D01*
X164748080Y-78843033D02*
X164776651Y-78871604D01*
X164776651Y-78871604D02*
X164805223Y-78928747D01*
X164805223Y-78928747D02*
X164805223Y-79157318D01*
X164690937Y-78300176D02*
X165090937Y-78300176D01*
X164462366Y-78443033D02*
X164890937Y-78585890D01*
X164890937Y-78585890D02*
X164890937Y-78214461D01*
X158583429Y-99219910D02*
X158612001Y-99248482D01*
X158612001Y-99248482D02*
X158640572Y-99334196D01*
X158640572Y-99334196D02*
X158640572Y-99391339D01*
X158640572Y-99391339D02*
X158612001Y-99477053D01*
X158612001Y-99477053D02*
X158554858Y-99534196D01*
X158554858Y-99534196D02*
X158497715Y-99562767D01*
X158497715Y-99562767D02*
X158383429Y-99591339D01*
X158383429Y-99591339D02*
X158297715Y-99591339D01*
X158297715Y-99591339D02*
X158183429Y-99562767D01*
X158183429Y-99562767D02*
X158126286Y-99534196D01*
X158126286Y-99534196D02*
X158069143Y-99477053D01*
X158069143Y-99477053D02*
X158040572Y-99391339D01*
X158040572Y-99391339D02*
X158040572Y-99334196D01*
X158040572Y-99334196D02*
X158069143Y-99248482D01*
X158069143Y-99248482D02*
X158097715Y-99219910D01*
X158640572Y-98648482D02*
X158640572Y-98991339D01*
X158640572Y-98819910D02*
X158040572Y-98819910D01*
X158040572Y-98819910D02*
X158126286Y-98877053D01*
X158126286Y-98877053D02*
X158183429Y-98934196D01*
X158183429Y-98934196D02*
X158212001Y-98991339D01*
X158040572Y-98134196D02*
X158040572Y-98248481D01*
X158040572Y-98248481D02*
X158069143Y-98305624D01*
X158069143Y-98305624D02*
X158097715Y-98334196D01*
X158097715Y-98334196D02*
X158183429Y-98391338D01*
X158183429Y-98391338D02*
X158297715Y-98419910D01*
X158297715Y-98419910D02*
X158526286Y-98419910D01*
X158526286Y-98419910D02*
X158583429Y-98391338D01*
X158583429Y-98391338D02*
X158612001Y-98362767D01*
X158612001Y-98362767D02*
X158640572Y-98305624D01*
X158640572Y-98305624D02*
X158640572Y-98191338D01*
X158640572Y-98191338D02*
X158612001Y-98134196D01*
X158612001Y-98134196D02*
X158583429Y-98105624D01*
X158583429Y-98105624D02*
X158526286Y-98077053D01*
X158526286Y-98077053D02*
X158383429Y-98077053D01*
X158383429Y-98077053D02*
X158326286Y-98105624D01*
X158326286Y-98105624D02*
X158297715Y-98134196D01*
X158297715Y-98134196D02*
X158269143Y-98191338D01*
X158269143Y-98191338D02*
X158269143Y-98305624D01*
X158269143Y-98305624D02*
X158297715Y-98362767D01*
X158297715Y-98362767D02*
X158326286Y-98391338D01*
X158326286Y-98391338D02*
X158383429Y-98419910D01*
X152272977Y-93383322D02*
X152301549Y-93411894D01*
X152301549Y-93411894D02*
X152330120Y-93497608D01*
X152330120Y-93497608D02*
X152330120Y-93554751D01*
X152330120Y-93554751D02*
X152301549Y-93640465D01*
X152301549Y-93640465D02*
X152244406Y-93697608D01*
X152244406Y-93697608D02*
X152187263Y-93726179D01*
X152187263Y-93726179D02*
X152072977Y-93754751D01*
X152072977Y-93754751D02*
X151987263Y-93754751D01*
X151987263Y-93754751D02*
X151872977Y-93726179D01*
X151872977Y-93726179D02*
X151815834Y-93697608D01*
X151815834Y-93697608D02*
X151758691Y-93640465D01*
X151758691Y-93640465D02*
X151730120Y-93554751D01*
X151730120Y-93554751D02*
X151730120Y-93497608D01*
X151730120Y-93497608D02*
X151758691Y-93411894D01*
X151758691Y-93411894D02*
X151787263Y-93383322D01*
X152330120Y-92811894D02*
X152330120Y-93154751D01*
X152330120Y-92983322D02*
X151730120Y-92983322D01*
X151730120Y-92983322D02*
X151815834Y-93040465D01*
X151815834Y-93040465D02*
X151872977Y-93097608D01*
X151872977Y-93097608D02*
X151901549Y-93154751D01*
X151787263Y-92583322D02*
X151758691Y-92554750D01*
X151758691Y-92554750D02*
X151730120Y-92497608D01*
X151730120Y-92497608D02*
X151730120Y-92354750D01*
X151730120Y-92354750D02*
X151758691Y-92297608D01*
X151758691Y-92297608D02*
X151787263Y-92269036D01*
X151787263Y-92269036D02*
X151844406Y-92240465D01*
X151844406Y-92240465D02*
X151901549Y-92240465D01*
X151901549Y-92240465D02*
X151987263Y-92269036D01*
X151987263Y-92269036D02*
X152330120Y-92611893D01*
X152330120Y-92611893D02*
X152330120Y-92240465D01*
X158145256Y-82933571D02*
X158488114Y-82933571D01*
X158316685Y-83533571D02*
X158316685Y-82933571D01*
X158688114Y-83533571D02*
X158688114Y-82933571D01*
X158688114Y-82933571D02*
X158916685Y-82933571D01*
X158916685Y-82933571D02*
X158973828Y-82962142D01*
X158973828Y-82962142D02*
X159002399Y-82990714D01*
X159002399Y-82990714D02*
X159030971Y-83047857D01*
X159030971Y-83047857D02*
X159030971Y-83133571D01*
X159030971Y-83133571D02*
X159002399Y-83190714D01*
X159002399Y-83190714D02*
X158973828Y-83219285D01*
X158973828Y-83219285D02*
X158916685Y-83247857D01*
X158916685Y-83247857D02*
X158688114Y-83247857D01*
X159259542Y-82990714D02*
X159288114Y-82962142D01*
X159288114Y-82962142D02*
X159345257Y-82933571D01*
X159345257Y-82933571D02*
X159488114Y-82933571D01*
X159488114Y-82933571D02*
X159545257Y-82962142D01*
X159545257Y-82962142D02*
X159573828Y-82990714D01*
X159573828Y-82990714D02*
X159602399Y-83047857D01*
X159602399Y-83047857D02*
X159602399Y-83105000D01*
X159602399Y-83105000D02*
X159573828Y-83190714D01*
X159573828Y-83190714D02*
X159230971Y-83533571D01*
X159230971Y-83533571D02*
X159602399Y-83533571D01*
X149700817Y-97784691D02*
X149700817Y-97184691D01*
X149700817Y-97184691D02*
X149843674Y-97184691D01*
X149843674Y-97184691D02*
X149929388Y-97213262D01*
X149929388Y-97213262D02*
X149986531Y-97270405D01*
X149986531Y-97270405D02*
X150015102Y-97327548D01*
X150015102Y-97327548D02*
X150043674Y-97441834D01*
X150043674Y-97441834D02*
X150043674Y-97527548D01*
X150043674Y-97527548D02*
X150015102Y-97641834D01*
X150015102Y-97641834D02*
X149986531Y-97698977D01*
X149986531Y-97698977D02*
X149929388Y-97756120D01*
X149929388Y-97756120D02*
X149843674Y-97784691D01*
X149843674Y-97784691D02*
X149700817Y-97784691D01*
X150586531Y-97184691D02*
X150300817Y-97184691D01*
X150300817Y-97184691D02*
X150272245Y-97470405D01*
X150272245Y-97470405D02*
X150300817Y-97441834D01*
X150300817Y-97441834D02*
X150357960Y-97413262D01*
X150357960Y-97413262D02*
X150500817Y-97413262D01*
X150500817Y-97413262D02*
X150557960Y-97441834D01*
X150557960Y-97441834D02*
X150586531Y-97470405D01*
X150586531Y-97470405D02*
X150615102Y-97527548D01*
X150615102Y-97527548D02*
X150615102Y-97670405D01*
X150615102Y-97670405D02*
X150586531Y-97727548D01*
X150586531Y-97727548D02*
X150557960Y-97756120D01*
X150557960Y-97756120D02*
X150500817Y-97784691D01*
X150500817Y-97784691D02*
X150357960Y-97784691D01*
X150357960Y-97784691D02*
X150300817Y-97756120D01*
X150300817Y-97756120D02*
X150272245Y-97727548D01*
X146388796Y-90193938D02*
X146360224Y-90222510D01*
X146360224Y-90222510D02*
X146274510Y-90251081D01*
X146274510Y-90251081D02*
X146217367Y-90251081D01*
X146217367Y-90251081D02*
X146131653Y-90222510D01*
X146131653Y-90222510D02*
X146074510Y-90165367D01*
X146074510Y-90165367D02*
X146045939Y-90108224D01*
X146045939Y-90108224D02*
X146017367Y-89993938D01*
X146017367Y-89993938D02*
X146017367Y-89908224D01*
X146017367Y-89908224D02*
X146045939Y-89793938D01*
X146045939Y-89793938D02*
X146074510Y-89736795D01*
X146074510Y-89736795D02*
X146131653Y-89679652D01*
X146131653Y-89679652D02*
X146217367Y-89651081D01*
X146217367Y-89651081D02*
X146274510Y-89651081D01*
X146274510Y-89651081D02*
X146360224Y-89679652D01*
X146360224Y-89679652D02*
X146388796Y-89708224D01*
X146931653Y-89651081D02*
X146645939Y-89651081D01*
X146645939Y-89651081D02*
X146617367Y-89936795D01*
X146617367Y-89936795D02*
X146645939Y-89908224D01*
X146645939Y-89908224D02*
X146703082Y-89879652D01*
X146703082Y-89879652D02*
X146845939Y-89879652D01*
X146845939Y-89879652D02*
X146903082Y-89908224D01*
X146903082Y-89908224D02*
X146931653Y-89936795D01*
X146931653Y-89936795D02*
X146960224Y-89993938D01*
X146960224Y-89993938D02*
X146960224Y-90136795D01*
X146960224Y-90136795D02*
X146931653Y-90193938D01*
X146931653Y-90193938D02*
X146903082Y-90222510D01*
X146903082Y-90222510D02*
X146845939Y-90251081D01*
X146845939Y-90251081D02*
X146703082Y-90251081D01*
X146703082Y-90251081D02*
X146645939Y-90222510D01*
X146645939Y-90222510D02*
X146617367Y-90193938D01*
X114416000Y-106961796D02*
X114130286Y-106961796D01*
X114130286Y-106961796D02*
X114130286Y-106361796D01*
X114873143Y-106561796D02*
X114873143Y-106961796D01*
X114730285Y-106333225D02*
X114587428Y-106761796D01*
X114587428Y-106761796D02*
X114958857Y-106761796D01*
X153639885Y-88003971D02*
X153439885Y-87718257D01*
X153297028Y-88003971D02*
X153297028Y-87403971D01*
X153297028Y-87403971D02*
X153525599Y-87403971D01*
X153525599Y-87403971D02*
X153582742Y-87432542D01*
X153582742Y-87432542D02*
X153611313Y-87461114D01*
X153611313Y-87461114D02*
X153639885Y-87518257D01*
X153639885Y-87518257D02*
X153639885Y-87603971D01*
X153639885Y-87603971D02*
X153611313Y-87661114D01*
X153611313Y-87661114D02*
X153582742Y-87689685D01*
X153582742Y-87689685D02*
X153525599Y-87718257D01*
X153525599Y-87718257D02*
X153297028Y-87718257D01*
X154211313Y-88003971D02*
X153868456Y-88003971D01*
X154039885Y-88003971D02*
X154039885Y-87403971D01*
X154039885Y-87403971D02*
X153982742Y-87489685D01*
X153982742Y-87489685D02*
X153925599Y-87546828D01*
X153925599Y-87546828D02*
X153868456Y-87575400D01*
X154582742Y-87403971D02*
X154639885Y-87403971D01*
X154639885Y-87403971D02*
X154697028Y-87432542D01*
X154697028Y-87432542D02*
X154725600Y-87461114D01*
X154725600Y-87461114D02*
X154754171Y-87518257D01*
X154754171Y-87518257D02*
X154782742Y-87632542D01*
X154782742Y-87632542D02*
X154782742Y-87775400D01*
X154782742Y-87775400D02*
X154754171Y-87889685D01*
X154754171Y-87889685D02*
X154725600Y-87946828D01*
X154725600Y-87946828D02*
X154697028Y-87975400D01*
X154697028Y-87975400D02*
X154639885Y-88003971D01*
X154639885Y-88003971D02*
X154582742Y-88003971D01*
X154582742Y-88003971D02*
X154525600Y-87975400D01*
X154525600Y-87975400D02*
X154497028Y-87946828D01*
X154497028Y-87946828D02*
X154468457Y-87889685D01*
X154468457Y-87889685D02*
X154439885Y-87775400D01*
X154439885Y-87775400D02*
X154439885Y-87632542D01*
X154439885Y-87632542D02*
X154468457Y-87518257D01*
X154468457Y-87518257D02*
X154497028Y-87461114D01*
X154497028Y-87461114D02*
X154525600Y-87432542D01*
X154525600Y-87432542D02*
X154582742Y-87403971D01*
X164763457Y-119303114D02*
X164706314Y-119274542D01*
X164706314Y-119274542D02*
X164649171Y-119217400D01*
X164649171Y-119217400D02*
X164563457Y-119131685D01*
X164563457Y-119131685D02*
X164506314Y-119103114D01*
X164506314Y-119103114D02*
X164449171Y-119103114D01*
X164477742Y-119245971D02*
X164420600Y-119217400D01*
X164420600Y-119217400D02*
X164363457Y-119160257D01*
X164363457Y-119160257D02*
X164334885Y-119045971D01*
X164334885Y-119045971D02*
X164334885Y-118845971D01*
X164334885Y-118845971D02*
X164363457Y-118731685D01*
X164363457Y-118731685D02*
X164420600Y-118674542D01*
X164420600Y-118674542D02*
X164477742Y-118645971D01*
X164477742Y-118645971D02*
X164592028Y-118645971D01*
X164592028Y-118645971D02*
X164649171Y-118674542D01*
X164649171Y-118674542D02*
X164706314Y-118731685D01*
X164706314Y-118731685D02*
X164734885Y-118845971D01*
X164734885Y-118845971D02*
X164734885Y-119045971D01*
X164734885Y-119045971D02*
X164706314Y-119160257D01*
X164706314Y-119160257D02*
X164649171Y-119217400D01*
X164649171Y-119217400D02*
X164592028Y-119245971D01*
X164592028Y-119245971D02*
X164477742Y-119245971D01*
X165249171Y-118845971D02*
X165249171Y-119245971D01*
X165106313Y-118617400D02*
X164963456Y-119045971D01*
X164963456Y-119045971D02*
X165334885Y-119045971D01*
X146115200Y-92372399D02*
X146086628Y-92458114D01*
X146086628Y-92458114D02*
X146086628Y-92600971D01*
X146086628Y-92600971D02*
X146115200Y-92658114D01*
X146115200Y-92658114D02*
X146143771Y-92686685D01*
X146143771Y-92686685D02*
X146200914Y-92715256D01*
X146200914Y-92715256D02*
X146258057Y-92715256D01*
X146258057Y-92715256D02*
X146315200Y-92686685D01*
X146315200Y-92686685D02*
X146343771Y-92658114D01*
X146343771Y-92658114D02*
X146372342Y-92600971D01*
X146372342Y-92600971D02*
X146400914Y-92486685D01*
X146400914Y-92486685D02*
X146429485Y-92429542D01*
X146429485Y-92429542D02*
X146458057Y-92400971D01*
X146458057Y-92400971D02*
X146515200Y-92372399D01*
X146515200Y-92372399D02*
X146572342Y-92372399D01*
X146572342Y-92372399D02*
X146629485Y-92400971D01*
X146629485Y-92400971D02*
X146658057Y-92429542D01*
X146658057Y-92429542D02*
X146686628Y-92486685D01*
X146686628Y-92486685D02*
X146686628Y-92629542D01*
X146686628Y-92629542D02*
X146658057Y-92715256D01*
X146686628Y-92915257D02*
X146086628Y-93058114D01*
X146086628Y-93058114D02*
X146515200Y-93172400D01*
X146515200Y-93172400D02*
X146086628Y-93286685D01*
X146086628Y-93286685D02*
X146686628Y-93429543D01*
X146086628Y-93972399D02*
X146086628Y-93629542D01*
X146086628Y-93800971D02*
X146686628Y-93800971D01*
X146686628Y-93800971D02*
X146600914Y-93743828D01*
X146600914Y-93743828D02*
X146543771Y-93686685D01*
X146543771Y-93686685D02*
X146515200Y-93629542D01*
X161691685Y-86321228D02*
X161663113Y-86349800D01*
X161663113Y-86349800D02*
X161577399Y-86378371D01*
X161577399Y-86378371D02*
X161520256Y-86378371D01*
X161520256Y-86378371D02*
X161434542Y-86349800D01*
X161434542Y-86349800D02*
X161377399Y-86292657D01*
X161377399Y-86292657D02*
X161348828Y-86235514D01*
X161348828Y-86235514D02*
X161320256Y-86121228D01*
X161320256Y-86121228D02*
X161320256Y-86035514D01*
X161320256Y-86035514D02*
X161348828Y-85921228D01*
X161348828Y-85921228D02*
X161377399Y-85864085D01*
X161377399Y-85864085D02*
X161434542Y-85806942D01*
X161434542Y-85806942D02*
X161520256Y-85778371D01*
X161520256Y-85778371D02*
X161577399Y-85778371D01*
X161577399Y-85778371D02*
X161663113Y-85806942D01*
X161663113Y-85806942D02*
X161691685Y-85835514D01*
X162263113Y-86378371D02*
X161920256Y-86378371D01*
X162091685Y-86378371D02*
X162091685Y-85778371D01*
X162091685Y-85778371D02*
X162034542Y-85864085D01*
X162034542Y-85864085D02*
X161977399Y-85921228D01*
X161977399Y-85921228D02*
X161920256Y-85949800D01*
X162777400Y-85978371D02*
X162777400Y-86378371D01*
X162634542Y-85749800D02*
X162491685Y-86178371D01*
X162491685Y-86178371D02*
X162863114Y-86178371D01*
X154884485Y-92448971D02*
X154684485Y-92163257D01*
X154541628Y-92448971D02*
X154541628Y-91848971D01*
X154541628Y-91848971D02*
X154770199Y-91848971D01*
X154770199Y-91848971D02*
X154827342Y-91877542D01*
X154827342Y-91877542D02*
X154855913Y-91906114D01*
X154855913Y-91906114D02*
X154884485Y-91963257D01*
X154884485Y-91963257D02*
X154884485Y-92048971D01*
X154884485Y-92048971D02*
X154855913Y-92106114D01*
X154855913Y-92106114D02*
X154827342Y-92134685D01*
X154827342Y-92134685D02*
X154770199Y-92163257D01*
X154770199Y-92163257D02*
X154541628Y-92163257D01*
X155113056Y-91906114D02*
X155141628Y-91877542D01*
X155141628Y-91877542D02*
X155198771Y-91848971D01*
X155198771Y-91848971D02*
X155341628Y-91848971D01*
X155341628Y-91848971D02*
X155398771Y-91877542D01*
X155398771Y-91877542D02*
X155427342Y-91906114D01*
X155427342Y-91906114D02*
X155455913Y-91963257D01*
X155455913Y-91963257D02*
X155455913Y-92020400D01*
X155455913Y-92020400D02*
X155427342Y-92106114D01*
X155427342Y-92106114D02*
X155084485Y-92448971D01*
X155084485Y-92448971D02*
X155455913Y-92448971D01*
X155684485Y-91906114D02*
X155713057Y-91877542D01*
X155713057Y-91877542D02*
X155770200Y-91848971D01*
X155770200Y-91848971D02*
X155913057Y-91848971D01*
X155913057Y-91848971D02*
X155970200Y-91877542D01*
X155970200Y-91877542D02*
X155998771Y-91906114D01*
X155998771Y-91906114D02*
X156027342Y-91963257D01*
X156027342Y-91963257D02*
X156027342Y-92020400D01*
X156027342Y-92020400D02*
X155998771Y-92106114D01*
X155998771Y-92106114D02*
X155655914Y-92448971D01*
X155655914Y-92448971D02*
X156027342Y-92448971D01*
X172479442Y-84053279D02*
X172479442Y-84253279D01*
X172793728Y-84253279D02*
X172193728Y-84253279D01*
X172193728Y-84253279D02*
X172193728Y-83967565D01*
X172250871Y-83767565D02*
X172222299Y-83738993D01*
X172222299Y-83738993D02*
X172193728Y-83681851D01*
X172193728Y-83681851D02*
X172193728Y-83538993D01*
X172193728Y-83538993D02*
X172222299Y-83481851D01*
X172222299Y-83481851D02*
X172250871Y-83453279D01*
X172250871Y-83453279D02*
X172308014Y-83424708D01*
X172308014Y-83424708D02*
X172365157Y-83424708D01*
X172365157Y-83424708D02*
X172450871Y-83453279D01*
X172450871Y-83453279D02*
X172793728Y-83796136D01*
X172793728Y-83796136D02*
X172793728Y-83424708D01*
X149416000Y-115791796D02*
X149130286Y-115791796D01*
X149130286Y-115791796D02*
X149130286Y-115191796D01*
X149873143Y-115191796D02*
X149758857Y-115191796D01*
X149758857Y-115191796D02*
X149701714Y-115220367D01*
X149701714Y-115220367D02*
X149673143Y-115248939D01*
X149673143Y-115248939D02*
X149616000Y-115334653D01*
X149616000Y-115334653D02*
X149587428Y-115448939D01*
X149587428Y-115448939D02*
X149587428Y-115677510D01*
X149587428Y-115677510D02*
X149616000Y-115734653D01*
X149616000Y-115734653D02*
X149644571Y-115763225D01*
X149644571Y-115763225D02*
X149701714Y-115791796D01*
X149701714Y-115791796D02*
X149816000Y-115791796D01*
X149816000Y-115791796D02*
X149873143Y-115763225D01*
X149873143Y-115763225D02*
X149901714Y-115734653D01*
X149901714Y-115734653D02*
X149930285Y-115677510D01*
X149930285Y-115677510D02*
X149930285Y-115534653D01*
X149930285Y-115534653D02*
X149901714Y-115477510D01*
X149901714Y-115477510D02*
X149873143Y-115448939D01*
X149873143Y-115448939D02*
X149816000Y-115420367D01*
X149816000Y-115420367D02*
X149701714Y-115420367D01*
X149701714Y-115420367D02*
X149644571Y-115448939D01*
X149644571Y-115448939D02*
X149616000Y-115477510D01*
X149616000Y-115477510D02*
X149587428Y-115534653D01*
X153169021Y-98281758D02*
X152883307Y-98481758D01*
X153169021Y-98624615D02*
X152569021Y-98624615D01*
X152569021Y-98624615D02*
X152569021Y-98396044D01*
X152569021Y-98396044D02*
X152597592Y-98338901D01*
X152597592Y-98338901D02*
X152626164Y-98310330D01*
X152626164Y-98310330D02*
X152683307Y-98281758D01*
X152683307Y-98281758D02*
X152769021Y-98281758D01*
X152769021Y-98281758D02*
X152826164Y-98310330D01*
X152826164Y-98310330D02*
X152854735Y-98338901D01*
X152854735Y-98338901D02*
X152883307Y-98396044D01*
X152883307Y-98396044D02*
X152883307Y-98624615D01*
X152626164Y-98053187D02*
X152597592Y-98024615D01*
X152597592Y-98024615D02*
X152569021Y-97967473D01*
X152569021Y-97967473D02*
X152569021Y-97824615D01*
X152569021Y-97824615D02*
X152597592Y-97767473D01*
X152597592Y-97767473D02*
X152626164Y-97738901D01*
X152626164Y-97738901D02*
X152683307Y-97710330D01*
X152683307Y-97710330D02*
X152740450Y-97710330D01*
X152740450Y-97710330D02*
X152826164Y-97738901D01*
X152826164Y-97738901D02*
X153169021Y-98081758D01*
X153169021Y-98081758D02*
X153169021Y-97710330D01*
X152769021Y-97196044D02*
X153169021Y-97196044D01*
X152540450Y-97338901D02*
X152969021Y-97481758D01*
X152969021Y-97481758D02*
X152969021Y-97110329D01*
X154106656Y-76837571D02*
X154449514Y-76837571D01*
X154278085Y-77437571D02*
X154278085Y-76837571D01*
X154649514Y-77437571D02*
X154649514Y-76837571D01*
X154649514Y-76837571D02*
X154878085Y-76837571D01*
X154878085Y-76837571D02*
X154935228Y-76866142D01*
X154935228Y-76866142D02*
X154963799Y-76894714D01*
X154963799Y-76894714D02*
X154992371Y-76951857D01*
X154992371Y-76951857D02*
X154992371Y-77037571D01*
X154992371Y-77037571D02*
X154963799Y-77094714D01*
X154963799Y-77094714D02*
X154935228Y-77123285D01*
X154935228Y-77123285D02*
X154878085Y-77151857D01*
X154878085Y-77151857D02*
X154649514Y-77151857D01*
X155563799Y-77437571D02*
X155220942Y-77437571D01*
X155392371Y-77437571D02*
X155392371Y-76837571D01*
X155392371Y-76837571D02*
X155335228Y-76923285D01*
X155335228Y-76923285D02*
X155278085Y-76980428D01*
X155278085Y-76980428D02*
X155220942Y-77009000D01*
X167875178Y-78786021D02*
X167589464Y-78986021D01*
X167875178Y-79128878D02*
X167275178Y-79128878D01*
X167275178Y-79128878D02*
X167275178Y-78900307D01*
X167275178Y-78900307D02*
X167303749Y-78843164D01*
X167303749Y-78843164D02*
X167332321Y-78814593D01*
X167332321Y-78814593D02*
X167389464Y-78786021D01*
X167389464Y-78786021D02*
X167475178Y-78786021D01*
X167475178Y-78786021D02*
X167532321Y-78814593D01*
X167532321Y-78814593D02*
X167560892Y-78843164D01*
X167560892Y-78843164D02*
X167589464Y-78900307D01*
X167589464Y-78900307D02*
X167589464Y-79128878D01*
X167275178Y-78271736D02*
X167275178Y-78386021D01*
X167275178Y-78386021D02*
X167303749Y-78443164D01*
X167303749Y-78443164D02*
X167332321Y-78471736D01*
X167332321Y-78471736D02*
X167418035Y-78528878D01*
X167418035Y-78528878D02*
X167532321Y-78557450D01*
X167532321Y-78557450D02*
X167760892Y-78557450D01*
X167760892Y-78557450D02*
X167818035Y-78528878D01*
X167818035Y-78528878D02*
X167846607Y-78500307D01*
X167846607Y-78500307D02*
X167875178Y-78443164D01*
X167875178Y-78443164D02*
X167875178Y-78328878D01*
X167875178Y-78328878D02*
X167846607Y-78271736D01*
X167846607Y-78271736D02*
X167818035Y-78243164D01*
X167818035Y-78243164D02*
X167760892Y-78214593D01*
X167760892Y-78214593D02*
X167618035Y-78214593D01*
X167618035Y-78214593D02*
X167560892Y-78243164D01*
X167560892Y-78243164D02*
X167532321Y-78271736D01*
X167532321Y-78271736D02*
X167503749Y-78328878D01*
X167503749Y-78328878D02*
X167503749Y-78443164D01*
X167503749Y-78443164D02*
X167532321Y-78500307D01*
X167532321Y-78500307D02*
X167560892Y-78528878D01*
X167560892Y-78528878D02*
X167618035Y-78557450D01*
X144112817Y-97784691D02*
X144112817Y-97184691D01*
X144112817Y-97184691D02*
X144255674Y-97184691D01*
X144255674Y-97184691D02*
X144341388Y-97213262D01*
X144341388Y-97213262D02*
X144398531Y-97270405D01*
X144398531Y-97270405D02*
X144427102Y-97327548D01*
X144427102Y-97327548D02*
X144455674Y-97441834D01*
X144455674Y-97441834D02*
X144455674Y-97527548D01*
X144455674Y-97527548D02*
X144427102Y-97641834D01*
X144427102Y-97641834D02*
X144398531Y-97698977D01*
X144398531Y-97698977D02*
X144341388Y-97756120D01*
X144341388Y-97756120D02*
X144255674Y-97784691D01*
X144255674Y-97784691D02*
X144112817Y-97784691D01*
X144655674Y-97184691D02*
X145055674Y-97184691D01*
X145055674Y-97184691D02*
X144798531Y-97784691D01*
X127938266Y-85797408D02*
X127738266Y-85511694D01*
X127595409Y-85797408D02*
X127595409Y-85197408D01*
X127595409Y-85197408D02*
X127823980Y-85197408D01*
X127823980Y-85197408D02*
X127881123Y-85225979D01*
X127881123Y-85225979D02*
X127909694Y-85254551D01*
X127909694Y-85254551D02*
X127938266Y-85311694D01*
X127938266Y-85311694D02*
X127938266Y-85397408D01*
X127938266Y-85397408D02*
X127909694Y-85454551D01*
X127909694Y-85454551D02*
X127881123Y-85483122D01*
X127881123Y-85483122D02*
X127823980Y-85511694D01*
X127823980Y-85511694D02*
X127595409Y-85511694D01*
X128509694Y-85797408D02*
X128166837Y-85797408D01*
X128338266Y-85797408D02*
X128338266Y-85197408D01*
X128338266Y-85197408D02*
X128281123Y-85283122D01*
X128281123Y-85283122D02*
X128223980Y-85340265D01*
X128223980Y-85340265D02*
X128166837Y-85368837D01*
X128795409Y-85797408D02*
X128909695Y-85797408D01*
X128909695Y-85797408D02*
X128966838Y-85768837D01*
X128966838Y-85768837D02*
X128995409Y-85740265D01*
X128995409Y-85740265D02*
X129052552Y-85654551D01*
X129052552Y-85654551D02*
X129081123Y-85540265D01*
X129081123Y-85540265D02*
X129081123Y-85311694D01*
X129081123Y-85311694D02*
X129052552Y-85254551D01*
X129052552Y-85254551D02*
X129023981Y-85225979D01*
X129023981Y-85225979D02*
X128966838Y-85197408D01*
X128966838Y-85197408D02*
X128852552Y-85197408D01*
X128852552Y-85197408D02*
X128795409Y-85225979D01*
X128795409Y-85225979D02*
X128766838Y-85254551D01*
X128766838Y-85254551D02*
X128738266Y-85311694D01*
X128738266Y-85311694D02*
X128738266Y-85454551D01*
X128738266Y-85454551D02*
X128766838Y-85511694D01*
X128766838Y-85511694D02*
X128795409Y-85540265D01*
X128795409Y-85540265D02*
X128852552Y-85568837D01*
X128852552Y-85568837D02*
X128966838Y-85568837D01*
X128966838Y-85568837D02*
X129023981Y-85540265D01*
X129023981Y-85540265D02*
X129052552Y-85511694D01*
X129052552Y-85511694D02*
X129081123Y-85454551D01*
X110898000Y-110508371D02*
X110612286Y-110508371D01*
X110612286Y-110508371D02*
X110612286Y-109908371D01*
X111040857Y-109908371D02*
X111412285Y-109908371D01*
X111412285Y-109908371D02*
X111212285Y-110136942D01*
X111212285Y-110136942D02*
X111298000Y-110136942D01*
X111298000Y-110136942D02*
X111355143Y-110165514D01*
X111355143Y-110165514D02*
X111383714Y-110194085D01*
X111383714Y-110194085D02*
X111412285Y-110251228D01*
X111412285Y-110251228D02*
X111412285Y-110394085D01*
X111412285Y-110394085D02*
X111383714Y-110451228D01*
X111383714Y-110451228D02*
X111355143Y-110479800D01*
X111355143Y-110479800D02*
X111298000Y-110508371D01*
X111298000Y-110508371D02*
X111126571Y-110508371D01*
X111126571Y-110508371D02*
X111069428Y-110479800D01*
X111069428Y-110479800D02*
X111040857Y-110451228D01*
X130289971Y-90984400D02*
X130261400Y-90955828D01*
X130261400Y-90955828D02*
X130232828Y-90870114D01*
X130232828Y-90870114D02*
X130232828Y-90812971D01*
X130232828Y-90812971D02*
X130261400Y-90727257D01*
X130261400Y-90727257D02*
X130318542Y-90670114D01*
X130318542Y-90670114D02*
X130375685Y-90641543D01*
X130375685Y-90641543D02*
X130489971Y-90612971D01*
X130489971Y-90612971D02*
X130575685Y-90612971D01*
X130575685Y-90612971D02*
X130689971Y-90641543D01*
X130689971Y-90641543D02*
X130747114Y-90670114D01*
X130747114Y-90670114D02*
X130804257Y-90727257D01*
X130804257Y-90727257D02*
X130832828Y-90812971D01*
X130832828Y-90812971D02*
X130832828Y-90870114D01*
X130832828Y-90870114D02*
X130804257Y-90955828D01*
X130804257Y-90955828D02*
X130775685Y-90984400D01*
X130775685Y-91212971D02*
X130804257Y-91241543D01*
X130804257Y-91241543D02*
X130832828Y-91298686D01*
X130832828Y-91298686D02*
X130832828Y-91441543D01*
X130832828Y-91441543D02*
X130804257Y-91498686D01*
X130804257Y-91498686D02*
X130775685Y-91527257D01*
X130775685Y-91527257D02*
X130718542Y-91555828D01*
X130718542Y-91555828D02*
X130661400Y-91555828D01*
X130661400Y-91555828D02*
X130575685Y-91527257D01*
X130575685Y-91527257D02*
X130232828Y-91184400D01*
X130232828Y-91184400D02*
X130232828Y-91555828D01*
X141318817Y-97784691D02*
X141318817Y-97184691D01*
X141318817Y-97184691D02*
X141461674Y-97184691D01*
X141461674Y-97184691D02*
X141547388Y-97213262D01*
X141547388Y-97213262D02*
X141604531Y-97270405D01*
X141604531Y-97270405D02*
X141633102Y-97327548D01*
X141633102Y-97327548D02*
X141661674Y-97441834D01*
X141661674Y-97441834D02*
X141661674Y-97527548D01*
X141661674Y-97527548D02*
X141633102Y-97641834D01*
X141633102Y-97641834D02*
X141604531Y-97698977D01*
X141604531Y-97698977D02*
X141547388Y-97756120D01*
X141547388Y-97756120D02*
X141461674Y-97784691D01*
X141461674Y-97784691D02*
X141318817Y-97784691D01*
X142004531Y-97441834D02*
X141947388Y-97413262D01*
X141947388Y-97413262D02*
X141918817Y-97384691D01*
X141918817Y-97384691D02*
X141890245Y-97327548D01*
X141890245Y-97327548D02*
X141890245Y-97298977D01*
X141890245Y-97298977D02*
X141918817Y-97241834D01*
X141918817Y-97241834D02*
X141947388Y-97213262D01*
X141947388Y-97213262D02*
X142004531Y-97184691D01*
X142004531Y-97184691D02*
X142118817Y-97184691D01*
X142118817Y-97184691D02*
X142175960Y-97213262D01*
X142175960Y-97213262D02*
X142204531Y-97241834D01*
X142204531Y-97241834D02*
X142233102Y-97298977D01*
X142233102Y-97298977D02*
X142233102Y-97327548D01*
X142233102Y-97327548D02*
X142204531Y-97384691D01*
X142204531Y-97384691D02*
X142175960Y-97413262D01*
X142175960Y-97413262D02*
X142118817Y-97441834D01*
X142118817Y-97441834D02*
X142004531Y-97441834D01*
X142004531Y-97441834D02*
X141947388Y-97470405D01*
X141947388Y-97470405D02*
X141918817Y-97498977D01*
X141918817Y-97498977D02*
X141890245Y-97556120D01*
X141890245Y-97556120D02*
X141890245Y-97670405D01*
X141890245Y-97670405D02*
X141918817Y-97727548D01*
X141918817Y-97727548D02*
X141947388Y-97756120D01*
X141947388Y-97756120D02*
X142004531Y-97784691D01*
X142004531Y-97784691D02*
X142118817Y-97784691D01*
X142118817Y-97784691D02*
X142175960Y-97756120D01*
X142175960Y-97756120D02*
X142204531Y-97727548D01*
X142204531Y-97727548D02*
X142233102Y-97670405D01*
X142233102Y-97670405D02*
X142233102Y-97556120D01*
X142233102Y-97556120D02*
X142204531Y-97498977D01*
X142204531Y-97498977D02*
X142175960Y-97470405D01*
X142175960Y-97470405D02*
X142118817Y-97441834D01*
X130726771Y-86967999D02*
X130441057Y-87167999D01*
X130726771Y-87310856D02*
X130126771Y-87310856D01*
X130126771Y-87310856D02*
X130126771Y-87082285D01*
X130126771Y-87082285D02*
X130155342Y-87025142D01*
X130155342Y-87025142D02*
X130183914Y-86996571D01*
X130183914Y-86996571D02*
X130241057Y-86967999D01*
X130241057Y-86967999D02*
X130326771Y-86967999D01*
X130326771Y-86967999D02*
X130383914Y-86996571D01*
X130383914Y-86996571D02*
X130412485Y-87025142D01*
X130412485Y-87025142D02*
X130441057Y-87082285D01*
X130441057Y-87082285D02*
X130441057Y-87310856D01*
X130726771Y-86682285D02*
X130726771Y-86567999D01*
X130726771Y-86567999D02*
X130698200Y-86510856D01*
X130698200Y-86510856D02*
X130669628Y-86482285D01*
X130669628Y-86482285D02*
X130583914Y-86425142D01*
X130583914Y-86425142D02*
X130469628Y-86396571D01*
X130469628Y-86396571D02*
X130241057Y-86396571D01*
X130241057Y-86396571D02*
X130183914Y-86425142D01*
X130183914Y-86425142D02*
X130155342Y-86453714D01*
X130155342Y-86453714D02*
X130126771Y-86510856D01*
X130126771Y-86510856D02*
X130126771Y-86625142D01*
X130126771Y-86625142D02*
X130155342Y-86682285D01*
X130155342Y-86682285D02*
X130183914Y-86710856D01*
X130183914Y-86710856D02*
X130241057Y-86739428D01*
X130241057Y-86739428D02*
X130383914Y-86739428D01*
X130383914Y-86739428D02*
X130441057Y-86710856D01*
X130441057Y-86710856D02*
X130469628Y-86682285D01*
X130469628Y-86682285D02*
X130498200Y-86625142D01*
X130498200Y-86625142D02*
X130498200Y-86510856D01*
X130498200Y-86510856D02*
X130469628Y-86453714D01*
X130469628Y-86453714D02*
X130441057Y-86425142D01*
X130441057Y-86425142D02*
X130383914Y-86396571D01*
X131888238Y-86059175D02*
X131888238Y-86544889D01*
X131888238Y-86544889D02*
X131916809Y-86602032D01*
X131916809Y-86602032D02*
X131945381Y-86630604D01*
X131945381Y-86630604D02*
X132002523Y-86659175D01*
X132002523Y-86659175D02*
X132116809Y-86659175D01*
X132116809Y-86659175D02*
X132173952Y-86630604D01*
X132173952Y-86630604D02*
X132202523Y-86602032D01*
X132202523Y-86602032D02*
X132231095Y-86544889D01*
X132231095Y-86544889D02*
X132231095Y-86059175D01*
X132488237Y-86116318D02*
X132516809Y-86087746D01*
X132516809Y-86087746D02*
X132573952Y-86059175D01*
X132573952Y-86059175D02*
X132716809Y-86059175D01*
X132716809Y-86059175D02*
X132773952Y-86087746D01*
X132773952Y-86087746D02*
X132802523Y-86116318D01*
X132802523Y-86116318D02*
X132831094Y-86173461D01*
X132831094Y-86173461D02*
X132831094Y-86230604D01*
X132831094Y-86230604D02*
X132802523Y-86316318D01*
X132802523Y-86316318D02*
X132459666Y-86659175D01*
X132459666Y-86659175D02*
X132831094Y-86659175D01*
X168152714Y-89288028D02*
X168352714Y-89573742D01*
X168495571Y-89288028D02*
X168495571Y-89888028D01*
X168495571Y-89888028D02*
X168267000Y-89888028D01*
X168267000Y-89888028D02*
X168209857Y-89859457D01*
X168209857Y-89859457D02*
X168181286Y-89830885D01*
X168181286Y-89830885D02*
X168152714Y-89773742D01*
X168152714Y-89773742D02*
X168152714Y-89688028D01*
X168152714Y-89688028D02*
X168181286Y-89630885D01*
X168181286Y-89630885D02*
X168209857Y-89602314D01*
X168209857Y-89602314D02*
X168267000Y-89573742D01*
X168267000Y-89573742D02*
X168495571Y-89573742D01*
X167924143Y-89830885D02*
X167895571Y-89859457D01*
X167895571Y-89859457D02*
X167838429Y-89888028D01*
X167838429Y-89888028D02*
X167695571Y-89888028D01*
X167695571Y-89888028D02*
X167638429Y-89859457D01*
X167638429Y-89859457D02*
X167609857Y-89830885D01*
X167609857Y-89830885D02*
X167581286Y-89773742D01*
X167581286Y-89773742D02*
X167581286Y-89716600D01*
X167581286Y-89716600D02*
X167609857Y-89630885D01*
X167609857Y-89630885D02*
X167952714Y-89288028D01*
X167952714Y-89288028D02*
X167581286Y-89288028D01*
X167009857Y-89288028D02*
X167352714Y-89288028D01*
X167181285Y-89288028D02*
X167181285Y-89888028D01*
X167181285Y-89888028D02*
X167238428Y-89802314D01*
X167238428Y-89802314D02*
X167295571Y-89745171D01*
X167295571Y-89745171D02*
X167352714Y-89716600D01*
X153141456Y-84203571D02*
X153484314Y-84203571D01*
X153312885Y-84803571D02*
X153312885Y-84203571D01*
X153684314Y-84803571D02*
X153684314Y-84203571D01*
X153684314Y-84203571D02*
X153912885Y-84203571D01*
X153912885Y-84203571D02*
X153970028Y-84232142D01*
X153970028Y-84232142D02*
X153998599Y-84260714D01*
X153998599Y-84260714D02*
X154027171Y-84317857D01*
X154027171Y-84317857D02*
X154027171Y-84403571D01*
X154027171Y-84403571D02*
X153998599Y-84460714D01*
X153998599Y-84460714D02*
X153970028Y-84489285D01*
X153970028Y-84489285D02*
X153912885Y-84517857D01*
X153912885Y-84517857D02*
X153684314Y-84517857D01*
X154312885Y-84803571D02*
X154427171Y-84803571D01*
X154427171Y-84803571D02*
X154484314Y-84775000D01*
X154484314Y-84775000D02*
X154512885Y-84746428D01*
X154512885Y-84746428D02*
X154570028Y-84660714D01*
X154570028Y-84660714D02*
X154598599Y-84546428D01*
X154598599Y-84546428D02*
X154598599Y-84317857D01*
X154598599Y-84317857D02*
X154570028Y-84260714D01*
X154570028Y-84260714D02*
X154541457Y-84232142D01*
X154541457Y-84232142D02*
X154484314Y-84203571D01*
X154484314Y-84203571D02*
X154370028Y-84203571D01*
X154370028Y-84203571D02*
X154312885Y-84232142D01*
X154312885Y-84232142D02*
X154284314Y-84260714D01*
X154284314Y-84260714D02*
X154255742Y-84317857D01*
X154255742Y-84317857D02*
X154255742Y-84460714D01*
X154255742Y-84460714D02*
X154284314Y-84517857D01*
X154284314Y-84517857D02*
X154312885Y-84546428D01*
X154312885Y-84546428D02*
X154370028Y-84575000D01*
X154370028Y-84575000D02*
X154484314Y-84575000D01*
X154484314Y-84575000D02*
X154541457Y-84546428D01*
X154541457Y-84546428D02*
X154570028Y-84517857D01*
X154570028Y-84517857D02*
X154598599Y-84460714D01*
X153843138Y-90821971D02*
X153643138Y-90536257D01*
X153500281Y-90821971D02*
X153500281Y-90221971D01*
X153500281Y-90221971D02*
X153728852Y-90221971D01*
X153728852Y-90221971D02*
X153785995Y-90250542D01*
X153785995Y-90250542D02*
X153814566Y-90279114D01*
X153814566Y-90279114D02*
X153843138Y-90336257D01*
X153843138Y-90336257D02*
X153843138Y-90421971D01*
X153843138Y-90421971D02*
X153814566Y-90479114D01*
X153814566Y-90479114D02*
X153785995Y-90507685D01*
X153785995Y-90507685D02*
X153728852Y-90536257D01*
X153728852Y-90536257D02*
X153500281Y-90536257D01*
X154071709Y-90279114D02*
X154100281Y-90250542D01*
X154100281Y-90250542D02*
X154157424Y-90221971D01*
X154157424Y-90221971D02*
X154300281Y-90221971D01*
X154300281Y-90221971D02*
X154357424Y-90250542D01*
X154357424Y-90250542D02*
X154385995Y-90279114D01*
X154385995Y-90279114D02*
X154414566Y-90336257D01*
X154414566Y-90336257D02*
X154414566Y-90393400D01*
X154414566Y-90393400D02*
X154385995Y-90479114D01*
X154385995Y-90479114D02*
X154043138Y-90821971D01*
X154043138Y-90821971D02*
X154414566Y-90821971D01*
X154614567Y-90221971D02*
X154985995Y-90221971D01*
X154985995Y-90221971D02*
X154785995Y-90450542D01*
X154785995Y-90450542D02*
X154871710Y-90450542D01*
X154871710Y-90450542D02*
X154928853Y-90479114D01*
X154928853Y-90479114D02*
X154957424Y-90507685D01*
X154957424Y-90507685D02*
X154985995Y-90564828D01*
X154985995Y-90564828D02*
X154985995Y-90707685D01*
X154985995Y-90707685D02*
X154957424Y-90764828D01*
X154957424Y-90764828D02*
X154928853Y-90793400D01*
X154928853Y-90793400D02*
X154871710Y-90821971D01*
X154871710Y-90821971D02*
X154700281Y-90821971D01*
X154700281Y-90821971D02*
X154643138Y-90793400D01*
X154643138Y-90793400D02*
X154614567Y-90764828D01*
X143553771Y-81125999D02*
X143268057Y-81325999D01*
X143553771Y-81468856D02*
X142953771Y-81468856D01*
X142953771Y-81468856D02*
X142953771Y-81240285D01*
X142953771Y-81240285D02*
X142982342Y-81183142D01*
X142982342Y-81183142D02*
X143010914Y-81154571D01*
X143010914Y-81154571D02*
X143068057Y-81125999D01*
X143068057Y-81125999D02*
X143153771Y-81125999D01*
X143153771Y-81125999D02*
X143210914Y-81154571D01*
X143210914Y-81154571D02*
X143239485Y-81183142D01*
X143239485Y-81183142D02*
X143268057Y-81240285D01*
X143268057Y-81240285D02*
X143268057Y-81468856D01*
X142953771Y-80925999D02*
X142953771Y-80525999D01*
X142953771Y-80525999D02*
X143553771Y-80783142D01*
X132673845Y-83587100D02*
X132702417Y-83615672D01*
X132702417Y-83615672D02*
X132730988Y-83701386D01*
X132730988Y-83701386D02*
X132730988Y-83758529D01*
X132730988Y-83758529D02*
X132702417Y-83844243D01*
X132702417Y-83844243D02*
X132645274Y-83901386D01*
X132645274Y-83901386D02*
X132588131Y-83929957D01*
X132588131Y-83929957D02*
X132473845Y-83958529D01*
X132473845Y-83958529D02*
X132388131Y-83958529D01*
X132388131Y-83958529D02*
X132273845Y-83929957D01*
X132273845Y-83929957D02*
X132216702Y-83901386D01*
X132216702Y-83901386D02*
X132159559Y-83844243D01*
X132159559Y-83844243D02*
X132130988Y-83758529D01*
X132130988Y-83758529D02*
X132130988Y-83701386D01*
X132130988Y-83701386D02*
X132159559Y-83615672D01*
X132159559Y-83615672D02*
X132188131Y-83587100D01*
X132130988Y-83387100D02*
X132130988Y-83015672D01*
X132130988Y-83015672D02*
X132359559Y-83215672D01*
X132359559Y-83215672D02*
X132359559Y-83129957D01*
X132359559Y-83129957D02*
X132388131Y-83072815D01*
X132388131Y-83072815D02*
X132416702Y-83044243D01*
X132416702Y-83044243D02*
X132473845Y-83015672D01*
X132473845Y-83015672D02*
X132616702Y-83015672D01*
X132616702Y-83015672D02*
X132673845Y-83044243D01*
X132673845Y-83044243D02*
X132702417Y-83072815D01*
X132702417Y-83072815D02*
X132730988Y-83129957D01*
X132730988Y-83129957D02*
X132730988Y-83301386D01*
X132730988Y-83301386D02*
X132702417Y-83358529D01*
X132702417Y-83358529D02*
X132673845Y-83387100D01*
X132935130Y-87123600D02*
X132906559Y-87095028D01*
X132906559Y-87095028D02*
X132877987Y-87009314D01*
X132877987Y-87009314D02*
X132877987Y-86952171D01*
X132877987Y-86952171D02*
X132906559Y-86866457D01*
X132906559Y-86866457D02*
X132963701Y-86809314D01*
X132963701Y-86809314D02*
X133020844Y-86780743D01*
X133020844Y-86780743D02*
X133135130Y-86752171D01*
X133135130Y-86752171D02*
X133220844Y-86752171D01*
X133220844Y-86752171D02*
X133335130Y-86780743D01*
X133335130Y-86780743D02*
X133392273Y-86809314D01*
X133392273Y-86809314D02*
X133449416Y-86866457D01*
X133449416Y-86866457D02*
X133477987Y-86952171D01*
X133477987Y-86952171D02*
X133477987Y-87009314D01*
X133477987Y-87009314D02*
X133449416Y-87095028D01*
X133449416Y-87095028D02*
X133420844Y-87123600D01*
X132877987Y-87695028D02*
X132877987Y-87352171D01*
X132877987Y-87523600D02*
X133477987Y-87523600D01*
X133477987Y-87523600D02*
X133392273Y-87466457D01*
X133392273Y-87466457D02*
X133335130Y-87409314D01*
X133335130Y-87409314D02*
X133306559Y-87352171D01*
X170139794Y-94156116D02*
X170425508Y-94156116D01*
X169825508Y-94356116D02*
X170139794Y-94156116D01*
X170139794Y-94156116D02*
X169825508Y-93956116D01*
X170425508Y-93441830D02*
X170425508Y-93784687D01*
X170425508Y-93613258D02*
X169825508Y-93613258D01*
X169825508Y-93613258D02*
X169911222Y-93670401D01*
X169911222Y-93670401D02*
X169968365Y-93727544D01*
X169968365Y-93727544D02*
X169996937Y-93784687D01*
X133642771Y-91441600D02*
X133614200Y-91413028D01*
X133614200Y-91413028D02*
X133585628Y-91327314D01*
X133585628Y-91327314D02*
X133585628Y-91270171D01*
X133585628Y-91270171D02*
X133614200Y-91184457D01*
X133614200Y-91184457D02*
X133671342Y-91127314D01*
X133671342Y-91127314D02*
X133728485Y-91098743D01*
X133728485Y-91098743D02*
X133842771Y-91070171D01*
X133842771Y-91070171D02*
X133928485Y-91070171D01*
X133928485Y-91070171D02*
X134042771Y-91098743D01*
X134042771Y-91098743D02*
X134099914Y-91127314D01*
X134099914Y-91127314D02*
X134157057Y-91184457D01*
X134157057Y-91184457D02*
X134185628Y-91270171D01*
X134185628Y-91270171D02*
X134185628Y-91327314D01*
X134185628Y-91327314D02*
X134157057Y-91413028D01*
X134157057Y-91413028D02*
X134128485Y-91441600D01*
X134185628Y-91641600D02*
X134185628Y-92041600D01*
X134185628Y-92041600D02*
X133585628Y-91784457D01*
X167881985Y-86684848D02*
X167596271Y-86884848D01*
X167881985Y-87027705D02*
X167281985Y-87027705D01*
X167281985Y-87027705D02*
X167281985Y-86799134D01*
X167281985Y-86799134D02*
X167310556Y-86741991D01*
X167310556Y-86741991D02*
X167339128Y-86713420D01*
X167339128Y-86713420D02*
X167396271Y-86684848D01*
X167396271Y-86684848D02*
X167481985Y-86684848D01*
X167481985Y-86684848D02*
X167539128Y-86713420D01*
X167539128Y-86713420D02*
X167567699Y-86741991D01*
X167567699Y-86741991D02*
X167596271Y-86799134D01*
X167596271Y-86799134D02*
X167596271Y-87027705D01*
X167281985Y-86484848D02*
X167281985Y-86113420D01*
X167281985Y-86113420D02*
X167510556Y-86313420D01*
X167510556Y-86313420D02*
X167510556Y-86227705D01*
X167510556Y-86227705D02*
X167539128Y-86170563D01*
X167539128Y-86170563D02*
X167567699Y-86141991D01*
X167567699Y-86141991D02*
X167624842Y-86113420D01*
X167624842Y-86113420D02*
X167767699Y-86113420D01*
X167767699Y-86113420D02*
X167824842Y-86141991D01*
X167824842Y-86141991D02*
X167853414Y-86170563D01*
X167853414Y-86170563D02*
X167881985Y-86227705D01*
X167881985Y-86227705D02*
X167881985Y-86399134D01*
X167881985Y-86399134D02*
X167853414Y-86456277D01*
X167853414Y-86456277D02*
X167824842Y-86484848D01*
X166562477Y-78767211D02*
X166276763Y-78967211D01*
X166562477Y-79110068D02*
X165962477Y-79110068D01*
X165962477Y-79110068D02*
X165962477Y-78881497D01*
X165962477Y-78881497D02*
X165991048Y-78824354D01*
X165991048Y-78824354D02*
X166019620Y-78795783D01*
X166019620Y-78795783D02*
X166076763Y-78767211D01*
X166076763Y-78767211D02*
X166162477Y-78767211D01*
X166162477Y-78767211D02*
X166219620Y-78795783D01*
X166219620Y-78795783D02*
X166248191Y-78824354D01*
X166248191Y-78824354D02*
X166276763Y-78881497D01*
X166276763Y-78881497D02*
X166276763Y-79110068D01*
X165962477Y-78224354D02*
X165962477Y-78510068D01*
X165962477Y-78510068D02*
X166248191Y-78538640D01*
X166248191Y-78538640D02*
X166219620Y-78510068D01*
X166219620Y-78510068D02*
X166191048Y-78452926D01*
X166191048Y-78452926D02*
X166191048Y-78310068D01*
X166191048Y-78310068D02*
X166219620Y-78252926D01*
X166219620Y-78252926D02*
X166248191Y-78224354D01*
X166248191Y-78224354D02*
X166305334Y-78195783D01*
X166305334Y-78195783D02*
X166448191Y-78195783D01*
X166448191Y-78195783D02*
X166505334Y-78224354D01*
X166505334Y-78224354D02*
X166533906Y-78252926D01*
X166533906Y-78252926D02*
X166562477Y-78310068D01*
X166562477Y-78310068D02*
X166562477Y-78452926D01*
X166562477Y-78452926D02*
X166533906Y-78510068D01*
X166533906Y-78510068D02*
X166505334Y-78538640D01*
X167054199Y-122060371D02*
X167082771Y-122031800D01*
X167082771Y-122031800D02*
X167168485Y-122003228D01*
X167168485Y-122003228D02*
X167225628Y-122003228D01*
X167225628Y-122003228D02*
X167311342Y-122031800D01*
X167311342Y-122031800D02*
X167368485Y-122088942D01*
X167368485Y-122088942D02*
X167397056Y-122146085D01*
X167397056Y-122146085D02*
X167425628Y-122260371D01*
X167425628Y-122260371D02*
X167425628Y-122346085D01*
X167425628Y-122346085D02*
X167397056Y-122460371D01*
X167397056Y-122460371D02*
X167368485Y-122517514D01*
X167368485Y-122517514D02*
X167311342Y-122574657D01*
X167311342Y-122574657D02*
X167225628Y-122603228D01*
X167225628Y-122603228D02*
X167168485Y-122603228D01*
X167168485Y-122603228D02*
X167082771Y-122574657D01*
X167082771Y-122574657D02*
X167054199Y-122546085D01*
X166711342Y-122346085D02*
X166768485Y-122374657D01*
X166768485Y-122374657D02*
X166797056Y-122403228D01*
X166797056Y-122403228D02*
X166825628Y-122460371D01*
X166825628Y-122460371D02*
X166825628Y-122488942D01*
X166825628Y-122488942D02*
X166797056Y-122546085D01*
X166797056Y-122546085D02*
X166768485Y-122574657D01*
X166768485Y-122574657D02*
X166711342Y-122603228D01*
X166711342Y-122603228D02*
X166597056Y-122603228D01*
X166597056Y-122603228D02*
X166539914Y-122574657D01*
X166539914Y-122574657D02*
X166511342Y-122546085D01*
X166511342Y-122546085D02*
X166482771Y-122488942D01*
X166482771Y-122488942D02*
X166482771Y-122460371D01*
X166482771Y-122460371D02*
X166511342Y-122403228D01*
X166511342Y-122403228D02*
X166539914Y-122374657D01*
X166539914Y-122374657D02*
X166597056Y-122346085D01*
X166597056Y-122346085D02*
X166711342Y-122346085D01*
X166711342Y-122346085D02*
X166768485Y-122317514D01*
X166768485Y-122317514D02*
X166797056Y-122288942D01*
X166797056Y-122288942D02*
X166825628Y-122231800D01*
X166825628Y-122231800D02*
X166825628Y-122117514D01*
X166825628Y-122117514D02*
X166797056Y-122060371D01*
X166797056Y-122060371D02*
X166768485Y-122031800D01*
X166768485Y-122031800D02*
X166711342Y-122003228D01*
X166711342Y-122003228D02*
X166597056Y-122003228D01*
X166597056Y-122003228D02*
X166539914Y-122031800D01*
X166539914Y-122031800D02*
X166511342Y-122060371D01*
X166511342Y-122060371D02*
X166482771Y-122117514D01*
X166482771Y-122117514D02*
X166482771Y-122231800D01*
X166482771Y-122231800D02*
X166511342Y-122288942D01*
X166511342Y-122288942D02*
X166539914Y-122317514D01*
X166539914Y-122317514D02*
X166597056Y-122346085D01*
X143313719Y-91126903D02*
X143313719Y-91555474D01*
X143313719Y-91555474D02*
X143285148Y-91641189D01*
X143285148Y-91641189D02*
X143228005Y-91698332D01*
X143228005Y-91698332D02*
X143142291Y-91726903D01*
X143142291Y-91726903D02*
X143085148Y-91726903D01*
X143599434Y-91726903D02*
X143599434Y-91126903D01*
X143599434Y-91126903D02*
X143828005Y-91126903D01*
X143828005Y-91126903D02*
X143885148Y-91155474D01*
X143885148Y-91155474D02*
X143913719Y-91184046D01*
X143913719Y-91184046D02*
X143942291Y-91241189D01*
X143942291Y-91241189D02*
X143942291Y-91326903D01*
X143942291Y-91326903D02*
X143913719Y-91384046D01*
X143913719Y-91384046D02*
X143885148Y-91412617D01*
X143885148Y-91412617D02*
X143828005Y-91441189D01*
X143828005Y-91441189D02*
X143599434Y-91441189D01*
X144170862Y-91184046D02*
X144199434Y-91155474D01*
X144199434Y-91155474D02*
X144256577Y-91126903D01*
X144256577Y-91126903D02*
X144399434Y-91126903D01*
X144399434Y-91126903D02*
X144456577Y-91155474D01*
X144456577Y-91155474D02*
X144485148Y-91184046D01*
X144485148Y-91184046D02*
X144513719Y-91241189D01*
X144513719Y-91241189D02*
X144513719Y-91298332D01*
X144513719Y-91298332D02*
X144485148Y-91384046D01*
X144485148Y-91384046D02*
X144142291Y-91726903D01*
X144142291Y-91726903D02*
X144513719Y-91726903D01*
X153851700Y-89998618D02*
X153823128Y-90027190D01*
X153823128Y-90027190D02*
X153737414Y-90055761D01*
X153737414Y-90055761D02*
X153680271Y-90055761D01*
X153680271Y-90055761D02*
X153594557Y-90027190D01*
X153594557Y-90027190D02*
X153537414Y-89970047D01*
X153537414Y-89970047D02*
X153508843Y-89912904D01*
X153508843Y-89912904D02*
X153480271Y-89798618D01*
X153480271Y-89798618D02*
X153480271Y-89712904D01*
X153480271Y-89712904D02*
X153508843Y-89598618D01*
X153508843Y-89598618D02*
X153537414Y-89541475D01*
X153537414Y-89541475D02*
X153594557Y-89484332D01*
X153594557Y-89484332D02*
X153680271Y-89455761D01*
X153680271Y-89455761D02*
X153737414Y-89455761D01*
X153737414Y-89455761D02*
X153823128Y-89484332D01*
X153823128Y-89484332D02*
X153851700Y-89512904D01*
X154423128Y-90055761D02*
X154080271Y-90055761D01*
X154251700Y-90055761D02*
X154251700Y-89455761D01*
X154251700Y-89455761D02*
X154194557Y-89541475D01*
X154194557Y-89541475D02*
X154137414Y-89598618D01*
X154137414Y-89598618D02*
X154080271Y-89627190D01*
X154994557Y-90055761D02*
X154651700Y-90055761D01*
X154823129Y-90055761D02*
X154823129Y-89455761D01*
X154823129Y-89455761D02*
X154765986Y-89541475D01*
X154765986Y-89541475D02*
X154708843Y-89598618D01*
X154708843Y-89598618D02*
X154651700Y-89627190D01*
X146906817Y-97784691D02*
X146906817Y-97184691D01*
X146906817Y-97184691D02*
X147049674Y-97184691D01*
X147049674Y-97184691D02*
X147135388Y-97213262D01*
X147135388Y-97213262D02*
X147192531Y-97270405D01*
X147192531Y-97270405D02*
X147221102Y-97327548D01*
X147221102Y-97327548D02*
X147249674Y-97441834D01*
X147249674Y-97441834D02*
X147249674Y-97527548D01*
X147249674Y-97527548D02*
X147221102Y-97641834D01*
X147221102Y-97641834D02*
X147192531Y-97698977D01*
X147192531Y-97698977D02*
X147135388Y-97756120D01*
X147135388Y-97756120D02*
X147049674Y-97784691D01*
X147049674Y-97784691D02*
X146906817Y-97784691D01*
X147763960Y-97184691D02*
X147649674Y-97184691D01*
X147649674Y-97184691D02*
X147592531Y-97213262D01*
X147592531Y-97213262D02*
X147563960Y-97241834D01*
X147563960Y-97241834D02*
X147506817Y-97327548D01*
X147506817Y-97327548D02*
X147478245Y-97441834D01*
X147478245Y-97441834D02*
X147478245Y-97670405D01*
X147478245Y-97670405D02*
X147506817Y-97727548D01*
X147506817Y-97727548D02*
X147535388Y-97756120D01*
X147535388Y-97756120D02*
X147592531Y-97784691D01*
X147592531Y-97784691D02*
X147706817Y-97784691D01*
X147706817Y-97784691D02*
X147763960Y-97756120D01*
X147763960Y-97756120D02*
X147792531Y-97727548D01*
X147792531Y-97727548D02*
X147821102Y-97670405D01*
X147821102Y-97670405D02*
X147821102Y-97527548D01*
X147821102Y-97527548D02*
X147792531Y-97470405D01*
X147792531Y-97470405D02*
X147763960Y-97441834D01*
X147763960Y-97441834D02*
X147706817Y-97413262D01*
X147706817Y-97413262D02*
X147592531Y-97413262D01*
X147592531Y-97413262D02*
X147535388Y-97441834D01*
X147535388Y-97441834D02*
X147506817Y-97470405D01*
X147506817Y-97470405D02*
X147478245Y-97527548D01*
X149991856Y-76735971D02*
X150334714Y-76735971D01*
X150163285Y-77335971D02*
X150163285Y-76735971D01*
X150534714Y-77335971D02*
X150534714Y-76735971D01*
X150534714Y-76735971D02*
X150763285Y-76735971D01*
X150763285Y-76735971D02*
X150820428Y-76764542D01*
X150820428Y-76764542D02*
X150848999Y-76793114D01*
X150848999Y-76793114D02*
X150877571Y-76850257D01*
X150877571Y-76850257D02*
X150877571Y-76935971D01*
X150877571Y-76935971D02*
X150848999Y-76993114D01*
X150848999Y-76993114D02*
X150820428Y-77021685D01*
X150820428Y-77021685D02*
X150763285Y-77050257D01*
X150763285Y-77050257D02*
X150534714Y-77050257D01*
X151077571Y-76735971D02*
X151448999Y-76735971D01*
X151448999Y-76735971D02*
X151248999Y-76964542D01*
X151248999Y-76964542D02*
X151334714Y-76964542D01*
X151334714Y-76964542D02*
X151391857Y-76993114D01*
X151391857Y-76993114D02*
X151420428Y-77021685D01*
X151420428Y-77021685D02*
X151448999Y-77078828D01*
X151448999Y-77078828D02*
X151448999Y-77221685D01*
X151448999Y-77221685D02*
X151420428Y-77278828D01*
X151420428Y-77278828D02*
X151391857Y-77307400D01*
X151391857Y-77307400D02*
X151334714Y-77335971D01*
X151334714Y-77335971D02*
X151163285Y-77335971D01*
X151163285Y-77335971D02*
X151106142Y-77307400D01*
X151106142Y-77307400D02*
X151077571Y-77278828D01*
X177320599Y-97309971D02*
X177320599Y-97738542D01*
X177320599Y-97738542D02*
X177292028Y-97824257D01*
X177292028Y-97824257D02*
X177234885Y-97881400D01*
X177234885Y-97881400D02*
X177149171Y-97909971D01*
X177149171Y-97909971D02*
X177092028Y-97909971D01*
X177577742Y-97367114D02*
X177606314Y-97338542D01*
X177606314Y-97338542D02*
X177663457Y-97309971D01*
X177663457Y-97309971D02*
X177806314Y-97309971D01*
X177806314Y-97309971D02*
X177863457Y-97338542D01*
X177863457Y-97338542D02*
X177892028Y-97367114D01*
X177892028Y-97367114D02*
X177920599Y-97424257D01*
X177920599Y-97424257D02*
X177920599Y-97481400D01*
X177920599Y-97481400D02*
X177892028Y-97567114D01*
X177892028Y-97567114D02*
X177549171Y-97909971D01*
X177549171Y-97909971D02*
X177920599Y-97909971D01*
X171133401Y-92105114D02*
X170847687Y-92305114D01*
X171133401Y-92447971D02*
X170533401Y-92447971D01*
X170533401Y-92447971D02*
X170533401Y-92219400D01*
X170533401Y-92219400D02*
X170561972Y-92162257D01*
X170561972Y-92162257D02*
X170590544Y-92133686D01*
X170590544Y-92133686D02*
X170647687Y-92105114D01*
X170647687Y-92105114D02*
X170733401Y-92105114D01*
X170733401Y-92105114D02*
X170790544Y-92133686D01*
X170790544Y-92133686D02*
X170819115Y-92162257D01*
X170819115Y-92162257D02*
X170847687Y-92219400D01*
X170847687Y-92219400D02*
X170847687Y-92447971D01*
X170590544Y-91876543D02*
X170561972Y-91847971D01*
X170561972Y-91847971D02*
X170533401Y-91790829D01*
X170533401Y-91790829D02*
X170533401Y-91647971D01*
X170533401Y-91647971D02*
X170561972Y-91590829D01*
X170561972Y-91590829D02*
X170590544Y-91562257D01*
X170590544Y-91562257D02*
X170647687Y-91533686D01*
X170647687Y-91533686D02*
X170704830Y-91533686D01*
X170704830Y-91533686D02*
X170790544Y-91562257D01*
X170790544Y-91562257D02*
X171133401Y-91905114D01*
X171133401Y-91905114D02*
X171133401Y-91533686D01*
X170533401Y-91162257D02*
X170533401Y-91105114D01*
X170533401Y-91105114D02*
X170561972Y-91047971D01*
X170561972Y-91047971D02*
X170590544Y-91019400D01*
X170590544Y-91019400D02*
X170647687Y-90990828D01*
X170647687Y-90990828D02*
X170761972Y-90962257D01*
X170761972Y-90962257D02*
X170904830Y-90962257D01*
X170904830Y-90962257D02*
X171019115Y-90990828D01*
X171019115Y-90990828D02*
X171076258Y-91019400D01*
X171076258Y-91019400D02*
X171104830Y-91047971D01*
X171104830Y-91047971D02*
X171133401Y-91105114D01*
X171133401Y-91105114D02*
X171133401Y-91162257D01*
X171133401Y-91162257D02*
X171104830Y-91219400D01*
X171104830Y-91219400D02*
X171076258Y-91247971D01*
X171076258Y-91247971D02*
X171019115Y-91276542D01*
X171019115Y-91276542D02*
X170904830Y-91305114D01*
X170904830Y-91305114D02*
X170761972Y-91305114D01*
X170761972Y-91305114D02*
X170647687Y-91276542D01*
X170647687Y-91276542D02*
X170590544Y-91247971D01*
X170590544Y-91247971D02*
X170561972Y-91219400D01*
X170561972Y-91219400D02*
X170533401Y-91162257D01*
X165082338Y-86676016D02*
X164796624Y-86876016D01*
X165082338Y-87018873D02*
X164482338Y-87018873D01*
X164482338Y-87018873D02*
X164482338Y-86790302D01*
X164482338Y-86790302D02*
X164510909Y-86733159D01*
X164510909Y-86733159D02*
X164539481Y-86704588D01*
X164539481Y-86704588D02*
X164596624Y-86676016D01*
X164596624Y-86676016D02*
X164682338Y-86676016D01*
X164682338Y-86676016D02*
X164739481Y-86704588D01*
X164739481Y-86704588D02*
X164768052Y-86733159D01*
X164768052Y-86733159D02*
X164796624Y-86790302D01*
X164796624Y-86790302D02*
X164796624Y-87018873D01*
X165082338Y-86104588D02*
X165082338Y-86447445D01*
X165082338Y-86276016D02*
X164482338Y-86276016D01*
X164482338Y-86276016D02*
X164568052Y-86333159D01*
X164568052Y-86333159D02*
X164625195Y-86390302D01*
X164625195Y-86390302D02*
X164653767Y-86447445D01*
X157371488Y-85537948D02*
X157400060Y-85566520D01*
X157400060Y-85566520D02*
X157428631Y-85652234D01*
X157428631Y-85652234D02*
X157428631Y-85709377D01*
X157428631Y-85709377D02*
X157400060Y-85795091D01*
X157400060Y-85795091D02*
X157342917Y-85852234D01*
X157342917Y-85852234D02*
X157285774Y-85880805D01*
X157285774Y-85880805D02*
X157171488Y-85909377D01*
X157171488Y-85909377D02*
X157085774Y-85909377D01*
X157085774Y-85909377D02*
X156971488Y-85880805D01*
X156971488Y-85880805D02*
X156914345Y-85852234D01*
X156914345Y-85852234D02*
X156857202Y-85795091D01*
X156857202Y-85795091D02*
X156828631Y-85709377D01*
X156828631Y-85709377D02*
X156828631Y-85652234D01*
X156828631Y-85652234D02*
X156857202Y-85566520D01*
X156857202Y-85566520D02*
X156885774Y-85537948D01*
X157428631Y-84966520D02*
X157428631Y-85309377D01*
X157428631Y-85137948D02*
X156828631Y-85137948D01*
X156828631Y-85137948D02*
X156914345Y-85195091D01*
X156914345Y-85195091D02*
X156971488Y-85252234D01*
X156971488Y-85252234D02*
X157000060Y-85309377D01*
X156828631Y-84423662D02*
X156828631Y-84709376D01*
X156828631Y-84709376D02*
X157114345Y-84737948D01*
X157114345Y-84737948D02*
X157085774Y-84709376D01*
X157085774Y-84709376D02*
X157057202Y-84652234D01*
X157057202Y-84652234D02*
X157057202Y-84509376D01*
X157057202Y-84509376D02*
X157085774Y-84452234D01*
X157085774Y-84452234D02*
X157114345Y-84423662D01*
X157114345Y-84423662D02*
X157171488Y-84395091D01*
X157171488Y-84395091D02*
X157314345Y-84395091D01*
X157314345Y-84395091D02*
X157371488Y-84423662D01*
X157371488Y-84423662D02*
X157400060Y-84452234D01*
X157400060Y-84452234D02*
X157428631Y-84509376D01*
X157428631Y-84509376D02*
X157428631Y-84652234D01*
X157428631Y-84652234D02*
X157400060Y-84709376D01*
X157400060Y-84709376D02*
X157371488Y-84737948D01*
X148183774Y-85891539D02*
X148212346Y-85920111D01*
X148212346Y-85920111D02*
X148240917Y-86005825D01*
X148240917Y-86005825D02*
X148240917Y-86062968D01*
X148240917Y-86062968D02*
X148212346Y-86148682D01*
X148212346Y-86148682D02*
X148155203Y-86205825D01*
X148155203Y-86205825D02*
X148098060Y-86234396D01*
X148098060Y-86234396D02*
X147983774Y-86262968D01*
X147983774Y-86262968D02*
X147898060Y-86262968D01*
X147898060Y-86262968D02*
X147783774Y-86234396D01*
X147783774Y-86234396D02*
X147726631Y-86205825D01*
X147726631Y-86205825D02*
X147669488Y-86148682D01*
X147669488Y-86148682D02*
X147640917Y-86062968D01*
X147640917Y-86062968D02*
X147640917Y-86005825D01*
X147640917Y-86005825D02*
X147669488Y-85920111D01*
X147669488Y-85920111D02*
X147698060Y-85891539D01*
X148240917Y-85320111D02*
X148240917Y-85662968D01*
X148240917Y-85491539D02*
X147640917Y-85491539D01*
X147640917Y-85491539D02*
X147726631Y-85548682D01*
X147726631Y-85548682D02*
X147783774Y-85605825D01*
X147783774Y-85605825D02*
X147812346Y-85662968D01*
X147898060Y-84977253D02*
X147869488Y-85034396D01*
X147869488Y-85034396D02*
X147840917Y-85062967D01*
X147840917Y-85062967D02*
X147783774Y-85091539D01*
X147783774Y-85091539D02*
X147755203Y-85091539D01*
X147755203Y-85091539D02*
X147698060Y-85062967D01*
X147698060Y-85062967D02*
X147669488Y-85034396D01*
X147669488Y-85034396D02*
X147640917Y-84977253D01*
X147640917Y-84977253D02*
X147640917Y-84862967D01*
X147640917Y-84862967D02*
X147669488Y-84805825D01*
X147669488Y-84805825D02*
X147698060Y-84777253D01*
X147698060Y-84777253D02*
X147755203Y-84748682D01*
X147755203Y-84748682D02*
X147783774Y-84748682D01*
X147783774Y-84748682D02*
X147840917Y-84777253D01*
X147840917Y-84777253D02*
X147869488Y-84805825D01*
X147869488Y-84805825D02*
X147898060Y-84862967D01*
X147898060Y-84862967D02*
X147898060Y-84977253D01*
X147898060Y-84977253D02*
X147926631Y-85034396D01*
X147926631Y-85034396D02*
X147955203Y-85062967D01*
X147955203Y-85062967D02*
X148012346Y-85091539D01*
X148012346Y-85091539D02*
X148126631Y-85091539D01*
X148126631Y-85091539D02*
X148183774Y-85062967D01*
X148183774Y-85062967D02*
X148212346Y-85034396D01*
X148212346Y-85034396D02*
X148240917Y-84977253D01*
X148240917Y-84977253D02*
X148240917Y-84862967D01*
X148240917Y-84862967D02*
X148212346Y-84805825D01*
X148212346Y-84805825D02*
X148183774Y-84777253D01*
X148183774Y-84777253D02*
X148126631Y-84748682D01*
X148126631Y-84748682D02*
X148012346Y-84748682D01*
X148012346Y-84748682D02*
X147955203Y-84777253D01*
X147955203Y-84777253D02*
X147926631Y-84805825D01*
X147926631Y-84805825D02*
X147898060Y-84862967D01*
X169136551Y-83832130D02*
X169107979Y-83889273D01*
X169107979Y-83889273D02*
X169050837Y-83946416D01*
X169050837Y-83946416D02*
X168965122Y-84032130D01*
X168965122Y-84032130D02*
X168936551Y-84089273D01*
X168936551Y-84089273D02*
X168936551Y-84146416D01*
X169079408Y-84117845D02*
X169050837Y-84174988D01*
X169050837Y-84174988D02*
X168993694Y-84232130D01*
X168993694Y-84232130D02*
X168879408Y-84260702D01*
X168879408Y-84260702D02*
X168679408Y-84260702D01*
X168679408Y-84260702D02*
X168565122Y-84232130D01*
X168565122Y-84232130D02*
X168507979Y-84174988D01*
X168507979Y-84174988D02*
X168479408Y-84117845D01*
X168479408Y-84117845D02*
X168479408Y-84003559D01*
X168479408Y-84003559D02*
X168507979Y-83946416D01*
X168507979Y-83946416D02*
X168565122Y-83889273D01*
X168565122Y-83889273D02*
X168679408Y-83860702D01*
X168679408Y-83860702D02*
X168879408Y-83860702D01*
X168879408Y-83860702D02*
X168993694Y-83889273D01*
X168993694Y-83889273D02*
X169050837Y-83946416D01*
X169050837Y-83946416D02*
X169079408Y-84003559D01*
X169079408Y-84003559D02*
X169079408Y-84117845D01*
X168536551Y-83632131D02*
X168507979Y-83603559D01*
X168507979Y-83603559D02*
X168479408Y-83546417D01*
X168479408Y-83546417D02*
X168479408Y-83403559D01*
X168479408Y-83403559D02*
X168507979Y-83346417D01*
X168507979Y-83346417D02*
X168536551Y-83317845D01*
X168536551Y-83317845D02*
X168593694Y-83289274D01*
X168593694Y-83289274D02*
X168650837Y-83289274D01*
X168650837Y-83289274D02*
X168736551Y-83317845D01*
X168736551Y-83317845D02*
X169079408Y-83660702D01*
X169079408Y-83660702D02*
X169079408Y-83289274D01*
X192016000Y-122311796D02*
X191730286Y-122311796D01*
X191730286Y-122311796D02*
X191730286Y-121711796D01*
X192301714Y-121968939D02*
X192244571Y-121940367D01*
X192244571Y-121940367D02*
X192216000Y-121911796D01*
X192216000Y-121911796D02*
X192187428Y-121854653D01*
X192187428Y-121854653D02*
X192187428Y-121826082D01*
X192187428Y-121826082D02*
X192216000Y-121768939D01*
X192216000Y-121768939D02*
X192244571Y-121740367D01*
X192244571Y-121740367D02*
X192301714Y-121711796D01*
X192301714Y-121711796D02*
X192416000Y-121711796D01*
X192416000Y-121711796D02*
X192473143Y-121740367D01*
X192473143Y-121740367D02*
X192501714Y-121768939D01*
X192501714Y-121768939D02*
X192530285Y-121826082D01*
X192530285Y-121826082D02*
X192530285Y-121854653D01*
X192530285Y-121854653D02*
X192501714Y-121911796D01*
X192501714Y-121911796D02*
X192473143Y-121940367D01*
X192473143Y-121940367D02*
X192416000Y-121968939D01*
X192416000Y-121968939D02*
X192301714Y-121968939D01*
X192301714Y-121968939D02*
X192244571Y-121997510D01*
X192244571Y-121997510D02*
X192216000Y-122026082D01*
X192216000Y-122026082D02*
X192187428Y-122083225D01*
X192187428Y-122083225D02*
X192187428Y-122197510D01*
X192187428Y-122197510D02*
X192216000Y-122254653D01*
X192216000Y-122254653D02*
X192244571Y-122283225D01*
X192244571Y-122283225D02*
X192301714Y-122311796D01*
X192301714Y-122311796D02*
X192416000Y-122311796D01*
X192416000Y-122311796D02*
X192473143Y-122283225D01*
X192473143Y-122283225D02*
X192501714Y-122254653D01*
X192501714Y-122254653D02*
X192530285Y-122197510D01*
X192530285Y-122197510D02*
X192530285Y-122083225D01*
X192530285Y-122083225D02*
X192501714Y-122026082D01*
X192501714Y-122026082D02*
X192473143Y-121997510D01*
X192473143Y-121997510D02*
X192416000Y-121968939D01*
X156370006Y-80946902D02*
X156655720Y-80746902D01*
X156370006Y-80604045D02*
X156970006Y-80604045D01*
X156970006Y-80604045D02*
X156970006Y-80832616D01*
X156970006Y-80832616D02*
X156941435Y-80889759D01*
X156941435Y-80889759D02*
X156912863Y-80918330D01*
X156912863Y-80918330D02*
X156855720Y-80946902D01*
X156855720Y-80946902D02*
X156770006Y-80946902D01*
X156770006Y-80946902D02*
X156712863Y-80918330D01*
X156712863Y-80918330D02*
X156684292Y-80889759D01*
X156684292Y-80889759D02*
X156655720Y-80832616D01*
X156655720Y-80832616D02*
X156655720Y-80604045D01*
X156712863Y-81289759D02*
X156741435Y-81232616D01*
X156741435Y-81232616D02*
X156770006Y-81204045D01*
X156770006Y-81204045D02*
X156827149Y-81175473D01*
X156827149Y-81175473D02*
X156855720Y-81175473D01*
X156855720Y-81175473D02*
X156912863Y-81204045D01*
X156912863Y-81204045D02*
X156941435Y-81232616D01*
X156941435Y-81232616D02*
X156970006Y-81289759D01*
X156970006Y-81289759D02*
X156970006Y-81404045D01*
X156970006Y-81404045D02*
X156941435Y-81461188D01*
X156941435Y-81461188D02*
X156912863Y-81489759D01*
X156912863Y-81489759D02*
X156855720Y-81518330D01*
X156855720Y-81518330D02*
X156827149Y-81518330D01*
X156827149Y-81518330D02*
X156770006Y-81489759D01*
X156770006Y-81489759D02*
X156741435Y-81461188D01*
X156741435Y-81461188D02*
X156712863Y-81404045D01*
X156712863Y-81404045D02*
X156712863Y-81289759D01*
X156712863Y-81289759D02*
X156684292Y-81232616D01*
X156684292Y-81232616D02*
X156655720Y-81204045D01*
X156655720Y-81204045D02*
X156598578Y-81175473D01*
X156598578Y-81175473D02*
X156484292Y-81175473D01*
X156484292Y-81175473D02*
X156427149Y-81204045D01*
X156427149Y-81204045D02*
X156398578Y-81232616D01*
X156398578Y-81232616D02*
X156370006Y-81289759D01*
X156370006Y-81289759D02*
X156370006Y-81404045D01*
X156370006Y-81404045D02*
X156398578Y-81461188D01*
X156398578Y-81461188D02*
X156427149Y-81489759D01*
X156427149Y-81489759D02*
X156484292Y-81518330D01*
X156484292Y-81518330D02*
X156598578Y-81518330D01*
X156598578Y-81518330D02*
X156655720Y-81489759D01*
X156655720Y-81489759D02*
X156684292Y-81461188D01*
X156684292Y-81461188D02*
X156712863Y-81404045D01*
X143313719Y-85251478D02*
X143313719Y-85680049D01*
X143313719Y-85680049D02*
X143285148Y-85765764D01*
X143285148Y-85765764D02*
X143228005Y-85822907D01*
X143228005Y-85822907D02*
X143142291Y-85851478D01*
X143142291Y-85851478D02*
X143085148Y-85851478D01*
X143599434Y-85851478D02*
X143599434Y-85251478D01*
X143599434Y-85251478D02*
X143828005Y-85251478D01*
X143828005Y-85251478D02*
X143885148Y-85280049D01*
X143885148Y-85280049D02*
X143913719Y-85308621D01*
X143913719Y-85308621D02*
X143942291Y-85365764D01*
X143942291Y-85365764D02*
X143942291Y-85451478D01*
X143942291Y-85451478D02*
X143913719Y-85508621D01*
X143913719Y-85508621D02*
X143885148Y-85537192D01*
X143885148Y-85537192D02*
X143828005Y-85565764D01*
X143828005Y-85565764D02*
X143599434Y-85565764D01*
X144513719Y-85851478D02*
X144170862Y-85851478D01*
X144342291Y-85851478D02*
X144342291Y-85251478D01*
X144342291Y-85251478D02*
X144285148Y-85337192D01*
X144285148Y-85337192D02*
X144228005Y-85394335D01*
X144228005Y-85394335D02*
X144170862Y-85422907D01*
X166947171Y-117606714D02*
X166661457Y-117806714D01*
X166947171Y-117949571D02*
X166347171Y-117949571D01*
X166347171Y-117949571D02*
X166347171Y-117721000D01*
X166347171Y-117721000D02*
X166375742Y-117663857D01*
X166375742Y-117663857D02*
X166404314Y-117635286D01*
X166404314Y-117635286D02*
X166461457Y-117606714D01*
X166461457Y-117606714D02*
X166547171Y-117606714D01*
X166547171Y-117606714D02*
X166604314Y-117635286D01*
X166604314Y-117635286D02*
X166632885Y-117663857D01*
X166632885Y-117663857D02*
X166661457Y-117721000D01*
X166661457Y-117721000D02*
X166661457Y-117949571D01*
X166947171Y-117035286D02*
X166947171Y-117378143D01*
X166947171Y-117206714D02*
X166347171Y-117206714D01*
X166347171Y-117206714D02*
X166432885Y-117263857D01*
X166432885Y-117263857D02*
X166490028Y-117321000D01*
X166490028Y-117321000D02*
X166518600Y-117378143D01*
X166347171Y-116521000D02*
X166347171Y-116635285D01*
X166347171Y-116635285D02*
X166375742Y-116692428D01*
X166375742Y-116692428D02*
X166404314Y-116721000D01*
X166404314Y-116721000D02*
X166490028Y-116778142D01*
X166490028Y-116778142D02*
X166604314Y-116806714D01*
X166604314Y-116806714D02*
X166832885Y-116806714D01*
X166832885Y-116806714D02*
X166890028Y-116778142D01*
X166890028Y-116778142D02*
X166918600Y-116749571D01*
X166918600Y-116749571D02*
X166947171Y-116692428D01*
X166947171Y-116692428D02*
X166947171Y-116578142D01*
X166947171Y-116578142D02*
X166918600Y-116521000D01*
X166918600Y-116521000D02*
X166890028Y-116492428D01*
X166890028Y-116492428D02*
X166832885Y-116463857D01*
X166832885Y-116463857D02*
X166690028Y-116463857D01*
X166690028Y-116463857D02*
X166632885Y-116492428D01*
X166632885Y-116492428D02*
X166604314Y-116521000D01*
X166604314Y-116521000D02*
X166575742Y-116578142D01*
X166575742Y-116578142D02*
X166575742Y-116692428D01*
X166575742Y-116692428D02*
X166604314Y-116749571D01*
X166604314Y-116749571D02*
X166632885Y-116778142D01*
X166632885Y-116778142D02*
X166690028Y-116806714D01*
D11*
X139815219Y-91287504D02*
X140624742Y-91287504D01*
X140624742Y-91287504D02*
X140719980Y-91239885D01*
X140719980Y-91239885D02*
X140767600Y-91192266D01*
X140767600Y-91192266D02*
X140815219Y-91097028D01*
X140815219Y-91097028D02*
X140815219Y-90906552D01*
X140815219Y-90906552D02*
X140767600Y-90811314D01*
X140767600Y-90811314D02*
X140719980Y-90763695D01*
X140719980Y-90763695D02*
X140624742Y-90716076D01*
X140624742Y-90716076D02*
X139815219Y-90716076D01*
X140148552Y-89811314D02*
X140815219Y-89811314D01*
X139767600Y-90049409D02*
X140481885Y-90287504D01*
X140481885Y-90287504D02*
X140481885Y-89668457D01*
D10*
X200622000Y-109178085D02*
X200707714Y-109206657D01*
X200707714Y-109206657D02*
X200736285Y-109235228D01*
X200736285Y-109235228D02*
X200764857Y-109292371D01*
X200764857Y-109292371D02*
X200764857Y-109378085D01*
X200764857Y-109378085D02*
X200736285Y-109435228D01*
X200736285Y-109435228D02*
X200707714Y-109463800D01*
X200707714Y-109463800D02*
X200650571Y-109492371D01*
X200650571Y-109492371D02*
X200422000Y-109492371D01*
X200422000Y-109492371D02*
X200422000Y-108892371D01*
X200422000Y-108892371D02*
X200622000Y-108892371D01*
X200622000Y-108892371D02*
X200679143Y-108920942D01*
X200679143Y-108920942D02*
X200707714Y-108949514D01*
X200707714Y-108949514D02*
X200736285Y-109006657D01*
X200736285Y-109006657D02*
X200736285Y-109063800D01*
X200736285Y-109063800D02*
X200707714Y-109120942D01*
X200707714Y-109120942D02*
X200679143Y-109149514D01*
X200679143Y-109149514D02*
X200622000Y-109178085D01*
X200622000Y-109178085D02*
X200422000Y-109178085D01*
X201022000Y-109492371D02*
X201022000Y-108892371D01*
X201022000Y-108892371D02*
X201250571Y-108892371D01*
X201250571Y-108892371D02*
X201307714Y-108920942D01*
X201307714Y-108920942D02*
X201336285Y-108949514D01*
X201336285Y-108949514D02*
X201364857Y-109006657D01*
X201364857Y-109006657D02*
X201364857Y-109092371D01*
X201364857Y-109092371D02*
X201336285Y-109149514D01*
X201336285Y-109149514D02*
X201307714Y-109178085D01*
X201307714Y-109178085D02*
X201250571Y-109206657D01*
X201250571Y-109206657D02*
X201022000Y-109206657D01*
X201593428Y-109320942D02*
X201879143Y-109320942D01*
X201536285Y-109492371D02*
X201736285Y-108892371D01*
X201736285Y-108892371D02*
X201936285Y-109492371D01*
X202450571Y-109492371D02*
X202107714Y-109492371D01*
X202279143Y-109492371D02*
X202279143Y-108892371D01*
X202279143Y-108892371D02*
X202222000Y-108978085D01*
X202222000Y-108978085D02*
X202164857Y-109035228D01*
X202164857Y-109035228D02*
X202107714Y-109063800D01*
X145623056Y-77980571D02*
X145965914Y-77980571D01*
X145794485Y-78580571D02*
X145794485Y-77980571D01*
X146165914Y-78580571D02*
X146165914Y-77980571D01*
X146165914Y-77980571D02*
X146394485Y-77980571D01*
X146394485Y-77980571D02*
X146451628Y-78009142D01*
X146451628Y-78009142D02*
X146480199Y-78037714D01*
X146480199Y-78037714D02*
X146508771Y-78094857D01*
X146508771Y-78094857D02*
X146508771Y-78180571D01*
X146508771Y-78180571D02*
X146480199Y-78237714D01*
X146480199Y-78237714D02*
X146451628Y-78266285D01*
X146451628Y-78266285D02*
X146394485Y-78294857D01*
X146394485Y-78294857D02*
X146165914Y-78294857D01*
X147023057Y-78180571D02*
X147023057Y-78580571D01*
X146880199Y-77952000D02*
X146737342Y-78380571D01*
X146737342Y-78380571D02*
X147108771Y-78380571D01*
X160710030Y-120891865D02*
X160424316Y-121091865D01*
X160710030Y-121234722D02*
X160110030Y-121234722D01*
X160110030Y-121234722D02*
X160110030Y-121006151D01*
X160110030Y-121006151D02*
X160138601Y-120949008D01*
X160138601Y-120949008D02*
X160167173Y-120920437D01*
X160167173Y-120920437D02*
X160224316Y-120891865D01*
X160224316Y-120891865D02*
X160310030Y-120891865D01*
X160310030Y-120891865D02*
X160367173Y-120920437D01*
X160367173Y-120920437D02*
X160395744Y-120949008D01*
X160395744Y-120949008D02*
X160424316Y-121006151D01*
X160424316Y-121006151D02*
X160424316Y-121234722D01*
X160710030Y-120320437D02*
X160710030Y-120663294D01*
X160710030Y-120491865D02*
X160110030Y-120491865D01*
X160110030Y-120491865D02*
X160195744Y-120549008D01*
X160195744Y-120549008D02*
X160252887Y-120606151D01*
X160252887Y-120606151D02*
X160281459Y-120663294D01*
X160167173Y-120091865D02*
X160138601Y-120063293D01*
X160138601Y-120063293D02*
X160110030Y-120006151D01*
X160110030Y-120006151D02*
X160110030Y-119863293D01*
X160110030Y-119863293D02*
X160138601Y-119806151D01*
X160138601Y-119806151D02*
X160167173Y-119777579D01*
X160167173Y-119777579D02*
X160224316Y-119749008D01*
X160224316Y-119749008D02*
X160281459Y-119749008D01*
X160281459Y-119749008D02*
X160367173Y-119777579D01*
X160367173Y-119777579D02*
X160710030Y-120120436D01*
X160710030Y-120120436D02*
X160710030Y-119749008D01*
X205230285Y-111811796D02*
X204944571Y-111811796D01*
X204944571Y-111811796D02*
X204944571Y-111211796D01*
X205744570Y-111811796D02*
X205401713Y-111811796D01*
X205573142Y-111811796D02*
X205573142Y-111211796D01*
X205573142Y-111211796D02*
X205515999Y-111297510D01*
X205515999Y-111297510D02*
X205458856Y-111354653D01*
X205458856Y-111354653D02*
X205401713Y-111383225D01*
X206115999Y-111211796D02*
X206173142Y-111211796D01*
X206173142Y-111211796D02*
X206230285Y-111240367D01*
X206230285Y-111240367D02*
X206258857Y-111268939D01*
X206258857Y-111268939D02*
X206287428Y-111326082D01*
X206287428Y-111326082D02*
X206315999Y-111440367D01*
X206315999Y-111440367D02*
X206315999Y-111583225D01*
X206315999Y-111583225D02*
X206287428Y-111697510D01*
X206287428Y-111697510D02*
X206258857Y-111754653D01*
X206258857Y-111754653D02*
X206230285Y-111783225D01*
X206230285Y-111783225D02*
X206173142Y-111811796D01*
X206173142Y-111811796D02*
X206115999Y-111811796D01*
X206115999Y-111811796D02*
X206058857Y-111783225D01*
X206058857Y-111783225D02*
X206030285Y-111754653D01*
X206030285Y-111754653D02*
X206001714Y-111697510D01*
X206001714Y-111697510D02*
X205973142Y-111583225D01*
X205973142Y-111583225D02*
X205973142Y-111440367D01*
X205973142Y-111440367D02*
X206001714Y-111326082D01*
X206001714Y-111326082D02*
X206030285Y-111268939D01*
X206030285Y-111268939D02*
X206058857Y-111240367D01*
X206058857Y-111240367D02*
X206115999Y-111211796D01*
X163626114Y-80397342D02*
X163597542Y-80454485D01*
X163597542Y-80454485D02*
X163540400Y-80511628D01*
X163540400Y-80511628D02*
X163454685Y-80597342D01*
X163454685Y-80597342D02*
X163426114Y-80654485D01*
X163426114Y-80654485D02*
X163426114Y-80711628D01*
X163568971Y-80683057D02*
X163540400Y-80740200D01*
X163540400Y-80740200D02*
X163483257Y-80797342D01*
X163483257Y-80797342D02*
X163368971Y-80825914D01*
X163368971Y-80825914D02*
X163168971Y-80825914D01*
X163168971Y-80825914D02*
X163054685Y-80797342D01*
X163054685Y-80797342D02*
X162997542Y-80740200D01*
X162997542Y-80740200D02*
X162968971Y-80683057D01*
X162968971Y-80683057D02*
X162968971Y-80568771D01*
X162968971Y-80568771D02*
X162997542Y-80511628D01*
X162997542Y-80511628D02*
X163054685Y-80454485D01*
X163054685Y-80454485D02*
X163168971Y-80425914D01*
X163168971Y-80425914D02*
X163368971Y-80425914D01*
X163368971Y-80425914D02*
X163483257Y-80454485D01*
X163483257Y-80454485D02*
X163540400Y-80511628D01*
X163540400Y-80511628D02*
X163568971Y-80568771D01*
X163568971Y-80568771D02*
X163568971Y-80683057D01*
X163568971Y-79854486D02*
X163568971Y-80197343D01*
X163568971Y-80025914D02*
X162968971Y-80025914D01*
X162968971Y-80025914D02*
X163054685Y-80083057D01*
X163054685Y-80083057D02*
X163111828Y-80140200D01*
X163111828Y-80140200D02*
X163140400Y-80197343D01*
X105216000Y-106961796D02*
X104930286Y-106961796D01*
X104930286Y-106961796D02*
X104930286Y-106361796D01*
X105730285Y-106961796D02*
X105387428Y-106961796D01*
X105558857Y-106961796D02*
X105558857Y-106361796D01*
X105558857Y-106361796D02*
X105501714Y-106447510D01*
X105501714Y-106447510D02*
X105444571Y-106504653D01*
X105444571Y-106504653D02*
X105387428Y-106533225D01*
X139389170Y-83689748D02*
X139389170Y-83489748D01*
X139074884Y-83489748D02*
X139674884Y-83489748D01*
X139674884Y-83489748D02*
X139674884Y-83775462D01*
X139074884Y-84318319D02*
X139074884Y-83975462D01*
X139074884Y-84146891D02*
X139674884Y-84146891D01*
X139674884Y-84146891D02*
X139589170Y-84089748D01*
X139589170Y-84089748D02*
X139532027Y-84032605D01*
X139532027Y-84032605D02*
X139503456Y-83975462D01*
X147728971Y-88899942D02*
X148214685Y-88899942D01*
X148214685Y-88899942D02*
X148271828Y-88871371D01*
X148271828Y-88871371D02*
X148300400Y-88842800D01*
X148300400Y-88842800D02*
X148328971Y-88785657D01*
X148328971Y-88785657D02*
X148328971Y-88671371D01*
X148328971Y-88671371D02*
X148300400Y-88614228D01*
X148300400Y-88614228D02*
X148271828Y-88585657D01*
X148271828Y-88585657D02*
X148214685Y-88557085D01*
X148214685Y-88557085D02*
X147728971Y-88557085D01*
X147728971Y-88328514D02*
X147728971Y-87957086D01*
X147728971Y-87957086D02*
X147957542Y-88157086D01*
X147957542Y-88157086D02*
X147957542Y-88071371D01*
X147957542Y-88071371D02*
X147986114Y-88014229D01*
X147986114Y-88014229D02*
X148014685Y-87985657D01*
X148014685Y-87985657D02*
X148071828Y-87957086D01*
X148071828Y-87957086D02*
X148214685Y-87957086D01*
X148214685Y-87957086D02*
X148271828Y-87985657D01*
X148271828Y-87985657D02*
X148300400Y-88014229D01*
X148300400Y-88014229D02*
X148328971Y-88071371D01*
X148328971Y-88071371D02*
X148328971Y-88242800D01*
X148328971Y-88242800D02*
X148300400Y-88299943D01*
X148300400Y-88299943D02*
X148271828Y-88328514D01*
X125617409Y-88755391D02*
X125617409Y-88155391D01*
X125617409Y-88155391D02*
X125760266Y-88155391D01*
X125760266Y-88155391D02*
X125845980Y-88183962D01*
X125845980Y-88183962D02*
X125903123Y-88241105D01*
X125903123Y-88241105D02*
X125931694Y-88298248D01*
X125931694Y-88298248D02*
X125960266Y-88412534D01*
X125960266Y-88412534D02*
X125960266Y-88498248D01*
X125960266Y-88498248D02*
X125931694Y-88612534D01*
X125931694Y-88612534D02*
X125903123Y-88669677D01*
X125903123Y-88669677D02*
X125845980Y-88726820D01*
X125845980Y-88726820D02*
X125760266Y-88755391D01*
X125760266Y-88755391D02*
X125617409Y-88755391D01*
X126531694Y-88755391D02*
X126188837Y-88755391D01*
X126360266Y-88755391D02*
X126360266Y-88155391D01*
X126360266Y-88155391D02*
X126303123Y-88241105D01*
X126303123Y-88241105D02*
X126245980Y-88298248D01*
X126245980Y-88298248D02*
X126188837Y-88326820D01*
X149002917Y-85891539D02*
X148717203Y-86091539D01*
X149002917Y-86234396D02*
X148402917Y-86234396D01*
X148402917Y-86234396D02*
X148402917Y-86005825D01*
X148402917Y-86005825D02*
X148431488Y-85948682D01*
X148431488Y-85948682D02*
X148460060Y-85920111D01*
X148460060Y-85920111D02*
X148517203Y-85891539D01*
X148517203Y-85891539D02*
X148602917Y-85891539D01*
X148602917Y-85891539D02*
X148660060Y-85920111D01*
X148660060Y-85920111D02*
X148688631Y-85948682D01*
X148688631Y-85948682D02*
X148717203Y-86005825D01*
X148717203Y-86005825D02*
X148717203Y-86234396D01*
X149002917Y-85320111D02*
X149002917Y-85662968D01*
X149002917Y-85491539D02*
X148402917Y-85491539D01*
X148402917Y-85491539D02*
X148488631Y-85548682D01*
X148488631Y-85548682D02*
X148545774Y-85605825D01*
X148545774Y-85605825D02*
X148574346Y-85662968D01*
X149002917Y-84748682D02*
X149002917Y-85091539D01*
X149002917Y-84920110D02*
X148402917Y-84920110D01*
X148402917Y-84920110D02*
X148488631Y-84977253D01*
X148488631Y-84977253D02*
X148545774Y-85034396D01*
X148545774Y-85034396D02*
X148574346Y-85091539D01*
D12*
X163550600Y-115008562D02*
X161875600Y-115008562D01*
X163550600Y-115008562D02*
X164200600Y-115008562D01*
X163550600Y-118128562D02*
X162900600Y-118128562D01*
X163550600Y-118128562D02*
X164200600Y-118128562D01*
X190084000Y-97991425D02*
X192116000Y-97991425D01*
X190084000Y-100023425D02*
X190084000Y-97991425D01*
X192116000Y-97991425D02*
X192116000Y-100023425D01*
X192116000Y-100023425D02*
X190084000Y-100023425D01*
X189727734Y-100531425D02*
G75*
G03*
X189727734Y-100531425I-151734J0D01*
G01*
X107884000Y-99071425D02*
X109916000Y-99071425D01*
X107884000Y-101103425D02*
X107884000Y-99071425D01*
X109916000Y-99071425D02*
X109916000Y-101103425D01*
X109916000Y-101103425D02*
X107884000Y-101103425D01*
X107527734Y-101611425D02*
G75*
G03*
X107527734Y-101611425I-151734J0D01*
G01*
X164805680Y-95705353D02*
X164155680Y-95705353D01*
X157585680Y-95055353D02*
X157585680Y-95705353D01*
X164805680Y-95055353D02*
X164805680Y-95705353D01*
X157585680Y-89135353D02*
X157585680Y-88485353D01*
X164805680Y-89135353D02*
X164805680Y-88485353D01*
X157585680Y-88485353D02*
X158235680Y-88485353D01*
X164805680Y-88485353D02*
X164155680Y-88485353D01*
X134598453Y-85228934D02*
X134382781Y-85228934D01*
X134598453Y-84508934D02*
X134382781Y-84508934D01*
X176584000Y-108491425D02*
X178616000Y-108491425D01*
X176584000Y-110523425D02*
X176584000Y-108491425D01*
X178616000Y-108491425D02*
X178616000Y-110523425D01*
X178616000Y-110523425D02*
X176584000Y-110523425D01*
X176227734Y-111031425D02*
G75*
G03*
X176227734Y-111031425I-151734J0D01*
G01*
D10*
X153337839Y-96054818D02*
X155369839Y-96054818D01*
X155369839Y-96054818D02*
X155369839Y-93006818D01*
X155369839Y-93006818D02*
X153337839Y-93006818D01*
X153337839Y-93006818D02*
X153337839Y-96054818D01*
X153260224Y-96359618D02*
G75*
G03*
X153260224Y-96359618I-227185J0D01*
G01*
D12*
X173899078Y-84483791D02*
X172199078Y-84483791D01*
X173899078Y-84483791D02*
X173899078Y-87743791D01*
X172199078Y-84483791D02*
X172199078Y-87743791D01*
X131984000Y-112471425D02*
X134016000Y-112471425D01*
X131984000Y-114503425D02*
X131984000Y-112471425D01*
X134016000Y-112471425D02*
X134016000Y-114503425D01*
X134016000Y-114503425D02*
X131984000Y-114503425D01*
X131627734Y-115011425D02*
G75*
G03*
X131627734Y-115011425I-151734J0D01*
G01*
X162552814Y-80216323D02*
X160852814Y-80216323D01*
X162552814Y-80216323D02*
X162552814Y-83476323D01*
X160852814Y-80216323D02*
X160852814Y-83476323D01*
D10*
X165827200Y-98618800D02*
X167928800Y-98618800D01*
X167928800Y-98618800D02*
X167928800Y-100517200D01*
X167928800Y-100517200D02*
X165827200Y-100517200D01*
X165827200Y-100517200D02*
X165827200Y-98618800D01*
D12*
X134815956Y-83318529D02*
X136515956Y-83318529D01*
X134815956Y-83318529D02*
X134815956Y-80058529D01*
X136515956Y-83318529D02*
X136515956Y-80058529D01*
X123663942Y-85989900D02*
X124138458Y-85989900D01*
X123663942Y-87034900D02*
X124138458Y-87034900D01*
X139586580Y-86870000D02*
X139305420Y-86870000D01*
X139586580Y-85850000D02*
X139305420Y-85850000D01*
X124138458Y-88579700D02*
X123663942Y-88579700D01*
X124138458Y-87534700D02*
X123663942Y-87534700D01*
X159877800Y-81381600D02*
G75*
G03*
X159877800Y-81381600I-950000J0D01*
G01*
X148009674Y-98871320D02*
X148009674Y-100271320D01*
X150329674Y-100271320D02*
X150329674Y-98371320D01*
X112484000Y-103641425D02*
X114516000Y-103641425D01*
X112484000Y-105673425D02*
X112484000Y-103641425D01*
X114516000Y-103641425D02*
X114516000Y-105673425D01*
X114516000Y-105673425D02*
X112484000Y-105673425D01*
X112127734Y-106181425D02*
G75*
G03*
X112127734Y-106181425I-151734J0D01*
G01*
X163550600Y-118429600D02*
X161875600Y-118429600D01*
X163550600Y-118429600D02*
X164200600Y-118429600D01*
X163550600Y-121549600D02*
X162900600Y-121549600D01*
X163550600Y-121549600D02*
X164200600Y-121549600D01*
D10*
X143068800Y-94268800D02*
X144967200Y-94268800D01*
X144967200Y-94268800D02*
X144967200Y-92167200D01*
X144967200Y-92167200D02*
X143068800Y-92167200D01*
X143068800Y-92167200D02*
X143068800Y-94268800D01*
D12*
X170012381Y-86636804D02*
X170012381Y-85432676D01*
X171832381Y-86636804D02*
X171832381Y-85432676D01*
X147484000Y-112471425D02*
X149516000Y-112471425D01*
X147484000Y-114503425D02*
X147484000Y-112471425D01*
X149516000Y-112471425D02*
X149516000Y-114503425D01*
X149516000Y-114503425D02*
X147484000Y-114503425D01*
X147127734Y-115011425D02*
G75*
G03*
X147127734Y-115011425I-151734J0D01*
G01*
X157871200Y-77851000D02*
G75*
G03*
X157871200Y-77851000I-950000J0D01*
G01*
X142379674Y-98871320D02*
X142379674Y-100271320D01*
X144699674Y-100271320D02*
X144699674Y-98371320D01*
X107884000Y-108241425D02*
X109916000Y-108241425D01*
X107884000Y-110273425D02*
X107884000Y-108241425D01*
X109916000Y-108241425D02*
X109916000Y-110273425D01*
X109916000Y-110273425D02*
X107884000Y-110273425D01*
X107527734Y-110781425D02*
G75*
G03*
X107527734Y-110781425I-151734J0D01*
G01*
X132964200Y-88012400D02*
X131094200Y-88012400D01*
X131094200Y-88012400D02*
X131094200Y-91922400D01*
X132964200Y-91922400D02*
X132964200Y-88012400D01*
D10*
X175200965Y-121233298D02*
X167580965Y-121233298D01*
X167580965Y-121233298D02*
X167580965Y-116153298D01*
X167580965Y-116153298D02*
X175200965Y-116153298D01*
X175200965Y-116153298D02*
X175200965Y-121233298D01*
X175761570Y-121614298D02*
G75*
G03*
X175761570Y-121614298I-179605J0D01*
G01*
D12*
X139585674Y-98844320D02*
X139585674Y-100244320D01*
X141905674Y-100244320D02*
X141905674Y-98344320D01*
D10*
X131684617Y-84252301D02*
X132700617Y-84252301D01*
X131684617Y-85877901D02*
X131684617Y-84252301D01*
X132700617Y-84252301D02*
X132700617Y-85877901D01*
X132700617Y-85877901D02*
X131684617Y-85877901D01*
X131595009Y-84049101D02*
G75*
G03*
X131595009Y-84049101I-113592J0D01*
G01*
D12*
X152918200Y-84886800D02*
G75*
G03*
X152918200Y-84886800I-950000J0D01*
G01*
X167176600Y-94563800D02*
X169176600Y-94563800D01*
X169176600Y-94563800D02*
X169576600Y-94563800D01*
X167176600Y-94363800D02*
X167176600Y-93363800D01*
X169176600Y-94363800D02*
X167176600Y-94363800D01*
X169176600Y-94363800D02*
X169576600Y-94363800D01*
X169576600Y-93363800D02*
X169576600Y-94363800D01*
X169576600Y-93363800D02*
X169976600Y-93363800D01*
X167176600Y-91563800D02*
X167176600Y-90763800D01*
X167176600Y-90763800D02*
X169176600Y-90763800D01*
X169176600Y-90763800D02*
X169576600Y-90763800D01*
X169576600Y-90763800D02*
X169576600Y-91563800D01*
X134368000Y-89267420D02*
X134368000Y-89548580D01*
X133348000Y-89267420D02*
X133348000Y-89548580D01*
X145205520Y-90765800D02*
X142405520Y-90765800D01*
X145205520Y-88765800D02*
X145205520Y-90765800D01*
X142405520Y-90765800D02*
X142405520Y-88765800D01*
X142405520Y-88765800D02*
X145205520Y-88765800D01*
X145173674Y-98871320D02*
X145173674Y-100271320D01*
X147493674Y-100271320D02*
X147493674Y-98371320D01*
X153604000Y-77825600D02*
G75*
G03*
X153604000Y-77825600I-950000J0D01*
G01*
X176421600Y-98360800D02*
X175361600Y-98360800D01*
X176421600Y-97300800D02*
X176421600Y-98360800D01*
X176421600Y-96300800D02*
X176421600Y-94240800D01*
X176421600Y-96300800D02*
X174301600Y-96300800D01*
X176421600Y-94240800D02*
X174301600Y-94240800D01*
X174301600Y-96300800D02*
X174301600Y-94240800D01*
X168094012Y-83325538D02*
X168094012Y-81925538D01*
X165774012Y-81925538D02*
X165774012Y-83825538D01*
X190084000Y-118991425D02*
X192116000Y-118991425D01*
X190084000Y-121023425D02*
X190084000Y-118991425D01*
X192116000Y-118991425D02*
X192116000Y-121023425D01*
X192116000Y-121023425D02*
X190084000Y-121023425D01*
X189727734Y-121531425D02*
G75*
G03*
X189727734Y-121531425I-151734J0D01*
G01*
D13*
X93434029Y-94983678D02*
X93555810Y-95488093D01*
X93702535Y-95985693D02*
X93555779Y-95487971D01*
X93968954Y-94083219D02*
X95647054Y-93633544D01*
X94616041Y-96498021D02*
X95921813Y-96148118D01*
X95197379Y-91955441D02*
X95647054Y-93633544D01*
X95709707Y-91041935D02*
X96207429Y-90895179D01*
X95921813Y-96148118D02*
X97962109Y-92614219D01*
X96395697Y-96427328D02*
X98440931Y-92884875D01*
X96711722Y-90773429D02*
X96207307Y-90895210D01*
X96743819Y-97726446D02*
X96395697Y-96427328D01*
X97612181Y-91308354D02*
X97962109Y-92614219D01*
X97644278Y-98261371D02*
X98148693Y-98139590D01*
X98646293Y-97992865D02*
X98148571Y-98139621D01*
X99158621Y-97079359D02*
X98708946Y-95401256D01*
X99739959Y-92536779D02*
X98440931Y-92884875D01*
X100387046Y-94951581D02*
X98708946Y-95401256D01*
X100653465Y-93049107D02*
X100800221Y-93546829D01*
X100921971Y-94051122D02*
X100800190Y-93546707D01*
X93968954Y-94083220D02*
G75*
G03*
X93434031Y-94983677I194126J-724438D01*
G01*
X93702536Y-95985693D02*
G75*
G03*
X94616041Y-96498020I719379J212112D01*
G01*
X95709707Y-91041936D02*
G75*
G03*
X95197380Y-91955441I212112J-719379D01*
G01*
X97612180Y-91308354D02*
G75*
G03*
X96711723Y-90773431I-724438J-194126D01*
G01*
X96743821Y-97726446D02*
G75*
G03*
X97644278Y-98261371I724439J194126D01*
G01*
X98646293Y-97992864D02*
G75*
G03*
X99158620Y-97079359I-212112J719379D01*
G01*
X100653464Y-93049107D02*
G75*
G03*
X99739959Y-92536779I-719374J-212103D01*
G01*
X100387046Y-94951579D02*
G75*
G03*
X100921971Y-94051122I-194126J724439D01*
G01*
X99567959Y-91338966D02*
G75*
G03*
X99567959Y-91338966I-625000J0D01*
G01*
G36*
X99217996Y-90757398D02*
G01*
X99437995Y-90942398D01*
X99568000Y-91192402D01*
X99562999Y-91487400D01*
X99442999Y-91722403D01*
X99293003Y-91862400D01*
X99093001Y-91952402D01*
X98873000Y-91962399D01*
X98687996Y-91907400D01*
X98498001Y-91787404D01*
X98388004Y-91607409D01*
X98328000Y-91462400D01*
X98328000Y-91237405D01*
X98388001Y-91067396D01*
X98492998Y-90887404D01*
X98727995Y-90752402D01*
X98928005Y-90722402D01*
X99217996Y-90757398D01*
G37*
G36*
X97098002Y-90782401D02*
G01*
X97358007Y-90922405D01*
X97528001Y-91107400D01*
X97648001Y-91447405D01*
X97967999Y-92617400D01*
X95923002Y-96162399D01*
X94633008Y-96512398D01*
X94437998Y-96537401D01*
X94252998Y-96522399D01*
X94068006Y-96462399D01*
X93882998Y-96312399D01*
X93748001Y-96127400D01*
X93408000Y-94922397D01*
X93418001Y-94712404D01*
X93473001Y-94522402D01*
X93557999Y-94377403D01*
X93713000Y-94207400D01*
X93963003Y-94092401D01*
X95634414Y-93644702D01*
X95638906Y-93643497D01*
X95642999Y-93642401D01*
X95218020Y-92057473D01*
X95199486Y-92046862D01*
X95176000Y-91897404D01*
X95203003Y-91587398D01*
X95318001Y-91332401D01*
X95493003Y-91132398D01*
X96048026Y-90937392D01*
X96747998Y-90772404D01*
X97098002Y-90782401D01*
G37*
G36*
X100108002Y-92522401D02*
G01*
X100292994Y-92582401D01*
X100478002Y-92732401D01*
X100612999Y-92917400D01*
X100953000Y-94122403D01*
X100942999Y-94332397D01*
X100887999Y-94522399D01*
X100803001Y-94667398D01*
X100648000Y-94837400D01*
X100397997Y-94952399D01*
X98726586Y-95400098D01*
X98722094Y-95401303D01*
X98718001Y-95402399D01*
X99142980Y-96987327D01*
X99161514Y-96997938D01*
X99185000Y-97147396D01*
X99157997Y-97457402D01*
X99042999Y-97712399D01*
X98867997Y-97912402D01*
X98312974Y-98107408D01*
X97613002Y-98272396D01*
X97262998Y-98262399D01*
X97002992Y-98122395D01*
X96832999Y-97937400D01*
X96712999Y-97597395D01*
X96393001Y-96427400D01*
X98437998Y-92882401D01*
X99727992Y-92532402D01*
X99923002Y-92507399D01*
X100108002Y-92522401D01*
G37*
D12*
X145205520Y-88225800D02*
X142405520Y-88225800D01*
X145205520Y-86225800D02*
X145205520Y-88225800D01*
X142405520Y-88225800D02*
X142405520Y-86225800D01*
X142405520Y-86225800D02*
X145205520Y-86225800D01*
X135130000Y-92536440D02*
X135130000Y-91356440D01*
X134800000Y-91356440D02*
X135130000Y-91356440D01*
X134800000Y-91356440D02*
X134800000Y-88636440D01*
X139520000Y-91356440D02*
X139190000Y-91356440D01*
X134800000Y-88636440D02*
X135130000Y-88636440D01*
X139190000Y-88636440D02*
X139520000Y-88636440D01*
X139520000Y-88636440D02*
X139520000Y-91356440D01*
X149438400Y-78282800D02*
G75*
G03*
X149438400Y-78282800I-950000J0D01*
G01*
X203584000Y-108491425D02*
X205616000Y-108491425D01*
X203584000Y-110523425D02*
X203584000Y-108491425D01*
X205616000Y-108491425D02*
X205616000Y-110523425D01*
X205616000Y-110523425D02*
X203584000Y-110523425D01*
X203227734Y-111031425D02*
G75*
G03*
X203227734Y-111031425I-151734J0D01*
G01*
X165300012Y-83325538D02*
X165300012Y-81925538D01*
X162980012Y-81925538D02*
X162980012Y-83825538D01*
X103284000Y-103641425D02*
X105316000Y-103641425D01*
X103284000Y-105673425D02*
X103284000Y-103641425D01*
X105316000Y-103641425D02*
X105316000Y-105673425D01*
X105316000Y-105673425D02*
X103284000Y-105673425D01*
X102927734Y-106181425D02*
G75*
G03*
X102927734Y-106181425I-151734J0D01*
G01*
X138724537Y-81144098D02*
X138724537Y-82348226D01*
X136904537Y-81144098D02*
X136904537Y-82348226D01*
X151135546Y-89183000D02*
X151135546Y-89633000D01*
X148865546Y-88363000D02*
X148865546Y-87913000D01*
X151135546Y-88363000D02*
X151135546Y-87913000D01*
X126742600Y-87618200D02*
X126742600Y-89318200D01*
X126742600Y-87618200D02*
X130002600Y-87618200D01*
X126742600Y-89318200D02*
X130002600Y-89318200D01*
M02*
