G04 #@! TF.GenerationSoftware,KiCad,Pcbnew,7.0.6*
G04 #@! TF.CreationDate,2023-12-22T13:04:07-08:00*
G04 #@! TF.ProjectId,sgpp_main_pcb,73677070-5f6d-4616-996e-5f7063622e6b,1*
G04 #@! TF.SameCoordinates,Original*
G04 #@! TF.FileFunction,AssemblyDrawing,Top*
%FSLAX46Y46*%
G04 Gerber Fmt 4.6, Leading zero omitted, Abs format (unit mm)*
G04 Created by KiCad (PCBNEW 7.0.6) date 2023-12-22 13:04:07*
%MOMM*%
%LPD*%
G01*
G04 APERTURE LIST*
%ADD10C,0.040000*%
%ADD11C,0.050000*%
%ADD12C,0.150000*%
%ADD13C,0.120000*%
%ADD14C,0.060000*%
%ADD15C,0.075000*%
%ADD16C,0.090000*%
%ADD17C,0.080000*%
%ADD18C,0.030000*%
%ADD19C,0.100000*%
%ADD20C,0.127000*%
%ADD21C,0.200000*%
G04 APERTURE END LIST*
D10*
X129945902Y-84190675D02*
X129862569Y-84071628D01*
X129803045Y-84190675D02*
X129803045Y-83940675D01*
X129803045Y-83940675D02*
X129898283Y-83940675D01*
X129898283Y-83940675D02*
X129922093Y-83952580D01*
X129922093Y-83952580D02*
X129933998Y-83964485D01*
X129933998Y-83964485D02*
X129945902Y-83988294D01*
X129945902Y-83988294D02*
X129945902Y-84024009D01*
X129945902Y-84024009D02*
X129933998Y-84047818D01*
X129933998Y-84047818D02*
X129922093Y-84059723D01*
X129922093Y-84059723D02*
X129898283Y-84071628D01*
X129898283Y-84071628D02*
X129803045Y-84071628D01*
X130183998Y-84190675D02*
X130041141Y-84190675D01*
X130112569Y-84190675D02*
X130112569Y-83940675D01*
X130112569Y-83940675D02*
X130088760Y-83976390D01*
X130088760Y-83976390D02*
X130064950Y-84000199D01*
X130064950Y-84000199D02*
X130041141Y-84012104D01*
X130326855Y-84047818D02*
X130303045Y-84035913D01*
X130303045Y-84035913D02*
X130291140Y-84024009D01*
X130291140Y-84024009D02*
X130279236Y-84000199D01*
X130279236Y-84000199D02*
X130279236Y-83988294D01*
X130279236Y-83988294D02*
X130291140Y-83964485D01*
X130291140Y-83964485D02*
X130303045Y-83952580D01*
X130303045Y-83952580D02*
X130326855Y-83940675D01*
X130326855Y-83940675D02*
X130374474Y-83940675D01*
X130374474Y-83940675D02*
X130398283Y-83952580D01*
X130398283Y-83952580D02*
X130410188Y-83964485D01*
X130410188Y-83964485D02*
X130422093Y-83988294D01*
X130422093Y-83988294D02*
X130422093Y-84000199D01*
X130422093Y-84000199D02*
X130410188Y-84024009D01*
X130410188Y-84024009D02*
X130398283Y-84035913D01*
X130398283Y-84035913D02*
X130374474Y-84047818D01*
X130374474Y-84047818D02*
X130326855Y-84047818D01*
X130326855Y-84047818D02*
X130303045Y-84059723D01*
X130303045Y-84059723D02*
X130291140Y-84071628D01*
X130291140Y-84071628D02*
X130279236Y-84095437D01*
X130279236Y-84095437D02*
X130279236Y-84143056D01*
X130279236Y-84143056D02*
X130291140Y-84166866D01*
X130291140Y-84166866D02*
X130303045Y-84178771D01*
X130303045Y-84178771D02*
X130326855Y-84190675D01*
X130326855Y-84190675D02*
X130374474Y-84190675D01*
X130374474Y-84190675D02*
X130398283Y-84178771D01*
X130398283Y-84178771D02*
X130410188Y-84166866D01*
X130410188Y-84166866D02*
X130422093Y-84143056D01*
X130422093Y-84143056D02*
X130422093Y-84095437D01*
X130422093Y-84095437D02*
X130410188Y-84071628D01*
X130410188Y-84071628D02*
X130398283Y-84059723D01*
X130398283Y-84059723D02*
X130374474Y-84047818D01*
D11*
X163520123Y-116744476D02*
X163489647Y-116729238D01*
X163489647Y-116729238D02*
X163459171Y-116698762D01*
X163459171Y-116698762D02*
X163413457Y-116653047D01*
X163413457Y-116653047D02*
X163382980Y-116637809D01*
X163382980Y-116637809D02*
X163352504Y-116637809D01*
X163367742Y-116714000D02*
X163337266Y-116698762D01*
X163337266Y-116698762D02*
X163306790Y-116668285D01*
X163306790Y-116668285D02*
X163291552Y-116607333D01*
X163291552Y-116607333D02*
X163291552Y-116500666D01*
X163291552Y-116500666D02*
X163306790Y-116439714D01*
X163306790Y-116439714D02*
X163337266Y-116409238D01*
X163337266Y-116409238D02*
X163367742Y-116394000D01*
X163367742Y-116394000D02*
X163428695Y-116394000D01*
X163428695Y-116394000D02*
X163459171Y-116409238D01*
X163459171Y-116409238D02*
X163489647Y-116439714D01*
X163489647Y-116439714D02*
X163504885Y-116500666D01*
X163504885Y-116500666D02*
X163504885Y-116607333D01*
X163504885Y-116607333D02*
X163489647Y-116668285D01*
X163489647Y-116668285D02*
X163459171Y-116698762D01*
X163459171Y-116698762D02*
X163428695Y-116714000D01*
X163428695Y-116714000D02*
X163367742Y-116714000D01*
X163611552Y-116394000D02*
X163809647Y-116394000D01*
X163809647Y-116394000D02*
X163702980Y-116515904D01*
X163702980Y-116515904D02*
X163748695Y-116515904D01*
X163748695Y-116515904D02*
X163779171Y-116531142D01*
X163779171Y-116531142D02*
X163794409Y-116546381D01*
X163794409Y-116546381D02*
X163809647Y-116576857D01*
X163809647Y-116576857D02*
X163809647Y-116653047D01*
X163809647Y-116653047D02*
X163794409Y-116683523D01*
X163794409Y-116683523D02*
X163779171Y-116698762D01*
X163779171Y-116698762D02*
X163748695Y-116714000D01*
X163748695Y-116714000D02*
X163657266Y-116714000D01*
X163657266Y-116714000D02*
X163626790Y-116698762D01*
X163626790Y-116698762D02*
X163611552Y-116683523D01*
D12*
X176316666Y-112780134D02*
X176459523Y-112827753D01*
X176459523Y-112827753D02*
X176507142Y-112875372D01*
X176507142Y-112875372D02*
X176554761Y-112970610D01*
X176554761Y-112970610D02*
X176554761Y-113113467D01*
X176554761Y-113113467D02*
X176507142Y-113208705D01*
X176507142Y-113208705D02*
X176459523Y-113256325D01*
X176459523Y-113256325D02*
X176364285Y-113303944D01*
X176364285Y-113303944D02*
X175983333Y-113303944D01*
X175983333Y-113303944D02*
X175983333Y-112303944D01*
X175983333Y-112303944D02*
X176316666Y-112303944D01*
X176316666Y-112303944D02*
X176411904Y-112351563D01*
X176411904Y-112351563D02*
X176459523Y-112399182D01*
X176459523Y-112399182D02*
X176507142Y-112494420D01*
X176507142Y-112494420D02*
X176507142Y-112589658D01*
X176507142Y-112589658D02*
X176459523Y-112684896D01*
X176459523Y-112684896D02*
X176411904Y-112732515D01*
X176411904Y-112732515D02*
X176316666Y-112780134D01*
X176316666Y-112780134D02*
X175983333Y-112780134D01*
X176983333Y-113303944D02*
X176983333Y-112303944D01*
X176983333Y-112303944D02*
X177364285Y-112303944D01*
X177364285Y-112303944D02*
X177459523Y-112351563D01*
X177459523Y-112351563D02*
X177507142Y-112399182D01*
X177507142Y-112399182D02*
X177554761Y-112494420D01*
X177554761Y-112494420D02*
X177554761Y-112637277D01*
X177554761Y-112637277D02*
X177507142Y-112732515D01*
X177507142Y-112732515D02*
X177459523Y-112780134D01*
X177459523Y-112780134D02*
X177364285Y-112827753D01*
X177364285Y-112827753D02*
X176983333Y-112827753D01*
X178173809Y-112827753D02*
X178173809Y-113303944D01*
X177840476Y-112303944D02*
X178173809Y-112827753D01*
X178173809Y-112827753D02*
X178507142Y-112303944D01*
X179364285Y-113303944D02*
X178792857Y-113303944D01*
X179078571Y-113303944D02*
X179078571Y-112303944D01*
X179078571Y-112303944D02*
X178983333Y-112446801D01*
X178983333Y-112446801D02*
X178888095Y-112542039D01*
X178888095Y-112542039D02*
X178792857Y-112589658D01*
X191949333Y-103018244D02*
X191473143Y-103018244D01*
X191473143Y-103018244D02*
X191473143Y-102018244D01*
X192330286Y-103018244D02*
X192520762Y-103018244D01*
X192520762Y-103018244D02*
X192616000Y-102970625D01*
X192616000Y-102970625D02*
X192663619Y-102923005D01*
X192663619Y-102923005D02*
X192758857Y-102780148D01*
X192758857Y-102780148D02*
X192806476Y-102589672D01*
X192806476Y-102589672D02*
X192806476Y-102208720D01*
X192806476Y-102208720D02*
X192758857Y-102113482D01*
X192758857Y-102113482D02*
X192711238Y-102065863D01*
X192711238Y-102065863D02*
X192616000Y-102018244D01*
X192616000Y-102018244D02*
X192425524Y-102018244D01*
X192425524Y-102018244D02*
X192330286Y-102065863D01*
X192330286Y-102065863D02*
X192282667Y-102113482D01*
X192282667Y-102113482D02*
X192235048Y-102208720D01*
X192235048Y-102208720D02*
X192235048Y-102446815D01*
X192235048Y-102446815D02*
X192282667Y-102542053D01*
X192282667Y-102542053D02*
X192330286Y-102589672D01*
X192330286Y-102589672D02*
X192425524Y-102637291D01*
X192425524Y-102637291D02*
X192616000Y-102637291D01*
X192616000Y-102637291D02*
X192711238Y-102589672D01*
X192711238Y-102589672D02*
X192758857Y-102542053D01*
X192758857Y-102542053D02*
X192806476Y-102446815D01*
X109749333Y-104098244D02*
X109273143Y-104098244D01*
X109273143Y-104098244D02*
X109273143Y-103098244D01*
X110035048Y-103193482D02*
X110082667Y-103145863D01*
X110082667Y-103145863D02*
X110177905Y-103098244D01*
X110177905Y-103098244D02*
X110416000Y-103098244D01*
X110416000Y-103098244D02*
X110511238Y-103145863D01*
X110511238Y-103145863D02*
X110558857Y-103193482D01*
X110558857Y-103193482D02*
X110606476Y-103288720D01*
X110606476Y-103288720D02*
X110606476Y-103383958D01*
X110606476Y-103383958D02*
X110558857Y-103526815D01*
X110558857Y-103526815D02*
X109987429Y-104098244D01*
X109987429Y-104098244D02*
X110606476Y-104098244D01*
X160650499Y-92857257D02*
X161460022Y-92857257D01*
X161460022Y-92857257D02*
X161555260Y-92809638D01*
X161555260Y-92809638D02*
X161602880Y-92762019D01*
X161602880Y-92762019D02*
X161650499Y-92666781D01*
X161650499Y-92666781D02*
X161650499Y-92476305D01*
X161650499Y-92476305D02*
X161602880Y-92381067D01*
X161602880Y-92381067D02*
X161555260Y-92333448D01*
X161555260Y-92333448D02*
X161460022Y-92285829D01*
X161460022Y-92285829D02*
X160650499Y-92285829D01*
X161079070Y-91666781D02*
X161031451Y-91762019D01*
X161031451Y-91762019D02*
X160983832Y-91809638D01*
X160983832Y-91809638D02*
X160888594Y-91857257D01*
X160888594Y-91857257D02*
X160840975Y-91857257D01*
X160840975Y-91857257D02*
X160745737Y-91809638D01*
X160745737Y-91809638D02*
X160698118Y-91762019D01*
X160698118Y-91762019D02*
X160650499Y-91666781D01*
X160650499Y-91666781D02*
X160650499Y-91476305D01*
X160650499Y-91476305D02*
X160698118Y-91381067D01*
X160698118Y-91381067D02*
X160745737Y-91333448D01*
X160745737Y-91333448D02*
X160840975Y-91285829D01*
X160840975Y-91285829D02*
X160888594Y-91285829D01*
X160888594Y-91285829D02*
X160983832Y-91333448D01*
X160983832Y-91333448D02*
X161031451Y-91381067D01*
X161031451Y-91381067D02*
X161079070Y-91476305D01*
X161079070Y-91476305D02*
X161079070Y-91666781D01*
X161079070Y-91666781D02*
X161126689Y-91762019D01*
X161126689Y-91762019D02*
X161174308Y-91809638D01*
X161174308Y-91809638D02*
X161269546Y-91857257D01*
X161269546Y-91857257D02*
X161460022Y-91857257D01*
X161460022Y-91857257D02*
X161555260Y-91809638D01*
X161555260Y-91809638D02*
X161602880Y-91762019D01*
X161602880Y-91762019D02*
X161650499Y-91666781D01*
X161650499Y-91666781D02*
X161650499Y-91476305D01*
X161650499Y-91476305D02*
X161602880Y-91381067D01*
X161602880Y-91381067D02*
X161555260Y-91333448D01*
X161555260Y-91333448D02*
X161460022Y-91285829D01*
X161460022Y-91285829D02*
X161269546Y-91285829D01*
X161269546Y-91285829D02*
X161174308Y-91333448D01*
X161174308Y-91333448D02*
X161126689Y-91381067D01*
X161126689Y-91381067D02*
X161079070Y-91476305D01*
D10*
X134448950Y-84958699D02*
X134437046Y-84970604D01*
X134437046Y-84970604D02*
X134401331Y-84982508D01*
X134401331Y-84982508D02*
X134377522Y-84982508D01*
X134377522Y-84982508D02*
X134341808Y-84970604D01*
X134341808Y-84970604D02*
X134317998Y-84946794D01*
X134317998Y-84946794D02*
X134306093Y-84922984D01*
X134306093Y-84922984D02*
X134294189Y-84875365D01*
X134294189Y-84875365D02*
X134294189Y-84839651D01*
X134294189Y-84839651D02*
X134306093Y-84792032D01*
X134306093Y-84792032D02*
X134317998Y-84768223D01*
X134317998Y-84768223D02*
X134341808Y-84744413D01*
X134341808Y-84744413D02*
X134377522Y-84732508D01*
X134377522Y-84732508D02*
X134401331Y-84732508D01*
X134401331Y-84732508D02*
X134437046Y-84744413D01*
X134437046Y-84744413D02*
X134448950Y-84756318D01*
X134663236Y-84815842D02*
X134663236Y-84982508D01*
X134603712Y-84720604D02*
X134544189Y-84899175D01*
X134544189Y-84899175D02*
X134698950Y-84899175D01*
D12*
X189745238Y-123280134D02*
X189888095Y-123327753D01*
X189888095Y-123327753D02*
X189935714Y-123375372D01*
X189935714Y-123375372D02*
X189983333Y-123470610D01*
X189983333Y-123470610D02*
X189983333Y-123613467D01*
X189983333Y-123613467D02*
X189935714Y-123708705D01*
X189935714Y-123708705D02*
X189888095Y-123756325D01*
X189888095Y-123756325D02*
X189792857Y-123803944D01*
X189792857Y-123803944D02*
X189411905Y-123803944D01*
X189411905Y-123803944D02*
X189411905Y-122803944D01*
X189411905Y-122803944D02*
X189745238Y-122803944D01*
X189745238Y-122803944D02*
X189840476Y-122851563D01*
X189840476Y-122851563D02*
X189888095Y-122899182D01*
X189888095Y-122899182D02*
X189935714Y-122994420D01*
X189935714Y-122994420D02*
X189935714Y-123089658D01*
X189935714Y-123089658D02*
X189888095Y-123184896D01*
X189888095Y-123184896D02*
X189840476Y-123232515D01*
X189840476Y-123232515D02*
X189745238Y-123280134D01*
X189745238Y-123280134D02*
X189411905Y-123280134D01*
X190411905Y-123803944D02*
X190411905Y-122803944D01*
X190411905Y-122803944D02*
X190792857Y-122803944D01*
X190792857Y-122803944D02*
X190888095Y-122851563D01*
X190888095Y-122851563D02*
X190935714Y-122899182D01*
X190935714Y-122899182D02*
X190983333Y-122994420D01*
X190983333Y-122994420D02*
X190983333Y-123137277D01*
X190983333Y-123137277D02*
X190935714Y-123232515D01*
X190935714Y-123232515D02*
X190888095Y-123280134D01*
X190888095Y-123280134D02*
X190792857Y-123327753D01*
X190792857Y-123327753D02*
X190411905Y-123327753D01*
X191745238Y-123280134D02*
X191888095Y-123327753D01*
X191888095Y-123327753D02*
X191935714Y-123375372D01*
X191935714Y-123375372D02*
X191983333Y-123470610D01*
X191983333Y-123470610D02*
X191983333Y-123613467D01*
X191983333Y-123613467D02*
X191935714Y-123708705D01*
X191935714Y-123708705D02*
X191888095Y-123756325D01*
X191888095Y-123756325D02*
X191792857Y-123803944D01*
X191792857Y-123803944D02*
X191411905Y-123803944D01*
X191411905Y-123803944D02*
X191411905Y-122803944D01*
X191411905Y-122803944D02*
X191745238Y-122803944D01*
X191745238Y-122803944D02*
X191840476Y-122851563D01*
X191840476Y-122851563D02*
X191888095Y-122899182D01*
X191888095Y-122899182D02*
X191935714Y-122994420D01*
X191935714Y-122994420D02*
X191935714Y-123089658D01*
X191935714Y-123089658D02*
X191888095Y-123184896D01*
X191888095Y-123184896D02*
X191840476Y-123232515D01*
X191840476Y-123232515D02*
X191745238Y-123280134D01*
X191745238Y-123280134D02*
X191411905Y-123280134D01*
X192935714Y-123803944D02*
X192364286Y-123803944D01*
X192650000Y-123803944D02*
X192650000Y-122803944D01*
X192650000Y-122803944D02*
X192554762Y-122946801D01*
X192554762Y-122946801D02*
X192459524Y-123042039D01*
X192459524Y-123042039D02*
X192364286Y-123089658D01*
D10*
X168546774Y-114714714D02*
X168427727Y-114798047D01*
X168546774Y-114857571D02*
X168296774Y-114857571D01*
X168296774Y-114857571D02*
X168296774Y-114762333D01*
X168296774Y-114762333D02*
X168308679Y-114738523D01*
X168308679Y-114738523D02*
X168320584Y-114726618D01*
X168320584Y-114726618D02*
X168344393Y-114714714D01*
X168344393Y-114714714D02*
X168380108Y-114714714D01*
X168380108Y-114714714D02*
X168403917Y-114726618D01*
X168403917Y-114726618D02*
X168415822Y-114738523D01*
X168415822Y-114738523D02*
X168427727Y-114762333D01*
X168427727Y-114762333D02*
X168427727Y-114857571D01*
X168546774Y-114476618D02*
X168546774Y-114619475D01*
X168546774Y-114548047D02*
X168296774Y-114548047D01*
X168296774Y-114548047D02*
X168332489Y-114571856D01*
X168332489Y-114571856D02*
X168356298Y-114595666D01*
X168356298Y-114595666D02*
X168368203Y-114619475D01*
X168296774Y-114250428D02*
X168296774Y-114369476D01*
X168296774Y-114369476D02*
X168415822Y-114381380D01*
X168415822Y-114381380D02*
X168403917Y-114369476D01*
X168403917Y-114369476D02*
X168392012Y-114345666D01*
X168392012Y-114345666D02*
X168392012Y-114286142D01*
X168392012Y-114286142D02*
X168403917Y-114262333D01*
X168403917Y-114262333D02*
X168415822Y-114250428D01*
X168415822Y-114250428D02*
X168439631Y-114238523D01*
X168439631Y-114238523D02*
X168499155Y-114238523D01*
X168499155Y-114238523D02*
X168522965Y-114250428D01*
X168522965Y-114250428D02*
X168534870Y-114262333D01*
X168534870Y-114262333D02*
X168546774Y-114286142D01*
X168546774Y-114286142D02*
X168546774Y-114345666D01*
X168546774Y-114345666D02*
X168534870Y-114369476D01*
X168534870Y-114369476D02*
X168522965Y-114381380D01*
X170694174Y-114714714D02*
X170575127Y-114798047D01*
X170694174Y-114857571D02*
X170444174Y-114857571D01*
X170444174Y-114857571D02*
X170444174Y-114762333D01*
X170444174Y-114762333D02*
X170456079Y-114738523D01*
X170456079Y-114738523D02*
X170467984Y-114726618D01*
X170467984Y-114726618D02*
X170491793Y-114714714D01*
X170491793Y-114714714D02*
X170527508Y-114714714D01*
X170527508Y-114714714D02*
X170551317Y-114726618D01*
X170551317Y-114726618D02*
X170563222Y-114738523D01*
X170563222Y-114738523D02*
X170575127Y-114762333D01*
X170575127Y-114762333D02*
X170575127Y-114857571D01*
X170694174Y-114476618D02*
X170694174Y-114619475D01*
X170694174Y-114548047D02*
X170444174Y-114548047D01*
X170444174Y-114548047D02*
X170479889Y-114571856D01*
X170479889Y-114571856D02*
X170503698Y-114595666D01*
X170503698Y-114595666D02*
X170515603Y-114619475D01*
X170527508Y-114262333D02*
X170694174Y-114262333D01*
X170432270Y-114321857D02*
X170610841Y-114381380D01*
X170610841Y-114381380D02*
X170610841Y-114226619D01*
D12*
X178449333Y-113518244D02*
X177973143Y-113518244D01*
X177973143Y-113518244D02*
X177973143Y-112518244D01*
X178687429Y-112518244D02*
X179354095Y-112518244D01*
X179354095Y-112518244D02*
X178925524Y-113518244D01*
X158153458Y-95292722D02*
X158962981Y-95292722D01*
X158962981Y-95292722D02*
X159058219Y-95245103D01*
X159058219Y-95245103D02*
X159105839Y-95197484D01*
X159105839Y-95197484D02*
X159153458Y-95102246D01*
X159153458Y-95102246D02*
X159153458Y-94911770D01*
X159153458Y-94911770D02*
X159105839Y-94816532D01*
X159105839Y-94816532D02*
X159058219Y-94768913D01*
X159058219Y-94768913D02*
X158962981Y-94721294D01*
X158962981Y-94721294D02*
X158153458Y-94721294D01*
X158153458Y-94340341D02*
X158153458Y-93673675D01*
X158153458Y-93673675D02*
X159153458Y-94102246D01*
D10*
X168063485Y-95865774D02*
X167980152Y-95746727D01*
X167920628Y-95865774D02*
X167920628Y-95615774D01*
X167920628Y-95615774D02*
X168015866Y-95615774D01*
X168015866Y-95615774D02*
X168039676Y-95627679D01*
X168039676Y-95627679D02*
X168051581Y-95639584D01*
X168051581Y-95639584D02*
X168063485Y-95663393D01*
X168063485Y-95663393D02*
X168063485Y-95699108D01*
X168063485Y-95699108D02*
X168051581Y-95722917D01*
X168051581Y-95722917D02*
X168039676Y-95734822D01*
X168039676Y-95734822D02*
X168015866Y-95746727D01*
X168015866Y-95746727D02*
X167920628Y-95746727D01*
X168301581Y-95865774D02*
X168158724Y-95865774D01*
X168230152Y-95865774D02*
X168230152Y-95615774D01*
X168230152Y-95615774D02*
X168206343Y-95651489D01*
X168206343Y-95651489D02*
X168182533Y-95675298D01*
X168182533Y-95675298D02*
X168158724Y-95687203D01*
X168384914Y-95615774D02*
X168551580Y-95615774D01*
X168551580Y-95615774D02*
X168444438Y-95865774D01*
D12*
X189769047Y-102280134D02*
X189911904Y-102327753D01*
X189911904Y-102327753D02*
X189959523Y-102375372D01*
X189959523Y-102375372D02*
X190007142Y-102470610D01*
X190007142Y-102470610D02*
X190007142Y-102613467D01*
X190007142Y-102613467D02*
X189959523Y-102708705D01*
X189959523Y-102708705D02*
X189911904Y-102756325D01*
X189911904Y-102756325D02*
X189816666Y-102803944D01*
X189816666Y-102803944D02*
X189435714Y-102803944D01*
X189435714Y-102803944D02*
X189435714Y-101803944D01*
X189435714Y-101803944D02*
X189769047Y-101803944D01*
X189769047Y-101803944D02*
X189864285Y-101851563D01*
X189864285Y-101851563D02*
X189911904Y-101899182D01*
X189911904Y-101899182D02*
X189959523Y-101994420D01*
X189959523Y-101994420D02*
X189959523Y-102089658D01*
X189959523Y-102089658D02*
X189911904Y-102184896D01*
X189911904Y-102184896D02*
X189864285Y-102232515D01*
X189864285Y-102232515D02*
X189769047Y-102280134D01*
X189769047Y-102280134D02*
X189435714Y-102280134D01*
X190435714Y-102803944D02*
X190435714Y-101803944D01*
X190435714Y-101803944D02*
X190816666Y-101803944D01*
X190816666Y-101803944D02*
X190911904Y-101851563D01*
X190911904Y-101851563D02*
X190959523Y-101899182D01*
X190959523Y-101899182D02*
X191007142Y-101994420D01*
X191007142Y-101994420D02*
X191007142Y-102137277D01*
X191007142Y-102137277D02*
X190959523Y-102232515D01*
X190959523Y-102232515D02*
X190911904Y-102280134D01*
X190911904Y-102280134D02*
X190816666Y-102327753D01*
X190816666Y-102327753D02*
X190435714Y-102327753D01*
X191340476Y-101803944D02*
X192007142Y-102803944D01*
X192007142Y-101803944D02*
X191340476Y-102803944D01*
X192911904Y-102803944D02*
X192340476Y-102803944D01*
X192626190Y-102803944D02*
X192626190Y-101803944D01*
X192626190Y-101803944D02*
X192530952Y-101946801D01*
X192530952Y-101946801D02*
X192435714Y-102042039D01*
X192435714Y-102042039D02*
X192340476Y-102089658D01*
X133849333Y-117498244D02*
X133373143Y-117498244D01*
X133373143Y-117498244D02*
X133373143Y-116498244D01*
X134658857Y-116498244D02*
X134182667Y-116498244D01*
X134182667Y-116498244D02*
X134135048Y-116974434D01*
X134135048Y-116974434D02*
X134182667Y-116926815D01*
X134182667Y-116926815D02*
X134277905Y-116879196D01*
X134277905Y-116879196D02*
X134516000Y-116879196D01*
X134516000Y-116879196D02*
X134611238Y-116926815D01*
X134611238Y-116926815D02*
X134658857Y-116974434D01*
X134658857Y-116974434D02*
X134706476Y-117069672D01*
X134706476Y-117069672D02*
X134706476Y-117307767D01*
X134706476Y-117307767D02*
X134658857Y-117403005D01*
X134658857Y-117403005D02*
X134611238Y-117450625D01*
X134611238Y-117450625D02*
X134516000Y-117498244D01*
X134516000Y-117498244D02*
X134277905Y-117498244D01*
X134277905Y-117498244D02*
X134182667Y-117450625D01*
X134182667Y-117450625D02*
X134135048Y-117403005D01*
X164007633Y-82964417D02*
X163007633Y-82964417D01*
X163007633Y-82964417D02*
X163007633Y-82726322D01*
X163007633Y-82726322D02*
X163055252Y-82583465D01*
X163055252Y-82583465D02*
X163150490Y-82488227D01*
X163150490Y-82488227D02*
X163245728Y-82440608D01*
X163245728Y-82440608D02*
X163436204Y-82392989D01*
X163436204Y-82392989D02*
X163579061Y-82392989D01*
X163579061Y-82392989D02*
X163769537Y-82440608D01*
X163769537Y-82440608D02*
X163864775Y-82488227D01*
X163864775Y-82488227D02*
X163960014Y-82583465D01*
X163960014Y-82583465D02*
X164007633Y-82726322D01*
X164007633Y-82726322D02*
X164007633Y-82964417D01*
X163340966Y-81535846D02*
X164007633Y-81535846D01*
X162960014Y-81773941D02*
X163674299Y-82012036D01*
X163674299Y-82012036D02*
X163674299Y-81392989D01*
D10*
X161978981Y-118393196D02*
X161859934Y-118476529D01*
X161978981Y-118536053D02*
X161728981Y-118536053D01*
X161728981Y-118536053D02*
X161728981Y-118440815D01*
X161728981Y-118440815D02*
X161740886Y-118417005D01*
X161740886Y-118417005D02*
X161752791Y-118405100D01*
X161752791Y-118405100D02*
X161776600Y-118393196D01*
X161776600Y-118393196D02*
X161812315Y-118393196D01*
X161812315Y-118393196D02*
X161836124Y-118405100D01*
X161836124Y-118405100D02*
X161848029Y-118417005D01*
X161848029Y-118417005D02*
X161859934Y-118440815D01*
X161859934Y-118440815D02*
X161859934Y-118536053D01*
X161978981Y-118155100D02*
X161978981Y-118297957D01*
X161978981Y-118226529D02*
X161728981Y-118226529D01*
X161728981Y-118226529D02*
X161764696Y-118250338D01*
X161764696Y-118250338D02*
X161788505Y-118274148D01*
X161788505Y-118274148D02*
X161800410Y-118297957D01*
X161728981Y-118071767D02*
X161728981Y-117917005D01*
X161728981Y-117917005D02*
X161824219Y-118000339D01*
X161824219Y-118000339D02*
X161824219Y-117964624D01*
X161824219Y-117964624D02*
X161836124Y-117940815D01*
X161836124Y-117940815D02*
X161848029Y-117928910D01*
X161848029Y-117928910D02*
X161871838Y-117917005D01*
X161871838Y-117917005D02*
X161931362Y-117917005D01*
X161931362Y-117917005D02*
X161955172Y-117928910D01*
X161955172Y-117928910D02*
X161967077Y-117940815D01*
X161967077Y-117940815D02*
X161978981Y-117964624D01*
X161978981Y-117964624D02*
X161978981Y-118036053D01*
X161978981Y-118036053D02*
X161967077Y-118059862D01*
X161967077Y-118059862D02*
X161955172Y-118071767D01*
D12*
X165544667Y-105793200D02*
X165687524Y-105840819D01*
X165687524Y-105840819D02*
X165925619Y-105840819D01*
X165925619Y-105840819D02*
X166020857Y-105793200D01*
X166020857Y-105793200D02*
X166068476Y-105745580D01*
X166068476Y-105745580D02*
X166116095Y-105650342D01*
X166116095Y-105650342D02*
X166116095Y-105555104D01*
X166116095Y-105555104D02*
X166068476Y-105459866D01*
X166068476Y-105459866D02*
X166020857Y-105412247D01*
X166020857Y-105412247D02*
X165925619Y-105364628D01*
X165925619Y-105364628D02*
X165735143Y-105317009D01*
X165735143Y-105317009D02*
X165639905Y-105269390D01*
X165639905Y-105269390D02*
X165592286Y-105221771D01*
X165592286Y-105221771D02*
X165544667Y-105126533D01*
X165544667Y-105126533D02*
X165544667Y-105031295D01*
X165544667Y-105031295D02*
X165592286Y-104936057D01*
X165592286Y-104936057D02*
X165639905Y-104888438D01*
X165639905Y-104888438D02*
X165735143Y-104840819D01*
X165735143Y-104840819D02*
X165973238Y-104840819D01*
X165973238Y-104840819D02*
X166116095Y-104888438D01*
X166449429Y-104840819D02*
X166687524Y-105840819D01*
X166687524Y-105840819D02*
X166878000Y-105126533D01*
X166878000Y-105126533D02*
X167068476Y-105840819D01*
X167068476Y-105840819D02*
X167306572Y-104840819D01*
X167639905Y-104936057D02*
X167687524Y-104888438D01*
X167687524Y-104888438D02*
X167782762Y-104840819D01*
X167782762Y-104840819D02*
X168020857Y-104840819D01*
X168020857Y-104840819D02*
X168116095Y-104888438D01*
X168116095Y-104888438D02*
X168163714Y-104936057D01*
X168163714Y-104936057D02*
X168211333Y-105031295D01*
X168211333Y-105031295D02*
X168211333Y-105126533D01*
X168211333Y-105126533D02*
X168163714Y-105269390D01*
X168163714Y-105269390D02*
X167592286Y-105840819D01*
X167592286Y-105840819D02*
X168211333Y-105840819D01*
D10*
X165716598Y-85290382D02*
X165597551Y-85373715D01*
X165716598Y-85433239D02*
X165466598Y-85433239D01*
X165466598Y-85433239D02*
X165466598Y-85338001D01*
X165466598Y-85338001D02*
X165478503Y-85314191D01*
X165478503Y-85314191D02*
X165490408Y-85302286D01*
X165490408Y-85302286D02*
X165514217Y-85290382D01*
X165514217Y-85290382D02*
X165549932Y-85290382D01*
X165549932Y-85290382D02*
X165573741Y-85302286D01*
X165573741Y-85302286D02*
X165585646Y-85314191D01*
X165585646Y-85314191D02*
X165597551Y-85338001D01*
X165597551Y-85338001D02*
X165597551Y-85433239D01*
X165490408Y-85195143D02*
X165478503Y-85183239D01*
X165478503Y-85183239D02*
X165466598Y-85159429D01*
X165466598Y-85159429D02*
X165466598Y-85099905D01*
X165466598Y-85099905D02*
X165478503Y-85076096D01*
X165478503Y-85076096D02*
X165490408Y-85064191D01*
X165490408Y-85064191D02*
X165514217Y-85052286D01*
X165514217Y-85052286D02*
X165538027Y-85052286D01*
X165538027Y-85052286D02*
X165573741Y-85064191D01*
X165573741Y-85064191D02*
X165716598Y-85207048D01*
X165716598Y-85207048D02*
X165716598Y-85052286D01*
D12*
X110609378Y-102919330D02*
X111609378Y-102919330D01*
X111609378Y-102919330D02*
X111609378Y-103157425D01*
X111609378Y-103157425D02*
X111561759Y-103300282D01*
X111561759Y-103300282D02*
X111466521Y-103395520D01*
X111466521Y-103395520D02*
X111371283Y-103443139D01*
X111371283Y-103443139D02*
X111180807Y-103490758D01*
X111180807Y-103490758D02*
X111037950Y-103490758D01*
X111037950Y-103490758D02*
X110847474Y-103443139D01*
X110847474Y-103443139D02*
X110752236Y-103395520D01*
X110752236Y-103395520D02*
X110656998Y-103300282D01*
X110656998Y-103300282D02*
X110609378Y-103157425D01*
X110609378Y-103157425D02*
X110609378Y-102919330D01*
X110609378Y-103919330D02*
X111609378Y-103919330D01*
X111609378Y-103919330D02*
X111609378Y-104300282D01*
X111609378Y-104300282D02*
X111561759Y-104395520D01*
X111561759Y-104395520D02*
X111514140Y-104443139D01*
X111514140Y-104443139D02*
X111418902Y-104490758D01*
X111418902Y-104490758D02*
X111276045Y-104490758D01*
X111276045Y-104490758D02*
X111180807Y-104443139D01*
X111180807Y-104443139D02*
X111133188Y-104395520D01*
X111133188Y-104395520D02*
X111085569Y-104300282D01*
X111085569Y-104300282D02*
X111085569Y-103919330D01*
X110609378Y-105490758D02*
X111085569Y-105157425D01*
X110609378Y-104919330D02*
X111609378Y-104919330D01*
X111609378Y-104919330D02*
X111609378Y-105300282D01*
X111609378Y-105300282D02*
X111561759Y-105395520D01*
X111561759Y-105395520D02*
X111514140Y-105443139D01*
X111514140Y-105443139D02*
X111418902Y-105490758D01*
X111418902Y-105490758D02*
X111276045Y-105490758D01*
X111276045Y-105490758D02*
X111180807Y-105443139D01*
X111180807Y-105443139D02*
X111133188Y-105395520D01*
X111133188Y-105395520D02*
X111085569Y-105300282D01*
X111085569Y-105300282D02*
X111085569Y-104919330D01*
X110609378Y-106443139D02*
X110609378Y-105871711D01*
X110609378Y-106157425D02*
X111609378Y-106157425D01*
X111609378Y-106157425D02*
X111466521Y-106062187D01*
X111466521Y-106062187D02*
X111371283Y-105966949D01*
X111371283Y-105966949D02*
X111323664Y-105871711D01*
D10*
X161766865Y-97894611D02*
X161778770Y-97906515D01*
X161778770Y-97906515D02*
X161790674Y-97942230D01*
X161790674Y-97942230D02*
X161790674Y-97966039D01*
X161790674Y-97966039D02*
X161778770Y-98001753D01*
X161778770Y-98001753D02*
X161754960Y-98025563D01*
X161754960Y-98025563D02*
X161731150Y-98037468D01*
X161731150Y-98037468D02*
X161683531Y-98049372D01*
X161683531Y-98049372D02*
X161647817Y-98049372D01*
X161647817Y-98049372D02*
X161600198Y-98037468D01*
X161600198Y-98037468D02*
X161576389Y-98025563D01*
X161576389Y-98025563D02*
X161552579Y-98001753D01*
X161552579Y-98001753D02*
X161540674Y-97966039D01*
X161540674Y-97966039D02*
X161540674Y-97942230D01*
X161540674Y-97942230D02*
X161552579Y-97906515D01*
X161552579Y-97906515D02*
X161564484Y-97894611D01*
X161790674Y-97656515D02*
X161790674Y-97799372D01*
X161790674Y-97727944D02*
X161540674Y-97727944D01*
X161540674Y-97727944D02*
X161576389Y-97751753D01*
X161576389Y-97751753D02*
X161600198Y-97775563D01*
X161600198Y-97775563D02*
X161612103Y-97799372D01*
X161540674Y-97573182D02*
X161540674Y-97406516D01*
X161540674Y-97406516D02*
X161790674Y-97513658D01*
D12*
X132005619Y-81027494D02*
X131005619Y-81027494D01*
X131005619Y-81027494D02*
X131005619Y-80789399D01*
X131005619Y-80789399D02*
X131053238Y-80646542D01*
X131053238Y-80646542D02*
X131148476Y-80551304D01*
X131148476Y-80551304D02*
X131243714Y-80503685D01*
X131243714Y-80503685D02*
X131434190Y-80456066D01*
X131434190Y-80456066D02*
X131577047Y-80456066D01*
X131577047Y-80456066D02*
X131767523Y-80503685D01*
X131767523Y-80503685D02*
X131862761Y-80551304D01*
X131862761Y-80551304D02*
X131958000Y-80646542D01*
X131958000Y-80646542D02*
X132005619Y-80789399D01*
X132005619Y-80789399D02*
X132005619Y-81027494D01*
X131100857Y-80075113D02*
X131053238Y-80027494D01*
X131053238Y-80027494D02*
X131005619Y-79932256D01*
X131005619Y-79932256D02*
X131005619Y-79694161D01*
X131005619Y-79694161D02*
X131053238Y-79598923D01*
X131053238Y-79598923D02*
X131100857Y-79551304D01*
X131100857Y-79551304D02*
X131196095Y-79503685D01*
X131196095Y-79503685D02*
X131291333Y-79503685D01*
X131291333Y-79503685D02*
X131434190Y-79551304D01*
X131434190Y-79551304D02*
X132005619Y-80122732D01*
X132005619Y-80122732D02*
X132005619Y-79503685D01*
X136885752Y-80760752D02*
X136885752Y-81427419D01*
X136647657Y-80379800D02*
X136409562Y-81094085D01*
X136409562Y-81094085D02*
X137028609Y-81094085D01*
X137314324Y-80427419D02*
X137980990Y-80427419D01*
X137980990Y-80427419D02*
X137552419Y-81427419D01*
X138790514Y-80760752D02*
X138790514Y-81427419D01*
X138361943Y-80760752D02*
X138361943Y-81284561D01*
X138361943Y-81284561D02*
X138409562Y-81379800D01*
X138409562Y-81379800D02*
X138504800Y-81427419D01*
X138504800Y-81427419D02*
X138647657Y-81427419D01*
X138647657Y-81427419D02*
X138742895Y-81379800D01*
X138742895Y-81379800D02*
X138790514Y-81332180D01*
X139600038Y-80903609D02*
X139266705Y-80903609D01*
X139266705Y-81427419D02*
X139266705Y-80427419D01*
X139266705Y-80427419D02*
X139742895Y-80427419D01*
X141314324Y-80427419D02*
X141123848Y-80427419D01*
X141123848Y-80427419D02*
X141028610Y-80475038D01*
X141028610Y-80475038D02*
X140980991Y-80522657D01*
X140980991Y-80522657D02*
X140885753Y-80665514D01*
X140885753Y-80665514D02*
X140838134Y-80855990D01*
X140838134Y-80855990D02*
X140838134Y-81236942D01*
X140838134Y-81236942D02*
X140885753Y-81332180D01*
X140885753Y-81332180D02*
X140933372Y-81379800D01*
X140933372Y-81379800D02*
X141028610Y-81427419D01*
X141028610Y-81427419D02*
X141219086Y-81427419D01*
X141219086Y-81427419D02*
X141314324Y-81379800D01*
X141314324Y-81379800D02*
X141361943Y-81332180D01*
X141361943Y-81332180D02*
X141409562Y-81236942D01*
X141409562Y-81236942D02*
X141409562Y-80998847D01*
X141409562Y-80998847D02*
X141361943Y-80903609D01*
X141361943Y-80903609D02*
X141314324Y-80855990D01*
X141314324Y-80855990D02*
X141219086Y-80808371D01*
X141219086Y-80808371D02*
X141028610Y-80808371D01*
X141028610Y-80808371D02*
X140933372Y-80855990D01*
X140933372Y-80855990D02*
X140885753Y-80903609D01*
X140885753Y-80903609D02*
X140838134Y-80998847D01*
X141838134Y-81332180D02*
X141885753Y-81379800D01*
X141885753Y-81379800D02*
X141838134Y-81427419D01*
X141838134Y-81427419D02*
X141790515Y-81379800D01*
X141790515Y-81379800D02*
X141838134Y-81332180D01*
X141838134Y-81332180D02*
X141838134Y-81427419D01*
X142219086Y-80427419D02*
X142838133Y-80427419D01*
X142838133Y-80427419D02*
X142504800Y-80808371D01*
X142504800Y-80808371D02*
X142647657Y-80808371D01*
X142647657Y-80808371D02*
X142742895Y-80855990D01*
X142742895Y-80855990D02*
X142790514Y-80903609D01*
X142790514Y-80903609D02*
X142838133Y-80998847D01*
X142838133Y-80998847D02*
X142838133Y-81236942D01*
X142838133Y-81236942D02*
X142790514Y-81332180D01*
X142790514Y-81332180D02*
X142742895Y-81379800D01*
X142742895Y-81379800D02*
X142647657Y-81427419D01*
X142647657Y-81427419D02*
X142361943Y-81427419D01*
X142361943Y-81427419D02*
X142266705Y-81379800D01*
X142266705Y-81379800D02*
X142219086Y-81332180D01*
X143171467Y-80760752D02*
X143409562Y-81427419D01*
X143409562Y-81427419D02*
X143647657Y-80760752D01*
D13*
X139490514Y-79510264D02*
X139452418Y-79548360D01*
X139452418Y-79548360D02*
X139338133Y-79586455D01*
X139338133Y-79586455D02*
X139261942Y-79586455D01*
X139261942Y-79586455D02*
X139147656Y-79548360D01*
X139147656Y-79548360D02*
X139071466Y-79472169D01*
X139071466Y-79472169D02*
X139033371Y-79395979D01*
X139033371Y-79395979D02*
X138995275Y-79243598D01*
X138995275Y-79243598D02*
X138995275Y-79129312D01*
X138995275Y-79129312D02*
X139033371Y-78976931D01*
X139033371Y-78976931D02*
X139071466Y-78900740D01*
X139071466Y-78900740D02*
X139147656Y-78824550D01*
X139147656Y-78824550D02*
X139261942Y-78786455D01*
X139261942Y-78786455D02*
X139338133Y-78786455D01*
X139338133Y-78786455D02*
X139452418Y-78824550D01*
X139452418Y-78824550D02*
X139490514Y-78862645D01*
X139795275Y-78862645D02*
X139833371Y-78824550D01*
X139833371Y-78824550D02*
X139909561Y-78786455D01*
X139909561Y-78786455D02*
X140100037Y-78786455D01*
X140100037Y-78786455D02*
X140176228Y-78824550D01*
X140176228Y-78824550D02*
X140214323Y-78862645D01*
X140214323Y-78862645D02*
X140252418Y-78938836D01*
X140252418Y-78938836D02*
X140252418Y-79015026D01*
X140252418Y-79015026D02*
X140214323Y-79129312D01*
X140214323Y-79129312D02*
X139757180Y-79586455D01*
X139757180Y-79586455D02*
X140252418Y-79586455D01*
X140747657Y-78786455D02*
X140823847Y-78786455D01*
X140823847Y-78786455D02*
X140900038Y-78824550D01*
X140900038Y-78824550D02*
X140938133Y-78862645D01*
X140938133Y-78862645D02*
X140976228Y-78938836D01*
X140976228Y-78938836D02*
X141014323Y-79091217D01*
X141014323Y-79091217D02*
X141014323Y-79281693D01*
X141014323Y-79281693D02*
X140976228Y-79434074D01*
X140976228Y-79434074D02*
X140938133Y-79510264D01*
X140938133Y-79510264D02*
X140900038Y-79548360D01*
X140900038Y-79548360D02*
X140823847Y-79586455D01*
X140823847Y-79586455D02*
X140747657Y-79586455D01*
X140747657Y-79586455D02*
X140671466Y-79548360D01*
X140671466Y-79548360D02*
X140633371Y-79510264D01*
X140633371Y-79510264D02*
X140595276Y-79434074D01*
X140595276Y-79434074D02*
X140557180Y-79281693D01*
X140557180Y-79281693D02*
X140557180Y-79091217D01*
X140557180Y-79091217D02*
X140595276Y-78938836D01*
X140595276Y-78938836D02*
X140633371Y-78862645D01*
X140633371Y-78862645D02*
X140671466Y-78824550D01*
X140671466Y-78824550D02*
X140747657Y-78786455D01*
D10*
X157316069Y-86965839D02*
X157327974Y-86977743D01*
X157327974Y-86977743D02*
X157339878Y-87013458D01*
X157339878Y-87013458D02*
X157339878Y-87037267D01*
X157339878Y-87037267D02*
X157327974Y-87072981D01*
X157327974Y-87072981D02*
X157304164Y-87096791D01*
X157304164Y-87096791D02*
X157280354Y-87108696D01*
X157280354Y-87108696D02*
X157232735Y-87120600D01*
X157232735Y-87120600D02*
X157197021Y-87120600D01*
X157197021Y-87120600D02*
X157149402Y-87108696D01*
X157149402Y-87108696D02*
X157125593Y-87096791D01*
X157125593Y-87096791D02*
X157101783Y-87072981D01*
X157101783Y-87072981D02*
X157089878Y-87037267D01*
X157089878Y-87037267D02*
X157089878Y-87013458D01*
X157089878Y-87013458D02*
X157101783Y-86977743D01*
X157101783Y-86977743D02*
X157113688Y-86965839D01*
X157339878Y-86727743D02*
X157339878Y-86870600D01*
X157339878Y-86799172D02*
X157089878Y-86799172D01*
X157089878Y-86799172D02*
X157125593Y-86822981D01*
X157125593Y-86822981D02*
X157149402Y-86846791D01*
X157149402Y-86846791D02*
X157161307Y-86870600D01*
X157089878Y-86644410D02*
X157089878Y-86489648D01*
X157089878Y-86489648D02*
X157185116Y-86572982D01*
X157185116Y-86572982D02*
X157185116Y-86537267D01*
X157185116Y-86537267D02*
X157197021Y-86513458D01*
X157197021Y-86513458D02*
X157208926Y-86501553D01*
X157208926Y-86501553D02*
X157232735Y-86489648D01*
X157232735Y-86489648D02*
X157292259Y-86489648D01*
X157292259Y-86489648D02*
X157316069Y-86501553D01*
X157316069Y-86501553D02*
X157327974Y-86513458D01*
X157327974Y-86513458D02*
X157339878Y-86537267D01*
X157339878Y-86537267D02*
X157339878Y-86608696D01*
X157339878Y-86608696D02*
X157327974Y-86632505D01*
X157327974Y-86632505D02*
X157316069Y-86644410D01*
D12*
X121037019Y-89250685D02*
X121037019Y-88584019D01*
X121037019Y-88584019D02*
X122037019Y-89012590D01*
X121037019Y-87726876D02*
X121037019Y-88203066D01*
X121037019Y-88203066D02*
X121513209Y-88250685D01*
X121513209Y-88250685D02*
X121465590Y-88203066D01*
X121465590Y-88203066D02*
X121417971Y-88107828D01*
X121417971Y-88107828D02*
X121417971Y-87869733D01*
X121417971Y-87869733D02*
X121465590Y-87774495D01*
X121465590Y-87774495D02*
X121513209Y-87726876D01*
X121513209Y-87726876D02*
X121608447Y-87679257D01*
X121608447Y-87679257D02*
X121846542Y-87679257D01*
X121846542Y-87679257D02*
X121941780Y-87726876D01*
X121941780Y-87726876D02*
X121989400Y-87774495D01*
X121989400Y-87774495D02*
X122037019Y-87869733D01*
X122037019Y-87869733D02*
X122037019Y-88107828D01*
X122037019Y-88107828D02*
X121989400Y-88203066D01*
X121989400Y-88203066D02*
X121941780Y-88250685D01*
X122037019Y-87250685D02*
X121037019Y-87250685D01*
X121656066Y-87155447D02*
X122037019Y-86869733D01*
X121370352Y-86869733D02*
X121751304Y-87250685D01*
D14*
X123194127Y-88293542D02*
X123003651Y-88426875D01*
X123194127Y-88522113D02*
X122794127Y-88522113D01*
X122794127Y-88522113D02*
X122794127Y-88369732D01*
X122794127Y-88369732D02*
X122813175Y-88331637D01*
X122813175Y-88331637D02*
X122832222Y-88312590D01*
X122832222Y-88312590D02*
X122870318Y-88293542D01*
X122870318Y-88293542D02*
X122927460Y-88293542D01*
X122927460Y-88293542D02*
X122965556Y-88312590D01*
X122965556Y-88312590D02*
X122984603Y-88331637D01*
X122984603Y-88331637D02*
X123003651Y-88369732D01*
X123003651Y-88369732D02*
X123003651Y-88522113D01*
X122832222Y-88141161D02*
X122813175Y-88122113D01*
X122813175Y-88122113D02*
X122794127Y-88084018D01*
X122794127Y-88084018D02*
X122794127Y-87988780D01*
X122794127Y-87988780D02*
X122813175Y-87950685D01*
X122813175Y-87950685D02*
X122832222Y-87931637D01*
X122832222Y-87931637D02*
X122870318Y-87912590D01*
X122870318Y-87912590D02*
X122908413Y-87912590D01*
X122908413Y-87912590D02*
X122965556Y-87931637D01*
X122965556Y-87931637D02*
X123194127Y-88160209D01*
X123194127Y-88160209D02*
X123194127Y-87912590D01*
X122794127Y-87550685D02*
X122794127Y-87741161D01*
X122794127Y-87741161D02*
X122984603Y-87760209D01*
X122984603Y-87760209D02*
X122965556Y-87741161D01*
X122965556Y-87741161D02*
X122946508Y-87703066D01*
X122946508Y-87703066D02*
X122946508Y-87607828D01*
X122946508Y-87607828D02*
X122965556Y-87569733D01*
X122965556Y-87569733D02*
X122984603Y-87550685D01*
X122984603Y-87550685D02*
X123022699Y-87531638D01*
X123022699Y-87531638D02*
X123117937Y-87531638D01*
X123117937Y-87531638D02*
X123156032Y-87550685D01*
X123156032Y-87550685D02*
X123175080Y-87569733D01*
X123175080Y-87569733D02*
X123194127Y-87607828D01*
X123194127Y-87607828D02*
X123194127Y-87703066D01*
X123194127Y-87703066D02*
X123175080Y-87741161D01*
X123175080Y-87741161D02*
X123156032Y-87760209D01*
D12*
X133085019Y-87382266D02*
X133085019Y-87953694D01*
X133085019Y-87667980D02*
X132085019Y-87667980D01*
X132085019Y-87667980D02*
X132227876Y-87763218D01*
X132227876Y-87763218D02*
X132323114Y-87858456D01*
X132323114Y-87858456D02*
X132370733Y-87953694D01*
X132085019Y-86763218D02*
X132085019Y-86667980D01*
X132085019Y-86667980D02*
X132132638Y-86572742D01*
X132132638Y-86572742D02*
X132180257Y-86525123D01*
X132180257Y-86525123D02*
X132275495Y-86477504D01*
X132275495Y-86477504D02*
X132465971Y-86429885D01*
X132465971Y-86429885D02*
X132704066Y-86429885D01*
X132704066Y-86429885D02*
X132894542Y-86477504D01*
X132894542Y-86477504D02*
X132989780Y-86525123D01*
X132989780Y-86525123D02*
X133037400Y-86572742D01*
X133037400Y-86572742D02*
X133085019Y-86667980D01*
X133085019Y-86667980D02*
X133085019Y-86763218D01*
X133085019Y-86763218D02*
X133037400Y-86858456D01*
X133037400Y-86858456D02*
X132989780Y-86906075D01*
X132989780Y-86906075D02*
X132894542Y-86953694D01*
X132894542Y-86953694D02*
X132704066Y-87001313D01*
X132704066Y-87001313D02*
X132465971Y-87001313D01*
X132465971Y-87001313D02*
X132275495Y-86953694D01*
X132275495Y-86953694D02*
X132180257Y-86906075D01*
X132180257Y-86906075D02*
X132132638Y-86858456D01*
X132132638Y-86858456D02*
X132085019Y-86763218D01*
X132085019Y-85810837D02*
X132085019Y-85715599D01*
X132085019Y-85715599D02*
X132132638Y-85620361D01*
X132132638Y-85620361D02*
X132180257Y-85572742D01*
X132180257Y-85572742D02*
X132275495Y-85525123D01*
X132275495Y-85525123D02*
X132465971Y-85477504D01*
X132465971Y-85477504D02*
X132704066Y-85477504D01*
X132704066Y-85477504D02*
X132894542Y-85525123D01*
X132894542Y-85525123D02*
X132989780Y-85572742D01*
X132989780Y-85572742D02*
X133037400Y-85620361D01*
X133037400Y-85620361D02*
X133085019Y-85715599D01*
X133085019Y-85715599D02*
X133085019Y-85810837D01*
X133085019Y-85810837D02*
X133037400Y-85906075D01*
X133037400Y-85906075D02*
X132989780Y-85953694D01*
X132989780Y-85953694D02*
X132894542Y-86001313D01*
X132894542Y-86001313D02*
X132704066Y-86048932D01*
X132704066Y-86048932D02*
X132465971Y-86048932D01*
X132465971Y-86048932D02*
X132275495Y-86001313D01*
X132275495Y-86001313D02*
X132180257Y-85953694D01*
X132180257Y-85953694D02*
X132132638Y-85906075D01*
X132132638Y-85906075D02*
X132085019Y-85810837D01*
D10*
X134473774Y-86876314D02*
X134354727Y-86959647D01*
X134473774Y-87019171D02*
X134223774Y-87019171D01*
X134223774Y-87019171D02*
X134223774Y-86923933D01*
X134223774Y-86923933D02*
X134235679Y-86900123D01*
X134235679Y-86900123D02*
X134247584Y-86888218D01*
X134247584Y-86888218D02*
X134271393Y-86876314D01*
X134271393Y-86876314D02*
X134307108Y-86876314D01*
X134307108Y-86876314D02*
X134330917Y-86888218D01*
X134330917Y-86888218D02*
X134342822Y-86900123D01*
X134342822Y-86900123D02*
X134354727Y-86923933D01*
X134354727Y-86923933D02*
X134354727Y-87019171D01*
X134247584Y-86781075D02*
X134235679Y-86769171D01*
X134235679Y-86769171D02*
X134223774Y-86745361D01*
X134223774Y-86745361D02*
X134223774Y-86685837D01*
X134223774Y-86685837D02*
X134235679Y-86662028D01*
X134235679Y-86662028D02*
X134247584Y-86650123D01*
X134247584Y-86650123D02*
X134271393Y-86638218D01*
X134271393Y-86638218D02*
X134295203Y-86638218D01*
X134295203Y-86638218D02*
X134330917Y-86650123D01*
X134330917Y-86650123D02*
X134473774Y-86792980D01*
X134473774Y-86792980D02*
X134473774Y-86638218D01*
X134223774Y-86554885D02*
X134223774Y-86388219D01*
X134223774Y-86388219D02*
X134473774Y-86495361D01*
D12*
X125471819Y-89250685D02*
X125471819Y-88584019D01*
X125471819Y-88584019D02*
X126471819Y-89012590D01*
X125471819Y-87726876D02*
X125471819Y-88203066D01*
X125471819Y-88203066D02*
X125948009Y-88250685D01*
X125948009Y-88250685D02*
X125900390Y-88203066D01*
X125900390Y-88203066D02*
X125852771Y-88107828D01*
X125852771Y-88107828D02*
X125852771Y-87869733D01*
X125852771Y-87869733D02*
X125900390Y-87774495D01*
X125900390Y-87774495D02*
X125948009Y-87726876D01*
X125948009Y-87726876D02*
X126043247Y-87679257D01*
X126043247Y-87679257D02*
X126281342Y-87679257D01*
X126281342Y-87679257D02*
X126376580Y-87726876D01*
X126376580Y-87726876D02*
X126424200Y-87774495D01*
X126424200Y-87774495D02*
X126471819Y-87869733D01*
X126471819Y-87869733D02*
X126471819Y-88107828D01*
X126471819Y-88107828D02*
X126424200Y-88203066D01*
X126424200Y-88203066D02*
X126376580Y-88250685D01*
X126471819Y-87250685D02*
X125471819Y-87250685D01*
X126090866Y-87155447D02*
X126471819Y-86869733D01*
X125805152Y-86869733D02*
X126186104Y-87250685D01*
D14*
X124768927Y-88293542D02*
X124578451Y-88426875D01*
X124768927Y-88522113D02*
X124368927Y-88522113D01*
X124368927Y-88522113D02*
X124368927Y-88369732D01*
X124368927Y-88369732D02*
X124387975Y-88331637D01*
X124387975Y-88331637D02*
X124407022Y-88312590D01*
X124407022Y-88312590D02*
X124445118Y-88293542D01*
X124445118Y-88293542D02*
X124502260Y-88293542D01*
X124502260Y-88293542D02*
X124540356Y-88312590D01*
X124540356Y-88312590D02*
X124559403Y-88331637D01*
X124559403Y-88331637D02*
X124578451Y-88369732D01*
X124578451Y-88369732D02*
X124578451Y-88522113D01*
X124407022Y-88141161D02*
X124387975Y-88122113D01*
X124387975Y-88122113D02*
X124368927Y-88084018D01*
X124368927Y-88084018D02*
X124368927Y-87988780D01*
X124368927Y-87988780D02*
X124387975Y-87950685D01*
X124387975Y-87950685D02*
X124407022Y-87931637D01*
X124407022Y-87931637D02*
X124445118Y-87912590D01*
X124445118Y-87912590D02*
X124483213Y-87912590D01*
X124483213Y-87912590D02*
X124540356Y-87931637D01*
X124540356Y-87931637D02*
X124768927Y-88160209D01*
X124768927Y-88160209D02*
X124768927Y-87912590D01*
X124368927Y-87569733D02*
X124368927Y-87645923D01*
X124368927Y-87645923D02*
X124387975Y-87684019D01*
X124387975Y-87684019D02*
X124407022Y-87703066D01*
X124407022Y-87703066D02*
X124464165Y-87741161D01*
X124464165Y-87741161D02*
X124540356Y-87760209D01*
X124540356Y-87760209D02*
X124692737Y-87760209D01*
X124692737Y-87760209D02*
X124730832Y-87741161D01*
X124730832Y-87741161D02*
X124749880Y-87722114D01*
X124749880Y-87722114D02*
X124768927Y-87684019D01*
X124768927Y-87684019D02*
X124768927Y-87607828D01*
X124768927Y-87607828D02*
X124749880Y-87569733D01*
X124749880Y-87569733D02*
X124730832Y-87550685D01*
X124730832Y-87550685D02*
X124692737Y-87531638D01*
X124692737Y-87531638D02*
X124597499Y-87531638D01*
X124597499Y-87531638D02*
X124559403Y-87550685D01*
X124559403Y-87550685D02*
X124540356Y-87569733D01*
X124540356Y-87569733D02*
X124521308Y-87607828D01*
X124521308Y-87607828D02*
X124521308Y-87684019D01*
X124521308Y-87684019D02*
X124540356Y-87722114D01*
X124540356Y-87722114D02*
X124559403Y-87741161D01*
X124559403Y-87741161D02*
X124597499Y-87760209D01*
D10*
X165589936Y-80060593D02*
X165470889Y-80143926D01*
X165589936Y-80203450D02*
X165339936Y-80203450D01*
X165339936Y-80203450D02*
X165339936Y-80108212D01*
X165339936Y-80108212D02*
X165351841Y-80084402D01*
X165351841Y-80084402D02*
X165363746Y-80072497D01*
X165363746Y-80072497D02*
X165387555Y-80060593D01*
X165387555Y-80060593D02*
X165423270Y-80060593D01*
X165423270Y-80060593D02*
X165447079Y-80072497D01*
X165447079Y-80072497D02*
X165458984Y-80084402D01*
X165458984Y-80084402D02*
X165470889Y-80108212D01*
X165470889Y-80108212D02*
X165470889Y-80203450D01*
X165423270Y-79846307D02*
X165589936Y-79846307D01*
X165328032Y-79905831D02*
X165506603Y-79965354D01*
X165506603Y-79965354D02*
X165506603Y-79810593D01*
X157762704Y-97350437D02*
X157774609Y-97362341D01*
X157774609Y-97362341D02*
X157786513Y-97398056D01*
X157786513Y-97398056D02*
X157786513Y-97421865D01*
X157786513Y-97421865D02*
X157774609Y-97457579D01*
X157774609Y-97457579D02*
X157750799Y-97481389D01*
X157750799Y-97481389D02*
X157726989Y-97493294D01*
X157726989Y-97493294D02*
X157679370Y-97505198D01*
X157679370Y-97505198D02*
X157643656Y-97505198D01*
X157643656Y-97505198D02*
X157596037Y-97493294D01*
X157596037Y-97493294D02*
X157572228Y-97481389D01*
X157572228Y-97481389D02*
X157548418Y-97457579D01*
X157548418Y-97457579D02*
X157536513Y-97421865D01*
X157536513Y-97421865D02*
X157536513Y-97398056D01*
X157536513Y-97398056D02*
X157548418Y-97362341D01*
X157548418Y-97362341D02*
X157560323Y-97350437D01*
X157786513Y-97112341D02*
X157786513Y-97255198D01*
X157786513Y-97183770D02*
X157536513Y-97183770D01*
X157536513Y-97183770D02*
X157572228Y-97207579D01*
X157572228Y-97207579D02*
X157596037Y-97231389D01*
X157596037Y-97231389D02*
X157607942Y-97255198D01*
X157536513Y-96898056D02*
X157536513Y-96945675D01*
X157536513Y-96945675D02*
X157548418Y-96969484D01*
X157548418Y-96969484D02*
X157560323Y-96981389D01*
X157560323Y-96981389D02*
X157596037Y-97005199D01*
X157596037Y-97005199D02*
X157643656Y-97017103D01*
X157643656Y-97017103D02*
X157738894Y-97017103D01*
X157738894Y-97017103D02*
X157762704Y-97005199D01*
X157762704Y-97005199D02*
X157774609Y-96993294D01*
X157774609Y-96993294D02*
X157786513Y-96969484D01*
X157786513Y-96969484D02*
X157786513Y-96921865D01*
X157786513Y-96921865D02*
X157774609Y-96898056D01*
X157774609Y-96898056D02*
X157762704Y-96886151D01*
X157762704Y-96886151D02*
X157738894Y-96874246D01*
X157738894Y-96874246D02*
X157679370Y-96874246D01*
X157679370Y-96874246D02*
X157655561Y-96886151D01*
X157655561Y-96886151D02*
X157643656Y-96898056D01*
X157643656Y-96898056D02*
X157631751Y-96921865D01*
X157631751Y-96921865D02*
X157631751Y-96969484D01*
X157631751Y-96969484D02*
X157643656Y-96993294D01*
X157643656Y-96993294D02*
X157655561Y-97005199D01*
X157655561Y-97005199D02*
X157679370Y-97017103D01*
X152220675Y-93159325D02*
X152232580Y-93171229D01*
X152232580Y-93171229D02*
X152244484Y-93206944D01*
X152244484Y-93206944D02*
X152244484Y-93230753D01*
X152244484Y-93230753D02*
X152232580Y-93266467D01*
X152232580Y-93266467D02*
X152208770Y-93290277D01*
X152208770Y-93290277D02*
X152184960Y-93302182D01*
X152184960Y-93302182D02*
X152137341Y-93314086D01*
X152137341Y-93314086D02*
X152101627Y-93314086D01*
X152101627Y-93314086D02*
X152054008Y-93302182D01*
X152054008Y-93302182D02*
X152030199Y-93290277D01*
X152030199Y-93290277D02*
X152006389Y-93266467D01*
X152006389Y-93266467D02*
X151994484Y-93230753D01*
X151994484Y-93230753D02*
X151994484Y-93206944D01*
X151994484Y-93206944D02*
X152006389Y-93171229D01*
X152006389Y-93171229D02*
X152018294Y-93159325D01*
X152244484Y-92921229D02*
X152244484Y-93064086D01*
X152244484Y-92992658D02*
X151994484Y-92992658D01*
X151994484Y-92992658D02*
X152030199Y-93016467D01*
X152030199Y-93016467D02*
X152054008Y-93040277D01*
X152054008Y-93040277D02*
X152065913Y-93064086D01*
X152018294Y-92825991D02*
X152006389Y-92814087D01*
X152006389Y-92814087D02*
X151994484Y-92790277D01*
X151994484Y-92790277D02*
X151994484Y-92730753D01*
X151994484Y-92730753D02*
X152006389Y-92706944D01*
X152006389Y-92706944D02*
X152018294Y-92695039D01*
X152018294Y-92695039D02*
X152042103Y-92683134D01*
X152042103Y-92683134D02*
X152065913Y-92683134D01*
X152065913Y-92683134D02*
X152101627Y-92695039D01*
X152101627Y-92695039D02*
X152244484Y-92837896D01*
X152244484Y-92837896D02*
X152244484Y-92683134D01*
D12*
X157665895Y-79186419D02*
X158237323Y-79186419D01*
X157951609Y-80186419D02*
X157951609Y-79186419D01*
X158570657Y-80186419D02*
X158570657Y-79186419D01*
X158570657Y-79186419D02*
X158951609Y-79186419D01*
X158951609Y-79186419D02*
X159046847Y-79234038D01*
X159046847Y-79234038D02*
X159094466Y-79281657D01*
X159094466Y-79281657D02*
X159142085Y-79376895D01*
X159142085Y-79376895D02*
X159142085Y-79519752D01*
X159142085Y-79519752D02*
X159094466Y-79614990D01*
X159094466Y-79614990D02*
X159046847Y-79662609D01*
X159046847Y-79662609D02*
X158951609Y-79710228D01*
X158951609Y-79710228D02*
X158570657Y-79710228D01*
X159523038Y-79281657D02*
X159570657Y-79234038D01*
X159570657Y-79234038D02*
X159665895Y-79186419D01*
X159665895Y-79186419D02*
X159903990Y-79186419D01*
X159903990Y-79186419D02*
X159999228Y-79234038D01*
X159999228Y-79234038D02*
X160046847Y-79281657D01*
X160046847Y-79281657D02*
X160094466Y-79376895D01*
X160094466Y-79376895D02*
X160094466Y-79472133D01*
X160094466Y-79472133D02*
X160046847Y-79614990D01*
X160046847Y-79614990D02*
X159475419Y-80186419D01*
X159475419Y-80186419D02*
X160094466Y-80186419D01*
D15*
X148800626Y-99798729D02*
X148800626Y-99298729D01*
X148800626Y-99298729D02*
X148919674Y-99298729D01*
X148919674Y-99298729D02*
X148991102Y-99322539D01*
X148991102Y-99322539D02*
X149038721Y-99370158D01*
X149038721Y-99370158D02*
X149062531Y-99417777D01*
X149062531Y-99417777D02*
X149086340Y-99513015D01*
X149086340Y-99513015D02*
X149086340Y-99584443D01*
X149086340Y-99584443D02*
X149062531Y-99679681D01*
X149062531Y-99679681D02*
X149038721Y-99727300D01*
X149038721Y-99727300D02*
X148991102Y-99774920D01*
X148991102Y-99774920D02*
X148919674Y-99798729D01*
X148919674Y-99798729D02*
X148800626Y-99798729D01*
X149538721Y-99298729D02*
X149300626Y-99298729D01*
X149300626Y-99298729D02*
X149276817Y-99536824D01*
X149276817Y-99536824D02*
X149300626Y-99513015D01*
X149300626Y-99513015D02*
X149348245Y-99489205D01*
X149348245Y-99489205D02*
X149467293Y-99489205D01*
X149467293Y-99489205D02*
X149514912Y-99513015D01*
X149514912Y-99513015D02*
X149538721Y-99536824D01*
X149538721Y-99536824D02*
X149562531Y-99584443D01*
X149562531Y-99584443D02*
X149562531Y-99703491D01*
X149562531Y-99703491D02*
X149538721Y-99751110D01*
X149538721Y-99751110D02*
X149514912Y-99774920D01*
X149514912Y-99774920D02*
X149467293Y-99798729D01*
X149467293Y-99798729D02*
X149348245Y-99798729D01*
X149348245Y-99798729D02*
X149300626Y-99774920D01*
X149300626Y-99774920D02*
X149276817Y-99751110D01*
D10*
X147735533Y-90685765D02*
X147723629Y-90697670D01*
X147723629Y-90697670D02*
X147687914Y-90709574D01*
X147687914Y-90709574D02*
X147664105Y-90709574D01*
X147664105Y-90709574D02*
X147628391Y-90697670D01*
X147628391Y-90697670D02*
X147604581Y-90673860D01*
X147604581Y-90673860D02*
X147592676Y-90650050D01*
X147592676Y-90650050D02*
X147580772Y-90602431D01*
X147580772Y-90602431D02*
X147580772Y-90566717D01*
X147580772Y-90566717D02*
X147592676Y-90519098D01*
X147592676Y-90519098D02*
X147604581Y-90495289D01*
X147604581Y-90495289D02*
X147628391Y-90471479D01*
X147628391Y-90471479D02*
X147664105Y-90459574D01*
X147664105Y-90459574D02*
X147687914Y-90459574D01*
X147687914Y-90459574D02*
X147723629Y-90471479D01*
X147723629Y-90471479D02*
X147735533Y-90483384D01*
X147961724Y-90459574D02*
X147842676Y-90459574D01*
X147842676Y-90459574D02*
X147830772Y-90578622D01*
X147830772Y-90578622D02*
X147842676Y-90566717D01*
X147842676Y-90566717D02*
X147866486Y-90554812D01*
X147866486Y-90554812D02*
X147926010Y-90554812D01*
X147926010Y-90554812D02*
X147949819Y-90566717D01*
X147949819Y-90566717D02*
X147961724Y-90578622D01*
X147961724Y-90578622D02*
X147973629Y-90602431D01*
X147973629Y-90602431D02*
X147973629Y-90661955D01*
X147973629Y-90661955D02*
X147961724Y-90685765D01*
X147961724Y-90685765D02*
X147949819Y-90697670D01*
X147949819Y-90697670D02*
X147926010Y-90709574D01*
X147926010Y-90709574D02*
X147866486Y-90709574D01*
X147866486Y-90709574D02*
X147842676Y-90697670D01*
X147842676Y-90697670D02*
X147830772Y-90685765D01*
D12*
X134404762Y-111913200D02*
X134547619Y-111960819D01*
X134547619Y-111960819D02*
X134785714Y-111960819D01*
X134785714Y-111960819D02*
X134880952Y-111913200D01*
X134880952Y-111913200D02*
X134928571Y-111865580D01*
X134928571Y-111865580D02*
X134976190Y-111770342D01*
X134976190Y-111770342D02*
X134976190Y-111675104D01*
X134976190Y-111675104D02*
X134928571Y-111579866D01*
X134928571Y-111579866D02*
X134880952Y-111532247D01*
X134880952Y-111532247D02*
X134785714Y-111484628D01*
X134785714Y-111484628D02*
X134595238Y-111437009D01*
X134595238Y-111437009D02*
X134500000Y-111389390D01*
X134500000Y-111389390D02*
X134452381Y-111341771D01*
X134452381Y-111341771D02*
X134404762Y-111246533D01*
X134404762Y-111246533D02*
X134404762Y-111151295D01*
X134404762Y-111151295D02*
X134452381Y-111056057D01*
X134452381Y-111056057D02*
X134500000Y-111008438D01*
X134500000Y-111008438D02*
X134595238Y-110960819D01*
X134595238Y-110960819D02*
X134833333Y-110960819D01*
X134833333Y-110960819D02*
X134976190Y-111008438D01*
X135404762Y-111960819D02*
X135404762Y-110960819D01*
X135404762Y-110960819D02*
X135785714Y-110960819D01*
X135785714Y-110960819D02*
X135880952Y-111008438D01*
X135880952Y-111008438D02*
X135928571Y-111056057D01*
X135928571Y-111056057D02*
X135976190Y-111151295D01*
X135976190Y-111151295D02*
X135976190Y-111294152D01*
X135976190Y-111294152D02*
X135928571Y-111389390D01*
X135928571Y-111389390D02*
X135880952Y-111437009D01*
X135880952Y-111437009D02*
X135785714Y-111484628D01*
X135785714Y-111484628D02*
X135404762Y-111484628D01*
X136357143Y-111913200D02*
X136500000Y-111960819D01*
X136500000Y-111960819D02*
X136738095Y-111960819D01*
X136738095Y-111960819D02*
X136833333Y-111913200D01*
X136833333Y-111913200D02*
X136880952Y-111865580D01*
X136880952Y-111865580D02*
X136928571Y-111770342D01*
X136928571Y-111770342D02*
X136928571Y-111675104D01*
X136928571Y-111675104D02*
X136880952Y-111579866D01*
X136880952Y-111579866D02*
X136833333Y-111532247D01*
X136833333Y-111532247D02*
X136738095Y-111484628D01*
X136738095Y-111484628D02*
X136547619Y-111437009D01*
X136547619Y-111437009D02*
X136452381Y-111389390D01*
X136452381Y-111389390D02*
X136404762Y-111341771D01*
X136404762Y-111341771D02*
X136357143Y-111246533D01*
X136357143Y-111246533D02*
X136357143Y-111151295D01*
X136357143Y-111151295D02*
X136404762Y-111056057D01*
X136404762Y-111056057D02*
X136452381Y-111008438D01*
X136452381Y-111008438D02*
X136547619Y-110960819D01*
X136547619Y-110960819D02*
X136785714Y-110960819D01*
X136785714Y-110960819D02*
X136928571Y-111008438D01*
X137357143Y-111437009D02*
X137690476Y-111437009D01*
X137833333Y-111960819D02*
X137357143Y-111960819D01*
X137357143Y-111960819D02*
X137357143Y-110960819D01*
X137357143Y-110960819D02*
X137833333Y-110960819D01*
X138738095Y-111960819D02*
X138261905Y-111960819D01*
X138261905Y-111960819D02*
X138261905Y-110960819D01*
X139595238Y-111960819D02*
X139023810Y-111960819D01*
X139309524Y-111960819D02*
X139309524Y-110960819D01*
X139309524Y-110960819D02*
X139214286Y-111103676D01*
X139214286Y-111103676D02*
X139119048Y-111198914D01*
X139119048Y-111198914D02*
X139023810Y-111246533D01*
X114349333Y-108668244D02*
X113873143Y-108668244D01*
X113873143Y-108668244D02*
X113873143Y-107668244D01*
X115111238Y-108001577D02*
X115111238Y-108668244D01*
X114873143Y-107620625D02*
X114635048Y-108334910D01*
X114635048Y-108334910D02*
X115254095Y-108334910D01*
D10*
X151566170Y-86807050D02*
X151482837Y-86688003D01*
X151423313Y-86807050D02*
X151423313Y-86557050D01*
X151423313Y-86557050D02*
X151518551Y-86557050D01*
X151518551Y-86557050D02*
X151542361Y-86568955D01*
X151542361Y-86568955D02*
X151554266Y-86580860D01*
X151554266Y-86580860D02*
X151566170Y-86604669D01*
X151566170Y-86604669D02*
X151566170Y-86640384D01*
X151566170Y-86640384D02*
X151554266Y-86664193D01*
X151554266Y-86664193D02*
X151542361Y-86676098D01*
X151542361Y-86676098D02*
X151518551Y-86688003D01*
X151518551Y-86688003D02*
X151423313Y-86688003D01*
X151804266Y-86807050D02*
X151661409Y-86807050D01*
X151732837Y-86807050D02*
X151732837Y-86557050D01*
X151732837Y-86557050D02*
X151709028Y-86592765D01*
X151709028Y-86592765D02*
X151685218Y-86616574D01*
X151685218Y-86616574D02*
X151661409Y-86628479D01*
X151959027Y-86557050D02*
X151982837Y-86557050D01*
X151982837Y-86557050D02*
X152006646Y-86568955D01*
X152006646Y-86568955D02*
X152018551Y-86580860D01*
X152018551Y-86580860D02*
X152030456Y-86604669D01*
X152030456Y-86604669D02*
X152042361Y-86652288D01*
X152042361Y-86652288D02*
X152042361Y-86711812D01*
X152042361Y-86711812D02*
X152030456Y-86759431D01*
X152030456Y-86759431D02*
X152018551Y-86783241D01*
X152018551Y-86783241D02*
X152006646Y-86795146D01*
X152006646Y-86795146D02*
X151982837Y-86807050D01*
X151982837Y-86807050D02*
X151959027Y-86807050D01*
X151959027Y-86807050D02*
X151935218Y-86795146D01*
X151935218Y-86795146D02*
X151923313Y-86783241D01*
X151923313Y-86783241D02*
X151911408Y-86759431D01*
X151911408Y-86759431D02*
X151899504Y-86711812D01*
X151899504Y-86711812D02*
X151899504Y-86652288D01*
X151899504Y-86652288D02*
X151911408Y-86604669D01*
X151911408Y-86604669D02*
X151923313Y-86580860D01*
X151923313Y-86580860D02*
X151935218Y-86568955D01*
X151935218Y-86568955D02*
X151959027Y-86557050D01*
D11*
X163520123Y-120165514D02*
X163489647Y-120150276D01*
X163489647Y-120150276D02*
X163459171Y-120119800D01*
X163459171Y-120119800D02*
X163413457Y-120074085D01*
X163413457Y-120074085D02*
X163382980Y-120058847D01*
X163382980Y-120058847D02*
X163352504Y-120058847D01*
X163367742Y-120135038D02*
X163337266Y-120119800D01*
X163337266Y-120119800D02*
X163306790Y-120089323D01*
X163306790Y-120089323D02*
X163291552Y-120028371D01*
X163291552Y-120028371D02*
X163291552Y-119921704D01*
X163291552Y-119921704D02*
X163306790Y-119860752D01*
X163306790Y-119860752D02*
X163337266Y-119830276D01*
X163337266Y-119830276D02*
X163367742Y-119815038D01*
X163367742Y-119815038D02*
X163428695Y-119815038D01*
X163428695Y-119815038D02*
X163459171Y-119830276D01*
X163459171Y-119830276D02*
X163489647Y-119860752D01*
X163489647Y-119860752D02*
X163504885Y-119921704D01*
X163504885Y-119921704D02*
X163504885Y-120028371D01*
X163504885Y-120028371D02*
X163489647Y-120089323D01*
X163489647Y-120089323D02*
X163459171Y-120119800D01*
X163459171Y-120119800D02*
X163428695Y-120135038D01*
X163428695Y-120135038D02*
X163367742Y-120135038D01*
X163779171Y-119921704D02*
X163779171Y-120135038D01*
X163702980Y-119799800D02*
X163626790Y-120028371D01*
X163626790Y-120028371D02*
X163824885Y-120028371D01*
D12*
X150243200Y-94551332D02*
X150290819Y-94408475D01*
X150290819Y-94408475D02*
X150290819Y-94170380D01*
X150290819Y-94170380D02*
X150243200Y-94075142D01*
X150243200Y-94075142D02*
X150195580Y-94027523D01*
X150195580Y-94027523D02*
X150100342Y-93979904D01*
X150100342Y-93979904D02*
X150005104Y-93979904D01*
X150005104Y-93979904D02*
X149909866Y-94027523D01*
X149909866Y-94027523D02*
X149862247Y-94075142D01*
X149862247Y-94075142D02*
X149814628Y-94170380D01*
X149814628Y-94170380D02*
X149767009Y-94360856D01*
X149767009Y-94360856D02*
X149719390Y-94456094D01*
X149719390Y-94456094D02*
X149671771Y-94503713D01*
X149671771Y-94503713D02*
X149576533Y-94551332D01*
X149576533Y-94551332D02*
X149481295Y-94551332D01*
X149481295Y-94551332D02*
X149386057Y-94503713D01*
X149386057Y-94503713D02*
X149338438Y-94456094D01*
X149338438Y-94456094D02*
X149290819Y-94360856D01*
X149290819Y-94360856D02*
X149290819Y-94122761D01*
X149290819Y-94122761D02*
X149338438Y-93979904D01*
X149290819Y-93646570D02*
X150290819Y-93408475D01*
X150290819Y-93408475D02*
X149576533Y-93217999D01*
X149576533Y-93217999D02*
X150290819Y-93027523D01*
X150290819Y-93027523D02*
X149290819Y-92789428D01*
X150290819Y-91884666D02*
X150290819Y-92456094D01*
X150290819Y-92170380D02*
X149290819Y-92170380D01*
X149290819Y-92170380D02*
X149433676Y-92265618D01*
X149433676Y-92265618D02*
X149528914Y-92360856D01*
X149528914Y-92360856D02*
X149576533Y-92456094D01*
X138485819Y-95342599D02*
X138485819Y-95914027D01*
X138485819Y-95628313D02*
X137485819Y-95628313D01*
X137485819Y-95628313D02*
X137628676Y-95723551D01*
X137628676Y-95723551D02*
X137723914Y-95818789D01*
X137723914Y-95818789D02*
X137771533Y-95914027D01*
X138390580Y-94914027D02*
X138438200Y-94866408D01*
X138438200Y-94866408D02*
X138485819Y-94914027D01*
X138485819Y-94914027D02*
X138438200Y-94961646D01*
X138438200Y-94961646D02*
X138390580Y-94914027D01*
X138390580Y-94914027D02*
X138485819Y-94914027D01*
X137485819Y-94533075D02*
X137485819Y-93914028D01*
X137485819Y-93914028D02*
X137866771Y-94247361D01*
X137866771Y-94247361D02*
X137866771Y-94104504D01*
X137866771Y-94104504D02*
X137914390Y-94009266D01*
X137914390Y-94009266D02*
X137962009Y-93961647D01*
X137962009Y-93961647D02*
X138057247Y-93914028D01*
X138057247Y-93914028D02*
X138295342Y-93914028D01*
X138295342Y-93914028D02*
X138390580Y-93961647D01*
X138390580Y-93961647D02*
X138438200Y-94009266D01*
X138438200Y-94009266D02*
X138485819Y-94104504D01*
X138485819Y-94104504D02*
X138485819Y-94390218D01*
X138485819Y-94390218D02*
X138438200Y-94485456D01*
X138438200Y-94485456D02*
X138390580Y-94533075D01*
X138200104Y-93533075D02*
X138200104Y-93056885D01*
X138485819Y-93628313D02*
X137485819Y-93294980D01*
X137485819Y-93294980D02*
X138485819Y-92961647D01*
X137581057Y-91914027D02*
X137533438Y-91866408D01*
X137533438Y-91866408D02*
X137485819Y-91771170D01*
X137485819Y-91771170D02*
X137485819Y-91533075D01*
X137485819Y-91533075D02*
X137533438Y-91437837D01*
X137533438Y-91437837D02*
X137581057Y-91390218D01*
X137581057Y-91390218D02*
X137676295Y-91342599D01*
X137676295Y-91342599D02*
X137771533Y-91342599D01*
X137771533Y-91342599D02*
X137914390Y-91390218D01*
X137914390Y-91390218D02*
X138485819Y-91961646D01*
X138485819Y-91961646D02*
X138485819Y-91342599D01*
X138390580Y-90914027D02*
X138438200Y-90866408D01*
X138438200Y-90866408D02*
X138485819Y-90914027D01*
X138485819Y-90914027D02*
X138438200Y-90961646D01*
X138438200Y-90961646D02*
X138390580Y-90914027D01*
X138390580Y-90914027D02*
X138485819Y-90914027D01*
X137581057Y-90485456D02*
X137533438Y-90437837D01*
X137533438Y-90437837D02*
X137485819Y-90342599D01*
X137485819Y-90342599D02*
X137485819Y-90104504D01*
X137485819Y-90104504D02*
X137533438Y-90009266D01*
X137533438Y-90009266D02*
X137581057Y-89961647D01*
X137581057Y-89961647D02*
X137676295Y-89914028D01*
X137676295Y-89914028D02*
X137771533Y-89914028D01*
X137771533Y-89914028D02*
X137914390Y-89961647D01*
X137914390Y-89961647D02*
X138485819Y-90533075D01*
X138485819Y-90533075D02*
X138485819Y-89914028D01*
X137819152Y-89056885D02*
X138485819Y-89056885D01*
X137819152Y-89485456D02*
X138342961Y-89485456D01*
X138342961Y-89485456D02*
X138438200Y-89437837D01*
X138438200Y-89437837D02*
X138485819Y-89342599D01*
X138485819Y-89342599D02*
X138485819Y-89199742D01*
X138485819Y-89199742D02*
X138438200Y-89104504D01*
X138438200Y-89104504D02*
X138390580Y-89056885D01*
X138485819Y-88580694D02*
X137485819Y-88580694D01*
X137962009Y-88580694D02*
X137962009Y-88009266D01*
X138485819Y-88009266D02*
X137485819Y-88009266D01*
X137914390Y-86771170D02*
X137914390Y-86009266D01*
X138295342Y-86390218D02*
X137533438Y-86390218D01*
X138485819Y-86009266D02*
X138485819Y-86771170D01*
X137581057Y-85580694D02*
X137533438Y-85533075D01*
X137533438Y-85533075D02*
X137485819Y-85437837D01*
X137485819Y-85437837D02*
X137485819Y-85199742D01*
X137485819Y-85199742D02*
X137533438Y-85104504D01*
X137533438Y-85104504D02*
X137581057Y-85056885D01*
X137581057Y-85056885D02*
X137676295Y-85009266D01*
X137676295Y-85009266D02*
X137771533Y-85009266D01*
X137771533Y-85009266D02*
X137914390Y-85056885D01*
X137914390Y-85056885D02*
X138485819Y-85628313D01*
X138485819Y-85628313D02*
X138485819Y-85009266D01*
X137485819Y-84390218D02*
X137485819Y-84294980D01*
X137485819Y-84294980D02*
X137533438Y-84199742D01*
X137533438Y-84199742D02*
X137581057Y-84152123D01*
X137581057Y-84152123D02*
X137676295Y-84104504D01*
X137676295Y-84104504D02*
X137866771Y-84056885D01*
X137866771Y-84056885D02*
X138104866Y-84056885D01*
X138104866Y-84056885D02*
X138295342Y-84104504D01*
X138295342Y-84104504D02*
X138390580Y-84152123D01*
X138390580Y-84152123D02*
X138438200Y-84199742D01*
X138438200Y-84199742D02*
X138485819Y-84294980D01*
X138485819Y-84294980D02*
X138485819Y-84390218D01*
X138485819Y-84390218D02*
X138438200Y-84485456D01*
X138438200Y-84485456D02*
X138390580Y-84533075D01*
X138390580Y-84533075D02*
X138295342Y-84580694D01*
X138295342Y-84580694D02*
X138104866Y-84628313D01*
X138104866Y-84628313D02*
X137866771Y-84628313D01*
X137866771Y-84628313D02*
X137676295Y-84580694D01*
X137676295Y-84580694D02*
X137581057Y-84533075D01*
X137581057Y-84533075D02*
X137533438Y-84485456D01*
X137533438Y-84485456D02*
X137485819Y-84390218D01*
X138485819Y-83675932D02*
X137485819Y-82914028D01*
X137485819Y-83533075D02*
X137533438Y-83437837D01*
X137533438Y-83437837D02*
X137628676Y-83390218D01*
X137628676Y-83390218D02*
X137723914Y-83437837D01*
X137723914Y-83437837D02*
X137771533Y-83533075D01*
X137771533Y-83533075D02*
X137723914Y-83628313D01*
X137723914Y-83628313D02*
X137628676Y-83675932D01*
X137628676Y-83675932D02*
X137533438Y-83628313D01*
X137533438Y-83628313D02*
X137485819Y-83533075D01*
X138438200Y-82961647D02*
X138342961Y-82914028D01*
X138342961Y-82914028D02*
X138247723Y-82961647D01*
X138247723Y-82961647D02*
X138200104Y-83056885D01*
X138200104Y-83056885D02*
X138247723Y-83152123D01*
X138247723Y-83152123D02*
X138342961Y-83199742D01*
X138342961Y-83199742D02*
X138438200Y-83152123D01*
X138438200Y-83152123D02*
X138485819Y-83056885D01*
X138485819Y-83056885D02*
X138438200Y-82961647D01*
X137914390Y-81580694D02*
X137866771Y-81675932D01*
X137866771Y-81675932D02*
X137819152Y-81723551D01*
X137819152Y-81723551D02*
X137723914Y-81771170D01*
X137723914Y-81771170D02*
X137676295Y-81771170D01*
X137676295Y-81771170D02*
X137581057Y-81723551D01*
X137581057Y-81723551D02*
X137533438Y-81675932D01*
X137533438Y-81675932D02*
X137485819Y-81580694D01*
X137485819Y-81580694D02*
X137485819Y-81390218D01*
X137485819Y-81390218D02*
X137533438Y-81294980D01*
X137533438Y-81294980D02*
X137581057Y-81247361D01*
X137581057Y-81247361D02*
X137676295Y-81199742D01*
X137676295Y-81199742D02*
X137723914Y-81199742D01*
X137723914Y-81199742D02*
X137819152Y-81247361D01*
X137819152Y-81247361D02*
X137866771Y-81294980D01*
X137866771Y-81294980D02*
X137914390Y-81390218D01*
X137914390Y-81390218D02*
X137914390Y-81580694D01*
X137914390Y-81580694D02*
X137962009Y-81675932D01*
X137962009Y-81675932D02*
X138009628Y-81723551D01*
X138009628Y-81723551D02*
X138104866Y-81771170D01*
X138104866Y-81771170D02*
X138295342Y-81771170D01*
X138295342Y-81771170D02*
X138390580Y-81723551D01*
X138390580Y-81723551D02*
X138438200Y-81675932D01*
X138438200Y-81675932D02*
X138485819Y-81580694D01*
X138485819Y-81580694D02*
X138485819Y-81390218D01*
X138485819Y-81390218D02*
X138438200Y-81294980D01*
X138438200Y-81294980D02*
X138390580Y-81247361D01*
X138390580Y-81247361D02*
X138295342Y-81199742D01*
X138295342Y-81199742D02*
X138104866Y-81199742D01*
X138104866Y-81199742D02*
X138009628Y-81247361D01*
X138009628Y-81247361D02*
X137962009Y-81294980D01*
X137962009Y-81294980D02*
X137914390Y-81390218D01*
X137485819Y-80580694D02*
X137485819Y-80485456D01*
X137485819Y-80485456D02*
X137533438Y-80390218D01*
X137533438Y-80390218D02*
X137581057Y-80342599D01*
X137581057Y-80342599D02*
X137676295Y-80294980D01*
X137676295Y-80294980D02*
X137866771Y-80247361D01*
X137866771Y-80247361D02*
X138104866Y-80247361D01*
X138104866Y-80247361D02*
X138295342Y-80294980D01*
X138295342Y-80294980D02*
X138390580Y-80342599D01*
X138390580Y-80342599D02*
X138438200Y-80390218D01*
X138438200Y-80390218D02*
X138485819Y-80485456D01*
X138485819Y-80485456D02*
X138485819Y-80580694D01*
X138485819Y-80580694D02*
X138438200Y-80675932D01*
X138438200Y-80675932D02*
X138390580Y-80723551D01*
X138390580Y-80723551D02*
X138295342Y-80771170D01*
X138295342Y-80771170D02*
X138104866Y-80818789D01*
X138104866Y-80818789D02*
X137866771Y-80818789D01*
X137866771Y-80818789D02*
X137676295Y-80771170D01*
X137676295Y-80771170D02*
X137581057Y-80723551D01*
X137581057Y-80723551D02*
X137533438Y-80675932D01*
X137533438Y-80675932D02*
X137485819Y-80580694D01*
X138485819Y-79818789D02*
X137819152Y-79818789D01*
X137914390Y-79818789D02*
X137866771Y-79771170D01*
X137866771Y-79771170D02*
X137819152Y-79675932D01*
X137819152Y-79675932D02*
X137819152Y-79533075D01*
X137819152Y-79533075D02*
X137866771Y-79437837D01*
X137866771Y-79437837D02*
X137962009Y-79390218D01*
X137962009Y-79390218D02*
X138485819Y-79390218D01*
X137962009Y-79390218D02*
X137866771Y-79342599D01*
X137866771Y-79342599D02*
X137819152Y-79247361D01*
X137819152Y-79247361D02*
X137819152Y-79104504D01*
X137819152Y-79104504D02*
X137866771Y-79009265D01*
X137866771Y-79009265D02*
X137962009Y-78961646D01*
X137962009Y-78961646D02*
X138485819Y-78961646D01*
X138485819Y-78533075D02*
X138485819Y-78294980D01*
X138485819Y-78294980D02*
X138295342Y-78294980D01*
X138295342Y-78294980D02*
X138247723Y-78390218D01*
X138247723Y-78390218D02*
X138152485Y-78485456D01*
X138152485Y-78485456D02*
X138009628Y-78533075D01*
X138009628Y-78533075D02*
X137771533Y-78533075D01*
X137771533Y-78533075D02*
X137628676Y-78485456D01*
X137628676Y-78485456D02*
X137533438Y-78390218D01*
X137533438Y-78390218D02*
X137485819Y-78247361D01*
X137485819Y-78247361D02*
X137485819Y-78056885D01*
X137485819Y-78056885D02*
X137533438Y-77914028D01*
X137533438Y-77914028D02*
X137628676Y-77818790D01*
X137628676Y-77818790D02*
X137771533Y-77771171D01*
X137771533Y-77771171D02*
X138009628Y-77771171D01*
X138009628Y-77771171D02*
X138152485Y-77818790D01*
X138152485Y-77818790D02*
X138247723Y-77914028D01*
X138247723Y-77914028D02*
X138295342Y-78009266D01*
X138295342Y-78009266D02*
X138485819Y-78009266D01*
X138485819Y-78009266D02*
X138485819Y-77771171D01*
D16*
X140363143Y-87241170D02*
X140363143Y-87536408D01*
X140363143Y-87536408D02*
X139743143Y-87536408D01*
X140363143Y-86709742D02*
X140363143Y-87064027D01*
X140363143Y-86886884D02*
X139743143Y-86886884D01*
X139743143Y-86886884D02*
X139831715Y-86945932D01*
X139831715Y-86945932D02*
X139890762Y-87004980D01*
X139890762Y-87004980D02*
X139920286Y-87064027D01*
X140363143Y-86119266D02*
X140363143Y-86473551D01*
X140363143Y-86296408D02*
X139743143Y-86296408D01*
X139743143Y-86296408D02*
X139831715Y-86355456D01*
X139831715Y-86355456D02*
X139890762Y-86414504D01*
X139890762Y-86414504D02*
X139920286Y-86473551D01*
D10*
X162373885Y-84652165D02*
X162361981Y-84664070D01*
X162361981Y-84664070D02*
X162326266Y-84675974D01*
X162326266Y-84675974D02*
X162302457Y-84675974D01*
X162302457Y-84675974D02*
X162266743Y-84664070D01*
X162266743Y-84664070D02*
X162242933Y-84640260D01*
X162242933Y-84640260D02*
X162231028Y-84616450D01*
X162231028Y-84616450D02*
X162219124Y-84568831D01*
X162219124Y-84568831D02*
X162219124Y-84533117D01*
X162219124Y-84533117D02*
X162231028Y-84485498D01*
X162231028Y-84485498D02*
X162242933Y-84461689D01*
X162242933Y-84461689D02*
X162266743Y-84437879D01*
X162266743Y-84437879D02*
X162302457Y-84425974D01*
X162302457Y-84425974D02*
X162326266Y-84425974D01*
X162326266Y-84425974D02*
X162361981Y-84437879D01*
X162361981Y-84437879D02*
X162373885Y-84449784D01*
X162611981Y-84675974D02*
X162469124Y-84675974D01*
X162540552Y-84675974D02*
X162540552Y-84425974D01*
X162540552Y-84425974D02*
X162516743Y-84461689D01*
X162516743Y-84461689D02*
X162492933Y-84485498D01*
X162492933Y-84485498D02*
X162469124Y-84497403D01*
X162826266Y-84509308D02*
X162826266Y-84675974D01*
X162766742Y-84414070D02*
X162707219Y-84592641D01*
X162707219Y-84592641D02*
X162861980Y-84592641D01*
X155780138Y-90774762D02*
X155696805Y-90655715D01*
X155637281Y-90774762D02*
X155637281Y-90524762D01*
X155637281Y-90524762D02*
X155732519Y-90524762D01*
X155732519Y-90524762D02*
X155756329Y-90536667D01*
X155756329Y-90536667D02*
X155768234Y-90548572D01*
X155768234Y-90548572D02*
X155780138Y-90572381D01*
X155780138Y-90572381D02*
X155780138Y-90608096D01*
X155780138Y-90608096D02*
X155768234Y-90631905D01*
X155768234Y-90631905D02*
X155756329Y-90643810D01*
X155756329Y-90643810D02*
X155732519Y-90655715D01*
X155732519Y-90655715D02*
X155637281Y-90655715D01*
X155875377Y-90548572D02*
X155887281Y-90536667D01*
X155887281Y-90536667D02*
X155911091Y-90524762D01*
X155911091Y-90524762D02*
X155970615Y-90524762D01*
X155970615Y-90524762D02*
X155994424Y-90536667D01*
X155994424Y-90536667D02*
X156006329Y-90548572D01*
X156006329Y-90548572D02*
X156018234Y-90572381D01*
X156018234Y-90572381D02*
X156018234Y-90596191D01*
X156018234Y-90596191D02*
X156006329Y-90631905D01*
X156006329Y-90631905D02*
X155863472Y-90774762D01*
X155863472Y-90774762D02*
X156018234Y-90774762D01*
X156113472Y-90548572D02*
X156125376Y-90536667D01*
X156125376Y-90536667D02*
X156149186Y-90524762D01*
X156149186Y-90524762D02*
X156208710Y-90524762D01*
X156208710Y-90524762D02*
X156232519Y-90536667D01*
X156232519Y-90536667D02*
X156244424Y-90548572D01*
X156244424Y-90548572D02*
X156256329Y-90572381D01*
X156256329Y-90572381D02*
X156256329Y-90596191D01*
X156256329Y-90596191D02*
X156244424Y-90631905D01*
X156244424Y-90631905D02*
X156101567Y-90774762D01*
X156101567Y-90774762D02*
X156256329Y-90774762D01*
D12*
X132180152Y-89363419D02*
X131608724Y-89363419D01*
X131894438Y-89363419D02*
X131894438Y-88363419D01*
X131894438Y-88363419D02*
X131799200Y-88506276D01*
X131799200Y-88506276D02*
X131703962Y-88601514D01*
X131703962Y-88601514D02*
X131608724Y-88649133D01*
X132799200Y-88363419D02*
X132894438Y-88363419D01*
X132894438Y-88363419D02*
X132989676Y-88411038D01*
X132989676Y-88411038D02*
X133037295Y-88458657D01*
X133037295Y-88458657D02*
X133084914Y-88553895D01*
X133084914Y-88553895D02*
X133132533Y-88744371D01*
X133132533Y-88744371D02*
X133132533Y-88982466D01*
X133132533Y-88982466D02*
X133084914Y-89172942D01*
X133084914Y-89172942D02*
X133037295Y-89268180D01*
X133037295Y-89268180D02*
X132989676Y-89315800D01*
X132989676Y-89315800D02*
X132894438Y-89363419D01*
X132894438Y-89363419D02*
X132799200Y-89363419D01*
X132799200Y-89363419D02*
X132703962Y-89315800D01*
X132703962Y-89315800D02*
X132656343Y-89268180D01*
X132656343Y-89268180D02*
X132608724Y-89172942D01*
X132608724Y-89172942D02*
X132561105Y-88982466D01*
X132561105Y-88982466D02*
X132561105Y-88744371D01*
X132561105Y-88744371D02*
X132608724Y-88553895D01*
X132608724Y-88553895D02*
X132656343Y-88458657D01*
X132656343Y-88458657D02*
X132703962Y-88411038D01*
X132703962Y-88411038D02*
X132799200Y-88363419D01*
X133751581Y-88363419D02*
X133846819Y-88363419D01*
X133846819Y-88363419D02*
X133942057Y-88411038D01*
X133942057Y-88411038D02*
X133989676Y-88458657D01*
X133989676Y-88458657D02*
X134037295Y-88553895D01*
X134037295Y-88553895D02*
X134084914Y-88744371D01*
X134084914Y-88744371D02*
X134084914Y-88982466D01*
X134084914Y-88982466D02*
X134037295Y-89172942D01*
X134037295Y-89172942D02*
X133989676Y-89268180D01*
X133989676Y-89268180D02*
X133942057Y-89315800D01*
X133942057Y-89315800D02*
X133846819Y-89363419D01*
X133846819Y-89363419D02*
X133751581Y-89363419D01*
X133751581Y-89363419D02*
X133656343Y-89315800D01*
X133656343Y-89315800D02*
X133608724Y-89268180D01*
X133608724Y-89268180D02*
X133561105Y-89172942D01*
X133561105Y-89172942D02*
X133513486Y-88982466D01*
X133513486Y-88982466D02*
X133513486Y-88744371D01*
X133513486Y-88744371D02*
X133561105Y-88553895D01*
X133561105Y-88553895D02*
X133608724Y-88458657D01*
X133608724Y-88458657D02*
X133656343Y-88411038D01*
X133656343Y-88411038D02*
X133751581Y-88363419D01*
X134513486Y-88696752D02*
X134513486Y-89363419D01*
X134513486Y-88791990D02*
X134561105Y-88744371D01*
X134561105Y-88744371D02*
X134656343Y-88696752D01*
X134656343Y-88696752D02*
X134799200Y-88696752D01*
X134799200Y-88696752D02*
X134894438Y-88744371D01*
X134894438Y-88744371D02*
X134942057Y-88839609D01*
X134942057Y-88839609D02*
X134942057Y-89363419D01*
D10*
X133257533Y-87268365D02*
X133245629Y-87280270D01*
X133245629Y-87280270D02*
X133209914Y-87292174D01*
X133209914Y-87292174D02*
X133186105Y-87292174D01*
X133186105Y-87292174D02*
X133150391Y-87280270D01*
X133150391Y-87280270D02*
X133126581Y-87256460D01*
X133126581Y-87256460D02*
X133114676Y-87232650D01*
X133114676Y-87232650D02*
X133102772Y-87185031D01*
X133102772Y-87185031D02*
X133102772Y-87149317D01*
X133102772Y-87149317D02*
X133114676Y-87101698D01*
X133114676Y-87101698D02*
X133126581Y-87077889D01*
X133126581Y-87077889D02*
X133150391Y-87054079D01*
X133150391Y-87054079D02*
X133186105Y-87042174D01*
X133186105Y-87042174D02*
X133209914Y-87042174D01*
X133209914Y-87042174D02*
X133245629Y-87054079D01*
X133245629Y-87054079D02*
X133257533Y-87065984D01*
X133352772Y-87065984D02*
X133364676Y-87054079D01*
X133364676Y-87054079D02*
X133388486Y-87042174D01*
X133388486Y-87042174D02*
X133448010Y-87042174D01*
X133448010Y-87042174D02*
X133471819Y-87054079D01*
X133471819Y-87054079D02*
X133483724Y-87065984D01*
X133483724Y-87065984D02*
X133495629Y-87089793D01*
X133495629Y-87089793D02*
X133495629Y-87113603D01*
X133495629Y-87113603D02*
X133483724Y-87149317D01*
X133483724Y-87149317D02*
X133340867Y-87292174D01*
X133340867Y-87292174D02*
X133495629Y-87292174D01*
D12*
X107138095Y-102948046D02*
X107138095Y-101948046D01*
X107138095Y-101948046D02*
X107376190Y-101948046D01*
X107376190Y-101948046D02*
X107519047Y-101995665D01*
X107519047Y-101995665D02*
X107614285Y-102090903D01*
X107614285Y-102090903D02*
X107661904Y-102186141D01*
X107661904Y-102186141D02*
X107709523Y-102376617D01*
X107709523Y-102376617D02*
X107709523Y-102519474D01*
X107709523Y-102519474D02*
X107661904Y-102709950D01*
X107661904Y-102709950D02*
X107614285Y-102805188D01*
X107614285Y-102805188D02*
X107519047Y-102900427D01*
X107519047Y-102900427D02*
X107376190Y-102948046D01*
X107376190Y-102948046D02*
X107138095Y-102948046D01*
X108138095Y-102948046D02*
X108138095Y-101948046D01*
X108138095Y-101948046D02*
X108519047Y-101948046D01*
X108519047Y-101948046D02*
X108614285Y-101995665D01*
X108614285Y-101995665D02*
X108661904Y-102043284D01*
X108661904Y-102043284D02*
X108709523Y-102138522D01*
X108709523Y-102138522D02*
X108709523Y-102281379D01*
X108709523Y-102281379D02*
X108661904Y-102376617D01*
X108661904Y-102376617D02*
X108614285Y-102424236D01*
X108614285Y-102424236D02*
X108519047Y-102471855D01*
X108519047Y-102471855D02*
X108138095Y-102471855D01*
X109138095Y-101948046D02*
X109138095Y-102757569D01*
X109138095Y-102757569D02*
X109185714Y-102852807D01*
X109185714Y-102852807D02*
X109233333Y-102900427D01*
X109233333Y-102900427D02*
X109328571Y-102948046D01*
X109328571Y-102948046D02*
X109519047Y-102948046D01*
X109519047Y-102948046D02*
X109614285Y-102900427D01*
X109614285Y-102900427D02*
X109661904Y-102852807D01*
X109661904Y-102852807D02*
X109709523Y-102757569D01*
X109709523Y-102757569D02*
X109709523Y-101948046D01*
X110709523Y-102948046D02*
X110138095Y-102948046D01*
X110423809Y-102948046D02*
X110423809Y-101948046D01*
X110423809Y-101948046D02*
X110328571Y-102090903D01*
X110328571Y-102090903D02*
X110233333Y-102186141D01*
X110233333Y-102186141D02*
X110138095Y-102233760D01*
X149349333Y-117498244D02*
X148873143Y-117498244D01*
X148873143Y-117498244D02*
X148873143Y-116498244D01*
X150111238Y-116498244D02*
X149920762Y-116498244D01*
X149920762Y-116498244D02*
X149825524Y-116545863D01*
X149825524Y-116545863D02*
X149777905Y-116593482D01*
X149777905Y-116593482D02*
X149682667Y-116736339D01*
X149682667Y-116736339D02*
X149635048Y-116926815D01*
X149635048Y-116926815D02*
X149635048Y-117307767D01*
X149635048Y-117307767D02*
X149682667Y-117403005D01*
X149682667Y-117403005D02*
X149730286Y-117450625D01*
X149730286Y-117450625D02*
X149825524Y-117498244D01*
X149825524Y-117498244D02*
X150016000Y-117498244D01*
X150016000Y-117498244D02*
X150111238Y-117450625D01*
X150111238Y-117450625D02*
X150158857Y-117403005D01*
X150158857Y-117403005D02*
X150206476Y-117307767D01*
X150206476Y-117307767D02*
X150206476Y-117069672D01*
X150206476Y-117069672D02*
X150158857Y-116974434D01*
X150158857Y-116974434D02*
X150111238Y-116926815D01*
X150111238Y-116926815D02*
X150016000Y-116879196D01*
X150016000Y-116879196D02*
X149825524Y-116879196D01*
X149825524Y-116879196D02*
X149730286Y-116926815D01*
X149730286Y-116926815D02*
X149682667Y-116974434D01*
X149682667Y-116974434D02*
X149635048Y-117069672D01*
D10*
X153078174Y-97391914D02*
X152959127Y-97475247D01*
X153078174Y-97534771D02*
X152828174Y-97534771D01*
X152828174Y-97534771D02*
X152828174Y-97439533D01*
X152828174Y-97439533D02*
X152840079Y-97415723D01*
X152840079Y-97415723D02*
X152851984Y-97403818D01*
X152851984Y-97403818D02*
X152875793Y-97391914D01*
X152875793Y-97391914D02*
X152911508Y-97391914D01*
X152911508Y-97391914D02*
X152935317Y-97403818D01*
X152935317Y-97403818D02*
X152947222Y-97415723D01*
X152947222Y-97415723D02*
X152959127Y-97439533D01*
X152959127Y-97439533D02*
X152959127Y-97534771D01*
X152851984Y-97296675D02*
X152840079Y-97284771D01*
X152840079Y-97284771D02*
X152828174Y-97260961D01*
X152828174Y-97260961D02*
X152828174Y-97201437D01*
X152828174Y-97201437D02*
X152840079Y-97177628D01*
X152840079Y-97177628D02*
X152851984Y-97165723D01*
X152851984Y-97165723D02*
X152875793Y-97153818D01*
X152875793Y-97153818D02*
X152899603Y-97153818D01*
X152899603Y-97153818D02*
X152935317Y-97165723D01*
X152935317Y-97165723D02*
X153078174Y-97308580D01*
X153078174Y-97308580D02*
X153078174Y-97153818D01*
X152911508Y-96939533D02*
X153078174Y-96939533D01*
X152816270Y-96999057D02*
X152994841Y-97058580D01*
X152994841Y-97058580D02*
X152994841Y-96903819D01*
D12*
X155659295Y-75655819D02*
X156230723Y-75655819D01*
X155945009Y-76655819D02*
X155945009Y-75655819D01*
X156564057Y-76655819D02*
X156564057Y-75655819D01*
X156564057Y-75655819D02*
X156945009Y-75655819D01*
X156945009Y-75655819D02*
X157040247Y-75703438D01*
X157040247Y-75703438D02*
X157087866Y-75751057D01*
X157087866Y-75751057D02*
X157135485Y-75846295D01*
X157135485Y-75846295D02*
X157135485Y-75989152D01*
X157135485Y-75989152D02*
X157087866Y-76084390D01*
X157087866Y-76084390D02*
X157040247Y-76132009D01*
X157040247Y-76132009D02*
X156945009Y-76179628D01*
X156945009Y-76179628D02*
X156564057Y-76179628D01*
X158087866Y-76655819D02*
X157516438Y-76655819D01*
X157802152Y-76655819D02*
X157802152Y-75655819D01*
X157802152Y-75655819D02*
X157706914Y-75798676D01*
X157706914Y-75798676D02*
X157611676Y-75893914D01*
X157611676Y-75893914D02*
X157516438Y-75941533D01*
D10*
X168376120Y-80044566D02*
X168257073Y-80127899D01*
X168376120Y-80187423D02*
X168126120Y-80187423D01*
X168126120Y-80187423D02*
X168126120Y-80092185D01*
X168126120Y-80092185D02*
X168138025Y-80068375D01*
X168138025Y-80068375D02*
X168149930Y-80056470D01*
X168149930Y-80056470D02*
X168173739Y-80044566D01*
X168173739Y-80044566D02*
X168209454Y-80044566D01*
X168209454Y-80044566D02*
X168233263Y-80056470D01*
X168233263Y-80056470D02*
X168245168Y-80068375D01*
X168245168Y-80068375D02*
X168257073Y-80092185D01*
X168257073Y-80092185D02*
X168257073Y-80187423D01*
X168126120Y-79830280D02*
X168126120Y-79877899D01*
X168126120Y-79877899D02*
X168138025Y-79901708D01*
X168138025Y-79901708D02*
X168149930Y-79913613D01*
X168149930Y-79913613D02*
X168185644Y-79937423D01*
X168185644Y-79937423D02*
X168233263Y-79949327D01*
X168233263Y-79949327D02*
X168328501Y-79949327D01*
X168328501Y-79949327D02*
X168352311Y-79937423D01*
X168352311Y-79937423D02*
X168364216Y-79925518D01*
X168364216Y-79925518D02*
X168376120Y-79901708D01*
X168376120Y-79901708D02*
X168376120Y-79854089D01*
X168376120Y-79854089D02*
X168364216Y-79830280D01*
X168364216Y-79830280D02*
X168352311Y-79818375D01*
X168352311Y-79818375D02*
X168328501Y-79806470D01*
X168328501Y-79806470D02*
X168268977Y-79806470D01*
X168268977Y-79806470D02*
X168245168Y-79818375D01*
X168245168Y-79818375D02*
X168233263Y-79830280D01*
X168233263Y-79830280D02*
X168221358Y-79854089D01*
X168221358Y-79854089D02*
X168221358Y-79901708D01*
X168221358Y-79901708D02*
X168233263Y-79925518D01*
X168233263Y-79925518D02*
X168245168Y-79937423D01*
X168245168Y-79937423D02*
X168268977Y-79949327D01*
D15*
X143170626Y-99798729D02*
X143170626Y-99298729D01*
X143170626Y-99298729D02*
X143289674Y-99298729D01*
X143289674Y-99298729D02*
X143361102Y-99322539D01*
X143361102Y-99322539D02*
X143408721Y-99370158D01*
X143408721Y-99370158D02*
X143432531Y-99417777D01*
X143432531Y-99417777D02*
X143456340Y-99513015D01*
X143456340Y-99513015D02*
X143456340Y-99584443D01*
X143456340Y-99584443D02*
X143432531Y-99679681D01*
X143432531Y-99679681D02*
X143408721Y-99727300D01*
X143408721Y-99727300D02*
X143361102Y-99774920D01*
X143361102Y-99774920D02*
X143289674Y-99798729D01*
X143289674Y-99798729D02*
X143170626Y-99798729D01*
X143623007Y-99298729D02*
X143956340Y-99298729D01*
X143956340Y-99298729D02*
X143742055Y-99798729D01*
D10*
X129945902Y-86312675D02*
X129862569Y-86193628D01*
X129803045Y-86312675D02*
X129803045Y-86062675D01*
X129803045Y-86062675D02*
X129898283Y-86062675D01*
X129898283Y-86062675D02*
X129922093Y-86074580D01*
X129922093Y-86074580D02*
X129933998Y-86086485D01*
X129933998Y-86086485D02*
X129945902Y-86110294D01*
X129945902Y-86110294D02*
X129945902Y-86146009D01*
X129945902Y-86146009D02*
X129933998Y-86169818D01*
X129933998Y-86169818D02*
X129922093Y-86181723D01*
X129922093Y-86181723D02*
X129898283Y-86193628D01*
X129898283Y-86193628D02*
X129803045Y-86193628D01*
X130183998Y-86312675D02*
X130041141Y-86312675D01*
X130112569Y-86312675D02*
X130112569Y-86062675D01*
X130112569Y-86062675D02*
X130088760Y-86098390D01*
X130088760Y-86098390D02*
X130064950Y-86122199D01*
X130064950Y-86122199D02*
X130041141Y-86134104D01*
X130303045Y-86312675D02*
X130350664Y-86312675D01*
X130350664Y-86312675D02*
X130374474Y-86300771D01*
X130374474Y-86300771D02*
X130386378Y-86288866D01*
X130386378Y-86288866D02*
X130410188Y-86253151D01*
X130410188Y-86253151D02*
X130422093Y-86205532D01*
X130422093Y-86205532D02*
X130422093Y-86110294D01*
X130422093Y-86110294D02*
X130410188Y-86086485D01*
X130410188Y-86086485D02*
X130398283Y-86074580D01*
X130398283Y-86074580D02*
X130374474Y-86062675D01*
X130374474Y-86062675D02*
X130326855Y-86062675D01*
X130326855Y-86062675D02*
X130303045Y-86074580D01*
X130303045Y-86074580D02*
X130291140Y-86086485D01*
X130291140Y-86086485D02*
X130279236Y-86110294D01*
X130279236Y-86110294D02*
X130279236Y-86169818D01*
X130279236Y-86169818D02*
X130291140Y-86193628D01*
X130291140Y-86193628D02*
X130303045Y-86205532D01*
X130303045Y-86205532D02*
X130326855Y-86217437D01*
X130326855Y-86217437D02*
X130374474Y-86217437D01*
X130374474Y-86217437D02*
X130398283Y-86205532D01*
X130398283Y-86205532D02*
X130410188Y-86193628D01*
X130410188Y-86193628D02*
X130422093Y-86169818D01*
D12*
X109749333Y-113268244D02*
X109273143Y-113268244D01*
X109273143Y-113268244D02*
X109273143Y-112268244D01*
X109987429Y-112268244D02*
X110606476Y-112268244D01*
X110606476Y-112268244D02*
X110273143Y-112649196D01*
X110273143Y-112649196D02*
X110416000Y-112649196D01*
X110416000Y-112649196D02*
X110511238Y-112696815D01*
X110511238Y-112696815D02*
X110558857Y-112744434D01*
X110558857Y-112744434D02*
X110606476Y-112839672D01*
X110606476Y-112839672D02*
X110606476Y-113077767D01*
X110606476Y-113077767D02*
X110558857Y-113173005D01*
X110558857Y-113173005D02*
X110511238Y-113220625D01*
X110511238Y-113220625D02*
X110416000Y-113268244D01*
X110416000Y-113268244D02*
X110130286Y-113268244D01*
X110130286Y-113268244D02*
X110035048Y-113220625D01*
X110035048Y-113220625D02*
X109987429Y-113173005D01*
X136113971Y-86488219D02*
X135542543Y-86488219D01*
X135828257Y-86488219D02*
X135828257Y-85488219D01*
X135828257Y-85488219D02*
X135733019Y-85631076D01*
X135733019Y-85631076D02*
X135637781Y-85726314D01*
X135637781Y-85726314D02*
X135542543Y-85773933D01*
X136733019Y-85488219D02*
X136828257Y-85488219D01*
X136828257Y-85488219D02*
X136923495Y-85535838D01*
X136923495Y-85535838D02*
X136971114Y-85583457D01*
X136971114Y-85583457D02*
X137018733Y-85678695D01*
X137018733Y-85678695D02*
X137066352Y-85869171D01*
X137066352Y-85869171D02*
X137066352Y-86107266D01*
X137066352Y-86107266D02*
X137018733Y-86297742D01*
X137018733Y-86297742D02*
X136971114Y-86392980D01*
X136971114Y-86392980D02*
X136923495Y-86440600D01*
X136923495Y-86440600D02*
X136828257Y-86488219D01*
X136828257Y-86488219D02*
X136733019Y-86488219D01*
X136733019Y-86488219D02*
X136637781Y-86440600D01*
X136637781Y-86440600D02*
X136590162Y-86392980D01*
X136590162Y-86392980D02*
X136542543Y-86297742D01*
X136542543Y-86297742D02*
X136494924Y-86107266D01*
X136494924Y-86107266D02*
X136494924Y-85869171D01*
X136494924Y-85869171D02*
X136542543Y-85678695D01*
X136542543Y-85678695D02*
X136590162Y-85583457D01*
X136590162Y-85583457D02*
X136637781Y-85535838D01*
X136637781Y-85535838D02*
X136733019Y-85488219D01*
X137923495Y-85821552D02*
X137923495Y-86488219D01*
X137494924Y-85821552D02*
X137494924Y-86345361D01*
X137494924Y-86345361D02*
X137542543Y-86440600D01*
X137542543Y-86440600D02*
X137637781Y-86488219D01*
X137637781Y-86488219D02*
X137780638Y-86488219D01*
X137780638Y-86488219D02*
X137875876Y-86440600D01*
X137875876Y-86440600D02*
X137923495Y-86392980D01*
X138733019Y-85964409D02*
X138399686Y-85964409D01*
X138399686Y-86488219D02*
X138399686Y-85488219D01*
X138399686Y-85488219D02*
X138875876Y-85488219D01*
D17*
X136863971Y-84532930D02*
X136840162Y-84556740D01*
X136840162Y-84556740D02*
X136768733Y-84580549D01*
X136768733Y-84580549D02*
X136721114Y-84580549D01*
X136721114Y-84580549D02*
X136649686Y-84556740D01*
X136649686Y-84556740D02*
X136602067Y-84509120D01*
X136602067Y-84509120D02*
X136578257Y-84461501D01*
X136578257Y-84461501D02*
X136554448Y-84366263D01*
X136554448Y-84366263D02*
X136554448Y-84294835D01*
X136554448Y-84294835D02*
X136578257Y-84199597D01*
X136578257Y-84199597D02*
X136602067Y-84151978D01*
X136602067Y-84151978D02*
X136649686Y-84104359D01*
X136649686Y-84104359D02*
X136721114Y-84080549D01*
X136721114Y-84080549D02*
X136768733Y-84080549D01*
X136768733Y-84080549D02*
X136840162Y-84104359D01*
X136840162Y-84104359D02*
X136863971Y-84128168D01*
X137054448Y-84128168D02*
X137078257Y-84104359D01*
X137078257Y-84104359D02*
X137125876Y-84080549D01*
X137125876Y-84080549D02*
X137244924Y-84080549D01*
X137244924Y-84080549D02*
X137292543Y-84104359D01*
X137292543Y-84104359D02*
X137316352Y-84128168D01*
X137316352Y-84128168D02*
X137340162Y-84175787D01*
X137340162Y-84175787D02*
X137340162Y-84223406D01*
X137340162Y-84223406D02*
X137316352Y-84294835D01*
X137316352Y-84294835D02*
X137030638Y-84580549D01*
X137030638Y-84580549D02*
X137340162Y-84580549D01*
X137816352Y-84580549D02*
X137530638Y-84580549D01*
X137673495Y-84580549D02*
X137673495Y-84080549D01*
X137673495Y-84080549D02*
X137625876Y-84151978D01*
X137625876Y-84151978D02*
X137578257Y-84199597D01*
X137578257Y-84199597D02*
X137530638Y-84223406D01*
D12*
X107190621Y-106300281D02*
X106190621Y-106300281D01*
X106190621Y-106300281D02*
X106190621Y-106062186D01*
X106190621Y-106062186D02*
X106238240Y-105919329D01*
X106238240Y-105919329D02*
X106333478Y-105824091D01*
X106333478Y-105824091D02*
X106428716Y-105776472D01*
X106428716Y-105776472D02*
X106619192Y-105728853D01*
X106619192Y-105728853D02*
X106762049Y-105728853D01*
X106762049Y-105728853D02*
X106952525Y-105776472D01*
X106952525Y-105776472D02*
X107047763Y-105824091D01*
X107047763Y-105824091D02*
X107143002Y-105919329D01*
X107143002Y-105919329D02*
X107190621Y-106062186D01*
X107190621Y-106062186D02*
X107190621Y-106300281D01*
X107190621Y-105300281D02*
X106190621Y-105300281D01*
X106190621Y-105300281D02*
X106190621Y-104919329D01*
X106190621Y-104919329D02*
X106238240Y-104824091D01*
X106238240Y-104824091D02*
X106285859Y-104776472D01*
X106285859Y-104776472D02*
X106381097Y-104728853D01*
X106381097Y-104728853D02*
X106523954Y-104728853D01*
X106523954Y-104728853D02*
X106619192Y-104776472D01*
X106619192Y-104776472D02*
X106666811Y-104824091D01*
X106666811Y-104824091D02*
X106714430Y-104919329D01*
X106714430Y-104919329D02*
X106714430Y-105300281D01*
X107190621Y-103824091D02*
X107190621Y-104300281D01*
X107190621Y-104300281D02*
X106190621Y-104300281D01*
X107190621Y-102966948D02*
X107190621Y-103538376D01*
X107190621Y-103252662D02*
X106190621Y-103252662D01*
X106190621Y-103252662D02*
X106333478Y-103347900D01*
X106333478Y-103347900D02*
X106428716Y-103443138D01*
X106428716Y-103443138D02*
X106476335Y-103538376D01*
X136753990Y-79841180D02*
X136706371Y-79888800D01*
X136706371Y-79888800D02*
X136563514Y-79936419D01*
X136563514Y-79936419D02*
X136468276Y-79936419D01*
X136468276Y-79936419D02*
X136325419Y-79888800D01*
X136325419Y-79888800D02*
X136230181Y-79793561D01*
X136230181Y-79793561D02*
X136182562Y-79698323D01*
X136182562Y-79698323D02*
X136134943Y-79507847D01*
X136134943Y-79507847D02*
X136134943Y-79364990D01*
X136134943Y-79364990D02*
X136182562Y-79174514D01*
X136182562Y-79174514D02*
X136230181Y-79079276D01*
X136230181Y-79079276D02*
X136325419Y-78984038D01*
X136325419Y-78984038D02*
X136468276Y-78936419D01*
X136468276Y-78936419D02*
X136563514Y-78936419D01*
X136563514Y-78936419D02*
X136706371Y-78984038D01*
X136706371Y-78984038D02*
X136753990Y-79031657D01*
X137182562Y-78936419D02*
X137182562Y-79745942D01*
X137182562Y-79745942D02*
X137230181Y-79841180D01*
X137230181Y-79841180D02*
X137277800Y-79888800D01*
X137277800Y-79888800D02*
X137373038Y-79936419D01*
X137373038Y-79936419D02*
X137563514Y-79936419D01*
X137563514Y-79936419D02*
X137658752Y-79888800D01*
X137658752Y-79888800D02*
X137706371Y-79841180D01*
X137706371Y-79841180D02*
X137753990Y-79745942D01*
X137753990Y-79745942D02*
X137753990Y-78936419D01*
X138182562Y-79888800D02*
X138325419Y-79936419D01*
X138325419Y-79936419D02*
X138563514Y-79936419D01*
X138563514Y-79936419D02*
X138658752Y-79888800D01*
X138658752Y-79888800D02*
X138706371Y-79841180D01*
X138706371Y-79841180D02*
X138753990Y-79745942D01*
X138753990Y-79745942D02*
X138753990Y-79650704D01*
X138753990Y-79650704D02*
X138706371Y-79555466D01*
X138706371Y-79555466D02*
X138658752Y-79507847D01*
X138658752Y-79507847D02*
X138563514Y-79460228D01*
X138563514Y-79460228D02*
X138373038Y-79412609D01*
X138373038Y-79412609D02*
X138277800Y-79364990D01*
X138277800Y-79364990D02*
X138230181Y-79317371D01*
X138230181Y-79317371D02*
X138182562Y-79222133D01*
X138182562Y-79222133D02*
X138182562Y-79126895D01*
X138182562Y-79126895D02*
X138230181Y-79031657D01*
X138230181Y-79031657D02*
X138277800Y-78984038D01*
X138277800Y-78984038D02*
X138373038Y-78936419D01*
X138373038Y-78936419D02*
X138611133Y-78936419D01*
X138611133Y-78936419D02*
X138753990Y-78984038D01*
X139373038Y-78936419D02*
X139468276Y-78936419D01*
X139468276Y-78936419D02*
X139563514Y-78984038D01*
X139563514Y-78984038D02*
X139611133Y-79031657D01*
X139611133Y-79031657D02*
X139658752Y-79126895D01*
X139658752Y-79126895D02*
X139706371Y-79317371D01*
X139706371Y-79317371D02*
X139706371Y-79555466D01*
X139706371Y-79555466D02*
X139658752Y-79745942D01*
X139658752Y-79745942D02*
X139611133Y-79841180D01*
X139611133Y-79841180D02*
X139563514Y-79888800D01*
X139563514Y-79888800D02*
X139468276Y-79936419D01*
X139468276Y-79936419D02*
X139373038Y-79936419D01*
X139373038Y-79936419D02*
X139277800Y-79888800D01*
X139277800Y-79888800D02*
X139230181Y-79841180D01*
X139230181Y-79841180D02*
X139182562Y-79745942D01*
X139182562Y-79745942D02*
X139134943Y-79555466D01*
X139134943Y-79555466D02*
X139134943Y-79317371D01*
X139134943Y-79317371D02*
X139182562Y-79126895D01*
X139182562Y-79126895D02*
X139230181Y-79031657D01*
X139230181Y-79031657D02*
X139277800Y-78984038D01*
X139277800Y-78984038D02*
X139373038Y-78936419D01*
X140277800Y-79364990D02*
X140182562Y-79317371D01*
X140182562Y-79317371D02*
X140134943Y-79269752D01*
X140134943Y-79269752D02*
X140087324Y-79174514D01*
X140087324Y-79174514D02*
X140087324Y-79126895D01*
X140087324Y-79126895D02*
X140134943Y-79031657D01*
X140134943Y-79031657D02*
X140182562Y-78984038D01*
X140182562Y-78984038D02*
X140277800Y-78936419D01*
X140277800Y-78936419D02*
X140468276Y-78936419D01*
X140468276Y-78936419D02*
X140563514Y-78984038D01*
X140563514Y-78984038D02*
X140611133Y-79031657D01*
X140611133Y-79031657D02*
X140658752Y-79126895D01*
X140658752Y-79126895D02*
X140658752Y-79174514D01*
X140658752Y-79174514D02*
X140611133Y-79269752D01*
X140611133Y-79269752D02*
X140563514Y-79317371D01*
X140563514Y-79317371D02*
X140468276Y-79364990D01*
X140468276Y-79364990D02*
X140277800Y-79364990D01*
X140277800Y-79364990D02*
X140182562Y-79412609D01*
X140182562Y-79412609D02*
X140134943Y-79460228D01*
X140134943Y-79460228D02*
X140087324Y-79555466D01*
X140087324Y-79555466D02*
X140087324Y-79745942D01*
X140087324Y-79745942D02*
X140134943Y-79841180D01*
X140134943Y-79841180D02*
X140182562Y-79888800D01*
X140182562Y-79888800D02*
X140277800Y-79936419D01*
X140277800Y-79936419D02*
X140468276Y-79936419D01*
X140468276Y-79936419D02*
X140563514Y-79888800D01*
X140563514Y-79888800D02*
X140611133Y-79841180D01*
X140611133Y-79841180D02*
X140658752Y-79745942D01*
X140658752Y-79745942D02*
X140658752Y-79555466D01*
X140658752Y-79555466D02*
X140611133Y-79460228D01*
X140611133Y-79460228D02*
X140563514Y-79412609D01*
X140563514Y-79412609D02*
X140468276Y-79364990D01*
X141420657Y-79412609D02*
X141087324Y-79412609D01*
X141087324Y-79936419D02*
X141087324Y-78936419D01*
X141087324Y-78936419D02*
X141563514Y-78936419D01*
X141849229Y-78936419D02*
X142468276Y-78936419D01*
X142468276Y-78936419D02*
X142134943Y-79317371D01*
X142134943Y-79317371D02*
X142277800Y-79317371D01*
X142277800Y-79317371D02*
X142373038Y-79364990D01*
X142373038Y-79364990D02*
X142420657Y-79412609D01*
X142420657Y-79412609D02*
X142468276Y-79507847D01*
X142468276Y-79507847D02*
X142468276Y-79745942D01*
X142468276Y-79745942D02*
X142420657Y-79841180D01*
X142420657Y-79841180D02*
X142373038Y-79888800D01*
X142373038Y-79888800D02*
X142277800Y-79936419D01*
X142277800Y-79936419D02*
X141992086Y-79936419D01*
X141992086Y-79936419D02*
X141896848Y-79888800D01*
X141896848Y-79888800D02*
X141849229Y-79841180D01*
X143087324Y-78936419D02*
X143182562Y-78936419D01*
X143182562Y-78936419D02*
X143277800Y-78984038D01*
X143277800Y-78984038D02*
X143325419Y-79031657D01*
X143325419Y-79031657D02*
X143373038Y-79126895D01*
X143373038Y-79126895D02*
X143420657Y-79317371D01*
X143420657Y-79317371D02*
X143420657Y-79555466D01*
X143420657Y-79555466D02*
X143373038Y-79745942D01*
X143373038Y-79745942D02*
X143325419Y-79841180D01*
X143325419Y-79841180D02*
X143277800Y-79888800D01*
X143277800Y-79888800D02*
X143182562Y-79936419D01*
X143182562Y-79936419D02*
X143087324Y-79936419D01*
X143087324Y-79936419D02*
X142992086Y-79888800D01*
X142992086Y-79888800D02*
X142944467Y-79841180D01*
X142944467Y-79841180D02*
X142896848Y-79745942D01*
X142896848Y-79745942D02*
X142849229Y-79555466D01*
X142849229Y-79555466D02*
X142849229Y-79317371D01*
X142849229Y-79317371D02*
X142896848Y-79126895D01*
X142896848Y-79126895D02*
X142944467Y-79031657D01*
X142944467Y-79031657D02*
X142992086Y-78984038D01*
X142992086Y-78984038D02*
X143087324Y-78936419D01*
X139139705Y-83686419D02*
X139139705Y-82686419D01*
X139139705Y-82686419D02*
X139377800Y-82686419D01*
X139377800Y-82686419D02*
X139520657Y-82734038D01*
X139520657Y-82734038D02*
X139615895Y-82829276D01*
X139615895Y-82829276D02*
X139663514Y-82924514D01*
X139663514Y-82924514D02*
X139711133Y-83114990D01*
X139711133Y-83114990D02*
X139711133Y-83257847D01*
X139711133Y-83257847D02*
X139663514Y-83448323D01*
X139663514Y-83448323D02*
X139615895Y-83543561D01*
X139615895Y-83543561D02*
X139520657Y-83638800D01*
X139520657Y-83638800D02*
X139377800Y-83686419D01*
X139377800Y-83686419D02*
X139139705Y-83686419D01*
X140187324Y-83686419D02*
X140377800Y-83686419D01*
X140377800Y-83686419D02*
X140473038Y-83638800D01*
X140473038Y-83638800D02*
X140520657Y-83591180D01*
X140520657Y-83591180D02*
X140615895Y-83448323D01*
X140615895Y-83448323D02*
X140663514Y-83257847D01*
X140663514Y-83257847D02*
X140663514Y-82876895D01*
X140663514Y-82876895D02*
X140615895Y-82781657D01*
X140615895Y-82781657D02*
X140568276Y-82734038D01*
X140568276Y-82734038D02*
X140473038Y-82686419D01*
X140473038Y-82686419D02*
X140282562Y-82686419D01*
X140282562Y-82686419D02*
X140187324Y-82734038D01*
X140187324Y-82734038D02*
X140139705Y-82781657D01*
X140139705Y-82781657D02*
X140092086Y-82876895D01*
X140092086Y-82876895D02*
X140092086Y-83114990D01*
X140092086Y-83114990D02*
X140139705Y-83210228D01*
X140139705Y-83210228D02*
X140187324Y-83257847D01*
X140187324Y-83257847D02*
X140282562Y-83305466D01*
X140282562Y-83305466D02*
X140473038Y-83305466D01*
X140473038Y-83305466D02*
X140568276Y-83257847D01*
X140568276Y-83257847D02*
X140615895Y-83210228D01*
X140615895Y-83210228D02*
X140663514Y-83114990D01*
D15*
X140376626Y-99771729D02*
X140376626Y-99271729D01*
X140376626Y-99271729D02*
X140495674Y-99271729D01*
X140495674Y-99271729D02*
X140567102Y-99295539D01*
X140567102Y-99295539D02*
X140614721Y-99343158D01*
X140614721Y-99343158D02*
X140638531Y-99390777D01*
X140638531Y-99390777D02*
X140662340Y-99486015D01*
X140662340Y-99486015D02*
X140662340Y-99557443D01*
X140662340Y-99557443D02*
X140638531Y-99652681D01*
X140638531Y-99652681D02*
X140614721Y-99700300D01*
X140614721Y-99700300D02*
X140567102Y-99747920D01*
X140567102Y-99747920D02*
X140495674Y-99771729D01*
X140495674Y-99771729D02*
X140376626Y-99771729D01*
X140948055Y-99486015D02*
X140900436Y-99462205D01*
X140900436Y-99462205D02*
X140876626Y-99438396D01*
X140876626Y-99438396D02*
X140852817Y-99390777D01*
X140852817Y-99390777D02*
X140852817Y-99366967D01*
X140852817Y-99366967D02*
X140876626Y-99319348D01*
X140876626Y-99319348D02*
X140900436Y-99295539D01*
X140900436Y-99295539D02*
X140948055Y-99271729D01*
X140948055Y-99271729D02*
X141043293Y-99271729D01*
X141043293Y-99271729D02*
X141090912Y-99295539D01*
X141090912Y-99295539D02*
X141114721Y-99319348D01*
X141114721Y-99319348D02*
X141138531Y-99366967D01*
X141138531Y-99366967D02*
X141138531Y-99390777D01*
X141138531Y-99390777D02*
X141114721Y-99438396D01*
X141114721Y-99438396D02*
X141090912Y-99462205D01*
X141090912Y-99462205D02*
X141043293Y-99486015D01*
X141043293Y-99486015D02*
X140948055Y-99486015D01*
X140948055Y-99486015D02*
X140900436Y-99509824D01*
X140900436Y-99509824D02*
X140876626Y-99533634D01*
X140876626Y-99533634D02*
X140852817Y-99581253D01*
X140852817Y-99581253D02*
X140852817Y-99676491D01*
X140852817Y-99676491D02*
X140876626Y-99724110D01*
X140876626Y-99724110D02*
X140900436Y-99747920D01*
X140900436Y-99747920D02*
X140948055Y-99771729D01*
X140948055Y-99771729D02*
X141043293Y-99771729D01*
X141043293Y-99771729D02*
X141090912Y-99747920D01*
X141090912Y-99747920D02*
X141114721Y-99724110D01*
X141114721Y-99724110D02*
X141138531Y-99676491D01*
X141138531Y-99676491D02*
X141138531Y-99581253D01*
X141138531Y-99581253D02*
X141114721Y-99533634D01*
X141114721Y-99533634D02*
X141090912Y-99509824D01*
X141090912Y-99509824D02*
X141043293Y-99486015D01*
D10*
X132049961Y-86830767D02*
X131930914Y-86914100D01*
X132049961Y-86973624D02*
X131799961Y-86973624D01*
X131799961Y-86973624D02*
X131799961Y-86878386D01*
X131799961Y-86878386D02*
X131811866Y-86854576D01*
X131811866Y-86854576D02*
X131823771Y-86842671D01*
X131823771Y-86842671D02*
X131847580Y-86830767D01*
X131847580Y-86830767D02*
X131883295Y-86830767D01*
X131883295Y-86830767D02*
X131907104Y-86842671D01*
X131907104Y-86842671D02*
X131919009Y-86854576D01*
X131919009Y-86854576D02*
X131930914Y-86878386D01*
X131930914Y-86878386D02*
X131930914Y-86973624D01*
X132049961Y-86711719D02*
X132049961Y-86664100D01*
X132049961Y-86664100D02*
X132038057Y-86640290D01*
X132038057Y-86640290D02*
X132026152Y-86628386D01*
X132026152Y-86628386D02*
X131990437Y-86604576D01*
X131990437Y-86604576D02*
X131942818Y-86592671D01*
X131942818Y-86592671D02*
X131847580Y-86592671D01*
X131847580Y-86592671D02*
X131823771Y-86604576D01*
X131823771Y-86604576D02*
X131811866Y-86616481D01*
X131811866Y-86616481D02*
X131799961Y-86640290D01*
X131799961Y-86640290D02*
X131799961Y-86687909D01*
X131799961Y-86687909D02*
X131811866Y-86711719D01*
X131811866Y-86711719D02*
X131823771Y-86723624D01*
X131823771Y-86723624D02*
X131847580Y-86735528D01*
X131847580Y-86735528D02*
X131907104Y-86735528D01*
X131907104Y-86735528D02*
X131930914Y-86723624D01*
X131930914Y-86723624D02*
X131942818Y-86711719D01*
X131942818Y-86711719D02*
X131954723Y-86687909D01*
X131954723Y-86687909D02*
X131954723Y-86640290D01*
X131954723Y-86640290D02*
X131942818Y-86616481D01*
X131942818Y-86616481D02*
X131930914Y-86604576D01*
X131930914Y-86604576D02*
X131907104Y-86592671D01*
D12*
X138170019Y-92892428D02*
X138170019Y-93463856D01*
X138170019Y-93178142D02*
X137170019Y-93178142D01*
X137170019Y-93178142D02*
X137312876Y-93273380D01*
X137312876Y-93273380D02*
X137408114Y-93368618D01*
X137408114Y-93368618D02*
X137455733Y-93463856D01*
X137170019Y-92273380D02*
X137170019Y-92178142D01*
X137170019Y-92178142D02*
X137217638Y-92082904D01*
X137217638Y-92082904D02*
X137265257Y-92035285D01*
X137265257Y-92035285D02*
X137360495Y-91987666D01*
X137360495Y-91987666D02*
X137550971Y-91940047D01*
X137550971Y-91940047D02*
X137789066Y-91940047D01*
X137789066Y-91940047D02*
X137979542Y-91987666D01*
X137979542Y-91987666D02*
X138074780Y-92035285D01*
X138074780Y-92035285D02*
X138122400Y-92082904D01*
X138122400Y-92082904D02*
X138170019Y-92178142D01*
X138170019Y-92178142D02*
X138170019Y-92273380D01*
X138170019Y-92273380D02*
X138122400Y-92368618D01*
X138122400Y-92368618D02*
X138074780Y-92416237D01*
X138074780Y-92416237D02*
X137979542Y-92463856D01*
X137979542Y-92463856D02*
X137789066Y-92511475D01*
X137789066Y-92511475D02*
X137550971Y-92511475D01*
X137550971Y-92511475D02*
X137360495Y-92463856D01*
X137360495Y-92463856D02*
X137265257Y-92416237D01*
X137265257Y-92416237D02*
X137217638Y-92368618D01*
X137217638Y-92368618D02*
X137170019Y-92273380D01*
X137503352Y-91082904D02*
X138170019Y-91082904D01*
X137503352Y-91511475D02*
X138027161Y-91511475D01*
X138027161Y-91511475D02*
X138122400Y-91463856D01*
X138122400Y-91463856D02*
X138170019Y-91368618D01*
X138170019Y-91368618D02*
X138170019Y-91225761D01*
X138170019Y-91225761D02*
X138122400Y-91130523D01*
X138122400Y-91130523D02*
X138074780Y-91082904D01*
X137646209Y-90273380D02*
X137646209Y-90606713D01*
X138170019Y-90606713D02*
X137170019Y-90606713D01*
X137170019Y-90606713D02*
X137170019Y-90130523D01*
D17*
X139574730Y-92142428D02*
X139598540Y-92166237D01*
X139598540Y-92166237D02*
X139622349Y-92237666D01*
X139622349Y-92237666D02*
X139622349Y-92285285D01*
X139622349Y-92285285D02*
X139598540Y-92356713D01*
X139598540Y-92356713D02*
X139550920Y-92404332D01*
X139550920Y-92404332D02*
X139503301Y-92428142D01*
X139503301Y-92428142D02*
X139408063Y-92451951D01*
X139408063Y-92451951D02*
X139336635Y-92451951D01*
X139336635Y-92451951D02*
X139241397Y-92428142D01*
X139241397Y-92428142D02*
X139193778Y-92404332D01*
X139193778Y-92404332D02*
X139146159Y-92356713D01*
X139146159Y-92356713D02*
X139122349Y-92285285D01*
X139122349Y-92285285D02*
X139122349Y-92237666D01*
X139122349Y-92237666D02*
X139146159Y-92166237D01*
X139146159Y-92166237D02*
X139169968Y-92142428D01*
X139169968Y-91951951D02*
X139146159Y-91928142D01*
X139146159Y-91928142D02*
X139122349Y-91880523D01*
X139122349Y-91880523D02*
X139122349Y-91761475D01*
X139122349Y-91761475D02*
X139146159Y-91713856D01*
X139146159Y-91713856D02*
X139169968Y-91690047D01*
X139169968Y-91690047D02*
X139217587Y-91666237D01*
X139217587Y-91666237D02*
X139265206Y-91666237D01*
X139265206Y-91666237D02*
X139336635Y-91690047D01*
X139336635Y-91690047D02*
X139622349Y-91975761D01*
X139622349Y-91975761D02*
X139622349Y-91666237D01*
X139169968Y-91475761D02*
X139146159Y-91451952D01*
X139146159Y-91451952D02*
X139122349Y-91404333D01*
X139122349Y-91404333D02*
X139122349Y-91285285D01*
X139122349Y-91285285D02*
X139146159Y-91237666D01*
X139146159Y-91237666D02*
X139169968Y-91213857D01*
X139169968Y-91213857D02*
X139217587Y-91190047D01*
X139217587Y-91190047D02*
X139265206Y-91190047D01*
X139265206Y-91190047D02*
X139336635Y-91213857D01*
X139336635Y-91213857D02*
X139622349Y-91499571D01*
X139622349Y-91499571D02*
X139622349Y-91190047D01*
D12*
X131430712Y-93869920D02*
X131430712Y-94679443D01*
X131430712Y-94679443D02*
X131478331Y-94774681D01*
X131478331Y-94774681D02*
X131525950Y-94822301D01*
X131525950Y-94822301D02*
X131621188Y-94869920D01*
X131621188Y-94869920D02*
X131811664Y-94869920D01*
X131811664Y-94869920D02*
X131906902Y-94822301D01*
X131906902Y-94822301D02*
X131954521Y-94774681D01*
X131954521Y-94774681D02*
X132002140Y-94679443D01*
X132002140Y-94679443D02*
X132002140Y-93869920D01*
X132430712Y-93965158D02*
X132478331Y-93917539D01*
X132478331Y-93917539D02*
X132573569Y-93869920D01*
X132573569Y-93869920D02*
X132811664Y-93869920D01*
X132811664Y-93869920D02*
X132906902Y-93917539D01*
X132906902Y-93917539D02*
X132954521Y-93965158D01*
X132954521Y-93965158D02*
X133002140Y-94060396D01*
X133002140Y-94060396D02*
X133002140Y-94155634D01*
X133002140Y-94155634D02*
X132954521Y-94298491D01*
X132954521Y-94298491D02*
X132383093Y-94869920D01*
X132383093Y-94869920D02*
X133002140Y-94869920D01*
D10*
X167012465Y-91132927D02*
X166929132Y-91013880D01*
X166869608Y-91132927D02*
X166869608Y-90882927D01*
X166869608Y-90882927D02*
X166964846Y-90882927D01*
X166964846Y-90882927D02*
X166988656Y-90894832D01*
X166988656Y-90894832D02*
X167000561Y-90906737D01*
X167000561Y-90906737D02*
X167012465Y-90930546D01*
X167012465Y-90930546D02*
X167012465Y-90966261D01*
X167012465Y-90966261D02*
X167000561Y-90990070D01*
X167000561Y-90990070D02*
X166988656Y-91001975D01*
X166988656Y-91001975D02*
X166964846Y-91013880D01*
X166964846Y-91013880D02*
X166869608Y-91013880D01*
X167107704Y-90906737D02*
X167119608Y-90894832D01*
X167119608Y-90894832D02*
X167143418Y-90882927D01*
X167143418Y-90882927D02*
X167202942Y-90882927D01*
X167202942Y-90882927D02*
X167226751Y-90894832D01*
X167226751Y-90894832D02*
X167238656Y-90906737D01*
X167238656Y-90906737D02*
X167250561Y-90930546D01*
X167250561Y-90930546D02*
X167250561Y-90954356D01*
X167250561Y-90954356D02*
X167238656Y-90990070D01*
X167238656Y-90990070D02*
X167095799Y-91132927D01*
X167095799Y-91132927D02*
X167250561Y-91132927D01*
X167488656Y-91132927D02*
X167345799Y-91132927D01*
X167417227Y-91132927D02*
X167417227Y-90882927D01*
X167417227Y-90882927D02*
X167393418Y-90918642D01*
X167393418Y-90918642D02*
X167369608Y-90942451D01*
X167369608Y-90942451D02*
X167345799Y-90954356D01*
D12*
X150706295Y-82691619D02*
X151277723Y-82691619D01*
X150992009Y-83691619D02*
X150992009Y-82691619D01*
X151611057Y-83691619D02*
X151611057Y-82691619D01*
X151611057Y-82691619D02*
X151992009Y-82691619D01*
X151992009Y-82691619D02*
X152087247Y-82739238D01*
X152087247Y-82739238D02*
X152134866Y-82786857D01*
X152134866Y-82786857D02*
X152182485Y-82882095D01*
X152182485Y-82882095D02*
X152182485Y-83024952D01*
X152182485Y-83024952D02*
X152134866Y-83120190D01*
X152134866Y-83120190D02*
X152087247Y-83167809D01*
X152087247Y-83167809D02*
X151992009Y-83215428D01*
X151992009Y-83215428D02*
X151611057Y-83215428D01*
X152658676Y-83691619D02*
X152849152Y-83691619D01*
X152849152Y-83691619D02*
X152944390Y-83644000D01*
X152944390Y-83644000D02*
X152992009Y-83596380D01*
X152992009Y-83596380D02*
X153087247Y-83453523D01*
X153087247Y-83453523D02*
X153134866Y-83263047D01*
X153134866Y-83263047D02*
X153134866Y-82882095D01*
X153134866Y-82882095D02*
X153087247Y-82786857D01*
X153087247Y-82786857D02*
X153039628Y-82739238D01*
X153039628Y-82739238D02*
X152944390Y-82691619D01*
X152944390Y-82691619D02*
X152753914Y-82691619D01*
X152753914Y-82691619D02*
X152658676Y-82739238D01*
X152658676Y-82739238D02*
X152611057Y-82786857D01*
X152611057Y-82786857D02*
X152563438Y-82882095D01*
X152563438Y-82882095D02*
X152563438Y-83120190D01*
X152563438Y-83120190D02*
X152611057Y-83215428D01*
X152611057Y-83215428D02*
X152658676Y-83263047D01*
X152658676Y-83263047D02*
X152753914Y-83310666D01*
X152753914Y-83310666D02*
X152944390Y-83310666D01*
X152944390Y-83310666D02*
X153039628Y-83263047D01*
X153039628Y-83263047D02*
X153087247Y-83215428D01*
X153087247Y-83215428D02*
X153134866Y-83120190D01*
D10*
X155780138Y-90026927D02*
X155696805Y-89907880D01*
X155637281Y-90026927D02*
X155637281Y-89776927D01*
X155637281Y-89776927D02*
X155732519Y-89776927D01*
X155732519Y-89776927D02*
X155756329Y-89788832D01*
X155756329Y-89788832D02*
X155768234Y-89800737D01*
X155768234Y-89800737D02*
X155780138Y-89824546D01*
X155780138Y-89824546D02*
X155780138Y-89860261D01*
X155780138Y-89860261D02*
X155768234Y-89884070D01*
X155768234Y-89884070D02*
X155756329Y-89895975D01*
X155756329Y-89895975D02*
X155732519Y-89907880D01*
X155732519Y-89907880D02*
X155637281Y-89907880D01*
X155875377Y-89800737D02*
X155887281Y-89788832D01*
X155887281Y-89788832D02*
X155911091Y-89776927D01*
X155911091Y-89776927D02*
X155970615Y-89776927D01*
X155970615Y-89776927D02*
X155994424Y-89788832D01*
X155994424Y-89788832D02*
X156006329Y-89800737D01*
X156006329Y-89800737D02*
X156018234Y-89824546D01*
X156018234Y-89824546D02*
X156018234Y-89848356D01*
X156018234Y-89848356D02*
X156006329Y-89884070D01*
X156006329Y-89884070D02*
X155863472Y-90026927D01*
X155863472Y-90026927D02*
X156018234Y-90026927D01*
X156101567Y-89776927D02*
X156256329Y-89776927D01*
X156256329Y-89776927D02*
X156172995Y-89872165D01*
X156172995Y-89872165D02*
X156208710Y-89872165D01*
X156208710Y-89872165D02*
X156232519Y-89884070D01*
X156232519Y-89884070D02*
X156244424Y-89895975D01*
X156244424Y-89895975D02*
X156256329Y-89919784D01*
X156256329Y-89919784D02*
X156256329Y-89979308D01*
X156256329Y-89979308D02*
X156244424Y-90003118D01*
X156244424Y-90003118D02*
X156232519Y-90015023D01*
X156232519Y-90015023D02*
X156208710Y-90026927D01*
X156208710Y-90026927D02*
X156137281Y-90026927D01*
X156137281Y-90026927D02*
X156113472Y-90015023D01*
X156113472Y-90015023D02*
X156101567Y-90003118D01*
X143451574Y-81067666D02*
X143332527Y-81150999D01*
X143451574Y-81210523D02*
X143201574Y-81210523D01*
X143201574Y-81210523D02*
X143201574Y-81115285D01*
X143201574Y-81115285D02*
X143213479Y-81091475D01*
X143213479Y-81091475D02*
X143225384Y-81079570D01*
X143225384Y-81079570D02*
X143249193Y-81067666D01*
X143249193Y-81067666D02*
X143284908Y-81067666D01*
X143284908Y-81067666D02*
X143308717Y-81079570D01*
X143308717Y-81079570D02*
X143320622Y-81091475D01*
X143320622Y-81091475D02*
X143332527Y-81115285D01*
X143332527Y-81115285D02*
X143332527Y-81210523D01*
X143201574Y-80984332D02*
X143201574Y-80817666D01*
X143201574Y-80817666D02*
X143451574Y-80924808D01*
X132634822Y-83721687D02*
X132646727Y-83733591D01*
X132646727Y-83733591D02*
X132658631Y-83769306D01*
X132658631Y-83769306D02*
X132658631Y-83793115D01*
X132658631Y-83793115D02*
X132646727Y-83828829D01*
X132646727Y-83828829D02*
X132622917Y-83852639D01*
X132622917Y-83852639D02*
X132599107Y-83864544D01*
X132599107Y-83864544D02*
X132551488Y-83876448D01*
X132551488Y-83876448D02*
X132515774Y-83876448D01*
X132515774Y-83876448D02*
X132468155Y-83864544D01*
X132468155Y-83864544D02*
X132444346Y-83852639D01*
X132444346Y-83852639D02*
X132420536Y-83828829D01*
X132420536Y-83828829D02*
X132408631Y-83793115D01*
X132408631Y-83793115D02*
X132408631Y-83769306D01*
X132408631Y-83769306D02*
X132420536Y-83733591D01*
X132420536Y-83733591D02*
X132432441Y-83721687D01*
X132408631Y-83638353D02*
X132408631Y-83483591D01*
X132408631Y-83483591D02*
X132503869Y-83566925D01*
X132503869Y-83566925D02*
X132503869Y-83531210D01*
X132503869Y-83531210D02*
X132515774Y-83507401D01*
X132515774Y-83507401D02*
X132527679Y-83495496D01*
X132527679Y-83495496D02*
X132551488Y-83483591D01*
X132551488Y-83483591D02*
X132611012Y-83483591D01*
X132611012Y-83483591D02*
X132634822Y-83495496D01*
X132634822Y-83495496D02*
X132646727Y-83507401D01*
X132646727Y-83507401D02*
X132658631Y-83531210D01*
X132658631Y-83531210D02*
X132658631Y-83602639D01*
X132658631Y-83602639D02*
X132646727Y-83626448D01*
X132646727Y-83626448D02*
X132634822Y-83638353D01*
X132302565Y-86757266D02*
X132314470Y-86769170D01*
X132314470Y-86769170D02*
X132326374Y-86804885D01*
X132326374Y-86804885D02*
X132326374Y-86828694D01*
X132326374Y-86828694D02*
X132314470Y-86864408D01*
X132314470Y-86864408D02*
X132290660Y-86888218D01*
X132290660Y-86888218D02*
X132266850Y-86900123D01*
X132266850Y-86900123D02*
X132219231Y-86912027D01*
X132219231Y-86912027D02*
X132183517Y-86912027D01*
X132183517Y-86912027D02*
X132135898Y-86900123D01*
X132135898Y-86900123D02*
X132112089Y-86888218D01*
X132112089Y-86888218D02*
X132088279Y-86864408D01*
X132088279Y-86864408D02*
X132076374Y-86828694D01*
X132076374Y-86828694D02*
X132076374Y-86804885D01*
X132076374Y-86804885D02*
X132088279Y-86769170D01*
X132088279Y-86769170D02*
X132100184Y-86757266D01*
X132326374Y-86519170D02*
X132326374Y-86662027D01*
X132326374Y-86590599D02*
X132076374Y-86590599D01*
X132076374Y-86590599D02*
X132112089Y-86614408D01*
X132112089Y-86614408D02*
X132135898Y-86638218D01*
X132135898Y-86638218D02*
X132147803Y-86662027D01*
D18*
X170248516Y-93397133D02*
X170258040Y-93406657D01*
X170258040Y-93406657D02*
X170267563Y-93435228D01*
X170267563Y-93435228D02*
X170267563Y-93454276D01*
X170267563Y-93454276D02*
X170258040Y-93482847D01*
X170258040Y-93482847D02*
X170238992Y-93501895D01*
X170238992Y-93501895D02*
X170219944Y-93511418D01*
X170219944Y-93511418D02*
X170181849Y-93520942D01*
X170181849Y-93520942D02*
X170153278Y-93520942D01*
X170153278Y-93520942D02*
X170115182Y-93511418D01*
X170115182Y-93511418D02*
X170096135Y-93501895D01*
X170096135Y-93501895D02*
X170077087Y-93482847D01*
X170077087Y-93482847D02*
X170067563Y-93454276D01*
X170067563Y-93454276D02*
X170067563Y-93435228D01*
X170067563Y-93435228D02*
X170077087Y-93406657D01*
X170077087Y-93406657D02*
X170086611Y-93397133D01*
X170267563Y-93311418D02*
X170134230Y-93311418D01*
X170172325Y-93311418D02*
X170153278Y-93301895D01*
X170153278Y-93301895D02*
X170143754Y-93292371D01*
X170143754Y-93292371D02*
X170134230Y-93273323D01*
X170134230Y-93273323D02*
X170134230Y-93254276D01*
X170134230Y-93206656D02*
X170267563Y-93159037D01*
X170134230Y-93111418D02*
X170267563Y-93159037D01*
X170267563Y-93159037D02*
X170315182Y-93178085D01*
X170315182Y-93178085D02*
X170324706Y-93187608D01*
X170324706Y-93187608D02*
X170334230Y-93206656D01*
X170258040Y-93044751D02*
X170267563Y-93025704D01*
X170267563Y-93025704D02*
X170267563Y-92987608D01*
X170267563Y-92987608D02*
X170258040Y-92968561D01*
X170258040Y-92968561D02*
X170238992Y-92959037D01*
X170238992Y-92959037D02*
X170229468Y-92959037D01*
X170229468Y-92959037D02*
X170210420Y-92968561D01*
X170210420Y-92968561D02*
X170200897Y-92987608D01*
X170200897Y-92987608D02*
X170200897Y-93016180D01*
X170200897Y-93016180D02*
X170191373Y-93035227D01*
X170191373Y-93035227D02*
X170172325Y-93044751D01*
X170172325Y-93044751D02*
X170162801Y-93044751D01*
X170162801Y-93044751D02*
X170143754Y-93035227D01*
X170143754Y-93035227D02*
X170134230Y-93016180D01*
X170134230Y-93016180D02*
X170134230Y-92987608D01*
X170134230Y-92987608D02*
X170143754Y-92968561D01*
X170134230Y-92901894D02*
X170134230Y-92825703D01*
X170067563Y-92873322D02*
X170238992Y-92873322D01*
X170238992Y-92873322D02*
X170258040Y-92863799D01*
X170258040Y-92863799D02*
X170267563Y-92844751D01*
X170267563Y-92844751D02*
X170267563Y-92825703D01*
X170267563Y-92673322D02*
X170162801Y-92673322D01*
X170162801Y-92673322D02*
X170143754Y-92682846D01*
X170143754Y-92682846D02*
X170134230Y-92701894D01*
X170134230Y-92701894D02*
X170134230Y-92739989D01*
X170134230Y-92739989D02*
X170143754Y-92759036D01*
X170258040Y-92673322D02*
X170267563Y-92692370D01*
X170267563Y-92692370D02*
X170267563Y-92739989D01*
X170267563Y-92739989D02*
X170258040Y-92759036D01*
X170258040Y-92759036D02*
X170238992Y-92768560D01*
X170238992Y-92768560D02*
X170219944Y-92768560D01*
X170219944Y-92768560D02*
X170200897Y-92759036D01*
X170200897Y-92759036D02*
X170191373Y-92739989D01*
X170191373Y-92739989D02*
X170191373Y-92692370D01*
X170191373Y-92692370D02*
X170181849Y-92673322D01*
X170267563Y-92549513D02*
X170258040Y-92568561D01*
X170258040Y-92568561D02*
X170238992Y-92578084D01*
X170238992Y-92578084D02*
X170067563Y-92578084D01*
X170286611Y-92520942D02*
X170286611Y-92368561D01*
X170077087Y-92216180D02*
X170067563Y-92235227D01*
X170067563Y-92235227D02*
X170067563Y-92263799D01*
X170067563Y-92263799D02*
X170077087Y-92292370D01*
X170077087Y-92292370D02*
X170096135Y-92311418D01*
X170096135Y-92311418D02*
X170115182Y-92320941D01*
X170115182Y-92320941D02*
X170153278Y-92330465D01*
X170153278Y-92330465D02*
X170181849Y-92330465D01*
X170181849Y-92330465D02*
X170219944Y-92320941D01*
X170219944Y-92320941D02*
X170238992Y-92311418D01*
X170238992Y-92311418D02*
X170258040Y-92292370D01*
X170258040Y-92292370D02*
X170267563Y-92263799D01*
X170267563Y-92263799D02*
X170267563Y-92244751D01*
X170267563Y-92244751D02*
X170258040Y-92216180D01*
X170258040Y-92216180D02*
X170248516Y-92206656D01*
X170248516Y-92206656D02*
X170181849Y-92206656D01*
X170181849Y-92206656D02*
X170181849Y-92244751D01*
X170267563Y-92120941D02*
X170067563Y-92120941D01*
X170067563Y-92120941D02*
X170267563Y-92006656D01*
X170267563Y-92006656D02*
X170067563Y-92006656D01*
X170267563Y-91911417D02*
X170067563Y-91911417D01*
X170067563Y-91911417D02*
X170067563Y-91863798D01*
X170067563Y-91863798D02*
X170077087Y-91835227D01*
X170077087Y-91835227D02*
X170096135Y-91816179D01*
X170096135Y-91816179D02*
X170115182Y-91806656D01*
X170115182Y-91806656D02*
X170153278Y-91797132D01*
X170153278Y-91797132D02*
X170181849Y-91797132D01*
X170181849Y-91797132D02*
X170219944Y-91806656D01*
X170219944Y-91806656D02*
X170238992Y-91816179D01*
X170238992Y-91816179D02*
X170258040Y-91835227D01*
X170258040Y-91835227D02*
X170267563Y-91863798D01*
X170267563Y-91863798D02*
X170267563Y-91911417D01*
X170067563Y-91730465D02*
X170067563Y-91606656D01*
X170067563Y-91606656D02*
X170143754Y-91673322D01*
X170143754Y-91673322D02*
X170143754Y-91644751D01*
X170143754Y-91644751D02*
X170153278Y-91625703D01*
X170153278Y-91625703D02*
X170162801Y-91616179D01*
X170162801Y-91616179D02*
X170181849Y-91606656D01*
X170181849Y-91606656D02*
X170229468Y-91606656D01*
X170229468Y-91606656D02*
X170248516Y-91616179D01*
X170248516Y-91616179D02*
X170258040Y-91625703D01*
X170258040Y-91625703D02*
X170267563Y-91644751D01*
X170267563Y-91644751D02*
X170267563Y-91701894D01*
X170267563Y-91701894D02*
X170258040Y-91720941D01*
X170258040Y-91720941D02*
X170248516Y-91730465D01*
D17*
X168314297Y-92749514D02*
X168600011Y-92749514D01*
X168000011Y-92949514D02*
X168314297Y-92749514D01*
X168314297Y-92749514D02*
X168000011Y-92549514D01*
X168600011Y-92035228D02*
X168600011Y-92378085D01*
X168600011Y-92206656D02*
X168000011Y-92206656D01*
X168000011Y-92206656D02*
X168085725Y-92263799D01*
X168085725Y-92263799D02*
X168142868Y-92320942D01*
X168142868Y-92320942D02*
X168171440Y-92378085D01*
D12*
X110638094Y-106366803D02*
X110638094Y-107366803D01*
X110638094Y-107366803D02*
X110399999Y-107366803D01*
X110399999Y-107366803D02*
X110257142Y-107319184D01*
X110257142Y-107319184D02*
X110161904Y-107223946D01*
X110161904Y-107223946D02*
X110114285Y-107128708D01*
X110114285Y-107128708D02*
X110066666Y-106938232D01*
X110066666Y-106938232D02*
X110066666Y-106795375D01*
X110066666Y-106795375D02*
X110114285Y-106604899D01*
X110114285Y-106604899D02*
X110161904Y-106509661D01*
X110161904Y-106509661D02*
X110257142Y-106414423D01*
X110257142Y-106414423D02*
X110399999Y-106366803D01*
X110399999Y-106366803D02*
X110638094Y-106366803D01*
X109638094Y-106366803D02*
X109638094Y-107366803D01*
X109638094Y-107366803D02*
X109257142Y-107366803D01*
X109257142Y-107366803D02*
X109161904Y-107319184D01*
X109161904Y-107319184D02*
X109114285Y-107271565D01*
X109114285Y-107271565D02*
X109066666Y-107176327D01*
X109066666Y-107176327D02*
X109066666Y-107033470D01*
X109066666Y-107033470D02*
X109114285Y-106938232D01*
X109114285Y-106938232D02*
X109161904Y-106890613D01*
X109161904Y-106890613D02*
X109257142Y-106842994D01*
X109257142Y-106842994D02*
X109638094Y-106842994D01*
X108638094Y-106366803D02*
X108638094Y-107366803D01*
X108638094Y-107366803D02*
X108399999Y-107366803D01*
X108399999Y-107366803D02*
X108257142Y-107319184D01*
X108257142Y-107319184D02*
X108161904Y-107223946D01*
X108161904Y-107223946D02*
X108114285Y-107128708D01*
X108114285Y-107128708D02*
X108066666Y-106938232D01*
X108066666Y-106938232D02*
X108066666Y-106795375D01*
X108066666Y-106795375D02*
X108114285Y-106604899D01*
X108114285Y-106604899D02*
X108161904Y-106509661D01*
X108161904Y-106509661D02*
X108257142Y-106414423D01*
X108257142Y-106414423D02*
X108399999Y-106366803D01*
X108399999Y-106366803D02*
X108638094Y-106366803D01*
X107114285Y-106366803D02*
X107685713Y-106366803D01*
X107399999Y-106366803D02*
X107399999Y-107366803D01*
X107399999Y-107366803D02*
X107495237Y-107223946D01*
X107495237Y-107223946D02*
X107590475Y-107128708D01*
X107590475Y-107128708D02*
X107685713Y-107081089D01*
D10*
X167014822Y-85305449D02*
X166895775Y-85388782D01*
X167014822Y-85448306D02*
X166764822Y-85448306D01*
X166764822Y-85448306D02*
X166764822Y-85353068D01*
X166764822Y-85353068D02*
X166776727Y-85329258D01*
X166776727Y-85329258D02*
X166788632Y-85317353D01*
X166788632Y-85317353D02*
X166812441Y-85305449D01*
X166812441Y-85305449D02*
X166848156Y-85305449D01*
X166848156Y-85305449D02*
X166871965Y-85317353D01*
X166871965Y-85317353D02*
X166883870Y-85329258D01*
X166883870Y-85329258D02*
X166895775Y-85353068D01*
X166895775Y-85353068D02*
X166895775Y-85448306D01*
X166764822Y-85222115D02*
X166764822Y-85067353D01*
X166764822Y-85067353D02*
X166860060Y-85150687D01*
X166860060Y-85150687D02*
X166860060Y-85114972D01*
X166860060Y-85114972D02*
X166871965Y-85091163D01*
X166871965Y-85091163D02*
X166883870Y-85079258D01*
X166883870Y-85079258D02*
X166907679Y-85067353D01*
X166907679Y-85067353D02*
X166967203Y-85067353D01*
X166967203Y-85067353D02*
X166991013Y-85079258D01*
X166991013Y-85079258D02*
X167002918Y-85091163D01*
X167002918Y-85091163D02*
X167014822Y-85114972D01*
X167014822Y-85114972D02*
X167014822Y-85186401D01*
X167014822Y-85186401D02*
X167002918Y-85210210D01*
X167002918Y-85210210D02*
X166991013Y-85222115D01*
X167049635Y-80063854D02*
X166930588Y-80147187D01*
X167049635Y-80206711D02*
X166799635Y-80206711D01*
X166799635Y-80206711D02*
X166799635Y-80111473D01*
X166799635Y-80111473D02*
X166811540Y-80087663D01*
X166811540Y-80087663D02*
X166823445Y-80075758D01*
X166823445Y-80075758D02*
X166847254Y-80063854D01*
X166847254Y-80063854D02*
X166882969Y-80063854D01*
X166882969Y-80063854D02*
X166906778Y-80075758D01*
X166906778Y-80075758D02*
X166918683Y-80087663D01*
X166918683Y-80087663D02*
X166930588Y-80111473D01*
X166930588Y-80111473D02*
X166930588Y-80206711D01*
X166799635Y-79837663D02*
X166799635Y-79956711D01*
X166799635Y-79956711D02*
X166918683Y-79968615D01*
X166918683Y-79968615D02*
X166906778Y-79956711D01*
X166906778Y-79956711D02*
X166894873Y-79932901D01*
X166894873Y-79932901D02*
X166894873Y-79873377D01*
X166894873Y-79873377D02*
X166906778Y-79849568D01*
X166906778Y-79849568D02*
X166918683Y-79837663D01*
X166918683Y-79837663D02*
X166942492Y-79825758D01*
X166942492Y-79825758D02*
X167002016Y-79825758D01*
X167002016Y-79825758D02*
X167025826Y-79837663D01*
X167025826Y-79837663D02*
X167037731Y-79849568D01*
X167037731Y-79849568D02*
X167049635Y-79873377D01*
X167049635Y-79873377D02*
X167049635Y-79932901D01*
X167049635Y-79932901D02*
X167037731Y-79956711D01*
X167037731Y-79956711D02*
X167025826Y-79968615D01*
X166565742Y-121466727D02*
X166553838Y-121478632D01*
X166553838Y-121478632D02*
X166518123Y-121490536D01*
X166518123Y-121490536D02*
X166494314Y-121490536D01*
X166494314Y-121490536D02*
X166458600Y-121478632D01*
X166458600Y-121478632D02*
X166434790Y-121454822D01*
X166434790Y-121454822D02*
X166422885Y-121431012D01*
X166422885Y-121431012D02*
X166410981Y-121383393D01*
X166410981Y-121383393D02*
X166410981Y-121347679D01*
X166410981Y-121347679D02*
X166422885Y-121300060D01*
X166422885Y-121300060D02*
X166434790Y-121276251D01*
X166434790Y-121276251D02*
X166458600Y-121252441D01*
X166458600Y-121252441D02*
X166494314Y-121240536D01*
X166494314Y-121240536D02*
X166518123Y-121240536D01*
X166518123Y-121240536D02*
X166553838Y-121252441D01*
X166553838Y-121252441D02*
X166565742Y-121264346D01*
X166708600Y-121347679D02*
X166684790Y-121335774D01*
X166684790Y-121335774D02*
X166672885Y-121323870D01*
X166672885Y-121323870D02*
X166660981Y-121300060D01*
X166660981Y-121300060D02*
X166660981Y-121288155D01*
X166660981Y-121288155D02*
X166672885Y-121264346D01*
X166672885Y-121264346D02*
X166684790Y-121252441D01*
X166684790Y-121252441D02*
X166708600Y-121240536D01*
X166708600Y-121240536D02*
X166756219Y-121240536D01*
X166756219Y-121240536D02*
X166780028Y-121252441D01*
X166780028Y-121252441D02*
X166791933Y-121264346D01*
X166791933Y-121264346D02*
X166803838Y-121288155D01*
X166803838Y-121288155D02*
X166803838Y-121300060D01*
X166803838Y-121300060D02*
X166791933Y-121323870D01*
X166791933Y-121323870D02*
X166780028Y-121335774D01*
X166780028Y-121335774D02*
X166756219Y-121347679D01*
X166756219Y-121347679D02*
X166708600Y-121347679D01*
X166708600Y-121347679D02*
X166684790Y-121359584D01*
X166684790Y-121359584D02*
X166672885Y-121371489D01*
X166672885Y-121371489D02*
X166660981Y-121395298D01*
X166660981Y-121395298D02*
X166660981Y-121442917D01*
X166660981Y-121442917D02*
X166672885Y-121466727D01*
X166672885Y-121466727D02*
X166684790Y-121478632D01*
X166684790Y-121478632D02*
X166708600Y-121490536D01*
X166708600Y-121490536D02*
X166756219Y-121490536D01*
X166756219Y-121490536D02*
X166780028Y-121478632D01*
X166780028Y-121478632D02*
X166791933Y-121466727D01*
X166791933Y-121466727D02*
X166803838Y-121442917D01*
X166803838Y-121442917D02*
X166803838Y-121395298D01*
X166803838Y-121395298D02*
X166791933Y-121371489D01*
X166791933Y-121371489D02*
X166780028Y-121359584D01*
X166780028Y-121359584D02*
X166756219Y-121347679D01*
X155776678Y-89241118D02*
X155764774Y-89253023D01*
X155764774Y-89253023D02*
X155729059Y-89264927D01*
X155729059Y-89264927D02*
X155705250Y-89264927D01*
X155705250Y-89264927D02*
X155669536Y-89253023D01*
X155669536Y-89253023D02*
X155645726Y-89229213D01*
X155645726Y-89229213D02*
X155633821Y-89205403D01*
X155633821Y-89205403D02*
X155621917Y-89157784D01*
X155621917Y-89157784D02*
X155621917Y-89122070D01*
X155621917Y-89122070D02*
X155633821Y-89074451D01*
X155633821Y-89074451D02*
X155645726Y-89050642D01*
X155645726Y-89050642D02*
X155669536Y-89026832D01*
X155669536Y-89026832D02*
X155705250Y-89014927D01*
X155705250Y-89014927D02*
X155729059Y-89014927D01*
X155729059Y-89014927D02*
X155764774Y-89026832D01*
X155764774Y-89026832D02*
X155776678Y-89038737D01*
X156014774Y-89264927D02*
X155871917Y-89264927D01*
X155943345Y-89264927D02*
X155943345Y-89014927D01*
X155943345Y-89014927D02*
X155919536Y-89050642D01*
X155919536Y-89050642D02*
X155895726Y-89074451D01*
X155895726Y-89074451D02*
X155871917Y-89086356D01*
X156252869Y-89264927D02*
X156110012Y-89264927D01*
X156181440Y-89264927D02*
X156181440Y-89014927D01*
X156181440Y-89014927D02*
X156157631Y-89050642D01*
X156157631Y-89050642D02*
X156133821Y-89074451D01*
X156133821Y-89074451D02*
X156110012Y-89086356D01*
D15*
X145964626Y-99798729D02*
X145964626Y-99298729D01*
X145964626Y-99298729D02*
X146083674Y-99298729D01*
X146083674Y-99298729D02*
X146155102Y-99322539D01*
X146155102Y-99322539D02*
X146202721Y-99370158D01*
X146202721Y-99370158D02*
X146226531Y-99417777D01*
X146226531Y-99417777D02*
X146250340Y-99513015D01*
X146250340Y-99513015D02*
X146250340Y-99584443D01*
X146250340Y-99584443D02*
X146226531Y-99679681D01*
X146226531Y-99679681D02*
X146202721Y-99727300D01*
X146202721Y-99727300D02*
X146155102Y-99774920D01*
X146155102Y-99774920D02*
X146083674Y-99798729D01*
X146083674Y-99798729D02*
X145964626Y-99798729D01*
X146678912Y-99298729D02*
X146583674Y-99298729D01*
X146583674Y-99298729D02*
X146536055Y-99322539D01*
X146536055Y-99322539D02*
X146512245Y-99346348D01*
X146512245Y-99346348D02*
X146464626Y-99417777D01*
X146464626Y-99417777D02*
X146440817Y-99513015D01*
X146440817Y-99513015D02*
X146440817Y-99703491D01*
X146440817Y-99703491D02*
X146464626Y-99751110D01*
X146464626Y-99751110D02*
X146488436Y-99774920D01*
X146488436Y-99774920D02*
X146536055Y-99798729D01*
X146536055Y-99798729D02*
X146631293Y-99798729D01*
X146631293Y-99798729D02*
X146678912Y-99774920D01*
X146678912Y-99774920D02*
X146702721Y-99751110D01*
X146702721Y-99751110D02*
X146726531Y-99703491D01*
X146726531Y-99703491D02*
X146726531Y-99584443D01*
X146726531Y-99584443D02*
X146702721Y-99536824D01*
X146702721Y-99536824D02*
X146678912Y-99513015D01*
X146678912Y-99513015D02*
X146631293Y-99489205D01*
X146631293Y-99489205D02*
X146536055Y-99489205D01*
X146536055Y-99489205D02*
X146488436Y-99513015D01*
X146488436Y-99513015D02*
X146464626Y-99536824D01*
X146464626Y-99536824D02*
X146440817Y-99584443D01*
D12*
X151392095Y-75630419D02*
X151963523Y-75630419D01*
X151677809Y-76630419D02*
X151677809Y-75630419D01*
X152296857Y-76630419D02*
X152296857Y-75630419D01*
X152296857Y-75630419D02*
X152677809Y-75630419D01*
X152677809Y-75630419D02*
X152773047Y-75678038D01*
X152773047Y-75678038D02*
X152820666Y-75725657D01*
X152820666Y-75725657D02*
X152868285Y-75820895D01*
X152868285Y-75820895D02*
X152868285Y-75963752D01*
X152868285Y-75963752D02*
X152820666Y-76058990D01*
X152820666Y-76058990D02*
X152773047Y-76106609D01*
X152773047Y-76106609D02*
X152677809Y-76154228D01*
X152677809Y-76154228D02*
X152296857Y-76154228D01*
X153201619Y-75630419D02*
X153820666Y-75630419D01*
X153820666Y-75630419D02*
X153487333Y-76011371D01*
X153487333Y-76011371D02*
X153630190Y-76011371D01*
X153630190Y-76011371D02*
X153725428Y-76058990D01*
X153725428Y-76058990D02*
X153773047Y-76106609D01*
X153773047Y-76106609D02*
X153820666Y-76201847D01*
X153820666Y-76201847D02*
X153820666Y-76439942D01*
X153820666Y-76439942D02*
X153773047Y-76535180D01*
X153773047Y-76535180D02*
X153725428Y-76582800D01*
X153725428Y-76582800D02*
X153630190Y-76630419D01*
X153630190Y-76630419D02*
X153344476Y-76630419D01*
X153344476Y-76630419D02*
X153249238Y-76582800D01*
X153249238Y-76582800D02*
X153201619Y-76535180D01*
X174816419Y-96634133D02*
X175530704Y-96634133D01*
X175530704Y-96634133D02*
X175673561Y-96681752D01*
X175673561Y-96681752D02*
X175768800Y-96776990D01*
X175768800Y-96776990D02*
X175816419Y-96919847D01*
X175816419Y-96919847D02*
X175816419Y-97015085D01*
X174911657Y-96205561D02*
X174864038Y-96157942D01*
X174864038Y-96157942D02*
X174816419Y-96062704D01*
X174816419Y-96062704D02*
X174816419Y-95824609D01*
X174816419Y-95824609D02*
X174864038Y-95729371D01*
X174864038Y-95729371D02*
X174911657Y-95681752D01*
X174911657Y-95681752D02*
X175006895Y-95634133D01*
X175006895Y-95634133D02*
X175102133Y-95634133D01*
X175102133Y-95634133D02*
X175244990Y-95681752D01*
X175244990Y-95681752D02*
X175816419Y-96253180D01*
X175816419Y-96253180D02*
X175816419Y-95634133D01*
D10*
X170821174Y-91880114D02*
X170702127Y-91963447D01*
X170821174Y-92022971D02*
X170571174Y-92022971D01*
X170571174Y-92022971D02*
X170571174Y-91927733D01*
X170571174Y-91927733D02*
X170583079Y-91903923D01*
X170583079Y-91903923D02*
X170594984Y-91892018D01*
X170594984Y-91892018D02*
X170618793Y-91880114D01*
X170618793Y-91880114D02*
X170654508Y-91880114D01*
X170654508Y-91880114D02*
X170678317Y-91892018D01*
X170678317Y-91892018D02*
X170690222Y-91903923D01*
X170690222Y-91903923D02*
X170702127Y-91927733D01*
X170702127Y-91927733D02*
X170702127Y-92022971D01*
X170594984Y-91784875D02*
X170583079Y-91772971D01*
X170583079Y-91772971D02*
X170571174Y-91749161D01*
X170571174Y-91749161D02*
X170571174Y-91689637D01*
X170571174Y-91689637D02*
X170583079Y-91665828D01*
X170583079Y-91665828D02*
X170594984Y-91653923D01*
X170594984Y-91653923D02*
X170618793Y-91642018D01*
X170618793Y-91642018D02*
X170642603Y-91642018D01*
X170642603Y-91642018D02*
X170678317Y-91653923D01*
X170678317Y-91653923D02*
X170821174Y-91796780D01*
X170821174Y-91796780D02*
X170821174Y-91642018D01*
X170571174Y-91487257D02*
X170571174Y-91463447D01*
X170571174Y-91463447D02*
X170583079Y-91439638D01*
X170583079Y-91439638D02*
X170594984Y-91427733D01*
X170594984Y-91427733D02*
X170618793Y-91415828D01*
X170618793Y-91415828D02*
X170666412Y-91403923D01*
X170666412Y-91403923D02*
X170725936Y-91403923D01*
X170725936Y-91403923D02*
X170773555Y-91415828D01*
X170773555Y-91415828D02*
X170797365Y-91427733D01*
X170797365Y-91427733D02*
X170809270Y-91439638D01*
X170809270Y-91439638D02*
X170821174Y-91463447D01*
X170821174Y-91463447D02*
X170821174Y-91487257D01*
X170821174Y-91487257D02*
X170809270Y-91511066D01*
X170809270Y-91511066D02*
X170797365Y-91522971D01*
X170797365Y-91522971D02*
X170773555Y-91534876D01*
X170773555Y-91534876D02*
X170725936Y-91546780D01*
X170725936Y-91546780D02*
X170666412Y-91546780D01*
X170666412Y-91546780D02*
X170618793Y-91534876D01*
X170618793Y-91534876D02*
X170594984Y-91522971D01*
X170594984Y-91522971D02*
X170583079Y-91511066D01*
X170583079Y-91511066D02*
X170571174Y-91487257D01*
X164221337Y-85285463D02*
X164102290Y-85368796D01*
X164221337Y-85428320D02*
X163971337Y-85428320D01*
X163971337Y-85428320D02*
X163971337Y-85333082D01*
X163971337Y-85333082D02*
X163983242Y-85309272D01*
X163983242Y-85309272D02*
X163995147Y-85297367D01*
X163995147Y-85297367D02*
X164018956Y-85285463D01*
X164018956Y-85285463D02*
X164054671Y-85285463D01*
X164054671Y-85285463D02*
X164078480Y-85297367D01*
X164078480Y-85297367D02*
X164090385Y-85309272D01*
X164090385Y-85309272D02*
X164102290Y-85333082D01*
X164102290Y-85333082D02*
X164102290Y-85428320D01*
X164221337Y-85047367D02*
X164221337Y-85190224D01*
X164221337Y-85118796D02*
X163971337Y-85118796D01*
X163971337Y-85118796D02*
X164007052Y-85142605D01*
X164007052Y-85142605D02*
X164030861Y-85166415D01*
X164030861Y-85166415D02*
X164042766Y-85190224D01*
X156547218Y-86967326D02*
X156559123Y-86979230D01*
X156559123Y-86979230D02*
X156571027Y-87014945D01*
X156571027Y-87014945D02*
X156571027Y-87038754D01*
X156571027Y-87038754D02*
X156559123Y-87074468D01*
X156559123Y-87074468D02*
X156535313Y-87098278D01*
X156535313Y-87098278D02*
X156511503Y-87110183D01*
X156511503Y-87110183D02*
X156463884Y-87122087D01*
X156463884Y-87122087D02*
X156428170Y-87122087D01*
X156428170Y-87122087D02*
X156380551Y-87110183D01*
X156380551Y-87110183D02*
X156356742Y-87098278D01*
X156356742Y-87098278D02*
X156332932Y-87074468D01*
X156332932Y-87074468D02*
X156321027Y-87038754D01*
X156321027Y-87038754D02*
X156321027Y-87014945D01*
X156321027Y-87014945D02*
X156332932Y-86979230D01*
X156332932Y-86979230D02*
X156344837Y-86967326D01*
X156571027Y-86729230D02*
X156571027Y-86872087D01*
X156571027Y-86800659D02*
X156321027Y-86800659D01*
X156321027Y-86800659D02*
X156356742Y-86824468D01*
X156356742Y-86824468D02*
X156380551Y-86848278D01*
X156380551Y-86848278D02*
X156392456Y-86872087D01*
X156321027Y-86503040D02*
X156321027Y-86622088D01*
X156321027Y-86622088D02*
X156440075Y-86633992D01*
X156440075Y-86633992D02*
X156428170Y-86622088D01*
X156428170Y-86622088D02*
X156416265Y-86598278D01*
X156416265Y-86598278D02*
X156416265Y-86538754D01*
X156416265Y-86538754D02*
X156428170Y-86514945D01*
X156428170Y-86514945D02*
X156440075Y-86503040D01*
X156440075Y-86503040D02*
X156463884Y-86491135D01*
X156463884Y-86491135D02*
X156523408Y-86491135D01*
X156523408Y-86491135D02*
X156547218Y-86503040D01*
X156547218Y-86503040D02*
X156559123Y-86514945D01*
X156559123Y-86514945D02*
X156571027Y-86538754D01*
X156571027Y-86538754D02*
X156571027Y-86598278D01*
X156571027Y-86598278D02*
X156559123Y-86622088D01*
X156559123Y-86622088D02*
X156547218Y-86633992D01*
D12*
X118713666Y-83780219D02*
X119285094Y-83780219D01*
X118999380Y-84780219D02*
X118999380Y-83780219D01*
X119999380Y-84732600D02*
X119904142Y-84780219D01*
X119904142Y-84780219D02*
X119713666Y-84780219D01*
X119713666Y-84780219D02*
X119618428Y-84732600D01*
X119618428Y-84732600D02*
X119570809Y-84637361D01*
X119570809Y-84637361D02*
X119570809Y-84256409D01*
X119570809Y-84256409D02*
X119618428Y-84161171D01*
X119618428Y-84161171D02*
X119713666Y-84113552D01*
X119713666Y-84113552D02*
X119904142Y-84113552D01*
X119904142Y-84113552D02*
X119999380Y-84161171D01*
X119999380Y-84161171D02*
X120046999Y-84256409D01*
X120046999Y-84256409D02*
X120046999Y-84351647D01*
X120046999Y-84351647D02*
X119570809Y-84446885D01*
X120427952Y-84732600D02*
X120523190Y-84780219D01*
X120523190Y-84780219D02*
X120713666Y-84780219D01*
X120713666Y-84780219D02*
X120808904Y-84732600D01*
X120808904Y-84732600D02*
X120856523Y-84637361D01*
X120856523Y-84637361D02*
X120856523Y-84589742D01*
X120856523Y-84589742D02*
X120808904Y-84494504D01*
X120808904Y-84494504D02*
X120713666Y-84446885D01*
X120713666Y-84446885D02*
X120570809Y-84446885D01*
X120570809Y-84446885D02*
X120475571Y-84399266D01*
X120475571Y-84399266D02*
X120427952Y-84304028D01*
X120427952Y-84304028D02*
X120427952Y-84256409D01*
X120427952Y-84256409D02*
X120475571Y-84161171D01*
X120475571Y-84161171D02*
X120570809Y-84113552D01*
X120570809Y-84113552D02*
X120713666Y-84113552D01*
X120713666Y-84113552D02*
X120808904Y-84161171D01*
X121142238Y-84113552D02*
X121523190Y-84113552D01*
X121285095Y-83780219D02*
X121285095Y-84637361D01*
X121285095Y-84637361D02*
X121332714Y-84732600D01*
X121332714Y-84732600D02*
X121427952Y-84780219D01*
X121427952Y-84780219D02*
X121523190Y-84780219D01*
X121856524Y-84780219D02*
X121856524Y-83780219D01*
X121856524Y-83780219D02*
X122237476Y-83780219D01*
X122237476Y-83780219D02*
X122332714Y-83827838D01*
X122332714Y-83827838D02*
X122380333Y-83875457D01*
X122380333Y-83875457D02*
X122427952Y-83970695D01*
X122427952Y-83970695D02*
X122427952Y-84113552D01*
X122427952Y-84113552D02*
X122380333Y-84208790D01*
X122380333Y-84208790D02*
X122332714Y-84256409D01*
X122332714Y-84256409D02*
X122237476Y-84304028D01*
X122237476Y-84304028D02*
X121856524Y-84304028D01*
X122999381Y-84780219D02*
X122904143Y-84732600D01*
X122904143Y-84732600D02*
X122856524Y-84684980D01*
X122856524Y-84684980D02*
X122808905Y-84589742D01*
X122808905Y-84589742D02*
X122808905Y-84304028D01*
X122808905Y-84304028D02*
X122856524Y-84208790D01*
X122856524Y-84208790D02*
X122904143Y-84161171D01*
X122904143Y-84161171D02*
X122999381Y-84113552D01*
X122999381Y-84113552D02*
X123142238Y-84113552D01*
X123142238Y-84113552D02*
X123237476Y-84161171D01*
X123237476Y-84161171D02*
X123285095Y-84208790D01*
X123285095Y-84208790D02*
X123332714Y-84304028D01*
X123332714Y-84304028D02*
X123332714Y-84589742D01*
X123332714Y-84589742D02*
X123285095Y-84684980D01*
X123285095Y-84684980D02*
X123237476Y-84732600D01*
X123237476Y-84732600D02*
X123142238Y-84780219D01*
X123142238Y-84780219D02*
X122999381Y-84780219D01*
X123761286Y-84780219D02*
X123761286Y-84113552D01*
X123761286Y-83780219D02*
X123713667Y-83827838D01*
X123713667Y-83827838D02*
X123761286Y-83875457D01*
X123761286Y-83875457D02*
X123808905Y-83827838D01*
X123808905Y-83827838D02*
X123761286Y-83780219D01*
X123761286Y-83780219D02*
X123761286Y-83875457D01*
X124237476Y-84113552D02*
X124237476Y-84780219D01*
X124237476Y-84208790D02*
X124285095Y-84161171D01*
X124285095Y-84161171D02*
X124380333Y-84113552D01*
X124380333Y-84113552D02*
X124523190Y-84113552D01*
X124523190Y-84113552D02*
X124618428Y-84161171D01*
X124618428Y-84161171D02*
X124666047Y-84256409D01*
X124666047Y-84256409D02*
X124666047Y-84780219D01*
X124999381Y-84113552D02*
X125380333Y-84113552D01*
X125142238Y-83780219D02*
X125142238Y-84637361D01*
X125142238Y-84637361D02*
X125189857Y-84732600D01*
X125189857Y-84732600D02*
X125285095Y-84780219D01*
X125285095Y-84780219D02*
X125380333Y-84780219D01*
X120785095Y-80380219D02*
X121356523Y-80380219D01*
X121070809Y-81380219D02*
X121070809Y-80380219D01*
X121689857Y-81380219D02*
X121689857Y-80380219D01*
X121689857Y-80380219D02*
X122070809Y-80380219D01*
X122070809Y-80380219D02*
X122166047Y-80427838D01*
X122166047Y-80427838D02*
X122213666Y-80475457D01*
X122213666Y-80475457D02*
X122261285Y-80570695D01*
X122261285Y-80570695D02*
X122261285Y-80713552D01*
X122261285Y-80713552D02*
X122213666Y-80808790D01*
X122213666Y-80808790D02*
X122166047Y-80856409D01*
X122166047Y-80856409D02*
X122070809Y-80904028D01*
X122070809Y-80904028D02*
X121689857Y-80904028D01*
X123166047Y-80380219D02*
X122689857Y-80380219D01*
X122689857Y-80380219D02*
X122642238Y-80856409D01*
X122642238Y-80856409D02*
X122689857Y-80808790D01*
X122689857Y-80808790D02*
X122785095Y-80761171D01*
X122785095Y-80761171D02*
X123023190Y-80761171D01*
X123023190Y-80761171D02*
X123118428Y-80808790D01*
X123118428Y-80808790D02*
X123166047Y-80856409D01*
X123166047Y-80856409D02*
X123213666Y-80951647D01*
X123213666Y-80951647D02*
X123213666Y-81189742D01*
X123213666Y-81189742D02*
X123166047Y-81284980D01*
X123166047Y-81284980D02*
X123118428Y-81332600D01*
X123118428Y-81332600D02*
X123023190Y-81380219D01*
X123023190Y-81380219D02*
X122785095Y-81380219D01*
X122785095Y-81380219D02*
X122689857Y-81332600D01*
X122689857Y-81332600D02*
X122642238Y-81284980D01*
D10*
X147378311Y-87190539D02*
X147390216Y-87202443D01*
X147390216Y-87202443D02*
X147402120Y-87238158D01*
X147402120Y-87238158D02*
X147402120Y-87261967D01*
X147402120Y-87261967D02*
X147390216Y-87297681D01*
X147390216Y-87297681D02*
X147366406Y-87321491D01*
X147366406Y-87321491D02*
X147342596Y-87333396D01*
X147342596Y-87333396D02*
X147294977Y-87345300D01*
X147294977Y-87345300D02*
X147259263Y-87345300D01*
X147259263Y-87345300D02*
X147211644Y-87333396D01*
X147211644Y-87333396D02*
X147187835Y-87321491D01*
X147187835Y-87321491D02*
X147164025Y-87297681D01*
X147164025Y-87297681D02*
X147152120Y-87261967D01*
X147152120Y-87261967D02*
X147152120Y-87238158D01*
X147152120Y-87238158D02*
X147164025Y-87202443D01*
X147164025Y-87202443D02*
X147175930Y-87190539D01*
X147402120Y-86952443D02*
X147402120Y-87095300D01*
X147402120Y-87023872D02*
X147152120Y-87023872D01*
X147152120Y-87023872D02*
X147187835Y-87047681D01*
X147187835Y-87047681D02*
X147211644Y-87071491D01*
X147211644Y-87071491D02*
X147223549Y-87095300D01*
X147259263Y-86809586D02*
X147247358Y-86833396D01*
X147247358Y-86833396D02*
X147235454Y-86845301D01*
X147235454Y-86845301D02*
X147211644Y-86857205D01*
X147211644Y-86857205D02*
X147199739Y-86857205D01*
X147199739Y-86857205D02*
X147175930Y-86845301D01*
X147175930Y-86845301D02*
X147164025Y-86833396D01*
X147164025Y-86833396D02*
X147152120Y-86809586D01*
X147152120Y-86809586D02*
X147152120Y-86761967D01*
X147152120Y-86761967D02*
X147164025Y-86738158D01*
X147164025Y-86738158D02*
X147175930Y-86726253D01*
X147175930Y-86726253D02*
X147199739Y-86714348D01*
X147199739Y-86714348D02*
X147211644Y-86714348D01*
X147211644Y-86714348D02*
X147235454Y-86726253D01*
X147235454Y-86726253D02*
X147247358Y-86738158D01*
X147247358Y-86738158D02*
X147259263Y-86761967D01*
X147259263Y-86761967D02*
X147259263Y-86809586D01*
X147259263Y-86809586D02*
X147271168Y-86833396D01*
X147271168Y-86833396D02*
X147283073Y-86845301D01*
X147283073Y-86845301D02*
X147306882Y-86857205D01*
X147306882Y-86857205D02*
X147354501Y-86857205D01*
X147354501Y-86857205D02*
X147378311Y-86845301D01*
X147378311Y-86845301D02*
X147390216Y-86833396D01*
X147390216Y-86833396D02*
X147402120Y-86809586D01*
X147402120Y-86809586D02*
X147402120Y-86761967D01*
X147402120Y-86761967D02*
X147390216Y-86738158D01*
X147390216Y-86738158D02*
X147378311Y-86726253D01*
X147378311Y-86726253D02*
X147354501Y-86714348D01*
X147354501Y-86714348D02*
X147306882Y-86714348D01*
X147306882Y-86714348D02*
X147283073Y-86726253D01*
X147283073Y-86726253D02*
X147271168Y-86738158D01*
X147271168Y-86738158D02*
X147259263Y-86761967D01*
D15*
X166886392Y-82900566D02*
X166838773Y-82876757D01*
X166838773Y-82876757D02*
X166791154Y-82829138D01*
X166791154Y-82829138D02*
X166719726Y-82757709D01*
X166719726Y-82757709D02*
X166672107Y-82733899D01*
X166672107Y-82733899D02*
X166624488Y-82733899D01*
X166648297Y-82852947D02*
X166600678Y-82829138D01*
X166600678Y-82829138D02*
X166553059Y-82781518D01*
X166553059Y-82781518D02*
X166529250Y-82686280D01*
X166529250Y-82686280D02*
X166529250Y-82519614D01*
X166529250Y-82519614D02*
X166553059Y-82424376D01*
X166553059Y-82424376D02*
X166600678Y-82376757D01*
X166600678Y-82376757D02*
X166648297Y-82352947D01*
X166648297Y-82352947D02*
X166743535Y-82352947D01*
X166743535Y-82352947D02*
X166791154Y-82376757D01*
X166791154Y-82376757D02*
X166838773Y-82424376D01*
X166838773Y-82424376D02*
X166862583Y-82519614D01*
X166862583Y-82519614D02*
X166862583Y-82686280D01*
X166862583Y-82686280D02*
X166838773Y-82781518D01*
X166838773Y-82781518D02*
X166791154Y-82829138D01*
X166791154Y-82829138D02*
X166743535Y-82852947D01*
X166743535Y-82852947D02*
X166648297Y-82852947D01*
X167053060Y-82400566D02*
X167076869Y-82376757D01*
X167076869Y-82376757D02*
X167124488Y-82352947D01*
X167124488Y-82352947D02*
X167243536Y-82352947D01*
X167243536Y-82352947D02*
X167291155Y-82376757D01*
X167291155Y-82376757D02*
X167314964Y-82400566D01*
X167314964Y-82400566D02*
X167338774Y-82448185D01*
X167338774Y-82448185D02*
X167338774Y-82495804D01*
X167338774Y-82495804D02*
X167314964Y-82567233D01*
X167314964Y-82567233D02*
X167029250Y-82852947D01*
X167029250Y-82852947D02*
X167338774Y-82852947D01*
D12*
X191949333Y-124018244D02*
X191473143Y-124018244D01*
X191473143Y-124018244D02*
X191473143Y-123018244D01*
X192425524Y-123446815D02*
X192330286Y-123399196D01*
X192330286Y-123399196D02*
X192282667Y-123351577D01*
X192282667Y-123351577D02*
X192235048Y-123256339D01*
X192235048Y-123256339D02*
X192235048Y-123208720D01*
X192235048Y-123208720D02*
X192282667Y-123113482D01*
X192282667Y-123113482D02*
X192330286Y-123065863D01*
X192330286Y-123065863D02*
X192425524Y-123018244D01*
X192425524Y-123018244D02*
X192616000Y-123018244D01*
X192616000Y-123018244D02*
X192711238Y-123065863D01*
X192711238Y-123065863D02*
X192758857Y-123113482D01*
X192758857Y-123113482D02*
X192806476Y-123208720D01*
X192806476Y-123208720D02*
X192806476Y-123256339D01*
X192806476Y-123256339D02*
X192758857Y-123351577D01*
X192758857Y-123351577D02*
X192711238Y-123399196D01*
X192711238Y-123399196D02*
X192616000Y-123446815D01*
X192616000Y-123446815D02*
X192425524Y-123446815D01*
X192425524Y-123446815D02*
X192330286Y-123494434D01*
X192330286Y-123494434D02*
X192282667Y-123542053D01*
X192282667Y-123542053D02*
X192235048Y-123637291D01*
X192235048Y-123637291D02*
X192235048Y-123827767D01*
X192235048Y-123827767D02*
X192282667Y-123923005D01*
X192282667Y-123923005D02*
X192330286Y-123970625D01*
X192330286Y-123970625D02*
X192425524Y-124018244D01*
X192425524Y-124018244D02*
X192616000Y-124018244D01*
X192616000Y-124018244D02*
X192711238Y-123970625D01*
X192711238Y-123970625D02*
X192758857Y-123923005D01*
X192758857Y-123923005D02*
X192806476Y-123827767D01*
X192806476Y-123827767D02*
X192806476Y-123637291D01*
X192806476Y-123637291D02*
X192758857Y-123542053D01*
X192758857Y-123542053D02*
X192711238Y-123494434D01*
X192711238Y-123494434D02*
X192616000Y-123446815D01*
D10*
X156749574Y-81067666D02*
X156630527Y-81150999D01*
X156749574Y-81210523D02*
X156499574Y-81210523D01*
X156499574Y-81210523D02*
X156499574Y-81115285D01*
X156499574Y-81115285D02*
X156511479Y-81091475D01*
X156511479Y-81091475D02*
X156523384Y-81079570D01*
X156523384Y-81079570D02*
X156547193Y-81067666D01*
X156547193Y-81067666D02*
X156582908Y-81067666D01*
X156582908Y-81067666D02*
X156606717Y-81079570D01*
X156606717Y-81079570D02*
X156618622Y-81091475D01*
X156618622Y-81091475D02*
X156630527Y-81115285D01*
X156630527Y-81115285D02*
X156630527Y-81210523D01*
X156606717Y-80924808D02*
X156594812Y-80948618D01*
X156594812Y-80948618D02*
X156582908Y-80960523D01*
X156582908Y-80960523D02*
X156559098Y-80972427D01*
X156559098Y-80972427D02*
X156547193Y-80972427D01*
X156547193Y-80972427D02*
X156523384Y-80960523D01*
X156523384Y-80960523D02*
X156511479Y-80948618D01*
X156511479Y-80948618D02*
X156499574Y-80924808D01*
X156499574Y-80924808D02*
X156499574Y-80877189D01*
X156499574Y-80877189D02*
X156511479Y-80853380D01*
X156511479Y-80853380D02*
X156523384Y-80841475D01*
X156523384Y-80841475D02*
X156547193Y-80829570D01*
X156547193Y-80829570D02*
X156559098Y-80829570D01*
X156559098Y-80829570D02*
X156582908Y-80841475D01*
X156582908Y-80841475D02*
X156594812Y-80853380D01*
X156594812Y-80853380D02*
X156606717Y-80877189D01*
X156606717Y-80877189D02*
X156606717Y-80924808D01*
X156606717Y-80924808D02*
X156618622Y-80948618D01*
X156618622Y-80948618D02*
X156630527Y-80960523D01*
X156630527Y-80960523D02*
X156654336Y-80972427D01*
X156654336Y-80972427D02*
X156701955Y-80972427D01*
X156701955Y-80972427D02*
X156725765Y-80960523D01*
X156725765Y-80960523D02*
X156737670Y-80948618D01*
X156737670Y-80948618D02*
X156749574Y-80924808D01*
X156749574Y-80924808D02*
X156749574Y-80877189D01*
X156749574Y-80877189D02*
X156737670Y-80853380D01*
X156737670Y-80853380D02*
X156725765Y-80841475D01*
X156725765Y-80841475D02*
X156701955Y-80829570D01*
X156701955Y-80829570D02*
X156654336Y-80829570D01*
X156654336Y-80829570D02*
X156630527Y-80841475D01*
X156630527Y-80841475D02*
X156618622Y-80853380D01*
X156618622Y-80853380D02*
X156606717Y-80877189D01*
X166673861Y-116340314D02*
X166554814Y-116423647D01*
X166673861Y-116483171D02*
X166423861Y-116483171D01*
X166423861Y-116483171D02*
X166423861Y-116387933D01*
X166423861Y-116387933D02*
X166435766Y-116364123D01*
X166435766Y-116364123D02*
X166447671Y-116352218D01*
X166447671Y-116352218D02*
X166471480Y-116340314D01*
X166471480Y-116340314D02*
X166507195Y-116340314D01*
X166507195Y-116340314D02*
X166531004Y-116352218D01*
X166531004Y-116352218D02*
X166542909Y-116364123D01*
X166542909Y-116364123D02*
X166554814Y-116387933D01*
X166554814Y-116387933D02*
X166554814Y-116483171D01*
X166673861Y-116102218D02*
X166673861Y-116245075D01*
X166673861Y-116173647D02*
X166423861Y-116173647D01*
X166423861Y-116173647D02*
X166459576Y-116197456D01*
X166459576Y-116197456D02*
X166483385Y-116221266D01*
X166483385Y-116221266D02*
X166495290Y-116245075D01*
X166423861Y-115887933D02*
X166423861Y-115935552D01*
X166423861Y-115935552D02*
X166435766Y-115959361D01*
X166435766Y-115959361D02*
X166447671Y-115971266D01*
X166447671Y-115971266D02*
X166483385Y-115995076D01*
X166483385Y-115995076D02*
X166531004Y-116006980D01*
X166531004Y-116006980D02*
X166626242Y-116006980D01*
X166626242Y-116006980D02*
X166650052Y-115995076D01*
X166650052Y-115995076D02*
X166661957Y-115983171D01*
X166661957Y-115983171D02*
X166673861Y-115959361D01*
X166673861Y-115959361D02*
X166673861Y-115911742D01*
X166673861Y-115911742D02*
X166661957Y-115887933D01*
X166661957Y-115887933D02*
X166650052Y-115876028D01*
X166650052Y-115876028D02*
X166626242Y-115864123D01*
X166626242Y-115864123D02*
X166566718Y-115864123D01*
X166566718Y-115864123D02*
X166542909Y-115876028D01*
X166542909Y-115876028D02*
X166531004Y-115887933D01*
X166531004Y-115887933D02*
X166519099Y-115911742D01*
X166519099Y-115911742D02*
X166519099Y-115959361D01*
X166519099Y-115959361D02*
X166531004Y-115983171D01*
X166531004Y-115983171D02*
X166542909Y-115995076D01*
X166542909Y-115995076D02*
X166566718Y-116006980D01*
D12*
X150380952Y-112167200D02*
X150523809Y-112214819D01*
X150523809Y-112214819D02*
X150761904Y-112214819D01*
X150761904Y-112214819D02*
X150857142Y-112167200D01*
X150857142Y-112167200D02*
X150904761Y-112119580D01*
X150904761Y-112119580D02*
X150952380Y-112024342D01*
X150952380Y-112024342D02*
X150952380Y-111929104D01*
X150952380Y-111929104D02*
X150904761Y-111833866D01*
X150904761Y-111833866D02*
X150857142Y-111786247D01*
X150857142Y-111786247D02*
X150761904Y-111738628D01*
X150761904Y-111738628D02*
X150571428Y-111691009D01*
X150571428Y-111691009D02*
X150476190Y-111643390D01*
X150476190Y-111643390D02*
X150428571Y-111595771D01*
X150428571Y-111595771D02*
X150380952Y-111500533D01*
X150380952Y-111500533D02*
X150380952Y-111405295D01*
X150380952Y-111405295D02*
X150428571Y-111310057D01*
X150428571Y-111310057D02*
X150476190Y-111262438D01*
X150476190Y-111262438D02*
X150571428Y-111214819D01*
X150571428Y-111214819D02*
X150809523Y-111214819D01*
X150809523Y-111214819D02*
X150952380Y-111262438D01*
X151380952Y-112214819D02*
X151380952Y-111214819D01*
X151380952Y-111214819D02*
X151761904Y-111214819D01*
X151761904Y-111214819D02*
X151857142Y-111262438D01*
X151857142Y-111262438D02*
X151904761Y-111310057D01*
X151904761Y-111310057D02*
X151952380Y-111405295D01*
X151952380Y-111405295D02*
X151952380Y-111548152D01*
X151952380Y-111548152D02*
X151904761Y-111643390D01*
X151904761Y-111643390D02*
X151857142Y-111691009D01*
X151857142Y-111691009D02*
X151761904Y-111738628D01*
X151761904Y-111738628D02*
X151380952Y-111738628D01*
X152333333Y-112167200D02*
X152476190Y-112214819D01*
X152476190Y-112214819D02*
X152714285Y-112214819D01*
X152714285Y-112214819D02*
X152809523Y-112167200D01*
X152809523Y-112167200D02*
X152857142Y-112119580D01*
X152857142Y-112119580D02*
X152904761Y-112024342D01*
X152904761Y-112024342D02*
X152904761Y-111929104D01*
X152904761Y-111929104D02*
X152857142Y-111833866D01*
X152857142Y-111833866D02*
X152809523Y-111786247D01*
X152809523Y-111786247D02*
X152714285Y-111738628D01*
X152714285Y-111738628D02*
X152523809Y-111691009D01*
X152523809Y-111691009D02*
X152428571Y-111643390D01*
X152428571Y-111643390D02*
X152380952Y-111595771D01*
X152380952Y-111595771D02*
X152333333Y-111500533D01*
X152333333Y-111500533D02*
X152333333Y-111405295D01*
X152333333Y-111405295D02*
X152380952Y-111310057D01*
X152380952Y-111310057D02*
X152428571Y-111262438D01*
X152428571Y-111262438D02*
X152523809Y-111214819D01*
X152523809Y-111214819D02*
X152761904Y-111214819D01*
X152761904Y-111214819D02*
X152904761Y-111262438D01*
X153190476Y-111214819D02*
X153761904Y-111214819D01*
X153476190Y-112214819D02*
X153476190Y-111214819D01*
X154619047Y-112214819D02*
X154047619Y-112214819D01*
X154333333Y-112214819D02*
X154333333Y-111214819D01*
X154333333Y-111214819D02*
X154238095Y-111357676D01*
X154238095Y-111357676D02*
X154142857Y-111452914D01*
X154142857Y-111452914D02*
X154047619Y-111500533D01*
X203316666Y-112780134D02*
X203459523Y-112827753D01*
X203459523Y-112827753D02*
X203507142Y-112875372D01*
X203507142Y-112875372D02*
X203554761Y-112970610D01*
X203554761Y-112970610D02*
X203554761Y-113113467D01*
X203554761Y-113113467D02*
X203507142Y-113208705D01*
X203507142Y-113208705D02*
X203459523Y-113256325D01*
X203459523Y-113256325D02*
X203364285Y-113303944D01*
X203364285Y-113303944D02*
X202983333Y-113303944D01*
X202983333Y-113303944D02*
X202983333Y-112303944D01*
X202983333Y-112303944D02*
X203316666Y-112303944D01*
X203316666Y-112303944D02*
X203411904Y-112351563D01*
X203411904Y-112351563D02*
X203459523Y-112399182D01*
X203459523Y-112399182D02*
X203507142Y-112494420D01*
X203507142Y-112494420D02*
X203507142Y-112589658D01*
X203507142Y-112589658D02*
X203459523Y-112684896D01*
X203459523Y-112684896D02*
X203411904Y-112732515D01*
X203411904Y-112732515D02*
X203316666Y-112780134D01*
X203316666Y-112780134D02*
X202983333Y-112780134D01*
X203983333Y-113303944D02*
X203983333Y-112303944D01*
X203983333Y-112303944D02*
X204364285Y-112303944D01*
X204364285Y-112303944D02*
X204459523Y-112351563D01*
X204459523Y-112351563D02*
X204507142Y-112399182D01*
X204507142Y-112399182D02*
X204554761Y-112494420D01*
X204554761Y-112494420D02*
X204554761Y-112637277D01*
X204554761Y-112637277D02*
X204507142Y-112732515D01*
X204507142Y-112732515D02*
X204459523Y-112780134D01*
X204459523Y-112780134D02*
X204364285Y-112827753D01*
X204364285Y-112827753D02*
X203983333Y-112827753D01*
X204935714Y-113018229D02*
X205411904Y-113018229D01*
X204840476Y-113303944D02*
X205173809Y-112303944D01*
X205173809Y-112303944D02*
X205507142Y-113303944D01*
X206364285Y-113303944D02*
X205792857Y-113303944D01*
X206078571Y-113303944D02*
X206078571Y-112303944D01*
X206078571Y-112303944D02*
X205983333Y-112446801D01*
X205983333Y-112446801D02*
X205888095Y-112542039D01*
X205888095Y-112542039D02*
X205792857Y-112589658D01*
X147226495Y-76087619D02*
X147797923Y-76087619D01*
X147512209Y-77087619D02*
X147512209Y-76087619D01*
X148131257Y-77087619D02*
X148131257Y-76087619D01*
X148131257Y-76087619D02*
X148512209Y-76087619D01*
X148512209Y-76087619D02*
X148607447Y-76135238D01*
X148607447Y-76135238D02*
X148655066Y-76182857D01*
X148655066Y-76182857D02*
X148702685Y-76278095D01*
X148702685Y-76278095D02*
X148702685Y-76420952D01*
X148702685Y-76420952D02*
X148655066Y-76516190D01*
X148655066Y-76516190D02*
X148607447Y-76563809D01*
X148607447Y-76563809D02*
X148512209Y-76611428D01*
X148512209Y-76611428D02*
X148131257Y-76611428D01*
X149559828Y-76420952D02*
X149559828Y-77087619D01*
X149321733Y-76040000D02*
X149083638Y-76754285D01*
X149083638Y-76754285D02*
X149702685Y-76754285D01*
D10*
X160618981Y-120658314D02*
X160499934Y-120741647D01*
X160618981Y-120801171D02*
X160368981Y-120801171D01*
X160368981Y-120801171D02*
X160368981Y-120705933D01*
X160368981Y-120705933D02*
X160380886Y-120682123D01*
X160380886Y-120682123D02*
X160392791Y-120670218D01*
X160392791Y-120670218D02*
X160416600Y-120658314D01*
X160416600Y-120658314D02*
X160452315Y-120658314D01*
X160452315Y-120658314D02*
X160476124Y-120670218D01*
X160476124Y-120670218D02*
X160488029Y-120682123D01*
X160488029Y-120682123D02*
X160499934Y-120705933D01*
X160499934Y-120705933D02*
X160499934Y-120801171D01*
X160618981Y-120420218D02*
X160618981Y-120563075D01*
X160618981Y-120491647D02*
X160368981Y-120491647D01*
X160368981Y-120491647D02*
X160404696Y-120515456D01*
X160404696Y-120515456D02*
X160428505Y-120539266D01*
X160428505Y-120539266D02*
X160440410Y-120563075D01*
X160392791Y-120324980D02*
X160380886Y-120313076D01*
X160380886Y-120313076D02*
X160368981Y-120289266D01*
X160368981Y-120289266D02*
X160368981Y-120229742D01*
X160368981Y-120229742D02*
X160380886Y-120205933D01*
X160380886Y-120205933D02*
X160392791Y-120194028D01*
X160392791Y-120194028D02*
X160416600Y-120182123D01*
X160416600Y-120182123D02*
X160440410Y-120182123D01*
X160440410Y-120182123D02*
X160476124Y-120194028D01*
X160476124Y-120194028D02*
X160618981Y-120336885D01*
X160618981Y-120336885D02*
X160618981Y-120182123D01*
D12*
X204973142Y-113518244D02*
X204496952Y-113518244D01*
X204496952Y-113518244D02*
X204496952Y-112518244D01*
X205830285Y-113518244D02*
X205258857Y-113518244D01*
X205544571Y-113518244D02*
X205544571Y-112518244D01*
X205544571Y-112518244D02*
X205449333Y-112661101D01*
X205449333Y-112661101D02*
X205354095Y-112756339D01*
X205354095Y-112756339D02*
X205258857Y-112803958D01*
X206449333Y-112518244D02*
X206544571Y-112518244D01*
X206544571Y-112518244D02*
X206639809Y-112565863D01*
X206639809Y-112565863D02*
X206687428Y-112613482D01*
X206687428Y-112613482D02*
X206735047Y-112708720D01*
X206735047Y-112708720D02*
X206782666Y-112899196D01*
X206782666Y-112899196D02*
X206782666Y-113137291D01*
X206782666Y-113137291D02*
X206735047Y-113327767D01*
X206735047Y-113327767D02*
X206687428Y-113423005D01*
X206687428Y-113423005D02*
X206639809Y-113470625D01*
X206639809Y-113470625D02*
X206544571Y-113518244D01*
X206544571Y-113518244D02*
X206449333Y-113518244D01*
X206449333Y-113518244D02*
X206354095Y-113470625D01*
X206354095Y-113470625D02*
X206306476Y-113423005D01*
X206306476Y-113423005D02*
X206258857Y-113327767D01*
X206258857Y-113327767D02*
X206211238Y-113137291D01*
X206211238Y-113137291D02*
X206211238Y-112899196D01*
X206211238Y-112899196D02*
X206258857Y-112708720D01*
X206258857Y-112708720D02*
X206306476Y-112613482D01*
X206306476Y-112613482D02*
X206354095Y-112565863D01*
X206354095Y-112565863D02*
X206449333Y-112518244D01*
D15*
X164092392Y-82900566D02*
X164044773Y-82876757D01*
X164044773Y-82876757D02*
X163997154Y-82829138D01*
X163997154Y-82829138D02*
X163925726Y-82757709D01*
X163925726Y-82757709D02*
X163878107Y-82733899D01*
X163878107Y-82733899D02*
X163830488Y-82733899D01*
X163854297Y-82852947D02*
X163806678Y-82829138D01*
X163806678Y-82829138D02*
X163759059Y-82781518D01*
X163759059Y-82781518D02*
X163735250Y-82686280D01*
X163735250Y-82686280D02*
X163735250Y-82519614D01*
X163735250Y-82519614D02*
X163759059Y-82424376D01*
X163759059Y-82424376D02*
X163806678Y-82376757D01*
X163806678Y-82376757D02*
X163854297Y-82352947D01*
X163854297Y-82352947D02*
X163949535Y-82352947D01*
X163949535Y-82352947D02*
X163997154Y-82376757D01*
X163997154Y-82376757D02*
X164044773Y-82424376D01*
X164044773Y-82424376D02*
X164068583Y-82519614D01*
X164068583Y-82519614D02*
X164068583Y-82686280D01*
X164068583Y-82686280D02*
X164044773Y-82781518D01*
X164044773Y-82781518D02*
X163997154Y-82829138D01*
X163997154Y-82829138D02*
X163949535Y-82852947D01*
X163949535Y-82852947D02*
X163854297Y-82852947D01*
X164544774Y-82852947D02*
X164259060Y-82852947D01*
X164401917Y-82852947D02*
X164401917Y-82352947D01*
X164401917Y-82352947D02*
X164354298Y-82424376D01*
X164354298Y-82424376D02*
X164306679Y-82471995D01*
X164306679Y-82471995D02*
X164259060Y-82495804D01*
D12*
X105149333Y-108668244D02*
X104673143Y-108668244D01*
X104673143Y-108668244D02*
X104673143Y-107668244D01*
X106006476Y-108668244D02*
X105435048Y-108668244D01*
X105720762Y-108668244D02*
X105720762Y-107668244D01*
X105720762Y-107668244D02*
X105625524Y-107811101D01*
X105625524Y-107811101D02*
X105530286Y-107906339D01*
X105530286Y-107906339D02*
X105435048Y-107953958D01*
D13*
X136342807Y-80886266D02*
X136342807Y-81152932D01*
X136761855Y-81152932D02*
X135961855Y-81152932D01*
X135961855Y-81152932D02*
X135961855Y-80771980D01*
X136761855Y-80048171D02*
X136761855Y-80505314D01*
X136761855Y-80276742D02*
X135961855Y-80276742D01*
X135961855Y-80276742D02*
X136076140Y-80352933D01*
X136076140Y-80352933D02*
X136152331Y-80429123D01*
X136152331Y-80429123D02*
X136190426Y-80505314D01*
D17*
X149619593Y-88500149D02*
X149619593Y-88904911D01*
X149619593Y-88904911D02*
X149643403Y-88952530D01*
X149643403Y-88952530D02*
X149667212Y-88976340D01*
X149667212Y-88976340D02*
X149714831Y-89000149D01*
X149714831Y-89000149D02*
X149810069Y-89000149D01*
X149810069Y-89000149D02*
X149857688Y-88976340D01*
X149857688Y-88976340D02*
X149881498Y-88952530D01*
X149881498Y-88952530D02*
X149905307Y-88904911D01*
X149905307Y-88904911D02*
X149905307Y-88500149D01*
X150095784Y-88500149D02*
X150405308Y-88500149D01*
X150405308Y-88500149D02*
X150238641Y-88690625D01*
X150238641Y-88690625D02*
X150310070Y-88690625D01*
X150310070Y-88690625D02*
X150357689Y-88714435D01*
X150357689Y-88714435D02*
X150381498Y-88738244D01*
X150381498Y-88738244D02*
X150405308Y-88785863D01*
X150405308Y-88785863D02*
X150405308Y-88904911D01*
X150405308Y-88904911D02*
X150381498Y-88952530D01*
X150381498Y-88952530D02*
X150357689Y-88976340D01*
X150357689Y-88976340D02*
X150310070Y-89000149D01*
X150310070Y-89000149D02*
X150167213Y-89000149D01*
X150167213Y-89000149D02*
X150119594Y-88976340D01*
X150119594Y-88976340D02*
X150095784Y-88952530D01*
D12*
X121725952Y-91471619D02*
X121154524Y-91471619D01*
X121440238Y-91471619D02*
X121440238Y-90471619D01*
X121440238Y-90471619D02*
X121345000Y-90614476D01*
X121345000Y-90614476D02*
X121249762Y-90709714D01*
X121249762Y-90709714D02*
X121154524Y-90757333D01*
X122345000Y-90471619D02*
X122440238Y-90471619D01*
X122440238Y-90471619D02*
X122535476Y-90519238D01*
X122535476Y-90519238D02*
X122583095Y-90566857D01*
X122583095Y-90566857D02*
X122630714Y-90662095D01*
X122630714Y-90662095D02*
X122678333Y-90852571D01*
X122678333Y-90852571D02*
X122678333Y-91090666D01*
X122678333Y-91090666D02*
X122630714Y-91281142D01*
X122630714Y-91281142D02*
X122583095Y-91376380D01*
X122583095Y-91376380D02*
X122535476Y-91424000D01*
X122535476Y-91424000D02*
X122440238Y-91471619D01*
X122440238Y-91471619D02*
X122345000Y-91471619D01*
X122345000Y-91471619D02*
X122249762Y-91424000D01*
X122249762Y-91424000D02*
X122202143Y-91376380D01*
X122202143Y-91376380D02*
X122154524Y-91281142D01*
X122154524Y-91281142D02*
X122106905Y-91090666D01*
X122106905Y-91090666D02*
X122106905Y-90852571D01*
X122106905Y-90852571D02*
X122154524Y-90662095D01*
X122154524Y-90662095D02*
X122202143Y-90566857D01*
X122202143Y-90566857D02*
X122249762Y-90519238D01*
X122249762Y-90519238D02*
X122345000Y-90471619D01*
X123297381Y-90471619D02*
X123392619Y-90471619D01*
X123392619Y-90471619D02*
X123487857Y-90519238D01*
X123487857Y-90519238D02*
X123535476Y-90566857D01*
X123535476Y-90566857D02*
X123583095Y-90662095D01*
X123583095Y-90662095D02*
X123630714Y-90852571D01*
X123630714Y-90852571D02*
X123630714Y-91090666D01*
X123630714Y-91090666D02*
X123583095Y-91281142D01*
X123583095Y-91281142D02*
X123535476Y-91376380D01*
X123535476Y-91376380D02*
X123487857Y-91424000D01*
X123487857Y-91424000D02*
X123392619Y-91471619D01*
X123392619Y-91471619D02*
X123297381Y-91471619D01*
X123297381Y-91471619D02*
X123202143Y-91424000D01*
X123202143Y-91424000D02*
X123154524Y-91376380D01*
X123154524Y-91376380D02*
X123106905Y-91281142D01*
X123106905Y-91281142D02*
X123059286Y-91090666D01*
X123059286Y-91090666D02*
X123059286Y-90852571D01*
X123059286Y-90852571D02*
X123106905Y-90662095D01*
X123106905Y-90662095D02*
X123154524Y-90566857D01*
X123154524Y-90566857D02*
X123202143Y-90519238D01*
X123202143Y-90519238D02*
X123297381Y-90471619D01*
X124059286Y-90804952D02*
X124059286Y-91471619D01*
X124059286Y-90900190D02*
X124106905Y-90852571D01*
X124106905Y-90852571D02*
X124202143Y-90804952D01*
X124202143Y-90804952D02*
X124345000Y-90804952D01*
X124345000Y-90804952D02*
X124440238Y-90852571D01*
X124440238Y-90852571D02*
X124487857Y-90947809D01*
X124487857Y-90947809D02*
X124487857Y-91471619D01*
D10*
X122803333Y-89376565D02*
X122791429Y-89388470D01*
X122791429Y-89388470D02*
X122755714Y-89400374D01*
X122755714Y-89400374D02*
X122731905Y-89400374D01*
X122731905Y-89400374D02*
X122696191Y-89388470D01*
X122696191Y-89388470D02*
X122672381Y-89364660D01*
X122672381Y-89364660D02*
X122660476Y-89340850D01*
X122660476Y-89340850D02*
X122648572Y-89293231D01*
X122648572Y-89293231D02*
X122648572Y-89257517D01*
X122648572Y-89257517D02*
X122660476Y-89209898D01*
X122660476Y-89209898D02*
X122672381Y-89186089D01*
X122672381Y-89186089D02*
X122696191Y-89162279D01*
X122696191Y-89162279D02*
X122731905Y-89150374D01*
X122731905Y-89150374D02*
X122755714Y-89150374D01*
X122755714Y-89150374D02*
X122791429Y-89162279D01*
X122791429Y-89162279D02*
X122803333Y-89174184D01*
X123017619Y-89150374D02*
X122970000Y-89150374D01*
X122970000Y-89150374D02*
X122946191Y-89162279D01*
X122946191Y-89162279D02*
X122934286Y-89174184D01*
X122934286Y-89174184D02*
X122910476Y-89209898D01*
X122910476Y-89209898D02*
X122898572Y-89257517D01*
X122898572Y-89257517D02*
X122898572Y-89352755D01*
X122898572Y-89352755D02*
X122910476Y-89376565D01*
X122910476Y-89376565D02*
X122922381Y-89388470D01*
X122922381Y-89388470D02*
X122946191Y-89400374D01*
X122946191Y-89400374D02*
X122993810Y-89400374D01*
X122993810Y-89400374D02*
X123017619Y-89388470D01*
X123017619Y-89388470D02*
X123029524Y-89376565D01*
X123029524Y-89376565D02*
X123041429Y-89352755D01*
X123041429Y-89352755D02*
X123041429Y-89293231D01*
X123041429Y-89293231D02*
X123029524Y-89269422D01*
X123029524Y-89269422D02*
X123017619Y-89257517D01*
X123017619Y-89257517D02*
X122993810Y-89245612D01*
X122993810Y-89245612D02*
X122946191Y-89245612D01*
X122946191Y-89245612D02*
X122922381Y-89257517D01*
X122922381Y-89257517D02*
X122910476Y-89269422D01*
X122910476Y-89269422D02*
X122898572Y-89293231D01*
D12*
X128014505Y-87073019D02*
X128014505Y-86073019D01*
X128014505Y-86073019D02*
X128252600Y-86073019D01*
X128252600Y-86073019D02*
X128395457Y-86120638D01*
X128395457Y-86120638D02*
X128490695Y-86215876D01*
X128490695Y-86215876D02*
X128538314Y-86311114D01*
X128538314Y-86311114D02*
X128585933Y-86501590D01*
X128585933Y-86501590D02*
X128585933Y-86644447D01*
X128585933Y-86644447D02*
X128538314Y-86834923D01*
X128538314Y-86834923D02*
X128490695Y-86930161D01*
X128490695Y-86930161D02*
X128395457Y-87025400D01*
X128395457Y-87025400D02*
X128252600Y-87073019D01*
X128252600Y-87073019D02*
X128014505Y-87073019D01*
X129538314Y-87073019D02*
X128966886Y-87073019D01*
X129252600Y-87073019D02*
X129252600Y-86073019D01*
X129252600Y-86073019D02*
X129157362Y-86215876D01*
X129157362Y-86215876D02*
X129062124Y-86311114D01*
X129062124Y-86311114D02*
X128966886Y-86358733D01*
D10*
X149524120Y-87190539D02*
X149405073Y-87273872D01*
X149524120Y-87333396D02*
X149274120Y-87333396D01*
X149274120Y-87333396D02*
X149274120Y-87238158D01*
X149274120Y-87238158D02*
X149286025Y-87214348D01*
X149286025Y-87214348D02*
X149297930Y-87202443D01*
X149297930Y-87202443D02*
X149321739Y-87190539D01*
X149321739Y-87190539D02*
X149357454Y-87190539D01*
X149357454Y-87190539D02*
X149381263Y-87202443D01*
X149381263Y-87202443D02*
X149393168Y-87214348D01*
X149393168Y-87214348D02*
X149405073Y-87238158D01*
X149405073Y-87238158D02*
X149405073Y-87333396D01*
X149524120Y-86952443D02*
X149524120Y-87095300D01*
X149524120Y-87023872D02*
X149274120Y-87023872D01*
X149274120Y-87023872D02*
X149309835Y-87047681D01*
X149309835Y-87047681D02*
X149333644Y-87071491D01*
X149333644Y-87071491D02*
X149345549Y-87095300D01*
X149524120Y-86714348D02*
X149524120Y-86857205D01*
X149524120Y-86785777D02*
X149274120Y-86785777D01*
X149274120Y-86785777D02*
X149309835Y-86809586D01*
X149309835Y-86809586D02*
X149333644Y-86833396D01*
X149333644Y-86833396D02*
X149345549Y-86857205D01*
D19*
X129806617Y-84607101D02*
X130406617Y-84607101D01*
X129806617Y-84907101D02*
X129806617Y-84607101D01*
X130406617Y-84607101D02*
X130406617Y-84907101D01*
X130406617Y-84907101D02*
X129806617Y-84907101D01*
X162900600Y-115443562D02*
X163225600Y-115118562D01*
X162900600Y-118018562D02*
X162900600Y-115443562D01*
X163225600Y-115118562D02*
X164200600Y-115118562D01*
X164200600Y-115118562D02*
X164200600Y-118018562D01*
X164200600Y-118018562D02*
X162900600Y-118018562D01*
X158695680Y-95595353D02*
X157695680Y-94595353D01*
X164695680Y-95595353D02*
X158695680Y-95595353D01*
X157695680Y-94595353D02*
X157695680Y-88595353D01*
X157695680Y-88595353D02*
X164695680Y-88595353D01*
X164695680Y-88595353D02*
X164695680Y-95595353D01*
X134990617Y-85118934D02*
X133990617Y-85118934D01*
X134990617Y-84618934D02*
X134990617Y-85118934D01*
X133990617Y-85118934D02*
X133990617Y-84618934D01*
X133990617Y-84618934D02*
X134990617Y-84618934D01*
X168963200Y-114854000D02*
X168963200Y-114254000D01*
X169263200Y-114854000D02*
X168963200Y-114854000D01*
X168963200Y-114254000D02*
X169263200Y-114254000D01*
X169263200Y-114254000D02*
X169263200Y-114854000D01*
X170050600Y-114254000D02*
X170050600Y-114854000D01*
X169750600Y-114254000D02*
X170050600Y-114254000D01*
X170050600Y-114854000D02*
X169750600Y-114854000D01*
X169750600Y-114854000D02*
X169750600Y-114254000D01*
X168524200Y-95222200D02*
X167924200Y-95222200D01*
X168524200Y-94922200D02*
X168524200Y-95222200D01*
X167924200Y-95222200D02*
X167924200Y-94922200D01*
X167924200Y-94922200D02*
X168524200Y-94922200D01*
X162402814Y-81326323D02*
X162402814Y-83126323D01*
X161002814Y-81326323D02*
X162402814Y-81326323D01*
X162052814Y-81926323D02*
X161352814Y-81926323D01*
X161702814Y-81926323D02*
X161702814Y-81726323D01*
X161702814Y-81926323D02*
X162052814Y-82426323D01*
X162052814Y-82426323D02*
X161352814Y-82426323D01*
X161702814Y-82426323D02*
X161702814Y-82676323D01*
X161352814Y-82426323D02*
X161702814Y-81926323D01*
X162402814Y-83126323D02*
X161002814Y-83126323D01*
X161002814Y-83126323D02*
X161002814Y-81326323D01*
X161335407Y-117932482D02*
X161335407Y-118532482D01*
X161035407Y-117932482D02*
X161335407Y-117932482D01*
X161335407Y-118532482D02*
X161035407Y-118532482D01*
X161035407Y-118532482D02*
X161035407Y-117932482D01*
X166133024Y-85548716D02*
X166133024Y-84948716D01*
X166433024Y-85548716D02*
X166133024Y-85548716D01*
X166133024Y-84948716D02*
X166433024Y-84948716D01*
X166433024Y-84948716D02*
X166433024Y-85548716D01*
X162207100Y-98033897D02*
X162207100Y-97433897D01*
X162507100Y-98033897D02*
X162207100Y-98033897D01*
X162207100Y-97433897D02*
X162507100Y-97433897D01*
X162507100Y-97433897D02*
X162507100Y-98033897D01*
X132700800Y-81189400D02*
X132700800Y-79389400D01*
X134100800Y-81189400D02*
X132700800Y-81189400D01*
X133050800Y-80589400D02*
X133750800Y-80589400D01*
X133400800Y-80589400D02*
X133400800Y-80789400D01*
X133400800Y-80589400D02*
X133050800Y-80089400D01*
X133050800Y-80089400D02*
X133750800Y-80089400D01*
X133400800Y-80089400D02*
X133400800Y-79839400D01*
X133750800Y-80089400D02*
X133400800Y-80589400D01*
X132700800Y-79389400D02*
X134100800Y-79389400D01*
X134100800Y-79389400D02*
X134100800Y-81189400D01*
X138404800Y-78822600D02*
X138404800Y-80022600D01*
X138404800Y-80022600D02*
X141604800Y-80022600D01*
X138804800Y-78422600D02*
X138404800Y-78822600D01*
X141604800Y-78422600D02*
X138804800Y-78422600D01*
X141604800Y-80022600D02*
X141604800Y-78422600D01*
X157756304Y-87105125D02*
X157756304Y-86505125D01*
X158056304Y-87105125D02*
X157756304Y-87105125D01*
X157756304Y-86505125D02*
X158056304Y-86505125D01*
X158056304Y-86505125D02*
X158056304Y-87105125D01*
X123424700Y-87236400D02*
X123424700Y-88836400D01*
X122599700Y-87236400D02*
X123424700Y-87236400D01*
X123424700Y-88836400D02*
X122599700Y-88836400D01*
X122599700Y-88836400D02*
X122599700Y-87236400D01*
X133830200Y-86415600D02*
X133830200Y-87015600D01*
X133530200Y-86415600D02*
X133830200Y-86415600D01*
X133830200Y-87015600D02*
X133530200Y-87015600D01*
X133530200Y-87015600D02*
X133530200Y-86415600D01*
X124174500Y-88836400D02*
X124174500Y-87236400D01*
X124999500Y-88836400D02*
X124174500Y-88836400D01*
X124174500Y-87236400D02*
X124999500Y-87236400D01*
X124999500Y-87236400D02*
X124999500Y-88836400D01*
X164946362Y-79718927D02*
X164946362Y-80318927D01*
X164646362Y-79718927D02*
X164946362Y-79718927D01*
X164946362Y-80318927D02*
X164646362Y-80318927D01*
X164646362Y-80318927D02*
X164646362Y-79718927D01*
X158202939Y-97489723D02*
X158202939Y-96889723D01*
X158502939Y-97489723D02*
X158202939Y-97489723D01*
X158202939Y-96889723D02*
X158502939Y-96889723D01*
X158502939Y-96889723D02*
X158502939Y-97489723D01*
X152660910Y-93298611D02*
X152660910Y-92698611D01*
X152960910Y-93298611D02*
X152660910Y-93298611D01*
X152660910Y-92698611D02*
X152960910Y-92698611D01*
X152960910Y-92698611D02*
X152960910Y-93298611D01*
X149769674Y-98896320D02*
X148069674Y-98896320D01*
X150269674Y-99396320D02*
X149769674Y-98896320D01*
X150269674Y-100246320D02*
X150269674Y-99396320D01*
X150269674Y-100246320D02*
X148069674Y-100246320D01*
X148069674Y-100246320D02*
X148069674Y-98896320D01*
X148077200Y-90066000D02*
X147477200Y-90066000D01*
X148077200Y-89766000D02*
X148077200Y-90066000D01*
X147477200Y-90066000D02*
X147477200Y-89766000D01*
X147477200Y-89766000D02*
X148077200Y-89766000D01*
X151426885Y-87223476D02*
X152026885Y-87223476D01*
X151426885Y-87523476D02*
X151426885Y-87223476D01*
X152026885Y-87223476D02*
X152026885Y-87523476D01*
X152026885Y-87523476D02*
X151426885Y-87523476D01*
X162900600Y-118864600D02*
X163225600Y-118539600D01*
X162900600Y-121439600D02*
X162900600Y-118864600D01*
X163225600Y-118539600D02*
X164200600Y-118539600D01*
X164200600Y-118539600D02*
X164200600Y-121439600D01*
X164200600Y-121439600D02*
X162900600Y-121439600D01*
X141081000Y-85592600D02*
X141081000Y-88092600D01*
X139081000Y-85592600D02*
X141081000Y-85592600D01*
X141081000Y-88092600D02*
X139081000Y-88092600D01*
X139081000Y-88092600D02*
X139081000Y-85592600D01*
X162234600Y-85092400D02*
X162834600Y-85092400D01*
X162234600Y-85392400D02*
X162234600Y-85092400D01*
X162834600Y-85092400D02*
X162834600Y-85392400D01*
X162834600Y-85392400D02*
X162234600Y-85392400D01*
X155640853Y-91191188D02*
X156240853Y-91191188D01*
X155640853Y-91491188D02*
X155640853Y-91191188D01*
X156240853Y-91191188D02*
X156240853Y-91491188D01*
X156240853Y-91491188D02*
X155640853Y-91491188D01*
X132999200Y-87708600D02*
X133599200Y-87708600D01*
X132999200Y-88008600D02*
X132999200Y-87708600D01*
X133599200Y-87708600D02*
X133599200Y-88008600D01*
X133599200Y-88008600D02*
X132999200Y-88008600D01*
X153494600Y-97531200D02*
X153494600Y-96931200D01*
X153794600Y-97531200D02*
X153494600Y-97531200D01*
X153494600Y-96931200D02*
X153794600Y-96931200D01*
X153794600Y-96931200D02*
X153794600Y-97531200D01*
X167732546Y-79702900D02*
X167732546Y-80302900D01*
X167432546Y-79702900D02*
X167732546Y-79702900D01*
X167732546Y-80302900D02*
X167432546Y-80302900D01*
X167432546Y-80302900D02*
X167432546Y-79702900D01*
X144139674Y-98896320D02*
X142439674Y-98896320D01*
X144639674Y-99396320D02*
X144139674Y-98896320D01*
X144639674Y-100246320D02*
X144639674Y-99396320D01*
X144639674Y-100246320D02*
X142439674Y-100246320D01*
X142439674Y-100246320D02*
X142439674Y-98896320D01*
X130406617Y-85669101D02*
X129806617Y-85669101D01*
X130406617Y-85369101D02*
X130406617Y-85669101D01*
X129806617Y-85669101D02*
X129806617Y-85369101D01*
X129806617Y-85369101D02*
X130406617Y-85369101D01*
X136185400Y-83728400D02*
X138185400Y-83728400D01*
X136185400Y-84978400D02*
X136185400Y-83728400D01*
X138185400Y-83728400D02*
X138185400Y-84978400D01*
X138185400Y-84978400D02*
X136185400Y-84978400D01*
X140777800Y-82081600D02*
X138977800Y-82081600D01*
X140777800Y-80681600D02*
X140777800Y-82081600D01*
X140177800Y-81731600D02*
X140177800Y-81031600D01*
X140177800Y-81381600D02*
X140377800Y-81381600D01*
X140177800Y-81381600D02*
X139677800Y-81731600D01*
X139677800Y-81731600D02*
X139677800Y-81031600D01*
X139677800Y-81381600D02*
X139427800Y-81381600D01*
X139677800Y-81031600D02*
X140177800Y-81381600D01*
X138977800Y-82081600D02*
X138977800Y-80681600D01*
X138977800Y-80681600D02*
X140777800Y-80681600D01*
X141345674Y-98869320D02*
X139645674Y-98869320D01*
X141845674Y-99369320D02*
X141345674Y-98869320D01*
X141845674Y-100219320D02*
X141845674Y-99369320D01*
X141845674Y-100219320D02*
X139645674Y-100219320D01*
X139645674Y-100219320D02*
X139645674Y-98869320D01*
X131406387Y-86489101D02*
X131406387Y-87089101D01*
X131106387Y-86489101D02*
X131406387Y-86489101D01*
X131406387Y-87089101D02*
X131106387Y-87089101D01*
X131106387Y-87089101D02*
X131106387Y-86489101D01*
X140020200Y-90821000D02*
X140020200Y-92821000D01*
X138770200Y-90821000D02*
X140020200Y-90821000D01*
X140020200Y-92821000D02*
X138770200Y-92821000D01*
X138770200Y-92821000D02*
X138770200Y-90821000D01*
X167473180Y-90489353D02*
X166873180Y-90489353D01*
X167473180Y-90189353D02*
X167473180Y-90489353D01*
X166873180Y-90489353D02*
X166873180Y-90189353D01*
X166873180Y-90189353D02*
X167473180Y-90189353D01*
X155640853Y-90443353D02*
X156240853Y-90443353D01*
X155640853Y-90743353D02*
X155640853Y-90443353D01*
X156240853Y-90443353D02*
X156240853Y-90743353D01*
X156240853Y-90743353D02*
X155640853Y-90743353D01*
X143868000Y-81326000D02*
X143868000Y-80726000D01*
X144168000Y-81326000D02*
X143868000Y-81326000D01*
X143868000Y-80726000D02*
X144168000Y-80726000D01*
X144168000Y-80726000D02*
X144168000Y-81326000D01*
D20*
X137570800Y-89393400D02*
X137570800Y-86393400D01*
X137570800Y-89393400D02*
X134570800Y-89393400D01*
X137570800Y-86393400D02*
X134570800Y-86393400D01*
X134570800Y-89393400D02*
X134570800Y-86393400D01*
D21*
X138565800Y-89093400D02*
G75*
G03*
X138565800Y-89093400I-100000J0D01*
G01*
D19*
X133075057Y-83980021D02*
X133075057Y-83380021D01*
X133375057Y-83980021D02*
X133075057Y-83980021D01*
X133075057Y-83380021D02*
X133375057Y-83380021D01*
X133375057Y-83380021D02*
X133375057Y-83980021D01*
X132742800Y-87015600D02*
X132742800Y-86415600D01*
X133042800Y-87015600D02*
X132742800Y-87015600D01*
X132742800Y-86415600D02*
X133042800Y-86415600D01*
X133042800Y-86415600D02*
X133042800Y-87015600D01*
X168676600Y-94063800D02*
X167576600Y-94063800D01*
X169176600Y-93563800D02*
X168676600Y-94063800D01*
X169176600Y-93563800D02*
X169176600Y-91063800D01*
X167576600Y-91063800D02*
X167576600Y-94063800D01*
X169176600Y-91063800D02*
X167576600Y-91063800D01*
X167431248Y-85563783D02*
X167431248Y-84963783D01*
X167731248Y-85563783D02*
X167431248Y-85563783D01*
X167431248Y-84963783D02*
X167731248Y-84963783D01*
X167731248Y-84963783D02*
X167731248Y-85563783D01*
X166406061Y-79722188D02*
X166406061Y-80322188D01*
X166106061Y-79722188D02*
X166406061Y-79722188D01*
X166406061Y-80322188D02*
X166106061Y-80322188D01*
X166106061Y-80322188D02*
X166106061Y-79722188D01*
X166907409Y-120846962D02*
X166307409Y-120846962D01*
X166907409Y-120546962D02*
X166907409Y-120846962D01*
X166307409Y-120846962D02*
X166307409Y-120546962D01*
X166307409Y-120546962D02*
X166907409Y-120546962D01*
X155637393Y-89681353D02*
X156237393Y-89681353D01*
X155637393Y-89981353D02*
X155637393Y-89681353D01*
X156237393Y-89681353D02*
X156237393Y-89981353D01*
X156237393Y-89981353D02*
X155637393Y-89981353D01*
X146933674Y-98896320D02*
X145233674Y-98896320D01*
X147433674Y-99396320D02*
X146933674Y-98896320D01*
X147433674Y-100246320D02*
X147433674Y-99396320D01*
X147433674Y-100246320D02*
X145233674Y-100246320D01*
X145233674Y-100246320D02*
X145233674Y-98896320D01*
X176361600Y-97800800D02*
X175861600Y-98300800D01*
X176361600Y-94300800D02*
X176361600Y-97800800D01*
X175861600Y-98300800D02*
X174361600Y-98300800D01*
X174361600Y-98300800D02*
X174361600Y-94300800D01*
X174361600Y-94300800D02*
X176361600Y-94300800D01*
X170177600Y-91419400D02*
X170177600Y-92019400D01*
X169877600Y-91419400D02*
X170177600Y-91419400D01*
X170177600Y-92019400D02*
X169877600Y-92019400D01*
X169877600Y-92019400D02*
X169877600Y-91419400D01*
X164637763Y-85543797D02*
X164637763Y-84943797D01*
X164937763Y-85543797D02*
X164637763Y-85543797D01*
X164637763Y-84943797D02*
X164937763Y-84943797D01*
X164937763Y-84943797D02*
X164937763Y-85543797D01*
X156987453Y-87106612D02*
X156987453Y-86506612D01*
X157287453Y-87106612D02*
X156987453Y-87106612D01*
X156987453Y-86506612D02*
X157287453Y-86506612D01*
X157287453Y-86506612D02*
X157287453Y-87106612D01*
X147818546Y-87329825D02*
X147818546Y-86729825D01*
X148118546Y-87329825D02*
X147818546Y-87329825D01*
X147818546Y-86729825D02*
X148118546Y-86729825D01*
X148118546Y-86729825D02*
X148118546Y-87329825D01*
X166334012Y-83300538D02*
X168034012Y-83300538D01*
X165834012Y-82800538D02*
X166334012Y-83300538D01*
X165834012Y-81950538D02*
X165834012Y-82800538D01*
X165834012Y-81950538D02*
X168034012Y-81950538D01*
X168034012Y-81950538D02*
X168034012Y-83300538D01*
X156106000Y-80726000D02*
X156106000Y-81326000D01*
X155806000Y-80726000D02*
X156106000Y-80726000D01*
X156106000Y-81326000D02*
X155806000Y-81326000D01*
X155806000Y-81326000D02*
X155806000Y-80726000D01*
X166030287Y-115879600D02*
X166030287Y-116479600D01*
X165730287Y-115879600D02*
X166030287Y-115879600D01*
X166030287Y-116479600D02*
X165730287Y-116479600D01*
X165730287Y-116479600D02*
X165730287Y-115879600D01*
X161035407Y-120797600D02*
X161035407Y-120197600D01*
X161335407Y-120797600D02*
X161035407Y-120797600D01*
X161035407Y-120197600D02*
X161335407Y-120197600D01*
X161335407Y-120197600D02*
X161335407Y-120797600D01*
X163540012Y-83300538D02*
X165240012Y-83300538D01*
X163040012Y-82800538D02*
X163540012Y-83300538D01*
X163040012Y-81950538D02*
X163040012Y-82800538D01*
X163040012Y-81950538D02*
X165240012Y-81950538D01*
X165240012Y-81950538D02*
X165240012Y-83300538D01*
X137198000Y-79019600D02*
X137198000Y-82219600D01*
X135598000Y-79019600D02*
X137198000Y-79019600D01*
X137198000Y-82219600D02*
X135598000Y-82219600D01*
X135598000Y-82219600D02*
X135598000Y-79019600D01*
X149375546Y-89523000D02*
X149000546Y-89148000D01*
X151000546Y-89523000D02*
X149375546Y-89523000D01*
X149000546Y-89148000D02*
X149000546Y-88023000D01*
X149000546Y-88023000D02*
X151000546Y-88023000D01*
X151000546Y-88023000D02*
X151000546Y-89523000D01*
X122545000Y-89816800D02*
X123145000Y-89816800D01*
X122545000Y-90116800D02*
X122545000Y-89816800D01*
X123145000Y-89816800D02*
X123145000Y-90116800D01*
X123145000Y-90116800D02*
X122545000Y-90116800D01*
X127852600Y-87768200D02*
X129652600Y-87768200D01*
X127852600Y-89168200D02*
X127852600Y-87768200D01*
X128452600Y-88118200D02*
X128452600Y-88818200D01*
X128452600Y-88468200D02*
X128252600Y-88468200D01*
X128452600Y-88468200D02*
X128952600Y-88118200D01*
X128952600Y-88118200D02*
X128952600Y-88818200D01*
X128952600Y-88468200D02*
X129202600Y-88468200D01*
X128952600Y-88818200D02*
X128452600Y-88468200D01*
X129652600Y-87768200D02*
X129652600Y-89168200D01*
X129652600Y-89168200D02*
X127852600Y-89168200D01*
X148880546Y-86729825D02*
X148880546Y-87329825D01*
X148580546Y-86729825D02*
X148880546Y-86729825D01*
X148880546Y-87329825D02*
X148580546Y-87329825D01*
X148580546Y-87329825D02*
X148580546Y-86729825D01*
M02*
