G04 EAGLE Gerber RS-274X export*
G75*
%MOMM*%
%FSLAX34Y34*%
%LPD*%
%INTop Copper*%
%IPPOS*%
%AMOC8*
5,1,8,0,0,1.08239X$1,22.5*%
G01*
G04 Define Apertures*
%ADD10C,1.524000*%
%ADD11R,1.270000X0.635000*%
%ADD12C,0.500000*%
G36*
X98267Y-61970D02*
X97970Y-62031D01*
X-97182Y-62031D01*
X-97456Y-61979D01*
X-97712Y-61816D01*
X-97883Y-61566D01*
X-97944Y-61269D01*
X-97944Y54285D01*
X-97888Y54571D01*
X-97720Y54824D01*
X-84118Y68426D01*
X-83877Y68589D01*
X-83580Y68649D01*
X84368Y68649D01*
X84654Y68594D01*
X84907Y68426D01*
X98509Y54824D01*
X98671Y54583D01*
X98732Y54285D01*
X98732Y19851D01*
X98685Y19588D01*
X98526Y19330D01*
X98278Y19154D01*
X97982Y19089D01*
X97684Y19145D01*
X97431Y19312D01*
X96292Y20452D01*
X92931Y21844D01*
X74053Y21844D01*
X73600Y21656D01*
X73320Y21598D01*
X73022Y21654D01*
X72769Y21821D01*
X71557Y23034D01*
X71394Y23275D01*
X71334Y23572D01*
X71334Y41037D01*
X57547Y54824D01*
X5953Y54824D01*
X-4794Y44077D01*
X-4794Y39253D01*
X-4812Y39087D01*
X-4936Y38810D01*
X-5158Y38603D01*
X-5443Y38500D01*
X-8696Y38012D01*
X-8987Y37944D01*
X-13677Y36464D01*
X-13990Y36333D01*
X-18695Y33856D01*
X-18842Y33770D01*
X-23055Y31045D01*
X-23274Y30879D01*
X-24770Y29570D01*
X-24815Y29534D01*
X-25367Y29120D01*
X-25408Y29085D01*
X-25974Y28519D01*
X-26011Y28484D01*
X-27234Y27414D01*
X-27419Y27228D01*
X-28404Y26091D01*
X-28441Y26051D01*
X-29085Y25408D01*
X-29121Y25367D01*
X-29665Y24640D01*
X-29699Y24598D01*
X-30634Y23518D01*
X-30794Y23305D01*
X-31611Y22043D01*
X-31641Y22000D01*
X-32237Y21204D01*
X-32266Y21158D01*
X-32700Y20363D01*
X-32729Y20314D01*
X-33516Y19099D01*
X-33638Y18880D01*
X-34464Y17136D01*
X-34484Y17097D01*
X-34759Y16594D01*
X-34781Y16544D01*
X-34907Y16208D01*
X-34932Y16148D01*
X-35865Y14178D01*
X-35968Y13910D01*
X-37452Y8964D01*
X-37511Y8699D01*
X-38254Y3746D01*
X-38273Y3553D01*
X-38521Y-1649D01*
X-38514Y-1930D01*
X-38020Y-6865D01*
X-37949Y-7223D01*
X-36470Y-12154D01*
X-36350Y-12450D01*
X-36196Y-12689D01*
X-36000Y-12895D01*
X-35846Y-13006D01*
X-35578Y-13358D01*
X-34666Y-15802D01*
X-34644Y-15851D01*
X-32594Y-19605D01*
X-32503Y-20016D01*
X-32520Y-20300D01*
X-32484Y-20582D01*
X-32400Y-20842D01*
X-32182Y-21213D01*
X-28976Y-25406D01*
X-28810Y-25596D01*
X-25097Y-29309D01*
X-24893Y-29485D01*
X-20935Y-32454D01*
X-20717Y-32595D01*
X-16266Y-35068D01*
X-16000Y-35190D01*
X-11296Y-36923D01*
X-11100Y-36983D01*
X-6147Y-38222D01*
X-5874Y-38269D01*
X-4210Y-38436D01*
X-4011Y-38483D01*
X-3756Y-38646D01*
X-3584Y-38897D01*
X-3524Y-39194D01*
X-3524Y-46617D01*
X4683Y-54824D01*
X37227Y-54824D01*
X57364Y-34687D01*
X57364Y-24842D01*
X57420Y-24556D01*
X57587Y-24304D01*
X64944Y-16947D01*
X65185Y-16784D01*
X65482Y-16724D01*
X67132Y-16724D01*
X67412Y-16777D01*
X67667Y-16943D01*
X67836Y-17194D01*
X68120Y-17880D01*
X70692Y-20452D01*
X74053Y-21844D01*
X92931Y-21844D01*
X96292Y-20452D01*
X97431Y-19312D01*
X97650Y-19159D01*
X97946Y-19090D01*
X98245Y-19140D01*
X98500Y-19304D01*
X98671Y-19554D01*
X98732Y-19851D01*
X98732Y-61269D01*
X98681Y-61543D01*
X98517Y-61799D01*
X98267Y-61970D01*
G37*
G36*
X33875Y-46716D02*
X33578Y-46776D01*
X8332Y-46776D01*
X8046Y-46720D01*
X7794Y-46553D01*
X4747Y-43506D01*
X4584Y-43265D01*
X4524Y-42968D01*
X4524Y-39194D01*
X4542Y-39027D01*
X4666Y-38751D01*
X4888Y-38544D01*
X5173Y-38440D01*
X9696Y-37762D01*
X9987Y-37694D01*
X11981Y-37065D01*
X12048Y-37047D01*
X13802Y-36665D01*
X13854Y-36650D01*
X18557Y-34896D01*
X18606Y-34873D01*
X23011Y-32468D01*
X23057Y-32439D01*
X27075Y-29431D01*
X27116Y-29395D01*
X30665Y-25846D01*
X30701Y-25805D01*
X33709Y-21787D01*
X33738Y-21741D01*
X36143Y-17336D01*
X36166Y-17287D01*
X37920Y-12584D01*
X37935Y-12532D01*
X39002Y-7628D01*
X39010Y-7574D01*
X39369Y-2554D01*
X39370Y-2526D01*
X39370Y-1288D01*
X39371Y-1252D01*
X39521Y1899D01*
X39514Y2180D01*
X39020Y7115D01*
X38949Y7473D01*
X37470Y12404D01*
X37350Y12700D01*
X37196Y12939D01*
X36987Y13159D01*
X36826Y13418D01*
X35936Y15802D01*
X35914Y15851D01*
X33608Y20075D01*
X33516Y20486D01*
X33520Y20550D01*
X33484Y20832D01*
X33400Y21092D01*
X33182Y21463D01*
X29976Y25656D01*
X29810Y25846D01*
X26097Y29559D01*
X25893Y29735D01*
X21935Y32704D01*
X21717Y32845D01*
X17266Y35318D01*
X17000Y35440D01*
X12296Y37173D01*
X12100Y37233D01*
X7147Y38472D01*
X6874Y38519D01*
X3940Y38813D01*
X3741Y38860D01*
X3486Y39023D01*
X3314Y39274D01*
X3254Y39571D01*
X3254Y40428D01*
X3310Y40714D01*
X3477Y40966D01*
X9064Y46553D01*
X9305Y46716D01*
X9602Y46776D01*
X53898Y46776D01*
X54184Y46720D01*
X54436Y46553D01*
X63063Y37926D01*
X63226Y37685D01*
X63286Y37388D01*
X63286Y19923D01*
X66943Y16267D01*
X67103Y16031D01*
X67166Y15734D01*
X67108Y15436D01*
X66728Y14519D01*
X66728Y10881D01*
X68120Y7520D01*
X70692Y4948D01*
X74053Y3556D01*
X92931Y3556D01*
X96292Y4948D01*
X97431Y6088D01*
X97650Y6241D01*
X97946Y6310D01*
X98245Y6260D01*
X98500Y6096D01*
X98671Y5846D01*
X98732Y5549D01*
X98732Y-5549D01*
X98685Y-5812D01*
X98526Y-6070D01*
X98278Y-6246D01*
X97982Y-6311D01*
X97684Y-6255D01*
X97431Y-6088D01*
X96292Y-4948D01*
X92931Y-3556D01*
X74053Y-3556D01*
X70692Y-4948D01*
X68120Y-7520D01*
X67836Y-8206D01*
X67679Y-8444D01*
X67429Y-8616D01*
X67132Y-8676D01*
X61833Y-8676D01*
X49316Y-21193D01*
X49316Y-31038D01*
X49260Y-31324D01*
X49093Y-31576D01*
X34116Y-46553D01*
X33875Y-46716D01*
G37*
G36*
X32000Y20500D02*
X18000Y19000D01*
X12000Y18750D01*
X3500Y18500D01*
X-5000Y18750D01*
X-10000Y19000D01*
X-14750Y19500D01*
X-24750Y20500D01*
X-27250Y17000D01*
X-29250Y13250D01*
X-30750Y9250D01*
X-31500Y5000D01*
X-32000Y750D01*
X-31750Y-3500D01*
X-12500Y-1750D01*
X-5000Y-1750D01*
X7250Y-1500D01*
X26500Y-2250D01*
X27000Y-5000D01*
X26750Y-7750D01*
X26250Y-10250D01*
X25250Y-12750D01*
X15000Y-13250D01*
X5000Y-13750D01*
X-15000Y-13250D01*
X-35000Y-11750D01*
X-36500Y-6750D01*
X-37000Y-1750D01*
X-36750Y3500D01*
X-36000Y8500D01*
X-34500Y13500D01*
X-32250Y18250D01*
X-29500Y22500D01*
X-26250Y26250D01*
X-22250Y29750D01*
X-18000Y32500D01*
X-13250Y35000D01*
X-8500Y36500D01*
X-3500Y37250D01*
X1750Y37500D01*
X6750Y37000D01*
X11750Y35750D01*
X16500Y34000D01*
X21000Y31500D01*
X25000Y28500D01*
X28750Y24750D01*
X32000Y20500D01*
G37*
G36*
X32000Y20500D02*
X18000Y19000D01*
X12000Y18750D01*
X3500Y18500D01*
X-5000Y18750D01*
X-10000Y19000D01*
X-14750Y19500D01*
X-24750Y20500D01*
X-27250Y17000D01*
X-29250Y13250D01*
X-30750Y9250D01*
X-31500Y5000D01*
X-32000Y750D01*
X-31750Y-3500D01*
X-12500Y-1750D01*
X-5000Y-1750D01*
X7250Y-1500D01*
X26500Y-2250D01*
X27000Y-5000D01*
X26750Y-7750D01*
X26250Y-10250D01*
X25250Y-12750D01*
X15000Y-13250D01*
X5000Y-13750D01*
X-15000Y-13250D01*
X-35000Y-11750D01*
X-36500Y-6750D01*
X-37000Y-1750D01*
X-36750Y3500D01*
X-36000Y8500D01*
X-34500Y13500D01*
X-32250Y18250D01*
X-29500Y22500D01*
X-26250Y26250D01*
X-22250Y29750D01*
X-18000Y32500D01*
X-13250Y35000D01*
X-8500Y36500D01*
X-3500Y37250D01*
X1750Y37500D01*
X6750Y37000D01*
X11750Y35750D01*
X16500Y34000D01*
X21000Y31500D01*
X25000Y28500D01*
X28750Y24750D01*
X32000Y20500D01*
G37*
G36*
X-31000Y-20250D02*
X-17000Y-18750D01*
X-11000Y-18500D01*
X-2500Y-18250D01*
X6000Y-18500D01*
X11000Y-18750D01*
X15750Y-19250D01*
X25750Y-20250D01*
X28250Y-16750D01*
X30250Y-13000D01*
X31750Y-9000D01*
X32500Y-4750D01*
X33000Y-500D01*
X32750Y3750D01*
X13500Y2000D01*
X6000Y2000D01*
X-6250Y1750D01*
X-25500Y2500D01*
X-26000Y5250D01*
X-25750Y8000D01*
X-25250Y10500D01*
X-24250Y13000D01*
X-14000Y13500D01*
X-4000Y14000D01*
X16000Y13500D01*
X36000Y12000D01*
X37500Y7000D01*
X38000Y2000D01*
X37750Y-3250D01*
X37000Y-8250D01*
X35500Y-13250D01*
X33250Y-18000D01*
X30500Y-22250D01*
X27250Y-26000D01*
X23250Y-29500D01*
X19000Y-32250D01*
X14250Y-34750D01*
X9500Y-36250D01*
X4500Y-37000D01*
X-750Y-37250D01*
X-5750Y-36750D01*
X-10750Y-35500D01*
X-15500Y-33750D01*
X-20000Y-31250D01*
X-24000Y-28250D01*
X-27750Y-24500D01*
X-31000Y-20250D01*
G37*
G36*
X-31000Y-20250D02*
X-17000Y-18750D01*
X-11000Y-18500D01*
X-2500Y-18250D01*
X6000Y-18500D01*
X11000Y-18750D01*
X15750Y-19250D01*
X25750Y-20250D01*
X28250Y-16750D01*
X30250Y-13000D01*
X31750Y-9000D01*
X32500Y-4750D01*
X33000Y-500D01*
X32750Y3750D01*
X13500Y2000D01*
X6000Y2000D01*
X-6250Y1750D01*
X-25500Y2500D01*
X-26000Y5250D01*
X-25750Y8000D01*
X-25250Y10500D01*
X-24250Y13000D01*
X-14000Y13500D01*
X-4000Y14000D01*
X16000Y13500D01*
X36000Y12000D01*
X37500Y7000D01*
X38000Y2000D01*
X37750Y-3250D01*
X37000Y-8250D01*
X35500Y-13250D01*
X33250Y-18000D01*
X30500Y-22250D01*
X27250Y-26000D01*
X23250Y-29500D01*
X19000Y-32250D01*
X14250Y-34750D01*
X9500Y-36250D01*
X4500Y-37000D01*
X-750Y-37250D01*
X-5750Y-36750D01*
X-10750Y-35500D01*
X-15500Y-33750D01*
X-20000Y-31250D01*
X-24000Y-28250D01*
X-27750Y-24500D01*
X-31000Y-20250D01*
G37*
D10*
X91112Y-12700D02*
X75872Y-12700D01*
X75872Y12700D02*
X91112Y12700D01*
D11*
X-770Y28440D03*
X500Y-27440D03*
D12*
X500Y-44950D01*
X6350Y-50800D01*
X35560Y-50800D01*
X53340Y-33020D01*
X53340Y-22860D01*
X63500Y-12700D01*
X83492Y-12700D01*
X-770Y28440D02*
X-770Y42410D01*
X7620Y50800D01*
X55880Y50800D01*
X67310Y39370D01*
X67310Y21590D01*
X76200Y12700D01*
X83492Y12700D01*
M02*
