G04 EAGLE Gerber RS-274X export*
G75*
%MOMM*%
%FSLAX34Y34*%
%LPD*%
%INBottom Copper*%
%IPPOS*%
%AMOC8*
5,1,8,0,0,1.08239X$1,22.5*%
G01*
G04 Define Apertures*
%ADD10C,1.524000*%
G36*
X97207Y-61833D02*
X96232Y-62031D01*
X-95444Y-62031D01*
X-96345Y-61863D01*
X-97183Y-61326D01*
X-97746Y-60506D01*
X-97944Y-59531D01*
X-97944Y53565D01*
X-97761Y54504D01*
X-97211Y55333D01*
X-84627Y67917D01*
X-83835Y68451D01*
X-82860Y68649D01*
X83648Y68649D01*
X84586Y68467D01*
X85416Y67917D01*
X98000Y55333D01*
X98534Y54540D01*
X98732Y53565D01*
X98732Y23183D01*
X98571Y22300D01*
X98041Y21458D01*
X97225Y20888D01*
X96252Y20683D01*
X95275Y20873D01*
X92931Y21844D01*
X74053Y21844D01*
X70692Y20452D01*
X68120Y17880D01*
X66728Y14519D01*
X66728Y10881D01*
X68120Y7520D01*
X70692Y4948D01*
X74053Y3556D01*
X92931Y3556D01*
X95275Y4527D01*
X96152Y4716D01*
X97133Y4549D01*
X97971Y4013D01*
X98534Y3193D01*
X98732Y2217D01*
X98732Y-2217D01*
X98571Y-3100D01*
X98041Y-3942D01*
X97225Y-4512D01*
X96252Y-4717D01*
X95275Y-4527D01*
X92931Y-3556D01*
X74053Y-3556D01*
X70692Y-4948D01*
X68120Y-7520D01*
X66728Y-10881D01*
X66728Y-14519D01*
X68120Y-17880D01*
X70692Y-20452D01*
X74053Y-21844D01*
X92931Y-21844D01*
X95275Y-20873D01*
X96152Y-20684D01*
X97133Y-20851D01*
X97971Y-21387D01*
X98534Y-22208D01*
X98732Y-23183D01*
X98732Y-59531D01*
X98564Y-60432D01*
X98028Y-61270D01*
X97207Y-61833D01*
G37*
D10*
X91112Y-12700D02*
X75872Y-12700D01*
X75872Y12700D02*
X91112Y12700D01*
M02*
