G04 EAGLE Gerber RS-274X export*
G75*
%MOMM*%
%FSLAX34Y34*%
%LPD*%
%INSilkscreen Top*%
%IPPOS*%
%AMOC8*
5,1,8,0,0,1.08239X$1,22.5*%
G01*
G04 Define Apertures*
%ADD10C,0.152400*%
G36*
X65204Y-15722D02*
X52863Y-15722D01*
X52863Y-10528D01*
X52878Y-10024D01*
X52924Y-9549D01*
X53000Y-9103D01*
X53106Y-8687D01*
X53243Y-8299D01*
X53410Y-7942D01*
X53607Y-7613D01*
X53835Y-7314D01*
X54091Y-7047D01*
X54371Y-6816D01*
X54676Y-6620D01*
X55007Y-6460D01*
X55362Y-6335D01*
X55742Y-6246D01*
X56147Y-6193D01*
X56577Y-6175D01*
X57003Y-6193D01*
X57408Y-6246D01*
X57789Y-6336D01*
X58149Y-6461D01*
X58486Y-6622D01*
X58800Y-6818D01*
X59092Y-7050D01*
X59362Y-7318D01*
X59604Y-7617D01*
X59814Y-7941D01*
X59992Y-8290D01*
X60137Y-8666D01*
X60250Y-9067D01*
X60331Y-9493D01*
X60379Y-9945D01*
X60395Y-10423D01*
X60395Y-14049D01*
X65204Y-14049D01*
X65204Y-15722D01*
G37*
%LPC*%
G36*
X59073Y-14049D02*
X59073Y-10659D01*
X59063Y-10320D01*
X59034Y-10003D01*
X58986Y-9707D01*
X58918Y-9433D01*
X58831Y-9181D01*
X58724Y-8951D01*
X58598Y-8743D01*
X58453Y-8557D01*
X58289Y-8393D01*
X58105Y-8251D01*
X57901Y-8130D01*
X57679Y-8032D01*
X57437Y-7955D01*
X57175Y-7900D01*
X56894Y-7868D01*
X56594Y-7857D01*
X56305Y-7868D01*
X56034Y-7902D01*
X55782Y-7958D01*
X55548Y-8036D01*
X55333Y-8137D01*
X55137Y-8261D01*
X54960Y-8407D01*
X54801Y-8575D01*
X54661Y-8766D01*
X54539Y-8979D01*
X54437Y-9215D01*
X54353Y-9473D01*
X54287Y-9753D01*
X54240Y-10056D01*
X54212Y-10382D01*
X54203Y-10729D01*
X54203Y-14049D01*
X59073Y-14049D01*
G37*
%LPD*%
G36*
X65204Y-3858D02*
X63864Y-3858D01*
X63864Y-714D01*
X54370Y-714D01*
X56358Y-3499D01*
X54869Y-3499D01*
X52863Y-583D01*
X52863Y871D01*
X63864Y871D01*
X63864Y3876D01*
X65204Y3876D01*
X65204Y-3858D01*
G37*
G36*
X62138Y-25882D02*
X61867Y-24244D01*
X62114Y-24198D01*
X62347Y-24140D01*
X62566Y-24070D01*
X62771Y-23988D01*
X62962Y-23893D01*
X63140Y-23786D01*
X63303Y-23666D01*
X63452Y-23534D01*
X63586Y-23392D01*
X63701Y-23241D01*
X63799Y-23081D01*
X63879Y-22913D01*
X63941Y-22735D01*
X63986Y-22549D01*
X64013Y-22354D01*
X64021Y-22151D01*
X64012Y-21929D01*
X63982Y-21719D01*
X63933Y-21522D01*
X63865Y-21336D01*
X63777Y-21163D01*
X63669Y-21001D01*
X63542Y-20852D01*
X63395Y-20714D01*
X63230Y-20591D01*
X63046Y-20484D01*
X62844Y-20394D01*
X62623Y-20320D01*
X62385Y-20263D01*
X62128Y-20222D01*
X61853Y-20197D01*
X61560Y-20189D01*
X54229Y-20189D01*
X54229Y-22562D01*
X52863Y-22562D01*
X52863Y-18525D01*
X61525Y-18525D01*
X61962Y-18540D01*
X62375Y-18585D01*
X62764Y-18661D01*
X63129Y-18768D01*
X63470Y-18904D01*
X63787Y-19071D01*
X64081Y-19269D01*
X64350Y-19497D01*
X64591Y-19751D01*
X64800Y-20028D01*
X64977Y-20327D01*
X65122Y-20649D01*
X65234Y-20993D01*
X65315Y-21359D01*
X65363Y-21748D01*
X65379Y-22159D01*
X65366Y-22541D01*
X65328Y-22903D01*
X65265Y-23246D01*
X65176Y-23568D01*
X65063Y-23870D01*
X64923Y-24153D01*
X64759Y-24415D01*
X64569Y-24658D01*
X64354Y-24880D01*
X64113Y-25083D01*
X63847Y-25266D01*
X63556Y-25429D01*
X63240Y-25572D01*
X62898Y-25695D01*
X62531Y-25798D01*
X62138Y-25882D01*
G37*
D10*
X70792Y-19050D02*
X70792Y-6350D01*
X77142Y0D01*
X89842Y0D01*
X96192Y-6350D01*
X89842Y-25400D02*
X77142Y-25400D01*
X70792Y-19050D01*
X89842Y-25400D02*
X96192Y-19050D01*
X96192Y-6350D01*
X77142Y0D02*
X70792Y6350D01*
X70792Y19050D01*
X77142Y25400D01*
X89842Y25400D01*
X96192Y19050D01*
X96192Y6350D01*
X89842Y0D01*
M02*
