G04 EAGLE Gerber RS-274X export*
G75*
%MOMM*%
%FSLAX34Y34*%
%LPD*%
%INSoldermask Top*%
%IPPOS*%
%AMOC8*
5,1,8,0,0,1.08239X$1,22.5*%
G01*
G04 Define Apertures*
%ADD10C,1.727200*%
G36*
X32000Y20500D02*
X36250Y11750D01*
X37500Y6750D01*
X38000Y1750D01*
X37750Y-3500D01*
X37000Y-8500D01*
X35500Y-13500D01*
X33500Y-18250D01*
X30750Y-22250D01*
X27250Y-26250D01*
X23250Y-29750D01*
X19250Y-32500D01*
X14500Y-34750D01*
X9500Y-36250D01*
X4500Y-37250D01*
X-750Y-37500D01*
X-5750Y-37000D01*
X-10500Y-35750D01*
X-15750Y-33750D01*
X-20000Y-31500D01*
X-24250Y-28250D01*
X-27750Y-24500D01*
X-31000Y-20500D01*
X-35000Y-11750D01*
X-36250Y-6750D01*
X-37000Y-1750D01*
X-36750Y3500D01*
X-36000Y8500D01*
X-34500Y13500D01*
X-32500Y18000D01*
X-29500Y22250D01*
X-26250Y26250D01*
X-22500Y29750D01*
X-18000Y32500D01*
X-13500Y34750D01*
X-8750Y36500D01*
X-3500Y37500D01*
X1500Y37750D01*
X6750Y37000D01*
X11750Y36000D01*
X16500Y34000D01*
X21250Y31500D01*
X25250Y28250D01*
X28750Y24750D01*
X32000Y20500D01*
G37*
D10*
X91112Y-12700D02*
X75872Y-12700D01*
X75872Y12700D02*
X91112Y12700D01*
M02*
