G04 #@! TF.GenerationSoftware,KiCad,Pcbnew,7.0.6*
G04 #@! TF.CreationDate,2023-09-01T19:54:12-07:00*
G04 #@! TF.ProjectId,sgpp_main_pcb,73677070-5f6d-4616-996e-5f7063622e6b,1*
G04 #@! TF.SameCoordinates,Original*
G04 #@! TF.FileFunction,Soldermask,Top*
G04 #@! TF.FilePolarity,Negative*
%FSLAX46Y46*%
G04 Gerber Fmt 4.6, Leading zero omitted, Abs format (unit mm)*
G04 Created by KiCad (PCBNEW 7.0.6) date 2023-09-01 19:54:12*
%MOMM*%
%LPD*%
G01*
G04 APERTURE LIST*
G04 Aperture macros list*
%AMRoundRect*
0 Rectangle with rounded corners*
0 $1 Rounding radius*
0 $2 $3 $4 $5 $6 $7 $8 $9 X,Y pos of 4 corners*
0 Add a 4 corners polygon primitive as box body*
4,1,4,$2,$3,$4,$5,$6,$7,$8,$9,$2,$3,0*
0 Add four circle primitives for the rounded corners*
1,1,$1+$1,$2,$3*
1,1,$1+$1,$4,$5*
1,1,$1+$1,$6,$7*
1,1,$1+$1,$8,$9*
0 Add four rect primitives between the rounded corners*
20,1,$1+$1,$2,$3,$4,$5,0*
20,1,$1+$1,$4,$5,$6,$7,0*
20,1,$1+$1,$6,$7,$8,$9,0*
20,1,$1+$1,$8,$9,$2,$3,0*%
%AMFreePoly0*
4,1,13,0.900000,0.500000,2.600000,0.500000,2.600000,-0.500000,0.900000,-0.500000,0.400000,-1.000000,-0.400000,-1.000000,-0.900000,-0.500000,-2.600000,-0.500000,-2.600000,0.500000,-0.900000,0.500000,-0.400000,1.000000,0.400000,1.000000,0.900000,0.500000,0.900000,0.500000,$1*%
G04 Aperture macros list end*
%ADD10C,3.800000*%
%ADD11C,3.050000*%
%ADD12C,1.354710*%
%ADD13C,0.152400*%
%ADD14RoundRect,0.200000X0.200000X0.275000X-0.200000X0.275000X-0.200000X-0.275000X0.200000X-0.275000X0*%
%ADD15RoundRect,0.200000X-0.200000X-0.275000X0.200000X-0.275000X0.200000X0.275000X-0.200000X0.275000X0*%
%ADD16RoundRect,0.100000X-0.130000X-0.100000X0.130000X-0.100000X0.130000X0.100000X-0.130000X0.100000X0*%
%ADD17RoundRect,0.150000X-0.587500X-0.150000X0.587500X-0.150000X0.587500X0.150000X-0.587500X0.150000X0*%
%ADD18R,0.550000X0.550000*%
%ADD19RoundRect,0.050000X0.050000X-0.387500X0.050000X0.387500X-0.050000X0.387500X-0.050000X-0.387500X0*%
%ADD20RoundRect,0.050000X0.387500X-0.050000X0.387500X0.050000X-0.387500X0.050000X-0.387500X-0.050000X0*%
%ADD21R,3.200000X3.200000*%
%ADD22RoundRect,0.140000X0.140000X0.170000X-0.140000X0.170000X-0.140000X-0.170000X0.140000X-0.170000X0*%
%ADD23RoundRect,0.100000X0.100000X-0.130000X0.100000X0.130000X-0.100000X0.130000X-0.100000X-0.130000X0*%
%ADD24RoundRect,0.100000X-0.100000X0.130000X-0.100000X-0.130000X0.100000X-0.130000X0.100000X0.130000X0*%
%ADD25R,0.300000X0.400000*%
%ADD26R,1.600000X0.200000*%
%ADD27RoundRect,0.100000X0.130000X0.100000X-0.130000X0.100000X-0.130000X-0.100000X0.130000X-0.100000X0*%
%ADD28RoundRect,0.250000X-0.250000X0.250000X-0.250000X-0.250000X0.250000X-0.250000X0.250000X0.250000X0*%
%ADD29R,0.500000X0.550000*%
%ADD30RoundRect,0.250000X0.250000X-0.250000X0.250000X0.250000X-0.250000X0.250000X-0.250000X-0.250000X0*%
%ADD31C,1.500000*%
%ADD32R,0.400000X0.650000*%
%ADD33C,0.500000*%
%ADD34R,0.550000X0.500000*%
%ADD35RoundRect,0.250001X0.624999X-0.462499X0.624999X0.462499X-0.624999X0.462499X-0.624999X-0.462499X0*%
%ADD36RoundRect,0.250000X-0.450000X-0.425000X0.450000X-0.425000X0.450000X0.425000X-0.450000X0.425000X0*%
%ADD37R,1.300000X0.600000*%
%ADD38R,2.300000X3.200000*%
%ADD39C,0.230000*%
%ADD40R,1.900000X0.400000*%
%ADD41RoundRect,0.225000X-0.225000X-0.250000X0.225000X-0.250000X0.225000X0.250000X-0.225000X0.250000X0*%
%ADD42R,1.000000X1.500000*%
%ADD43R,1.350000X1.350000*%
%ADD44O,1.350000X1.350000*%
%ADD45RoundRect,0.225000X0.250000X-0.225000X0.250000X0.225000X-0.250000X0.225000X-0.250000X-0.225000X0*%
%ADD46R,0.700000X1.500000*%
%ADD47FreePoly0,90.000000*%
%ADD48RoundRect,0.250001X-0.624999X0.462499X-0.624999X-0.462499X0.624999X-0.462499X0.624999X0.462499X0*%
%ADD49RoundRect,0.050000X0.075000X-0.225000X0.075000X0.225000X-0.075000X0.225000X-0.075000X-0.225000X0*%
%ADD50RoundRect,0.050000X0.050000X-0.225000X0.050000X0.225000X-0.050000X0.225000X-0.050000X-0.225000X0*%
%ADD51RoundRect,0.050000X0.250000X-0.100000X0.250000X0.100000X-0.250000X0.100000X-0.250000X-0.100000X0*%
%ADD52RoundRect,0.250000X-0.250000X-0.250000X0.250000X-0.250000X0.250000X0.250000X-0.250000X0.250000X0*%
%ADD53C,0.650000*%
%ADD54C,0.700000*%
%ADD55O,1.003200X1.753200*%
G04 APERTURE END LIST*
D10*
X179550000Y-104644925D02*
G75*
G03*
X179550000Y-104644925I-1900000J0D01*
G01*
X193050000Y-115144925D02*
G75*
G03*
X193050000Y-115144925I-1900000J0D01*
G01*
X193050000Y-94144925D02*
G75*
G03*
X193050000Y-94144925I-1900000J0D01*
G01*
D11*
X119524798Y-104657425D02*
G75*
G03*
X119524798Y-104657425I-1525000J0D01*
G01*
D12*
X137677355Y-109148425D02*
G75*
G03*
X137677355Y-109148425I-677355J0D01*
G01*
D11*
X110425000Y-95557627D02*
G75*
G03*
X110425000Y-95557627I-1525000J0D01*
G01*
X101325202Y-104657425D02*
G75*
G03*
X101325202Y-104657425I-1525000J0D01*
G01*
X110425000Y-113757223D02*
G75*
G03*
X110425000Y-113757223I-1525000J0D01*
G01*
D13*
X93284029Y-95233678D02*
X93405810Y-95738093D01*
X93552535Y-96235693D02*
X93405779Y-95737971D01*
X93818954Y-94333219D02*
X95497054Y-93883544D01*
X94466041Y-96748021D02*
X95771813Y-96398118D01*
X95047379Y-92205441D02*
X95497054Y-93883544D01*
X95559707Y-91291935D02*
X96057429Y-91145179D01*
X95771813Y-96398118D02*
X97812109Y-92864219D01*
X96245697Y-96677328D02*
X98290931Y-93134875D01*
X96561722Y-91023429D02*
X96057307Y-91145210D01*
X96593819Y-97976446D02*
X96245697Y-96677328D01*
X97462181Y-91558354D02*
X97812109Y-92864219D01*
X97494278Y-98511371D02*
X97998693Y-98389590D01*
X98496293Y-98242865D02*
X97998571Y-98389621D01*
X99008621Y-97329359D02*
X98558946Y-95651256D01*
X99589959Y-92786779D02*
X98290931Y-93134875D01*
X100237046Y-95201581D02*
X98558946Y-95651256D01*
X100503465Y-93299107D02*
X100650221Y-93796829D01*
X100771971Y-94301122D02*
X100650190Y-93796707D01*
X93818954Y-94333220D02*
G75*
G03*
X93284030Y-95233678I194126J-724439D01*
G01*
X93552536Y-96235693D02*
G75*
G03*
X94466041Y-96748020I719379J212112D01*
G01*
X95559707Y-91291936D02*
G75*
G03*
X95047380Y-92205441I212112J-719379D01*
G01*
X97462180Y-91558354D02*
G75*
G03*
X96561722Y-91023430I-724439J-194126D01*
G01*
X96593820Y-97976446D02*
G75*
G03*
X97494278Y-98511370I724439J194126D01*
G01*
X98496293Y-98242864D02*
G75*
G03*
X99008620Y-97329359I-212112J719379D01*
G01*
X100503464Y-93299107D02*
G75*
G03*
X99589959Y-92786779I-719374J-212103D01*
G01*
X100237046Y-95201579D02*
G75*
G03*
X100771971Y-94301122I-194126J724439D01*
G01*
X99417959Y-91588966D02*
G75*
G03*
X99417959Y-91588966I-625000J0D01*
G01*
G36*
X99052996Y-91002398D02*
G01*
X99272995Y-91187398D01*
X99403000Y-91437402D01*
X99397999Y-91732400D01*
X99277999Y-91967403D01*
X99128003Y-92107400D01*
X98928001Y-92197402D01*
X98708000Y-92207399D01*
X98522996Y-92152400D01*
X98333001Y-92032404D01*
X98223004Y-91852409D01*
X98163000Y-91707400D01*
X98163000Y-91482405D01*
X98223001Y-91312396D01*
X98327998Y-91132404D01*
X98562995Y-90997402D01*
X98763005Y-90967402D01*
X99052996Y-91002398D01*
G37*
G36*
X96938002Y-91012401D02*
G01*
X97198007Y-91152405D01*
X97368001Y-91337400D01*
X97488001Y-91677405D01*
X97807999Y-92847400D01*
X95763002Y-96392399D01*
X94473008Y-96742398D01*
X94277998Y-96767401D01*
X94092998Y-96752399D01*
X93908006Y-96692399D01*
X93722998Y-96542399D01*
X93588001Y-96357400D01*
X93248000Y-95152397D01*
X93258001Y-94942403D01*
X93313001Y-94752401D01*
X93397999Y-94607403D01*
X93553000Y-94437400D01*
X93803003Y-94322401D01*
X95474414Y-93874702D01*
X95478906Y-93873497D01*
X95482999Y-93872401D01*
X95058020Y-92287473D01*
X95039486Y-92276862D01*
X95016000Y-92127404D01*
X95043003Y-91817398D01*
X95158001Y-91562401D01*
X95333003Y-91362398D01*
X95888026Y-91167392D01*
X96587998Y-91002404D01*
X96938002Y-91012401D01*
G37*
G36*
X99963002Y-92777401D02*
G01*
X100147994Y-92837401D01*
X100333002Y-92987401D01*
X100467999Y-93172400D01*
X100808000Y-94377403D01*
X100797999Y-94587397D01*
X100742999Y-94777399D01*
X100658001Y-94922397D01*
X100503000Y-95092400D01*
X100252997Y-95207399D01*
X98581586Y-95655098D01*
X98577094Y-95656303D01*
X98573001Y-95657399D01*
X98997980Y-97242327D01*
X99016514Y-97252938D01*
X99040000Y-97402396D01*
X99012997Y-97712402D01*
X98897999Y-97967399D01*
X98722997Y-98167402D01*
X98167974Y-98362408D01*
X97468002Y-98527396D01*
X97117998Y-98517399D01*
X96857993Y-98377395D01*
X96687999Y-98192400D01*
X96567999Y-97852395D01*
X96248001Y-96682400D01*
X98292998Y-93137401D01*
X99582992Y-92787402D01*
X99778002Y-92762399D01*
X99963002Y-92777401D01*
G37*
D12*
X153177355Y-109148425D02*
G75*
G03*
X153177355Y-109148425I-677355J0D01*
G01*
D10*
X206550000Y-104644925D02*
G75*
G03*
X206550000Y-104644925I-1900000J0D01*
G01*
D14*
X124726200Y-88057200D03*
X123076200Y-88057200D03*
D15*
X123076200Y-86512400D03*
X124726200Y-86512400D03*
D16*
X129786617Y-84757101D03*
X130426617Y-84757101D03*
D17*
X162613100Y-115618562D03*
X162613100Y-117518562D03*
X164488100Y-116568562D03*
D18*
X190625000Y-99482425D03*
X191575000Y-99482425D03*
X191575000Y-98532425D03*
X190625000Y-98532425D03*
X108425000Y-100562425D03*
X109375000Y-100562425D03*
X109375000Y-99612425D03*
X108425000Y-99612425D03*
D19*
X158595680Y-95532853D03*
X158995680Y-95532853D03*
X159395680Y-95532853D03*
X159795680Y-95532853D03*
X160195680Y-95532853D03*
X160595680Y-95532853D03*
X160995680Y-95532853D03*
X161395680Y-95532853D03*
X161795680Y-95532853D03*
X162195680Y-95532853D03*
X162595680Y-95532853D03*
X162995680Y-95532853D03*
X163395680Y-95532853D03*
X163795680Y-95532853D03*
D20*
X164633180Y-94695353D03*
X164633180Y-94295353D03*
X164633180Y-93895353D03*
X164633180Y-93495353D03*
X164633180Y-93095353D03*
X164633180Y-92695353D03*
X164633180Y-92295353D03*
X164633180Y-91895353D03*
X164633180Y-91495353D03*
X164633180Y-91095353D03*
X164633180Y-90695353D03*
X164633180Y-90295353D03*
X164633180Y-89895353D03*
X164633180Y-89495353D03*
D19*
X163795680Y-88657853D03*
X163395680Y-88657853D03*
X162995680Y-88657853D03*
X162595680Y-88657853D03*
X162195680Y-88657853D03*
X161795680Y-88657853D03*
X161395680Y-88657853D03*
X160995680Y-88657853D03*
X160595680Y-88657853D03*
X160195680Y-88657853D03*
X159795680Y-88657853D03*
X159395680Y-88657853D03*
X158995680Y-88657853D03*
X158595680Y-88657853D03*
D20*
X157758180Y-89495353D03*
X157758180Y-89895353D03*
X157758180Y-90295353D03*
X157758180Y-90695353D03*
X157758180Y-91095353D03*
X157758180Y-91495353D03*
X157758180Y-91895353D03*
X157758180Y-92295353D03*
X157758180Y-92695353D03*
X157758180Y-93095353D03*
X157758180Y-93495353D03*
X157758180Y-93895353D03*
X157758180Y-94295353D03*
X157758180Y-94695353D03*
D21*
X161195680Y-92095353D03*
D22*
X134970617Y-84868934D03*
X134010617Y-84868934D03*
D23*
X169113200Y-114874000D03*
X169113200Y-114234000D03*
D24*
X169900600Y-114234000D03*
X169900600Y-114874000D03*
D18*
X177125000Y-109982425D03*
X178075000Y-109982425D03*
X178075000Y-109032425D03*
X177125000Y-109032425D03*
D25*
X153603839Y-95730818D03*
X154103839Y-95730818D03*
X154603839Y-95730818D03*
X155103839Y-95730818D03*
X155103839Y-93330818D03*
X154603839Y-93330818D03*
X154103839Y-93330818D03*
X153603839Y-93330818D03*
D26*
X154353839Y-94530818D03*
D27*
X168544200Y-95072200D03*
X167904200Y-95072200D03*
D28*
X173049078Y-85243791D03*
X173049078Y-87743791D03*
D18*
X132525000Y-113962425D03*
X133475000Y-113962425D03*
X133475000Y-113012425D03*
X132525000Y-113012425D03*
D28*
X161702814Y-80976323D03*
X161702814Y-83476323D03*
D24*
X161185407Y-117912482D03*
X161185407Y-118552482D03*
D29*
X167278000Y-98243000D03*
X166478000Y-98243000D03*
X167278000Y-100893000D03*
X166478000Y-100893000D03*
D23*
X166283024Y-85568716D03*
X166283024Y-84928716D03*
X162357100Y-98053897D03*
X162357100Y-97413897D03*
D30*
X135665956Y-82558529D03*
X135665956Y-80058529D03*
D23*
X157906304Y-87125125D03*
X157906304Y-86485125D03*
D16*
X137758163Y-93294934D03*
X138398163Y-93294934D03*
D24*
X164796362Y-79698927D03*
X164796362Y-80338927D03*
D23*
X158352939Y-97509723D03*
X158352939Y-96869723D03*
X152810910Y-93318611D03*
X152810910Y-92678611D03*
D31*
X158927800Y-81381600D03*
D32*
X149819674Y-98621320D03*
X149169674Y-98621320D03*
X148519674Y-98621320D03*
X148519674Y-100521320D03*
X149169674Y-100521320D03*
X149819674Y-100521320D03*
D27*
X148097200Y-89916000D03*
X147457200Y-89916000D03*
D33*
X136500000Y-109148425D03*
X137500000Y-109148425D03*
D18*
X113025000Y-105132425D03*
X113975000Y-105132425D03*
X113975000Y-104182425D03*
X113025000Y-104182425D03*
D16*
X151406885Y-87373476D03*
X152046885Y-87373476D03*
D17*
X162613100Y-119039600D03*
X162613100Y-120939600D03*
X164488100Y-119989600D03*
D34*
X142693000Y-92818000D03*
X142693000Y-93618000D03*
X145343000Y-92818000D03*
X145343000Y-93618000D03*
D16*
X162214600Y-85242400D03*
X162854600Y-85242400D03*
X155620853Y-91341188D03*
X156260853Y-91341188D03*
D35*
X170922381Y-87522240D03*
X170922381Y-84547240D03*
D18*
X148025000Y-113962425D03*
X148975000Y-113962425D03*
X148975000Y-113012425D03*
X148025000Y-113012425D03*
D23*
X153644600Y-97551200D03*
X153644600Y-96911200D03*
D31*
X156921200Y-77851000D03*
D24*
X167582546Y-79682900D03*
X167582546Y-80322900D03*
D32*
X144189674Y-98621320D03*
X143539674Y-98621320D03*
X142889674Y-98621320D03*
X142889674Y-100521320D03*
X143539674Y-100521320D03*
X144189674Y-100521320D03*
D27*
X130426617Y-85519101D03*
X129786617Y-85519101D03*
D18*
X108425000Y-109732425D03*
X109375000Y-109732425D03*
X109375000Y-108782425D03*
X108425000Y-108782425D03*
D36*
X133642607Y-93993901D03*
X136342607Y-93993901D03*
D37*
X174140965Y-120693298D03*
X174140965Y-119693298D03*
X174140965Y-118693298D03*
X174140965Y-117693298D03*
X174140965Y-116693298D03*
X168640965Y-116693298D03*
X168640965Y-117693298D03*
X168640965Y-118693298D03*
X168640965Y-119693298D03*
X168640965Y-120693298D03*
D38*
X171390965Y-118693298D03*
D32*
X141395674Y-98594320D03*
X140745674Y-98594320D03*
X140095674Y-98594320D03*
X140095674Y-100494320D03*
X140745674Y-100494320D03*
X141395674Y-100494320D03*
D24*
X131256387Y-86469101D03*
X131256387Y-87109101D03*
D39*
X131992617Y-84465101D03*
X132392617Y-84465101D03*
X131992617Y-84865101D03*
X132392617Y-84865101D03*
X131992617Y-85265101D03*
X132392617Y-85265101D03*
X131992617Y-85665101D03*
X132392617Y-85665101D03*
D27*
X167493180Y-90339353D03*
X166853180Y-90339353D03*
D31*
X151968200Y-84886800D03*
D16*
X155620853Y-90593353D03*
X156260853Y-90593353D03*
D23*
X144018000Y-81346000D03*
X144018000Y-80706000D03*
X133225057Y-84000021D03*
X133225057Y-83360021D03*
X133934200Y-87188000D03*
X133934200Y-86548000D03*
D40*
X168376600Y-93763800D03*
X168376600Y-92563800D03*
X168376600Y-91363800D03*
D41*
X136842200Y-85699600D03*
X138392200Y-85699600D03*
D23*
X167581248Y-85583783D03*
X167581248Y-84943783D03*
D24*
X166256061Y-79702188D03*
X166256061Y-80342188D03*
D27*
X166927409Y-120696962D03*
X166287409Y-120696962D03*
D42*
X144455520Y-89765800D03*
X143155520Y-89765800D03*
D16*
X155617393Y-89831353D03*
X156257393Y-89831353D03*
D32*
X146983674Y-98621320D03*
X146333674Y-98621320D03*
X145683674Y-98621320D03*
X145683674Y-100521320D03*
X146333674Y-100521320D03*
X146983674Y-100521320D03*
D31*
X152654000Y-77825600D03*
D43*
X175361600Y-97300800D03*
D44*
X175361600Y-95300800D03*
D24*
X170027600Y-91399400D03*
X170027600Y-92039400D03*
D23*
X164787763Y-85563797D03*
X164787763Y-84923797D03*
X157137453Y-87126612D03*
X157137453Y-86486612D03*
X147968546Y-87349825D03*
X147968546Y-86709825D03*
D45*
X133578316Y-92150351D03*
X133578316Y-90600351D03*
D32*
X166284012Y-83575538D03*
X166934012Y-83575538D03*
X167584012Y-83575538D03*
X167584012Y-81675538D03*
X166934012Y-81675538D03*
X166284012Y-81675538D03*
D18*
X190625000Y-120482425D03*
X191575000Y-120482425D03*
X191575000Y-119532425D03*
X190625000Y-119532425D03*
D24*
X155956000Y-80706000D03*
X155956000Y-81346000D03*
D42*
X144455520Y-87225800D03*
X143155520Y-87225800D03*
D24*
X165880287Y-115859600D03*
X165880287Y-116499600D03*
D33*
X152000000Y-109148425D03*
X153000000Y-109148425D03*
D46*
X135398757Y-91846440D03*
D47*
X136898757Y-89996440D03*
D46*
X138398757Y-91846440D03*
X138398757Y-88146440D03*
X135398757Y-88146440D03*
D31*
X148488400Y-78282800D03*
D23*
X161185407Y-120817600D03*
X161185407Y-120177600D03*
D18*
X204125000Y-109982425D03*
X205075000Y-109982425D03*
X205075000Y-109032425D03*
X204125000Y-109032425D03*
D32*
X163490012Y-83575538D03*
X164140012Y-83575538D03*
X164790012Y-83575538D03*
X164790012Y-81675538D03*
X164140012Y-81675538D03*
X163490012Y-81675538D03*
D18*
X103825000Y-105132425D03*
X104775000Y-105132425D03*
X104775000Y-104182425D03*
X103825000Y-104182425D03*
D48*
X137814537Y-80258662D03*
X137814537Y-83233662D03*
D49*
X149250546Y-89448000D03*
D50*
X149750546Y-89448000D03*
X150250546Y-89448000D03*
D49*
X150750546Y-89448000D03*
D51*
X150900546Y-88773000D03*
D49*
X150750546Y-88098000D03*
D50*
X150250546Y-88098000D03*
X149750546Y-88098000D03*
D49*
X149250546Y-88098000D03*
D51*
X149100546Y-88773000D03*
D52*
X127502600Y-88468200D03*
X130002600Y-88468200D03*
D24*
X148730546Y-86709825D03*
X148730546Y-87349825D03*
D53*
X146400000Y-83842425D03*
X153600000Y-83842425D03*
D54*
X152800000Y-83302425D03*
X152400000Y-82592425D03*
X151600000Y-82592425D03*
X151200000Y-83302425D03*
X150800000Y-82592425D03*
X150400000Y-83302425D03*
X149600000Y-83302425D03*
X149200000Y-82592425D03*
X148800000Y-83302425D03*
X148400000Y-82592425D03*
X147600000Y-82592425D03*
X147200000Y-83302425D03*
D55*
X145400000Y-78592425D03*
X145400000Y-82592425D03*
X154600000Y-78592425D03*
X154600000Y-82592425D03*
M02*
