G04 #@! TF.GenerationSoftware,KiCad,Pcbnew,7.0.6*
G04 #@! TF.CreationDate,2023-08-31T16:45:56-07:00*
G04 #@! TF.ProjectId,sgpp_main_pcb,73677070-5f6d-4616-996e-5f7063622e6b,1*
G04 #@! TF.SameCoordinates,Original*
G04 #@! TF.FileFunction,AssemblyDrawing,Bot*
%FSLAX46Y46*%
G04 Gerber Fmt 4.6, Leading zero omitted, Abs format (unit mm)*
G04 Created by KiCad (PCBNEW 7.0.6) date 2023-08-31 16:45:56*
%MOMM*%
%LPD*%
G01*
G04 APERTURE LIST*
%ADD10C,0.150000*%
%ADD11C,0.060000*%
%ADD12C,0.127000*%
%ADD13C,0.200000*%
%ADD14C,0.100000*%
G04 APERTURE END LIST*
D10*
X198014774Y-93774609D02*
X197639821Y-93774609D01*
X198089765Y-93999581D02*
X197827298Y-93212179D01*
X197827298Y-93212179D02*
X197564830Y-93999581D01*
X197302363Y-93999581D02*
X197302363Y-93212179D01*
X197302363Y-93212179D02*
X196852419Y-93999581D01*
X196852419Y-93999581D02*
X196852419Y-93212179D01*
X196589952Y-93212179D02*
X196140008Y-93212179D01*
X196364980Y-93999581D02*
X196364980Y-93212179D01*
X195877541Y-93587132D02*
X195615074Y-93587132D01*
X195502588Y-93999581D02*
X195877541Y-93999581D01*
X195877541Y-93999581D02*
X195877541Y-93212179D01*
X195877541Y-93212179D02*
X195502588Y-93212179D01*
X195165130Y-93999581D02*
X195165130Y-93212179D01*
X195165130Y-93212179D02*
X194715186Y-93999581D01*
X194715186Y-93999581D02*
X194715186Y-93212179D01*
X194340233Y-93999581D02*
X194340233Y-93212179D01*
X194340233Y-93212179D02*
X193890289Y-93999581D01*
X193890289Y-93999581D02*
X193890289Y-93212179D01*
X193552831Y-93774609D02*
X193177878Y-93774609D01*
X193627822Y-93999581D02*
X193365355Y-93212179D01*
X193365355Y-93212179D02*
X193102887Y-93999581D01*
X85238095Y-98489180D02*
X85904761Y-98489180D01*
X85904761Y-98489180D02*
X85476190Y-97489180D01*
X86428571Y-98060609D02*
X86333333Y-98108228D01*
X86333333Y-98108228D02*
X86285714Y-98155847D01*
X86285714Y-98155847D02*
X86238095Y-98251085D01*
X86238095Y-98251085D02*
X86238095Y-98298704D01*
X86238095Y-98298704D02*
X86285714Y-98393942D01*
X86285714Y-98393942D02*
X86333333Y-98441561D01*
X86333333Y-98441561D02*
X86428571Y-98489180D01*
X86428571Y-98489180D02*
X86619047Y-98489180D01*
X86619047Y-98489180D02*
X86714285Y-98441561D01*
X86714285Y-98441561D02*
X86761904Y-98393942D01*
X86761904Y-98393942D02*
X86809523Y-98298704D01*
X86809523Y-98298704D02*
X86809523Y-98251085D01*
X86809523Y-98251085D02*
X86761904Y-98155847D01*
X86761904Y-98155847D02*
X86714285Y-98108228D01*
X86714285Y-98108228D02*
X86619047Y-98060609D01*
X86619047Y-98060609D02*
X86428571Y-98060609D01*
X86428571Y-98060609D02*
X86333333Y-98012990D01*
X86333333Y-98012990D02*
X86285714Y-97965371D01*
X86285714Y-97965371D02*
X86238095Y-97870133D01*
X86238095Y-97870133D02*
X86238095Y-97679657D01*
X86238095Y-97679657D02*
X86285714Y-97584419D01*
X86285714Y-97584419D02*
X86333333Y-97536800D01*
X86333333Y-97536800D02*
X86428571Y-97489180D01*
X86428571Y-97489180D02*
X86619047Y-97489180D01*
X86619047Y-97489180D02*
X86714285Y-97536800D01*
X86714285Y-97536800D02*
X86761904Y-97584419D01*
X86761904Y-97584419D02*
X86809523Y-97679657D01*
X86809523Y-97679657D02*
X86809523Y-97870133D01*
X86809523Y-97870133D02*
X86761904Y-97965371D01*
X86761904Y-97965371D02*
X86714285Y-98012990D01*
X86714285Y-98012990D02*
X86619047Y-98060609D01*
X87761904Y-97489180D02*
X87190476Y-97489180D01*
X87476190Y-97489180D02*
X87476190Y-98489180D01*
X87476190Y-98489180D02*
X87380952Y-98346323D01*
X87380952Y-98346323D02*
X87285714Y-98251085D01*
X87285714Y-98251085D02*
X87190476Y-98203466D01*
X88095238Y-98489180D02*
X88761904Y-98489180D01*
X88761904Y-98489180D02*
X88333333Y-97489180D01*
X89666666Y-97489180D02*
X89095238Y-97489180D01*
X89380952Y-97489180D02*
X89380952Y-98489180D01*
X89380952Y-98489180D02*
X89285714Y-98346323D01*
X89285714Y-98346323D02*
X89190476Y-98251085D01*
X89190476Y-98251085D02*
X89095238Y-98203466D01*
X90095238Y-97870133D02*
X90857143Y-97870133D01*
X91523809Y-98489180D02*
X91619047Y-98489180D01*
X91619047Y-98489180D02*
X91714285Y-98441561D01*
X91714285Y-98441561D02*
X91761904Y-98393942D01*
X91761904Y-98393942D02*
X91809523Y-98298704D01*
X91809523Y-98298704D02*
X91857142Y-98108228D01*
X91857142Y-98108228D02*
X91857142Y-97870133D01*
X91857142Y-97870133D02*
X91809523Y-97679657D01*
X91809523Y-97679657D02*
X91761904Y-97584419D01*
X91761904Y-97584419D02*
X91714285Y-97536800D01*
X91714285Y-97536800D02*
X91619047Y-97489180D01*
X91619047Y-97489180D02*
X91523809Y-97489180D01*
X91523809Y-97489180D02*
X91428571Y-97536800D01*
X91428571Y-97536800D02*
X91380952Y-97584419D01*
X91380952Y-97584419D02*
X91333333Y-97679657D01*
X91333333Y-97679657D02*
X91285714Y-97870133D01*
X91285714Y-97870133D02*
X91285714Y-98108228D01*
X91285714Y-98108228D02*
X91333333Y-98298704D01*
X91333333Y-98298704D02*
X91380952Y-98393942D01*
X91380952Y-98393942D02*
X91428571Y-98441561D01*
X91428571Y-98441561D02*
X91523809Y-98489180D01*
X92476190Y-98489180D02*
X92571428Y-98489180D01*
X92571428Y-98489180D02*
X92666666Y-98441561D01*
X92666666Y-98441561D02*
X92714285Y-98393942D01*
X92714285Y-98393942D02*
X92761904Y-98298704D01*
X92761904Y-98298704D02*
X92809523Y-98108228D01*
X92809523Y-98108228D02*
X92809523Y-97870133D01*
X92809523Y-97870133D02*
X92761904Y-97679657D01*
X92761904Y-97679657D02*
X92714285Y-97584419D01*
X92714285Y-97584419D02*
X92666666Y-97536800D01*
X92666666Y-97536800D02*
X92571428Y-97489180D01*
X92571428Y-97489180D02*
X92476190Y-97489180D01*
X92476190Y-97489180D02*
X92380952Y-97536800D01*
X92380952Y-97536800D02*
X92333333Y-97584419D01*
X92333333Y-97584419D02*
X92285714Y-97679657D01*
X92285714Y-97679657D02*
X92238095Y-97870133D01*
X92238095Y-97870133D02*
X92238095Y-98108228D01*
X92238095Y-98108228D02*
X92285714Y-98298704D01*
X92285714Y-98298704D02*
X92333333Y-98393942D01*
X92333333Y-98393942D02*
X92380952Y-98441561D01*
X92380952Y-98441561D02*
X92476190Y-98489180D01*
X93428571Y-98489180D02*
X93523809Y-98489180D01*
X93523809Y-98489180D02*
X93619047Y-98441561D01*
X93619047Y-98441561D02*
X93666666Y-98393942D01*
X93666666Y-98393942D02*
X93714285Y-98298704D01*
X93714285Y-98298704D02*
X93761904Y-98108228D01*
X93761904Y-98108228D02*
X93761904Y-97870133D01*
X93761904Y-97870133D02*
X93714285Y-97679657D01*
X93714285Y-97679657D02*
X93666666Y-97584419D01*
X93666666Y-97584419D02*
X93619047Y-97536800D01*
X93619047Y-97536800D02*
X93523809Y-97489180D01*
X93523809Y-97489180D02*
X93428571Y-97489180D01*
X93428571Y-97489180D02*
X93333333Y-97536800D01*
X93333333Y-97536800D02*
X93285714Y-97584419D01*
X93285714Y-97584419D02*
X93238095Y-97679657D01*
X93238095Y-97679657D02*
X93190476Y-97870133D01*
X93190476Y-97870133D02*
X93190476Y-98108228D01*
X93190476Y-98108228D02*
X93238095Y-98298704D01*
X93238095Y-98298704D02*
X93285714Y-98393942D01*
X93285714Y-98393942D02*
X93333333Y-98441561D01*
X93333333Y-98441561D02*
X93428571Y-98489180D01*
X94142857Y-98393942D02*
X94190476Y-98441561D01*
X94190476Y-98441561D02*
X94285714Y-98489180D01*
X94285714Y-98489180D02*
X94523809Y-98489180D01*
X94523809Y-98489180D02*
X94619047Y-98441561D01*
X94619047Y-98441561D02*
X94666666Y-98393942D01*
X94666666Y-98393942D02*
X94714285Y-98298704D01*
X94714285Y-98298704D02*
X94714285Y-98203466D01*
X94714285Y-98203466D02*
X94666666Y-98060609D01*
X94666666Y-98060609D02*
X94095238Y-97489180D01*
X94095238Y-97489180D02*
X94714285Y-97489180D01*
X88333333Y-96989180D02*
X88904761Y-96989180D01*
X88619047Y-95989180D02*
X88619047Y-96989180D01*
X89809523Y-95989180D02*
X89476190Y-96465371D01*
X89238095Y-95989180D02*
X89238095Y-96989180D01*
X89238095Y-96989180D02*
X89619047Y-96989180D01*
X89619047Y-96989180D02*
X89714285Y-96941561D01*
X89714285Y-96941561D02*
X89761904Y-96893942D01*
X89761904Y-96893942D02*
X89809523Y-96798704D01*
X89809523Y-96798704D02*
X89809523Y-96655847D01*
X89809523Y-96655847D02*
X89761904Y-96560609D01*
X89761904Y-96560609D02*
X89714285Y-96512990D01*
X89714285Y-96512990D02*
X89619047Y-96465371D01*
X89619047Y-96465371D02*
X89238095Y-96465371D01*
X90714285Y-95989180D02*
X90238095Y-95989180D01*
X90238095Y-95989180D02*
X90238095Y-96989180D01*
X91571428Y-95989180D02*
X91000000Y-95989180D01*
X91285714Y-95989180D02*
X91285714Y-96989180D01*
X91285714Y-96989180D02*
X91190476Y-96846323D01*
X91190476Y-96846323D02*
X91095238Y-96751085D01*
X91095238Y-96751085D02*
X91000000Y-96703466D01*
X118958795Y-104571731D02*
X118292129Y-104571731D01*
X118292129Y-104571731D02*
X118720700Y-105571731D01*
X117768319Y-105000302D02*
X117863557Y-104952683D01*
X117863557Y-104952683D02*
X117911176Y-104905064D01*
X117911176Y-104905064D02*
X117958795Y-104809826D01*
X117958795Y-104809826D02*
X117958795Y-104762207D01*
X117958795Y-104762207D02*
X117911176Y-104666969D01*
X117911176Y-104666969D02*
X117863557Y-104619350D01*
X117863557Y-104619350D02*
X117768319Y-104571731D01*
X117768319Y-104571731D02*
X117577843Y-104571731D01*
X117577843Y-104571731D02*
X117482605Y-104619350D01*
X117482605Y-104619350D02*
X117434986Y-104666969D01*
X117434986Y-104666969D02*
X117387367Y-104762207D01*
X117387367Y-104762207D02*
X117387367Y-104809826D01*
X117387367Y-104809826D02*
X117434986Y-104905064D01*
X117434986Y-104905064D02*
X117482605Y-104952683D01*
X117482605Y-104952683D02*
X117577843Y-105000302D01*
X117577843Y-105000302D02*
X117768319Y-105000302D01*
X117768319Y-105000302D02*
X117863557Y-105047921D01*
X117863557Y-105047921D02*
X117911176Y-105095540D01*
X117911176Y-105095540D02*
X117958795Y-105190778D01*
X117958795Y-105190778D02*
X117958795Y-105381254D01*
X117958795Y-105381254D02*
X117911176Y-105476492D01*
X117911176Y-105476492D02*
X117863557Y-105524112D01*
X117863557Y-105524112D02*
X117768319Y-105571731D01*
X117768319Y-105571731D02*
X117577843Y-105571731D01*
X117577843Y-105571731D02*
X117482605Y-105524112D01*
X117482605Y-105524112D02*
X117434986Y-105476492D01*
X117434986Y-105476492D02*
X117387367Y-105381254D01*
X117387367Y-105381254D02*
X117387367Y-105190778D01*
X117387367Y-105190778D02*
X117434986Y-105095540D01*
X117434986Y-105095540D02*
X117482605Y-105047921D01*
X117482605Y-105047921D02*
X117577843Y-105000302D01*
X116434986Y-105571731D02*
X117006414Y-105571731D01*
X116720700Y-105571731D02*
X116720700Y-104571731D01*
X116720700Y-104571731D02*
X116815938Y-104714588D01*
X116815938Y-104714588D02*
X116911176Y-104809826D01*
X116911176Y-104809826D02*
X117006414Y-104857445D01*
X116101652Y-104571731D02*
X115434986Y-104571731D01*
X115434986Y-104571731D02*
X115863557Y-105571731D01*
X114530224Y-105571731D02*
X115101652Y-105571731D01*
X114815938Y-105571731D02*
X114815938Y-104571731D01*
X114815938Y-104571731D02*
X114911176Y-104714588D01*
X114911176Y-104714588D02*
X115006414Y-104809826D01*
X115006414Y-104809826D02*
X115101652Y-104857445D01*
X114101652Y-105190778D02*
X113339748Y-105190778D01*
X112673081Y-104571731D02*
X112577843Y-104571731D01*
X112577843Y-104571731D02*
X112482605Y-104619350D01*
X112482605Y-104619350D02*
X112434986Y-104666969D01*
X112434986Y-104666969D02*
X112387367Y-104762207D01*
X112387367Y-104762207D02*
X112339748Y-104952683D01*
X112339748Y-104952683D02*
X112339748Y-105190778D01*
X112339748Y-105190778D02*
X112387367Y-105381254D01*
X112387367Y-105381254D02*
X112434986Y-105476492D01*
X112434986Y-105476492D02*
X112482605Y-105524112D01*
X112482605Y-105524112D02*
X112577843Y-105571731D01*
X112577843Y-105571731D02*
X112673081Y-105571731D01*
X112673081Y-105571731D02*
X112768319Y-105524112D01*
X112768319Y-105524112D02*
X112815938Y-105476492D01*
X112815938Y-105476492D02*
X112863557Y-105381254D01*
X112863557Y-105381254D02*
X112911176Y-105190778D01*
X112911176Y-105190778D02*
X112911176Y-104952683D01*
X112911176Y-104952683D02*
X112863557Y-104762207D01*
X112863557Y-104762207D02*
X112815938Y-104666969D01*
X112815938Y-104666969D02*
X112768319Y-104619350D01*
X112768319Y-104619350D02*
X112673081Y-104571731D01*
X111720700Y-104571731D02*
X111625462Y-104571731D01*
X111625462Y-104571731D02*
X111530224Y-104619350D01*
X111530224Y-104619350D02*
X111482605Y-104666969D01*
X111482605Y-104666969D02*
X111434986Y-104762207D01*
X111434986Y-104762207D02*
X111387367Y-104952683D01*
X111387367Y-104952683D02*
X111387367Y-105190778D01*
X111387367Y-105190778D02*
X111434986Y-105381254D01*
X111434986Y-105381254D02*
X111482605Y-105476492D01*
X111482605Y-105476492D02*
X111530224Y-105524112D01*
X111530224Y-105524112D02*
X111625462Y-105571731D01*
X111625462Y-105571731D02*
X111720700Y-105571731D01*
X111720700Y-105571731D02*
X111815938Y-105524112D01*
X111815938Y-105524112D02*
X111863557Y-105476492D01*
X111863557Y-105476492D02*
X111911176Y-105381254D01*
X111911176Y-105381254D02*
X111958795Y-105190778D01*
X111958795Y-105190778D02*
X111958795Y-104952683D01*
X111958795Y-104952683D02*
X111911176Y-104762207D01*
X111911176Y-104762207D02*
X111863557Y-104666969D01*
X111863557Y-104666969D02*
X111815938Y-104619350D01*
X111815938Y-104619350D02*
X111720700Y-104571731D01*
X110768319Y-104571731D02*
X110673081Y-104571731D01*
X110673081Y-104571731D02*
X110577843Y-104619350D01*
X110577843Y-104619350D02*
X110530224Y-104666969D01*
X110530224Y-104666969D02*
X110482605Y-104762207D01*
X110482605Y-104762207D02*
X110434986Y-104952683D01*
X110434986Y-104952683D02*
X110434986Y-105190778D01*
X110434986Y-105190778D02*
X110482605Y-105381254D01*
X110482605Y-105381254D02*
X110530224Y-105476492D01*
X110530224Y-105476492D02*
X110577843Y-105524112D01*
X110577843Y-105524112D02*
X110673081Y-105571731D01*
X110673081Y-105571731D02*
X110768319Y-105571731D01*
X110768319Y-105571731D02*
X110863557Y-105524112D01*
X110863557Y-105524112D02*
X110911176Y-105476492D01*
X110911176Y-105476492D02*
X110958795Y-105381254D01*
X110958795Y-105381254D02*
X111006414Y-105190778D01*
X111006414Y-105190778D02*
X111006414Y-104952683D01*
X111006414Y-104952683D02*
X110958795Y-104762207D01*
X110958795Y-104762207D02*
X110911176Y-104666969D01*
X110911176Y-104666969D02*
X110863557Y-104619350D01*
X110863557Y-104619350D02*
X110768319Y-104571731D01*
X110054033Y-104666969D02*
X110006414Y-104619350D01*
X110006414Y-104619350D02*
X109911176Y-104571731D01*
X109911176Y-104571731D02*
X109673081Y-104571731D01*
X109673081Y-104571731D02*
X109577843Y-104619350D01*
X109577843Y-104619350D02*
X109530224Y-104666969D01*
X109530224Y-104666969D02*
X109482605Y-104762207D01*
X109482605Y-104762207D02*
X109482605Y-104857445D01*
X109482605Y-104857445D02*
X109530224Y-105000302D01*
X109530224Y-105000302D02*
X110101652Y-105571731D01*
X110101652Y-105571731D02*
X109482605Y-105571731D01*
X114958795Y-106071731D02*
X114958795Y-106881254D01*
X114958795Y-106881254D02*
X114911176Y-106976492D01*
X114911176Y-106976492D02*
X114863557Y-107024112D01*
X114863557Y-107024112D02*
X114768319Y-107071731D01*
X114768319Y-107071731D02*
X114577843Y-107071731D01*
X114577843Y-107071731D02*
X114482605Y-107024112D01*
X114482605Y-107024112D02*
X114434986Y-106976492D01*
X114434986Y-106976492D02*
X114387367Y-106881254D01*
X114387367Y-106881254D02*
X114387367Y-106071731D01*
X113387367Y-107071731D02*
X113958795Y-107071731D01*
X113673081Y-107071731D02*
X113673081Y-106071731D01*
X113673081Y-106071731D02*
X113768319Y-106214588D01*
X113768319Y-106214588D02*
X113863557Y-106309826D01*
X113863557Y-106309826D02*
X113958795Y-106357445D01*
X205238095Y-98489180D02*
X205904761Y-98489180D01*
X205904761Y-98489180D02*
X205476190Y-97489180D01*
X206428571Y-98060609D02*
X206333333Y-98108228D01*
X206333333Y-98108228D02*
X206285714Y-98155847D01*
X206285714Y-98155847D02*
X206238095Y-98251085D01*
X206238095Y-98251085D02*
X206238095Y-98298704D01*
X206238095Y-98298704D02*
X206285714Y-98393942D01*
X206285714Y-98393942D02*
X206333333Y-98441561D01*
X206333333Y-98441561D02*
X206428571Y-98489180D01*
X206428571Y-98489180D02*
X206619047Y-98489180D01*
X206619047Y-98489180D02*
X206714285Y-98441561D01*
X206714285Y-98441561D02*
X206761904Y-98393942D01*
X206761904Y-98393942D02*
X206809523Y-98298704D01*
X206809523Y-98298704D02*
X206809523Y-98251085D01*
X206809523Y-98251085D02*
X206761904Y-98155847D01*
X206761904Y-98155847D02*
X206714285Y-98108228D01*
X206714285Y-98108228D02*
X206619047Y-98060609D01*
X206619047Y-98060609D02*
X206428571Y-98060609D01*
X206428571Y-98060609D02*
X206333333Y-98012990D01*
X206333333Y-98012990D02*
X206285714Y-97965371D01*
X206285714Y-97965371D02*
X206238095Y-97870133D01*
X206238095Y-97870133D02*
X206238095Y-97679657D01*
X206238095Y-97679657D02*
X206285714Y-97584419D01*
X206285714Y-97584419D02*
X206333333Y-97536800D01*
X206333333Y-97536800D02*
X206428571Y-97489180D01*
X206428571Y-97489180D02*
X206619047Y-97489180D01*
X206619047Y-97489180D02*
X206714285Y-97536800D01*
X206714285Y-97536800D02*
X206761904Y-97584419D01*
X206761904Y-97584419D02*
X206809523Y-97679657D01*
X206809523Y-97679657D02*
X206809523Y-97870133D01*
X206809523Y-97870133D02*
X206761904Y-97965371D01*
X206761904Y-97965371D02*
X206714285Y-98012990D01*
X206714285Y-98012990D02*
X206619047Y-98060609D01*
X207761904Y-97489180D02*
X207190476Y-97489180D01*
X207476190Y-97489180D02*
X207476190Y-98489180D01*
X207476190Y-98489180D02*
X207380952Y-98346323D01*
X207380952Y-98346323D02*
X207285714Y-98251085D01*
X207285714Y-98251085D02*
X207190476Y-98203466D01*
X208095238Y-98489180D02*
X208761904Y-98489180D01*
X208761904Y-98489180D02*
X208333333Y-97489180D01*
X209666666Y-97489180D02*
X209095238Y-97489180D01*
X209380952Y-97489180D02*
X209380952Y-98489180D01*
X209380952Y-98489180D02*
X209285714Y-98346323D01*
X209285714Y-98346323D02*
X209190476Y-98251085D01*
X209190476Y-98251085D02*
X209095238Y-98203466D01*
X210095238Y-97870133D02*
X210857143Y-97870133D01*
X211523809Y-98489180D02*
X211619047Y-98489180D01*
X211619047Y-98489180D02*
X211714285Y-98441561D01*
X211714285Y-98441561D02*
X211761904Y-98393942D01*
X211761904Y-98393942D02*
X211809523Y-98298704D01*
X211809523Y-98298704D02*
X211857142Y-98108228D01*
X211857142Y-98108228D02*
X211857142Y-97870133D01*
X211857142Y-97870133D02*
X211809523Y-97679657D01*
X211809523Y-97679657D02*
X211761904Y-97584419D01*
X211761904Y-97584419D02*
X211714285Y-97536800D01*
X211714285Y-97536800D02*
X211619047Y-97489180D01*
X211619047Y-97489180D02*
X211523809Y-97489180D01*
X211523809Y-97489180D02*
X211428571Y-97536800D01*
X211428571Y-97536800D02*
X211380952Y-97584419D01*
X211380952Y-97584419D02*
X211333333Y-97679657D01*
X211333333Y-97679657D02*
X211285714Y-97870133D01*
X211285714Y-97870133D02*
X211285714Y-98108228D01*
X211285714Y-98108228D02*
X211333333Y-98298704D01*
X211333333Y-98298704D02*
X211380952Y-98393942D01*
X211380952Y-98393942D02*
X211428571Y-98441561D01*
X211428571Y-98441561D02*
X211523809Y-98489180D01*
X212476190Y-98489180D02*
X212571428Y-98489180D01*
X212571428Y-98489180D02*
X212666666Y-98441561D01*
X212666666Y-98441561D02*
X212714285Y-98393942D01*
X212714285Y-98393942D02*
X212761904Y-98298704D01*
X212761904Y-98298704D02*
X212809523Y-98108228D01*
X212809523Y-98108228D02*
X212809523Y-97870133D01*
X212809523Y-97870133D02*
X212761904Y-97679657D01*
X212761904Y-97679657D02*
X212714285Y-97584419D01*
X212714285Y-97584419D02*
X212666666Y-97536800D01*
X212666666Y-97536800D02*
X212571428Y-97489180D01*
X212571428Y-97489180D02*
X212476190Y-97489180D01*
X212476190Y-97489180D02*
X212380952Y-97536800D01*
X212380952Y-97536800D02*
X212333333Y-97584419D01*
X212333333Y-97584419D02*
X212285714Y-97679657D01*
X212285714Y-97679657D02*
X212238095Y-97870133D01*
X212238095Y-97870133D02*
X212238095Y-98108228D01*
X212238095Y-98108228D02*
X212285714Y-98298704D01*
X212285714Y-98298704D02*
X212333333Y-98393942D01*
X212333333Y-98393942D02*
X212380952Y-98441561D01*
X212380952Y-98441561D02*
X212476190Y-98489180D01*
X213428571Y-98489180D02*
X213523809Y-98489180D01*
X213523809Y-98489180D02*
X213619047Y-98441561D01*
X213619047Y-98441561D02*
X213666666Y-98393942D01*
X213666666Y-98393942D02*
X213714285Y-98298704D01*
X213714285Y-98298704D02*
X213761904Y-98108228D01*
X213761904Y-98108228D02*
X213761904Y-97870133D01*
X213761904Y-97870133D02*
X213714285Y-97679657D01*
X213714285Y-97679657D02*
X213666666Y-97584419D01*
X213666666Y-97584419D02*
X213619047Y-97536800D01*
X213619047Y-97536800D02*
X213523809Y-97489180D01*
X213523809Y-97489180D02*
X213428571Y-97489180D01*
X213428571Y-97489180D02*
X213333333Y-97536800D01*
X213333333Y-97536800D02*
X213285714Y-97584419D01*
X213285714Y-97584419D02*
X213238095Y-97679657D01*
X213238095Y-97679657D02*
X213190476Y-97870133D01*
X213190476Y-97870133D02*
X213190476Y-98108228D01*
X213190476Y-98108228D02*
X213238095Y-98298704D01*
X213238095Y-98298704D02*
X213285714Y-98393942D01*
X213285714Y-98393942D02*
X213333333Y-98441561D01*
X213333333Y-98441561D02*
X213428571Y-98489180D01*
X214142857Y-98393942D02*
X214190476Y-98441561D01*
X214190476Y-98441561D02*
X214285714Y-98489180D01*
X214285714Y-98489180D02*
X214523809Y-98489180D01*
X214523809Y-98489180D02*
X214619047Y-98441561D01*
X214619047Y-98441561D02*
X214666666Y-98393942D01*
X214666666Y-98393942D02*
X214714285Y-98298704D01*
X214714285Y-98298704D02*
X214714285Y-98203466D01*
X214714285Y-98203466D02*
X214666666Y-98060609D01*
X214666666Y-98060609D02*
X214095238Y-97489180D01*
X214095238Y-97489180D02*
X214714285Y-97489180D01*
X208238095Y-96989180D02*
X208809523Y-96989180D01*
X208523809Y-95989180D02*
X208523809Y-96989180D01*
X209714285Y-95989180D02*
X209380952Y-96465371D01*
X209142857Y-95989180D02*
X209142857Y-96989180D01*
X209142857Y-96989180D02*
X209523809Y-96989180D01*
X209523809Y-96989180D02*
X209619047Y-96941561D01*
X209619047Y-96941561D02*
X209666666Y-96893942D01*
X209666666Y-96893942D02*
X209714285Y-96798704D01*
X209714285Y-96798704D02*
X209714285Y-96655847D01*
X209714285Y-96655847D02*
X209666666Y-96560609D01*
X209666666Y-96560609D02*
X209619047Y-96512990D01*
X209619047Y-96512990D02*
X209523809Y-96465371D01*
X209523809Y-96465371D02*
X209142857Y-96465371D01*
X210714285Y-95989180D02*
X210380952Y-96465371D01*
X210142857Y-95989180D02*
X210142857Y-96989180D01*
X210142857Y-96989180D02*
X210523809Y-96989180D01*
X210523809Y-96989180D02*
X210619047Y-96941561D01*
X210619047Y-96941561D02*
X210666666Y-96893942D01*
X210666666Y-96893942D02*
X210714285Y-96798704D01*
X210714285Y-96798704D02*
X210714285Y-96655847D01*
X210714285Y-96655847D02*
X210666666Y-96560609D01*
X210666666Y-96560609D02*
X210619047Y-96512990D01*
X210619047Y-96512990D02*
X210523809Y-96465371D01*
X210523809Y-96465371D02*
X210142857Y-96465371D01*
X211666666Y-95989180D02*
X211095238Y-95989180D01*
X211380952Y-95989180D02*
X211380952Y-96989180D01*
X211380952Y-96989180D02*
X211285714Y-96846323D01*
X211285714Y-96846323D02*
X211190476Y-96751085D01*
X211190476Y-96751085D02*
X211095238Y-96703466D01*
D11*
X201247163Y-98084783D02*
X201266211Y-98065735D01*
X201266211Y-98065735D02*
X201285258Y-98008593D01*
X201285258Y-98008593D02*
X201285258Y-97970497D01*
X201285258Y-97970497D02*
X201266211Y-97913354D01*
X201266211Y-97913354D02*
X201228115Y-97875259D01*
X201228115Y-97875259D02*
X201190020Y-97856212D01*
X201190020Y-97856212D02*
X201113830Y-97837164D01*
X201113830Y-97837164D02*
X201056687Y-97837164D01*
X201056687Y-97837164D02*
X200980496Y-97856212D01*
X200980496Y-97856212D02*
X200942401Y-97875259D01*
X200942401Y-97875259D02*
X200904306Y-97913354D01*
X200904306Y-97913354D02*
X200885258Y-97970497D01*
X200885258Y-97970497D02*
X200885258Y-98008593D01*
X200885258Y-98008593D02*
X200904306Y-98065735D01*
X200904306Y-98065735D02*
X200923353Y-98084783D01*
X201285258Y-98275259D02*
X201285258Y-98351450D01*
X201285258Y-98351450D02*
X201266211Y-98389545D01*
X201266211Y-98389545D02*
X201247163Y-98408593D01*
X201247163Y-98408593D02*
X201190020Y-98446688D01*
X201190020Y-98446688D02*
X201113830Y-98465735D01*
X201113830Y-98465735D02*
X200961449Y-98465735D01*
X200961449Y-98465735D02*
X200923353Y-98446688D01*
X200923353Y-98446688D02*
X200904306Y-98427640D01*
X200904306Y-98427640D02*
X200885258Y-98389545D01*
X200885258Y-98389545D02*
X200885258Y-98313354D01*
X200885258Y-98313354D02*
X200904306Y-98275259D01*
X200904306Y-98275259D02*
X200923353Y-98256212D01*
X200923353Y-98256212D02*
X200961449Y-98237164D01*
X200961449Y-98237164D02*
X201056687Y-98237164D01*
X201056687Y-98237164D02*
X201094782Y-98256212D01*
X201094782Y-98256212D02*
X201113830Y-98275259D01*
X201113830Y-98275259D02*
X201132877Y-98313354D01*
X201132877Y-98313354D02*
X201132877Y-98389545D01*
X201132877Y-98389545D02*
X201113830Y-98427640D01*
X201113830Y-98427640D02*
X201094782Y-98446688D01*
X201094782Y-98446688D02*
X201056687Y-98465735D01*
D12*
X199196327Y-106943114D02*
X199196327Y-95743114D01*
X199196327Y-95743114D02*
X199196327Y-90343114D01*
X199196327Y-95743114D02*
X185996327Y-95743114D01*
X199196327Y-90343114D02*
X185996327Y-90343114D01*
X185996327Y-106943114D02*
X199196327Y-106943114D01*
X185996327Y-95743114D02*
X185996327Y-106943114D01*
X185996327Y-90343114D02*
X185996327Y-95743114D01*
D13*
X200046327Y-97343114D02*
G75*
G03*
X200046327Y-97343114I-100000J0D01*
G01*
D14*
X200703331Y-98951450D02*
X201503331Y-98951450D01*
X201503331Y-98951450D02*
X201503331Y-97351450D01*
X200703331Y-97351450D02*
X200703331Y-98951450D01*
X201503331Y-97351450D02*
X200703331Y-97351450D01*
X202523331Y-98252000D02*
X202223331Y-98252000D01*
X202223331Y-98252000D02*
X202223331Y-98852000D01*
X202523331Y-98852000D02*
X202523331Y-98252000D01*
X202223331Y-98852000D02*
X202523331Y-98852000D01*
M02*
