G04 #@! TF.GenerationSoftware,KiCad,Pcbnew,7.0.6*
G04 #@! TF.CreationDate,2023-08-31T16:45:56-07:00*
G04 #@! TF.ProjectId,sgpp_main_pcb,73677070-5f6d-4616-996e-5f7063622e6b,1*
G04 #@! TF.SameCoordinates,Original*
G04 #@! TF.FileFunction,Paste,Top*
G04 #@! TF.FilePolarity,Positive*
%FSLAX46Y46*%
G04 Gerber Fmt 4.6, Leading zero omitted, Abs format (unit mm)*
G04 Created by KiCad (PCBNEW 7.0.6) date 2023-08-31 16:45:56*
%MOMM*%
%LPD*%
G01*
G04 APERTURE LIST*
G04 Aperture macros list*
%AMRoundRect*
0 Rectangle with rounded corners*
0 $1 Rounding radius*
0 $2 $3 $4 $5 $6 $7 $8 $9 X,Y pos of 4 corners*
0 Add a 4 corners polygon primitive as box body*
4,1,4,$2,$3,$4,$5,$6,$7,$8,$9,$2,$3,0*
0 Add four circle primitives for the rounded corners*
1,1,$1+$1,$2,$3*
1,1,$1+$1,$4,$5*
1,1,$1+$1,$6,$7*
1,1,$1+$1,$8,$9*
0 Add four rect primitives between the rounded corners*
20,1,$1+$1,$2,$3,$4,$5,0*
20,1,$1+$1,$4,$5,$6,$7,0*
20,1,$1+$1,$6,$7,$8,$9,0*
20,1,$1+$1,$8,$9,$2,$3,0*%
%AMFreePoly0*
4,1,13,0.900000,0.500000,2.600000,0.500000,2.600000,-0.500000,0.900000,-0.500000,0.400000,-1.000000,-0.400000,-1.000000,-0.900000,-0.500000,-2.600000,-0.500000,-2.600000,0.500000,-0.900000,0.500000,-0.400000,1.000000,0.400000,1.000000,0.900000,0.500000,0.900000,0.500000,$1*%
G04 Aperture macros list end*
%ADD10RoundRect,0.079500X-0.079500X-0.100500X0.079500X-0.100500X0.079500X0.100500X-0.079500X0.100500X0*%
%ADD11RoundRect,0.140000X0.140000X0.170000X-0.140000X0.170000X-0.140000X-0.170000X0.140000X-0.170000X0*%
%ADD12RoundRect,0.079500X0.100500X-0.079500X0.100500X0.079500X-0.100500X0.079500X-0.100500X-0.079500X0*%
%ADD13RoundRect,0.079500X0.079500X0.100500X-0.079500X0.100500X-0.079500X-0.100500X0.079500X-0.100500X0*%
%ADD14RoundRect,0.079500X-0.100500X0.079500X-0.100500X-0.079500X0.100500X-0.079500X0.100500X0.079500X0*%
%ADD15RoundRect,0.250000X-0.250000X-0.250000X0.250000X-0.250000X0.250000X0.250000X-0.250000X0.250000X0*%
%ADD16RoundRect,0.150000X-0.587500X-0.150000X0.587500X-0.150000X0.587500X0.150000X-0.587500X0.150000X0*%
%ADD17R,0.550000X0.550000*%
%ADD18RoundRect,0.249999X0.395001X-0.395001X0.395001X0.395001X-0.395001X0.395001X-0.395001X-0.395001X0*%
%ADD19RoundRect,0.050000X0.050000X-0.387500X0.050000X0.387500X-0.050000X0.387500X-0.050000X-0.387500X0*%
%ADD20RoundRect,0.050000X0.387500X-0.050000X0.387500X0.050000X-0.387500X0.050000X-0.387500X-0.050000X0*%
%ADD21R,0.300000X0.400000*%
%ADD22R,1.600000X0.200000*%
%ADD23RoundRect,0.250000X-0.250000X0.250000X-0.250000X-0.250000X0.250000X-0.250000X0.250000X0.250000X0*%
%ADD24R,0.500000X0.550000*%
%ADD25RoundRect,0.250000X0.250000X-0.250000X0.250000X0.250000X-0.250000X0.250000X-0.250000X-0.250000X0*%
%ADD26R,0.400000X0.650000*%
%ADD27R,0.550000X0.500000*%
%ADD28RoundRect,0.250001X0.624999X-0.462499X0.624999X0.462499X-0.624999X0.462499X-0.624999X-0.462499X0*%
%ADD29RoundRect,0.250000X-0.450000X-0.425000X0.450000X-0.425000X0.450000X0.425000X-0.450000X0.425000X0*%
%ADD30R,1.300000X0.600000*%
%ADD31R,2.300000X3.200000*%
%ADD32R,1.900000X0.400000*%
%ADD33RoundRect,0.225000X-0.225000X-0.250000X0.225000X-0.250000X0.225000X0.250000X-0.225000X0.250000X0*%
%ADD34RoundRect,0.225000X0.250000X-0.225000X0.250000X0.225000X-0.250000X0.225000X-0.250000X-0.225000X0*%
%ADD35R,0.700000X1.500000*%
%ADD36FreePoly0,90.000000*%
%ADD37RoundRect,0.250001X-0.624999X0.462499X-0.624999X-0.462499X0.624999X-0.462499X0.624999X0.462499X0*%
%ADD38RoundRect,0.050000X0.075000X-0.225000X0.075000X0.225000X-0.075000X0.225000X-0.075000X-0.225000X0*%
%ADD39RoundRect,0.050000X0.050000X-0.225000X0.050000X0.225000X-0.050000X0.225000X-0.050000X-0.225000X0*%
%ADD40RoundRect,0.050000X0.250000X-0.100000X0.250000X0.100000X-0.250000X0.100000X-0.250000X-0.100000X0*%
G04 APERTURE END LIST*
D10*
X129761617Y-84757101D03*
X130451617Y-84757101D03*
D11*
X134970617Y-84868934D03*
X134010617Y-84868934D03*
D12*
X133934200Y-87213000D03*
X133934200Y-86523000D03*
X133225057Y-84025021D03*
X133225057Y-83335021D03*
D13*
X130451617Y-85519101D03*
X129761617Y-85519101D03*
D14*
X131256387Y-86444101D03*
X131256387Y-87134101D03*
D15*
X127502600Y-88468200D03*
X130002600Y-88468200D03*
D16*
X162613100Y-115618562D03*
X162613100Y-117518562D03*
X164488100Y-116568562D03*
D17*
X190625000Y-99482425D03*
X191575000Y-99482425D03*
X191575000Y-98532425D03*
X190625000Y-98532425D03*
X108425000Y-100562425D03*
X109375000Y-100562425D03*
X109375000Y-99612425D03*
X108425000Y-99612425D03*
D18*
X160395680Y-92895353D03*
X161995680Y-92895353D03*
X160395680Y-91295353D03*
X161995680Y-91295353D03*
D19*
X158595680Y-95532853D03*
X158995680Y-95532853D03*
X159395680Y-95532853D03*
X159795680Y-95532853D03*
X160195680Y-95532853D03*
X160595680Y-95532853D03*
X160995680Y-95532853D03*
X161395680Y-95532853D03*
X161795680Y-95532853D03*
X162195680Y-95532853D03*
X162595680Y-95532853D03*
X162995680Y-95532853D03*
X163395680Y-95532853D03*
X163795680Y-95532853D03*
D20*
X164633180Y-94695353D03*
X164633180Y-94295353D03*
X164633180Y-93895353D03*
X164633180Y-93495353D03*
X164633180Y-93095353D03*
X164633180Y-92695353D03*
X164633180Y-92295353D03*
X164633180Y-91895353D03*
X164633180Y-91495353D03*
X164633180Y-91095353D03*
X164633180Y-90695353D03*
X164633180Y-90295353D03*
X164633180Y-89895353D03*
X164633180Y-89495353D03*
D19*
X163795680Y-88657853D03*
X163395680Y-88657853D03*
X162995680Y-88657853D03*
X162595680Y-88657853D03*
X162195680Y-88657853D03*
X161795680Y-88657853D03*
X161395680Y-88657853D03*
X160995680Y-88657853D03*
X160595680Y-88657853D03*
X160195680Y-88657853D03*
X159795680Y-88657853D03*
X159395680Y-88657853D03*
X158995680Y-88657853D03*
X158595680Y-88657853D03*
D20*
X157758180Y-89495353D03*
X157758180Y-89895353D03*
X157758180Y-90295353D03*
X157758180Y-90695353D03*
X157758180Y-91095353D03*
X157758180Y-91495353D03*
X157758180Y-91895353D03*
X157758180Y-92295353D03*
X157758180Y-92695353D03*
X157758180Y-93095353D03*
X157758180Y-93495353D03*
X157758180Y-93895353D03*
X157758180Y-94295353D03*
X157758180Y-94695353D03*
D12*
X169113200Y-114899000D03*
X169113200Y-114209000D03*
D14*
X169900600Y-114209000D03*
X169900600Y-114899000D03*
D17*
X177125000Y-109982425D03*
X178075000Y-109982425D03*
X178075000Y-109032425D03*
X177125000Y-109032425D03*
D21*
X153603839Y-95730818D03*
X154103839Y-95730818D03*
X154603839Y-95730818D03*
X155103839Y-95730818D03*
X155103839Y-93330818D03*
X154603839Y-93330818D03*
X154103839Y-93330818D03*
X153603839Y-93330818D03*
D22*
X154353839Y-94530818D03*
D13*
X168569200Y-95072200D03*
X167879200Y-95072200D03*
D23*
X173049078Y-85243791D03*
X173049078Y-87743791D03*
D17*
X132525000Y-113962425D03*
X133475000Y-113962425D03*
X133475000Y-113012425D03*
X132525000Y-113012425D03*
D23*
X161702814Y-80976323D03*
X161702814Y-83476323D03*
D14*
X161185407Y-117887482D03*
X161185407Y-118577482D03*
D24*
X167278000Y-98243000D03*
X166478000Y-98243000D03*
X167278000Y-100893000D03*
X166478000Y-100893000D03*
D12*
X166283024Y-85593716D03*
X166283024Y-84903716D03*
X162357100Y-98078897D03*
X162357100Y-97388897D03*
D25*
X135665956Y-82558529D03*
X135665956Y-80058529D03*
D12*
X157906304Y-87150125D03*
X157906304Y-86460125D03*
D10*
X137733163Y-93294934D03*
X138423163Y-93294934D03*
D14*
X164796362Y-79673927D03*
X164796362Y-80363927D03*
D12*
X158352939Y-97534723D03*
X158352939Y-96844723D03*
X152810910Y-93343611D03*
X152810910Y-92653611D03*
D26*
X149819674Y-98621320D03*
X149169674Y-98621320D03*
X148519674Y-98621320D03*
X148519674Y-100521320D03*
X149169674Y-100521320D03*
X149819674Y-100521320D03*
D13*
X148122200Y-89916000D03*
X147432200Y-89916000D03*
D17*
X113025000Y-105132425D03*
X113975000Y-105132425D03*
X113975000Y-104182425D03*
X113025000Y-104182425D03*
D10*
X151381885Y-87373476D03*
X152071885Y-87373476D03*
D16*
X162613100Y-119039600D03*
X162613100Y-120939600D03*
X164488100Y-119989600D03*
D27*
X142693000Y-92818000D03*
X142693000Y-93618000D03*
X145343000Y-92818000D03*
X145343000Y-93618000D03*
D10*
X162189600Y-85242400D03*
X162879600Y-85242400D03*
X155595853Y-91341188D03*
X156285853Y-91341188D03*
D28*
X170922381Y-87522240D03*
X170922381Y-84547240D03*
D17*
X148025000Y-113962425D03*
X148975000Y-113962425D03*
X148975000Y-113012425D03*
X148025000Y-113012425D03*
D12*
X153644600Y-97576200D03*
X153644600Y-96886200D03*
D14*
X167582546Y-79657900D03*
X167582546Y-80347900D03*
D26*
X144189674Y-98621320D03*
X143539674Y-98621320D03*
X142889674Y-98621320D03*
X142889674Y-100521320D03*
X143539674Y-100521320D03*
X144189674Y-100521320D03*
D17*
X108425000Y-109732425D03*
X109375000Y-109732425D03*
X109375000Y-108782425D03*
X108425000Y-108782425D03*
D29*
X133642607Y-93993901D03*
X136342607Y-93993901D03*
D30*
X174140965Y-120693298D03*
X174140965Y-119693298D03*
X174140965Y-118693298D03*
X174140965Y-117693298D03*
X174140965Y-116693298D03*
X168640965Y-116693298D03*
X168640965Y-117693298D03*
X168640965Y-118693298D03*
X168640965Y-119693298D03*
X168640965Y-120693298D03*
D31*
X171390965Y-118693298D03*
D26*
X141395674Y-98594320D03*
X140745674Y-98594320D03*
X140095674Y-98594320D03*
X140095674Y-100494320D03*
X140745674Y-100494320D03*
X141395674Y-100494320D03*
D13*
X167518180Y-90339353D03*
X166828180Y-90339353D03*
D10*
X155595853Y-90593353D03*
X156285853Y-90593353D03*
D12*
X144018000Y-81371000D03*
X144018000Y-80681000D03*
D32*
X168376600Y-93763800D03*
X168376600Y-92563800D03*
X168376600Y-91363800D03*
D33*
X136842200Y-85699600D03*
X138392200Y-85699600D03*
D12*
X167581248Y-85608783D03*
X167581248Y-84918783D03*
D14*
X166256061Y-79677188D03*
X166256061Y-80367188D03*
D13*
X166952409Y-120696962D03*
X166262409Y-120696962D03*
D10*
X155592393Y-89831353D03*
X156282393Y-89831353D03*
D26*
X146983674Y-98621320D03*
X146333674Y-98621320D03*
X145683674Y-98621320D03*
X145683674Y-100521320D03*
X146333674Y-100521320D03*
X146983674Y-100521320D03*
D14*
X170027600Y-91374400D03*
X170027600Y-92064400D03*
D12*
X164787763Y-85588797D03*
X164787763Y-84898797D03*
X157137453Y-87151612D03*
X157137453Y-86461612D03*
X147968546Y-87374825D03*
X147968546Y-86684825D03*
D34*
X133578316Y-92150351D03*
X133578316Y-90600351D03*
D26*
X166284012Y-83575538D03*
X166934012Y-83575538D03*
X167584012Y-83575538D03*
X167584012Y-81675538D03*
X166934012Y-81675538D03*
X166284012Y-81675538D03*
D17*
X190625000Y-120482425D03*
X191575000Y-120482425D03*
X191575000Y-119532425D03*
X190625000Y-119532425D03*
D14*
X155956000Y-80681000D03*
X155956000Y-81371000D03*
X165880287Y-115834600D03*
X165880287Y-116524600D03*
D35*
X135398757Y-91846440D03*
D36*
X136898757Y-89996440D03*
D35*
X138398757Y-91846440D03*
X138398757Y-88146440D03*
X135398757Y-88146440D03*
D12*
X161185407Y-120842600D03*
X161185407Y-120152600D03*
D17*
X204125000Y-109982425D03*
X205075000Y-109982425D03*
X205075000Y-109032425D03*
X204125000Y-109032425D03*
D26*
X163490012Y-83575538D03*
X164140012Y-83575538D03*
X164790012Y-83575538D03*
X164790012Y-81675538D03*
X164140012Y-81675538D03*
X163490012Y-81675538D03*
D17*
X103825000Y-105132425D03*
X104775000Y-105132425D03*
X104775000Y-104182425D03*
X103825000Y-104182425D03*
D37*
X137814537Y-80258662D03*
X137814537Y-83233662D03*
D38*
X149250546Y-89448000D03*
D39*
X149750546Y-89448000D03*
X150250546Y-89448000D03*
D38*
X150750546Y-89448000D03*
D40*
X150900546Y-88773000D03*
D38*
X150750546Y-88098000D03*
D39*
X150250546Y-88098000D03*
X149750546Y-88098000D03*
D38*
X149250546Y-88098000D03*
D40*
X149100546Y-88773000D03*
D14*
X148730546Y-86684825D03*
X148730546Y-87374825D03*
M02*
