G04 #@! TF.GenerationSoftware,KiCad,Pcbnew,7.0.6*
G04 #@! TF.CreationDate,2023-08-31T16:45:56-07:00*
G04 #@! TF.ProjectId,sgpp_main_pcb,73677070-5f6d-4616-996e-5f7063622e6b,1*
G04 #@! TF.SameCoordinates,Original*
G04 #@! TF.FileFunction,Other,User*
%FSLAX46Y46*%
G04 Gerber Fmt 4.6, Leading zero omitted, Abs format (unit mm)*
G04 Created by KiCad (PCBNEW 7.0.6) date 2023-08-31 16:45:56*
%MOMM*%
%LPD*%
G01*
G04 APERTURE LIST*
%ADD10C,0.050000*%
G04 APERTURE END LIST*
D10*
X129406617Y-84407101D02*
X130806617Y-84407101D01*
X129406617Y-85107101D02*
X129406617Y-84407101D01*
X130806617Y-84407101D02*
X130806617Y-85107101D01*
X130806617Y-85107101D02*
X129406617Y-85107101D01*
X135400617Y-85328934D02*
X133580617Y-85328934D01*
X135400617Y-84408934D02*
X135400617Y-85328934D01*
X133580617Y-85328934D02*
X133580617Y-84408934D01*
X133580617Y-84408934D02*
X135400617Y-84408934D01*
X133584200Y-87568000D02*
X133584200Y-86168000D01*
X134284200Y-87568000D02*
X133584200Y-87568000D01*
X133584200Y-86168000D02*
X134284200Y-86168000D01*
X134284200Y-86168000D02*
X134284200Y-87568000D01*
X132875057Y-84380021D02*
X132875057Y-82980021D01*
X133575057Y-84380021D02*
X132875057Y-84380021D01*
X132875057Y-82980021D02*
X133575057Y-82980021D01*
X133575057Y-82980021D02*
X133575057Y-84380021D01*
X130806617Y-85869101D02*
X129406617Y-85869101D01*
X130806617Y-85169101D02*
X130806617Y-85869101D01*
X129406617Y-85869101D02*
X129406617Y-85169101D01*
X129406617Y-85169101D02*
X130806617Y-85169101D01*
X131606387Y-86089101D02*
X131606387Y-87489101D01*
X130906387Y-86089101D02*
X131606387Y-86089101D01*
X131606387Y-87489101D02*
X130906387Y-87489101D01*
X130906387Y-87489101D02*
X130906387Y-86089101D01*
X126752600Y-87518200D02*
X126752600Y-89418200D01*
X126752600Y-87518200D02*
X130752600Y-87518200D01*
X126752600Y-89418200D02*
X130752600Y-89418200D01*
X130752600Y-87518200D02*
X130752600Y-89418200D01*
X161630600Y-114868562D02*
X161630600Y-118268562D01*
X161630600Y-118268562D02*
X165470600Y-118268562D01*
X165470600Y-114868562D02*
X161630600Y-114868562D01*
X165470600Y-118268562D02*
X165470600Y-114868562D01*
X157075680Y-96215353D02*
X165315680Y-96215353D01*
X165315680Y-96215353D02*
X165315680Y-87975353D01*
X157075680Y-87975353D02*
X157075680Y-96215353D01*
X165315680Y-87975353D02*
X157075680Y-87975353D01*
X168763200Y-115254000D02*
X168763200Y-113854000D01*
X169463200Y-115254000D02*
X168763200Y-115254000D01*
X168763200Y-113854000D02*
X169463200Y-113854000D01*
X169463200Y-113854000D02*
X169463200Y-115254000D01*
X170250600Y-113854000D02*
X170250600Y-115254000D01*
X169550600Y-113854000D02*
X170250600Y-113854000D01*
X170250600Y-115254000D02*
X169550600Y-115254000D01*
X169550600Y-115254000D02*
X169550600Y-113854000D01*
X168924200Y-95422200D02*
X167524200Y-95422200D01*
X168924200Y-94722200D02*
X168924200Y-95422200D01*
X167524200Y-95422200D02*
X167524200Y-94722200D01*
X167524200Y-94722200D02*
X168924200Y-94722200D01*
X173999078Y-84493791D02*
X172099078Y-84493791D01*
X173999078Y-84493791D02*
X173999078Y-88493791D01*
X172099078Y-84493791D02*
X172099078Y-88493791D01*
X173999078Y-88493791D02*
X172099078Y-88493791D01*
X162652814Y-80226323D02*
X160752814Y-80226323D01*
X162652814Y-80226323D02*
X162652814Y-84226323D01*
X160752814Y-80226323D02*
X160752814Y-84226323D01*
X162652814Y-84226323D02*
X160752814Y-84226323D01*
X161535407Y-117532482D02*
X161535407Y-118932482D01*
X160835407Y-117532482D02*
X161535407Y-117532482D01*
X161535407Y-118932482D02*
X160835407Y-118932482D01*
X160835407Y-118932482D02*
X160835407Y-117532482D01*
X165933024Y-85948716D02*
X165933024Y-84548716D01*
X166633024Y-85948716D02*
X165933024Y-85948716D01*
X165933024Y-84548716D02*
X166633024Y-84548716D01*
X166633024Y-84548716D02*
X166633024Y-85948716D01*
X162007100Y-98433897D02*
X162007100Y-97033897D01*
X162707100Y-98433897D02*
X162007100Y-98433897D01*
X162007100Y-97033897D02*
X162707100Y-97033897D01*
X162707100Y-97033897D02*
X162707100Y-98433897D01*
X134715956Y-83308529D02*
X136615956Y-83308529D01*
X134715956Y-83308529D02*
X134715956Y-79308529D01*
X136615956Y-83308529D02*
X136615956Y-79308529D01*
X134715956Y-79308529D02*
X136615956Y-79308529D01*
X157556304Y-87505125D02*
X157556304Y-86105125D01*
X158256304Y-87505125D02*
X157556304Y-87505125D01*
X157556304Y-86105125D02*
X158256304Y-86105125D01*
X158256304Y-86105125D02*
X158256304Y-87505125D01*
X137378163Y-92944934D02*
X138778163Y-92944934D01*
X137378163Y-93644934D02*
X137378163Y-92944934D01*
X138778163Y-92944934D02*
X138778163Y-93644934D01*
X138778163Y-93644934D02*
X137378163Y-93644934D01*
X165146362Y-79318927D02*
X165146362Y-80718927D01*
X164446362Y-79318927D02*
X165146362Y-79318927D01*
X165146362Y-80718927D02*
X164446362Y-80718927D01*
X164446362Y-80718927D02*
X164446362Y-79318927D01*
X158002939Y-97889723D02*
X158002939Y-96489723D01*
X158702939Y-97889723D02*
X158002939Y-97889723D01*
X158002939Y-96489723D02*
X158702939Y-96489723D01*
X158702939Y-96489723D02*
X158702939Y-97889723D01*
X152460910Y-93698611D02*
X152460910Y-92298611D01*
X153160910Y-93698611D02*
X152460910Y-93698611D01*
X152460910Y-92298611D02*
X153160910Y-92298611D01*
X153160910Y-92298611D02*
X153160910Y-93698611D01*
X160177800Y-81381600D02*
G75*
G03*
X160177800Y-81381600I-1250000J0D01*
G01*
X150569674Y-97971320D02*
X147769674Y-97971320D01*
X150569674Y-97971320D02*
X150569674Y-101171320D01*
X147769674Y-97971320D02*
X147769674Y-101171320D01*
X147769674Y-101171320D02*
X150569674Y-101171320D01*
X148477200Y-90266000D02*
X147077200Y-90266000D01*
X148477200Y-89566000D02*
X148477200Y-90266000D01*
X147077200Y-90266000D02*
X147077200Y-89566000D01*
X147077200Y-89566000D02*
X148477200Y-89566000D01*
X151026885Y-87023476D02*
X152426885Y-87023476D01*
X151026885Y-87723476D02*
X151026885Y-87023476D01*
X152426885Y-87023476D02*
X152426885Y-87723476D01*
X152426885Y-87723476D02*
X151026885Y-87723476D01*
X161630600Y-118289600D02*
X161630600Y-121689600D01*
X161630600Y-121689600D02*
X165470600Y-121689600D01*
X165470600Y-118289600D02*
X161630600Y-118289600D01*
X165470600Y-121689600D02*
X165470600Y-118289600D01*
X161834600Y-84892400D02*
X163234600Y-84892400D01*
X161834600Y-85592400D02*
X161834600Y-84892400D01*
X163234600Y-84892400D02*
X163234600Y-85592400D01*
X163234600Y-85592400D02*
X161834600Y-85592400D01*
X155240853Y-90991188D02*
X156640853Y-90991188D01*
X155240853Y-91691188D02*
X155240853Y-90991188D01*
X156640853Y-90991188D02*
X156640853Y-91691188D01*
X156640853Y-91691188D02*
X155240853Y-91691188D01*
X169802381Y-88484740D02*
X169802381Y-83584740D01*
X172042381Y-88484740D02*
X169802381Y-88484740D01*
X169802381Y-83584740D02*
X172042381Y-83584740D01*
X172042381Y-83584740D02*
X172042381Y-88484740D01*
X153294600Y-97931200D02*
X153294600Y-96531200D01*
X153994600Y-97931200D02*
X153294600Y-97931200D01*
X153294600Y-96531200D02*
X153994600Y-96531200D01*
X153994600Y-96531200D02*
X153994600Y-97931200D01*
X158171200Y-77851000D02*
G75*
G03*
X158171200Y-77851000I-1250000J0D01*
G01*
X167932546Y-79302900D02*
X167932546Y-80702900D01*
X167232546Y-79302900D02*
X167932546Y-79302900D01*
X167932546Y-80702900D02*
X167232546Y-80702900D01*
X167232546Y-80702900D02*
X167232546Y-79302900D01*
X144939674Y-97971320D02*
X142139674Y-97971320D01*
X144939674Y-97971320D02*
X144939674Y-101171320D01*
X142139674Y-97971320D02*
X142139674Y-101171320D01*
X142139674Y-101171320D02*
X144939674Y-101171320D01*
X132692607Y-92943901D02*
X137292607Y-92943901D01*
X132692607Y-95043901D02*
X132692607Y-92943901D01*
X137292607Y-92943901D02*
X137292607Y-95043901D01*
X137292607Y-95043901D02*
X132692607Y-95043901D01*
X142145674Y-97944320D02*
X139345674Y-97944320D01*
X142145674Y-97944320D02*
X142145674Y-101144320D01*
X139345674Y-97944320D02*
X139345674Y-101144320D01*
X139345674Y-101144320D02*
X142145674Y-101144320D01*
X167873180Y-90689353D02*
X166473180Y-90689353D01*
X167873180Y-89989353D02*
X167873180Y-90689353D01*
X166473180Y-90689353D02*
X166473180Y-89989353D01*
X166473180Y-89989353D02*
X167873180Y-89989353D01*
X153218200Y-84886800D02*
G75*
G03*
X153218200Y-84886800I-1250000J0D01*
G01*
X155240853Y-90243353D02*
X156640853Y-90243353D01*
X155240853Y-90943353D02*
X155240853Y-90243353D01*
X156640853Y-90243353D02*
X156640853Y-90943353D01*
X156640853Y-90943353D02*
X155240853Y-90943353D01*
X143668000Y-81726000D02*
X143668000Y-80326000D01*
X144368000Y-81726000D02*
X143668000Y-81726000D01*
X143668000Y-80326000D02*
X144368000Y-80326000D01*
X144368000Y-80326000D02*
X144368000Y-81726000D01*
X167176600Y-94313800D02*
X167176600Y-90813800D01*
X169576600Y-94313800D02*
X167176600Y-94313800D01*
X167176600Y-90813800D02*
X169576600Y-90813800D01*
X169576600Y-90813800D02*
X169576600Y-94313800D01*
X136137200Y-84969600D02*
X139097200Y-84969600D01*
X136137200Y-86429600D02*
X136137200Y-84969600D01*
X139097200Y-84969600D02*
X139097200Y-86429600D01*
X139097200Y-86429600D02*
X136137200Y-86429600D01*
X167231248Y-85963783D02*
X167231248Y-84563783D01*
X167931248Y-85963783D02*
X167231248Y-85963783D01*
X167231248Y-84563783D02*
X167931248Y-84563783D01*
X167931248Y-84563783D02*
X167931248Y-85963783D01*
X166606061Y-79322188D02*
X166606061Y-80722188D01*
X165906061Y-79322188D02*
X166606061Y-79322188D01*
X166606061Y-80722188D02*
X165906061Y-80722188D01*
X165906061Y-80722188D02*
X165906061Y-79322188D01*
X167307409Y-121046962D02*
X165907409Y-121046962D01*
X167307409Y-120346962D02*
X167307409Y-121046962D01*
X165907409Y-121046962D02*
X165907409Y-120346962D01*
X165907409Y-120346962D02*
X167307409Y-120346962D01*
X145455520Y-91015800D02*
X145455520Y-88515800D01*
X145455520Y-91015800D02*
X142155520Y-91015800D01*
X142155520Y-88515800D02*
X145455520Y-88515800D01*
X142155520Y-88515800D02*
X142155520Y-91015800D01*
X155237393Y-89481353D02*
X156637393Y-89481353D01*
X155237393Y-90181353D02*
X155237393Y-89481353D01*
X156637393Y-89481353D02*
X156637393Y-90181353D01*
X156637393Y-90181353D02*
X155237393Y-90181353D01*
X147733674Y-97971320D02*
X144933674Y-97971320D01*
X147733674Y-97971320D02*
X147733674Y-101171320D01*
X144933674Y-97971320D02*
X144933674Y-101171320D01*
X144933674Y-101171320D02*
X147733674Y-101171320D01*
X153904000Y-77825600D02*
G75*
G03*
X153904000Y-77825600I-1250000J0D01*
G01*
X176861600Y-98800800D02*
X176861600Y-93800800D01*
X176861600Y-93800800D02*
X173861600Y-93800800D01*
X173861600Y-98800800D02*
X176861600Y-98800800D01*
X173861600Y-93800800D02*
X173861600Y-98800800D01*
X170377600Y-91019400D02*
X170377600Y-92419400D01*
X169677600Y-91019400D02*
X170377600Y-91019400D01*
X170377600Y-92419400D02*
X169677600Y-92419400D01*
X169677600Y-92419400D02*
X169677600Y-91019400D01*
X164437763Y-85943797D02*
X164437763Y-84543797D01*
X165137763Y-85943797D02*
X164437763Y-85943797D01*
X164437763Y-84543797D02*
X165137763Y-84543797D01*
X165137763Y-84543797D02*
X165137763Y-85943797D01*
X156787453Y-87506612D02*
X156787453Y-86106612D01*
X157487453Y-87506612D02*
X156787453Y-87506612D01*
X156787453Y-86106612D02*
X157487453Y-86106612D01*
X157487453Y-86106612D02*
X157487453Y-87506612D01*
X147618546Y-87729825D02*
X147618546Y-86329825D01*
X148318546Y-87729825D02*
X147618546Y-87729825D01*
X147618546Y-86329825D02*
X148318546Y-86329825D01*
X148318546Y-86329825D02*
X148318546Y-87729825D01*
X132848316Y-92855351D02*
X132848316Y-89895351D01*
X134308316Y-92855351D02*
X132848316Y-92855351D01*
X132848316Y-89895351D02*
X134308316Y-89895351D01*
X134308316Y-89895351D02*
X134308316Y-92855351D01*
X165534012Y-84225538D02*
X168334012Y-84225538D01*
X165534012Y-84225538D02*
X165534012Y-81025538D01*
X168334012Y-84225538D02*
X168334012Y-81025538D01*
X168334012Y-81025538D02*
X165534012Y-81025538D01*
X156306000Y-80326000D02*
X156306000Y-81726000D01*
X155606000Y-80326000D02*
X156306000Y-80326000D01*
X156306000Y-81726000D02*
X155606000Y-81726000D01*
X155606000Y-81726000D02*
X155606000Y-80326000D01*
X145455520Y-88475800D02*
X145455520Y-85975800D01*
X145455520Y-88475800D02*
X142155520Y-88475800D01*
X142155520Y-85975800D02*
X145455520Y-85975800D01*
X142155520Y-85975800D02*
X142155520Y-88475800D01*
X166230287Y-115479600D02*
X166230287Y-116879600D01*
X165530287Y-115479600D02*
X166230287Y-115479600D01*
X166230287Y-116879600D02*
X165530287Y-116879600D01*
X165530287Y-116879600D02*
X165530287Y-115479600D01*
X139398757Y-92846440D02*
X134398757Y-92846440D01*
X139398757Y-92846440D02*
X139398757Y-87146440D01*
X134398757Y-87146440D02*
X134398757Y-92846440D01*
X134398757Y-87146440D02*
X139398757Y-87146440D01*
X149738400Y-78282800D02*
G75*
G03*
X149738400Y-78282800I-1250000J0D01*
G01*
X160835407Y-121197600D02*
X160835407Y-119797600D01*
X161535407Y-121197600D02*
X160835407Y-121197600D01*
X160835407Y-119797600D02*
X161535407Y-119797600D01*
X161535407Y-119797600D02*
X161535407Y-121197600D01*
X162740012Y-84225538D02*
X165540012Y-84225538D01*
X162740012Y-84225538D02*
X162740012Y-81025538D01*
X165540012Y-84225538D02*
X165540012Y-81025538D01*
X165540012Y-81025538D02*
X162740012Y-81025538D01*
X138934537Y-79296162D02*
X138934537Y-84196162D01*
X136694537Y-79296162D02*
X138934537Y-79296162D01*
X138934537Y-84196162D02*
X136694537Y-84196162D01*
X136694537Y-84196162D02*
X136694537Y-79296162D01*
X148550546Y-89973000D02*
X151450546Y-89973000D01*
X151450546Y-89973000D02*
X151450546Y-87573000D01*
X148550546Y-87573000D02*
X148550546Y-89973000D01*
X151450546Y-87573000D02*
X148550546Y-87573000D01*
X149080546Y-86329825D02*
X149080546Y-87729825D01*
X148380546Y-86329825D02*
X149080546Y-86329825D01*
X149080546Y-87729825D02*
X148380546Y-87729825D01*
X148380546Y-87729825D02*
X148380546Y-86329825D01*
M02*
